<svg xmlns="http://www.w3.org/2000/svg">
<defs>
<font id="UTMAvo-Italic" horiz-adv-x="1341" >
  <font-face 
    font-family="UTM Avo"
    font-weight="400"
    font-style="italic"
    font-stretch="normal"
    units-per-em="2048"
    panose-1="2 4 6 3 5 5 6 9 2 4"
    ascent="1638"
    descent="-410"
    x-height="1120"
    cap-height="1516"
    bbox="-174.001 -455 4956 2343"
    underline-thickness="109"
    underline-position="-143"
    slope="-12"
    unicode-range="U+0020-U+2026"
  />
<missing-glyph horiz-adv-x="5040" 
d="M3785 2045h10c23.333 -6.66699 32 -24 26 -52c-1.33301 -8 -16 -27 -44 -57h-28c3.33301 16 16.666 34 40 54l4 10c-1.33301 8.66699 -3.66602 13.667 -7 15h-9c-5.33301 0 -10 -6.33301 -14 -19h-30c10.667 32.667 28 49 52 49zM2447 2016l23 -31
c-2.66699 -10.667 -18.334 -20.667 -47 -30h-19l-56 12l-14 -12l-22 25c11.333 19.333 27.666 29 49 29h11l39 -11h2c6.66699 0 18 6 34 18zM889 1980h142l-13 -60h-94l-16 -75h89l-13 -59h-89l-27 -129l-6 -5h-49l69 323zM1576 1980h43l5 -5l-17 -78h30l-11 -52h-30
l-40 -188l-7 -5h-49l41 193h-25l11 52h25l17 78zM2042 1980h42l3 -5l-20 -94h3c18.667 16 38.334 24 59 24h2c38.667 0 61.334 -23.667 68 -71l-7 -39l-30 -143h-52l24 115c11.333 53.333 3 80 -25 80h-7c-28.667 0 -49 -28.667 -61 -86l-23 -109h-51l69 323zM2621 1980
l49 -0.000976562l4 -5l-48 -222c0 -34 11.667 -51 35 -51c30 4.66699 48.667 24.334 56 59.001l46 214l6 5h49l-46 -216c-12 -56.667 -42 -94 -90 -112c-11.333 -5.33301 -23.666 -8 -37 -8c-31.333 0 -54.666 18.333 -70 55c-6 16 -6.66699 35 -2 57zM2856 1980h159
l-13 -60h-56l-57 -268h-53l57 268h-55l12 55zM3042 1980l71 0.000976562c4 -2.66699 13.667 -86.334 29 -251.001h2l134 251h73l-70 -328h-54l51 242h-2l-125 -242h-44c-2.66699 0 -9 60.667 -19 182l-7 60h-3l-51 -242h-55zM4181 1980l52 -0.000976562l-70 -328h-45l-4 5
l2 11l4 2v14c-25.333 -26.667 -54.333 -40 -87 -40c-44.667 0 -71.334 30.333 -80 91l3 39l1 3c12.667 62.667 52 104.334 118 125.001l24 3c23.334 0 42 -10.667 56 -32h3zM2467 1928l36 0.00195312l2 -6l-10 -49h-45l-47 -221h-48l5 23c-20 -20.667 -42 -31 -66 -31

<glyph glyph-name=".notdef" horiz-adv-x="5040" 
d="M3785 2045h10c23.333 -6.66699 32 -24 26 -52c-1.33301 -8 -16 -27 -44 -57h-28c3.33301 16 16.666 34 40 54l4 10c-1.33301 8.66699 -3.66602 13.667 -7 15h-9c-5.33301 0 -10 -6.33301 -14 -19h-30c10.667 32.667 28 49 52 49zM2447 2016l23 -31
c-2.66699 -10.667 -18.334 -20.667 -47 -30h-19l-56 12l-14 -12l-22 25c11.333 19.333 27.666 29 49 29h11l39 -11h2c6.66699 0 18 6 34 18zM889 1980h142l-13 -60h-94l-16 -75h89l-13 -59h-89l-27 -129l-6 -5h-49l69 323zM1576 1980h43l5 -5l-17 -78h30l-11 -52h-30
l-40 -188l-7 -5h-49l41 193h-25l11 52h25l17 78zM2042 1980h42l3 -5l-20 -94h3c18.667 16 38.334 24 59 24h2c38.667 0 61.334 -23.667 68 -71l-7 -39l-30 -143h-52l24 115c11.333 53.333 3 80 -25 80h-7c-28.667 0 -49 -28.667 -61 -86l-23 -109h-51l69 323zM2621 1980
l49 -0.000976562l4 -5l-48 -222c0 -34 11.667 -51 35 -51c30 4.66699 48.667 24.334 56 59.001l46 214l6 5h49l-46 -216c-12 -56.667 -42 -94 -90 -112c-11.333 -5.33301 -23.666 -8 -37 -8c-31.333 0 -54.666 18.333 -70 55c-6 16 -6.66699 35 -2 57zM2856 1980h159
l-13 -60h-56l-57 -268h-53l57 268h-55l12 55zM3042 1980l71 0.000976562c4 -2.66699 13.667 -86.334 29 -251.001h2l134 251h73l-70 -328h-54l51 242h-2l-125 -242h-44c-2.66699 0 -9 60.667 -19 182l-7 60h-3l-51 -242h-55zM4181 1980l52 -0.000976562l-70 -328h-45l-4 5
l2 11l4 2v14c-25.333 -26.667 -54.333 -40 -87 -40c-44.667 0 -71.334 30.333 -80 91l3 39l1 3c12.667 62.667 52 104.334 118 125.001l24 3c23.334 0 42 -10.667 56 -32h3zM2467 1928l36 0.00195312l2 -6l-10 -49h-45l-47 -221h-48l5 23c-20 -20.667 -42 -31 -66 -31
c-57.333 9.33301 -80 41.666 -68 96.999l33 156h51l-22 -104c-11.333 -52.667 -8.66602 -81.334 8 -86.001l17 -5h6c17.333 0 32.666 12 46 36l9 26l28 133h53l5 25zM3886 1928l-12 -55h-31l-47 -221h-47l5 25h-2c-14.667 -22 -36 -33 -64 -33c-45.333 0 -68.333 26 -69 78
l3 29l31 146h52l-25 -120c-7.33301 -33.333 -6 -56 4 -68l20 -7h9c28 0 46.667 23 56 69l27 126h27c2.66699 0 6 9.33301 10 28l4 3h49zM1163 1905c45.333 0 73.999 -25.667 85.999 -77c4 -12 4.33301 -30 1 -54c-12.667 -58.667 -51.667 -101 -117 -127l-33 -3
c-42 0 -70.333 24.333 -85 73c-5.33301 14.667 -5.66602 32 -0.999023 52l2 10c13.333 62.667 56 104.667 128 126h19zM1416 1905h3.00098c49.333 0 69.666 -33.667 60.999 -101l-32 -152h-51l25 119c10.667 50.667 2 76 -26 76h-5c-29.333 0 -49.333 -25.333 -60 -76
l-25 -119h-52l52 245h46l-4 -21c24 19.333 46.667 29 68 29zM1871 1905l6.99805 -0.000976562c48 0 76.667 -29.667 86 -89h-60c-6.66699 20.667 -18.667 31 -36 31h-17c-37.333 -9.33301 -59.333 -29.666 -66 -60.999l-6 -15c-1.33301 -46 14.334 -69 47.001 -69h9
c14.667 0 32 9 52 27h40l3 3h3l1 -3l3 3l2 -3l3 3v-7c-33.333 -54 -75.666 -81 -126.999 -81c-50.667 0 -80.667 31.333 -90 94l4 36l1 3c12 56.667 46 96.667 102 120c11.333 5.33301 24.333 8 39 8zM3546 1905h2c32.667 0 51.667 -20 57 -60l-3 -14h-52
c2 10.667 -2.33301 16 -13 16h-4c-9.33301 0 -16.333 -4.33301 -21 -13l-3 -13c-1.33301 -6 18.667 -17.667 60 -35c17.333 -12.667 23.333 -32.334 18 -59.001c-8 -38.667 -34 -65.334 -78 -80.001l-24 -3c-48.667 8 -68 35.667 -58 83h54
c-2.66699 -13.333 4.66602 -21.666 22 -24.999h4c12.667 0 22 7.66699 28 23c3.33301 14.667 -16 29.334 -58 44.001c-18.667 18 -26 37.667 -22 59c9.33301 44 39.666 69.667 91 77zM4608 1905c36.666 0 57.666 -21 63 -63c2 -12 0 -33.667 -6 -65l-27 -125h-52l24 112
c11.334 55.333 3.66699 83 -23 83h-11c-22 0 -39 -18 -51 -54l-30 -141h-52l1 5h-2l2 2l51 238h47l-4 -21c20.666 19.333 44 29 70 29zM4837 1905h5c26.666 0 46.666 -13.333 60 -40l4 18l-2 3l5 11h47l-44 -208c-14 -64.667 -51.666 -108.667 -113 -132l-34 -4h-7
c-46.666 0 -75.666 26.667 -87 80h59c12.666 -14.667 26 -22.334 40 -23.001h13c14.666 0 30.666 7.33301 48 22c11.334 8.66699 22.334 26 33 52h-3c-27.334 -26.667 -54.667 -40 -82 -40c-38 0 -65 23.333 -81 70c-4 12 -4 33 0 63c12 58.667 49.666 100.334 113 125.001z
M4254 1897l53 -0.000976562l-29 -136c-4 -39.333 5.33398 -59 28 -59h7c30.666 0 52.333 31 65 93l22 102h51l-52 -245h-47l-1 10h3l-2 3l1 5l3 2l1 3h-4c-3.33398 -15.333 -24.667 -25.666 -64 -30.999h-3c-39.334 0 -62 25 -68 75l16 85zM1066 1771
c-2.66699 -46 13.667 -69 49 -69h7c41.333 9.33301 65.333 31 72 65l4 15c0 43.333 -15.333 65 -46 65h-5c-38.667 0 -65.667 -25.333 -81 -76zM4007 1774c-1.33301 -48 14.001 -72 46.001 -72h5c38.666 0 66 25 82 75c6.66602 32.667 -5.66699 56 -37 70h-22
c-24.667 0 -47.334 -19 -68.001 -57zM4751 1774c-4.66602 -48 12 -71.999 50 -71.999h5c40.666 8 65.333 32 74 72c8.66602 40.667 -6 65 -44 73h-14c-39.334 -10.667 -62.334 -31.334 -69 -62.001zM4272 1620h52l-12 -57h-52zM1352 1402
c26.667 -7.33301 37.334 -23.667 32.001 -49v-4c-2.66699 -11.333 -17.667 -31.333 -45 -60h-28c3.33301 16.667 17.666 35.667 42.999 57l1 7c2 8 1 13 -3 15h-12c-7.33301 -2.66699 -12 -9 -14 -19h-28l1 6c4.66699 21.333 18.667 36 42 44zM3633 1339
c61.333 0 100.333 -33.001 117 -99.001h-60c-18.667 28 -42.334 42 -71 42c-36.667 0 -70.334 -22.667 -101 -68c-10 -14.667 -16.667 -30.334 -20 -47.001c-11.333 -52 7.66699 -88.667 57 -110l18 -1c24 0 52 13 84 39h61c-43.333 -64.667 -96.333 -97 -159 -97
c-62 0 -101 37.333 -117 112c-2.66699 20.667 -1.66699 41.334 3 62.001c14 64.667 54.667 115.334 122 152.001c21.333 10 43.333 15 66 15zM3948 1339c38 0 69 -15.666 93 -46.999c24 -34 31.333 -72.333 22 -115l-4 -20c-12.667 -59.333 -53.334 -108 -122 -146
c-24 -8.66699 -46 -13 -66 -13c-59.333 0 -98.333 33.667 -117 101c-4 22 -4 42 0 60l4 18c14 65.333 57.333 115.666 130 150.999c20.667 7.33301 40.667 11 60 11zM2545 1337h2l45 -11h3c7.33301 0 16.666 3.66699 28 11l10 -36c-14.667 -12.667 -27.667 -19 -39 -19h-3
l-52 10l-21 -7l-12 36c14 10.667 27 16 39 16zM999 1334h19c78.667 0 120 -8.66699 124 -26c12.667 -17.333 16.667 -38 12 -62c-14.667 -38 -28.667 -57 -42 -57l-2 -6c28 -15.333 39 -37.333 33 -66l-4 -18c-8.66699 -42 -37.667 -71.333 -87 -88l-55 -5h-67zM2833 1334
h53l-46 -217c-4.66699 -40.667 6 -61 32 -61c19.333 0 37 13 53 39l9 30l43 203l5 6h45l4 -6l-36 -171c-16.667 -78.667 -39.667 -123 -69 -133c-19.333 -17.333 -42.333 -26 -69 -26c-36.667 0 -61.667 25.333 -75 76l8 54zM3088 1334h59c2.66699 0 26.667 -79 72 -237h4
l50 237h50l3 -6l-68 -322h-58c-12.667 32 -37.667 111.333 -75 238h-3l-50 -238h-53zM3384 1334h54l-69 -328h-54zM4142 1334l8 0.000976562c103.334 0 158.667 -13.333 166 -40c14 -7.33301 24.334 -32.333 31 -75l-4 -36l-2 -11l2 -2
c-12.666 -62.667 -50.333 -112.334 -113 -149.001c-25.334 -10 -59.334 -15 -102 -15h-55zM4424 1334h153l-12 -60h-103l-16 -75h101l-12 -57h-101l-16 -74l3 -5h99l-12 -57h-157l68 322zM3813 1175l-3 -10c-10.667 -50.667 8 -86.667 56 -108l19 -1
c45.333 0 83.666 28.667 115 86l7 20l3 15c8.66699 40.667 -4.66602 72 -40 94c-6.66699 5.33301 -19 9 -37 11c-44 0 -81.667 -27.667 -113 -83zM1041 1274l-15 -67h9c36 0 56 9.33301 60 28l6 14c-3.33301 16.667 -11 25 -23 25h-37zM4183 1274l-44 -206.001l1 -3v-2
c69.334 0 115.334 25.333 138 76l5 15l6 29c4.66602 22.667 -1 45.334 -17 68.001c-13.334 15.333 -37.667 23 -73 23h-16zM1308 1259h4.99902c25.333 0 46.333 -13.333 63 -40l7 32h49l-52 -245h-49l6 32c-29.333 -26.667 -58.666 -40 -87.999 -40
c-50 0 -76.667 32.333 -80 97l2 36c12.667 59.333 50 101 112 125zM1581 1259h3c49.333 0 70 -34 62 -102l-32 -151h-51l27 128c9.33301 44.667 0 67 -28 67h-10c-22.667 0 -40 -20.667 -52 -62l-28 -133h-52l52 245h47l-5 -21c22.667 19.333 45 29 67 29zM1810 1259h5
c30 0 51 -13.333 63 -40l7 32h47l-47 -219c-13.333 -63.333 -57 -105.333 -131 -126h-16c-49.333 0 -79.333 27.333 -90 82h59c13.333 -16.667 26 -25 38 -25h14c34.667 0 61.667 25.667 81 77c-28 -28 -56.333 -42 -85 -42c-40 0 -68 27 -84 81l2 44l4 16
c11.333 52.667 48 91.667 110 117zM2179 1259l2.00098 0.000976562c28.667 0 46.667 -12.333 54 -37h2c26 24.667 51.333 37 76 37h4c38 0 60.667 -18.333 68 -55c1.33301 -16.667 0.666016 -31.667 -2.00098 -45l-32 -153h-52l29 138c6 29.333 2.33301 47.666 -11 54.999
l-12 2h-15c-21.333 0 -38 -21.667 -50 -65l-27 -130h-52l29 136c8 39.333 -2.33301 59 -31 59h-8c-21.333 0 -37.333 -19 -48 -57l-29 -138h-54l52 245h50l-5 -21h2c7.33301 16 27.333 25.667 60 29zM2549 1259c31.333 0 53.333 -14 66 -42l8 34h47l-52 -245h-47l6 32
c-29.333 -26.667 -58 -40 -86 -40c-49.333 0 -77 30.667 -83 92l3 41c12.667 60 50 101.667 112 125zM1222 1117c-6.66699 -32 9.33301 -52.333 48 -61h4c30 0 54 15.333 72 46l6 15l5 22c0.666992 41.333 -14 62 -44 62h-14c-27.333 0 -51 -19 -71 -57zM1727 1128
c-7.33301 -32 2 -54.667 28 -68l17 -4h5c31.333 0 56.333 19 75 57l5 23c2 43.333 -12.667 65 -44 65h-12c-33.333 0 -58 -24.333 -74 -73zM2465 1131l-3 -14.001c1.33301 -40.667 16 -61 44 -61h14c40.667 8 64.667 29.333 72 64l2 11c6.66699 30 -1 51.667 -23 65l-17 5
h-10c-44 -5.33301 -70.333 -28.666 -79 -69.999zM1014 1150l-16.999 -82c-0.666992 -3.33301 1.33301 -5 6 -5c51.333 0 80 15 86 45c5.33301 22.667 -7.33398 36.667 -38.001 42h-37zM3126 752.999l18 -28l-63 -55c-10 8 -17 16.667 -21 26zM1678 726.999l74 -54
c-2 -10 -12 -24 -30 -42l-76 54c18 27.333 28.667 41.333 32 42zM2997 692.999h38l42 -60h-54l-15 26l-29 -26h-54c44.667 40 68.667 60 72 60zM3569 692.999h40l43 -60h-54l-18 26h-1c-0.666992 -3.33301 -9 -12 -25 -26h-54zM767.001 684.999l52.001 0.00195312
c5.33301 -2.66699 11.333 -48.334 18 -137.001l11 -110c7.33301 5.33301 25.666 38.666 54.999 99.999l79 147h54v-2l-181 -326h-44zM1304 685.001h51l-11 -54h-51zM1499 685.001h46l5 -5l-68 -323h-52zM2462 685.001h45l3 -5l-16 -78h31l-11 -52h-31l-41 -193h-53l41 193
h-26l11 52h26l16 78zM2570 685.001h52l-20 -98h2c18 15.333 37.333 23 58 23h3c38 0 60 -23.667 66 -71l-5 -38l-30 -144h-52l24 115c11.333 54 4 81 -22 81h-10c-28 0 -48 -29 -60 -87l-23 -109h-52zM2809 685.001h52l-11 -54h-52zM3173 685.001h44l5 -5l-16 -78h29
l-11 -52h-29l-41 -193h-54l41 193h-27l11 52h27l16 78zM3379 685.001h52l-69 -328h-52zM4102 685.001h52l-69 -328h-52zM4461 685.001h51l-11 -54h-51zM1684 610.001h5c55.333 0 85 -34 89 -102l-2 -23l-2 -11c-12 -55.333 -49 -95.333 -111 -120l-36 -5
c-50.667 0 -80.667 32.333 -90 97l2 32c14 64.667 54.333 108 121 130zM1940 610.001h4c35.333 0 57.333 -20 66 -60c0.666992 -16.667 -3 -43.667 -11 -81l-23 -112h-54l31 146c2 33.333 -7 50 -27 50h-10c-25.333 0 -43.333 -19 -54 -57l-29 -139h-54l52 245h49l-5 -21
c21.333 19.333 43 29 65 29zM2175 610.001h4.00098c30 0 48.333 -13 55 -39h3l7 31h49l-44 -206c-14.667 -68 -54 -113 -118 -135l-28 -3h-5c-48.667 0 -78.334 27 -89.001 81h52l33 -20l14 -3h14c33.333 0 58.666 24 76 72c-27.333 -26 -54.333 -39 -81 -39
c-41.333 0 -68.666 25.333 -82 76c-4 15.333 -3.66699 35.333 1 60c12 56.667 49.333 97.667 112 123zM2995 610.001l1.99902 -0.000976562c54.667 0 84.334 -34.667 89.001 -104l-3 -25l-8 -27h-172c4 -30 16 -45 36 -45l13 -3c19.333 0 37.333 7.33301 54 22h57l-1 -3
c-34 -50.667 -75.333 -76 -124 -76c-51.333 0 -81.333 32.333 -90 97l5 28l1 8c7.33301 32.667 24.333 62.334 51 89.001c28 26 58 39 90 39zM3558 610h5c27.333 0 48 -13 62 -39h2l7 31h47l-52 -245h-47l6 31h-2c-28.667 -26 -57 -39 -85 -39
c-47.333 0 -74.666 29.667 -82 89l3 36l3 14c12 57.333 48.333 97.333 109 120zM3840 610l7 -0.000976562c58.667 0 85.334 -42.667 80 -128l-2 -1l-3 -15c-9.33301 -43.333 -39 -78.666 -89 -105.999c-15.333 -7.33301 -31.333 -11 -48 -11
c-22.667 0 -41.667 10.667 -57 32l-21 -99l-6 -5h-49l69 325h49l-6 -28c25.333 24 50.666 36 76 36zM4280 609.999c29.334 0 51.667 -13 67 -39l7 31h49l-52 -245h-49l6 31c-28.666 -26 -57 -39 -85 -39c-61.334 0 -88 44 -80 132c12 56 45 96.333 99 121
c10.666 5.33301 23.333 8 38 8zM1050 601.999h50l-29 -136c-6.66699 -40 3 -60 29 -60h5c29.333 0 50.333 29 63 87l23 109h52l-52 -245h-47l5 24h-5c-3.33301 -15.333 -24.333 -26 -63 -32h-3c-36.667 0 -59.334 22.667 -68.001 68
c2.66699 23.333 8.33398 56.333 17.001 99l18 81zM1287 601.999h51l-52 -245h-51zM2792 601.999h52l-52 -245h-52zM4444 601.999h51l-52 -245h-51zM1596 487.999l-3.99805 -15.999c-0.666992 -44 14.333 -66 45 -66h4c39.333 0 66.666 25.333 81.999 76
c1.33301 47.333 -13.334 71 -44.001 71h-11c-41.333 -10.667 -65.333 -32.334 -72 -65.001zM2087 472c0.666992 -44 15.667 -66 45 -66h11c32 0 57 25 75 75v1c1.33301 47.333 -13.334 71 -44 71h-14c-26 0 -48.667 -19 -68 -57zM2912 506h122l1 2
c-4.66699 30 -21.334 45 -50 45h-7c-23.333 0 -45.333 -15.667 -66 -47zM3474 474c-1.33301 -45.333 14 -68 46 -68h5c34.667 0 60.667 21 78 63l3 12c3.33301 48 -10.667 72 -42 72h-16c-39.333 -9.33301 -62.333 -30.333 -69 -63zM3743 478
c-2 -48 13.333 -72.001 46 -72.001h3c33.333 0 59.333 20 78 60l5 22c6 28.667 -6 50.334 -36 65.001h-22c-31.333 0 -55.666 -24 -73 -72zM4195 471.999c-2.66602 -44 14.667 -66 52 -66c28.666 0 52.333 16 71 48l5 15l4 16c7.33398 36 -5.33301 58.667 -38 68h-18
c-28 0 -51.666 -20 -71 -60zM3484 320.999h51l-11 -52h-51zM4205 320.999h51l-11 -52h-51zM2761 132.999h4c23.333 0 34 -16.667 32 -50v-2c-2 -10.667 -13 -24.334 -33 -41.001l-13 -17h-28c3.33301 16.667 16.666 35.334 40 56.001l3 2v2c0.666992 12.667 -1 19 -5 19h-10
c-5.33301 0 -9.66602 -6.33301 -13 -19h-30c11.333 33.333 29 50 53 50zM1570 115.999l40 -60l-30 -19l-41 52zM369.004 78.999h4c42.667 -32 66.667 -52 72 -60l-28 -37c-52 32.667 -77.333 52 -76 58zM3507 78.999l73 -58l-26 -39c-6.66699 0 -33 18.333 -79 55
c14.667 24 25.334 38 32 42zM4594 75.999l10 -42l-102 -52l-12 39l105 58zM1215 52.999h51l-4 -19l4 -5h14l-8 -36h-14l-6 -5l-59 -279h-46l7 31c-28.667 -26.667 -58.667 -40 -90 -40c-48 0 -74.667 35 -80 105l3 26c14.667 68 57.667 111.667 129 131h14
c22 0 41.667 -11 59 -33l12 59l-5 5h-43l8 36h49zM1489 44.999h40l43 -61h-53l-17 27l-29 -27h-53zM2650 44.999h33c8 0 24.667 -20.333 50 -61h-54l-17 27c-15.333 -14 -23.666 -23 -25 -27h-58l1 4zM57.0039 36.999h160l-13 -60h-56l-57 -268h-50l-3 5l52 245l3 3v2l-1 2
l2 3l-1 2l2 3l-1 3h-54l11 54zM707.004 36.999h47.001l-16 -73l2 -2l-3 -3l-1 -3l2 -2l-3 -3v-3l1 -2v-2l-3 -3l2 -3h3c14.667 16 33.334 24 56.001 24h3c35.333 0 56.666 -19.333 63.999 -58c2.66699 -11.333 2 -25.333 -2 -42l-32 -153h-52l27 127
c9.33301 45.333 0.666016 68 -26.001 68h-8c-28.667 0 -49 -28.667 -61 -86l-23 -109h-52l68 322zM1305 36.999h47l3 -6l-10 -49h-52zM1995 36.999h52l-42 -198l94 115h62l-103 -118l63 -125v-2h-70c-3.33301 14.667 -20 53 -50 115l-24 -115h-52zM2279 36.999
l-21.001 -98.999c19.333 16 38.666 24 58 24c38 0 60.667 -18.667 68 -56c4 -12.667 1.66699 -38.334 -7 -77.001l-25 -120h-54l28 133c8.66699 41.333 -0.666016 62 -27.999 62h-11c-20.667 0 -36.667 -18.333 -48 -55l-30 -140h-53l67 314l-1 3l1 3l1 2v3l2 3h53zM2466 37
h51l-12 -55h-51zM3156 37h51l-23 -108c22.667 22 47.667 33 75 33h3c50 0 78.333 -31.333 85 -94l-3 -37c-10.667 -50 -40.667 -90 -90 -120c-21.333 -7.33301 -38.333 -11 -51 -11c-27.333 0 -48.333 13.333 -63 40l-7 -31h-47zM4283 37h52l-21 -99h2
c18.666 16 38.333 24 59 24h3c40 0 62 -24.667 66 -74l-7 -41l-29 -138h-52l24 111c11.334 54.667 6.33398 82 -15 82l-10 2h-12c-24.666 0 -42.666 -26.667 -54 -80l-24 -115h-52zM321.004 -38h3l-13 -58h-5c-28 0 -46 -19 -54 -57l-29 -138h-53l52 245h47l-4 -21
c16 19.333 34.667 29 56 29zM556.004 -38c47.333 0 69.666 -29 66.999 -87l-35 -166h-51l29 136c4 39.333 -5.66699 59 -29 59h-6c-30 0 -50.667 -28 -62 -84l-24 -111h-52l52 245h50l-4 -21c20.667 19.333 42.334 29 65.001 29zM1496 -38c48 0 76.333 -31.333 85 -94
l-4 -39c-4.66699 -16 -8.66699 -24 -12 -24h-169c4.66699 -31.333 22 -47 52 -47c16 0 33.667 7 53 21h57c-33.333 -52.667 -75 -79 -125 -79c-54.667 0 -85 35 -91 105l8 37c11.333 54 49.333 93 114 117zM2649 -38h5c51.333 0 80 -32.333 86 -97l-2 -26l-5 -21l-6 -13
h-170c5.33301 -31.333 19.666 -47 43 -47h12c14 0 29.667 7 47 21h59c-34 -52.667 -74.667 -79 -122 -79c-56 0 -87 34 -93 102l4 29c13.333 62 52.666 104.667 118 128zM2907 -38h4c36 0 57.667 -20 65 -60c1.33301 -16.667 -2 -44 -10 -82l-24 -111h-54l29 138
c6.66699 32 -1 51 -23 57h-11c-25.333 0 -43.666 -19 -55 -57l-29 -138h-54l52 245h50l-4 -21c20.667 19.333 42 29 64 29zM3500 -38h6c26.667 0 47 -13.333 61 -40h2l7 32h47l-52 -245h-47l7 31h-2c-28.667 -26.667 -57.667 -40 -87 -40c-47.333 0 -74.666 30 -82 90l4 37
l3 12c11.333 54.667 45 93.667 101 117c8.66699 4 19.334 6 32 6zM3773 -38h4c41.333 0 63 -26 65 -78l-15 -84l-19 -91h-54l29 138c6.66699 32 -2 51 -26 57h-9c-25.333 0 -43 -17.333 -53 -52l-30 -143h-54l52 245h49l-4 -21c21.333 19.333 43 29 65 29zM4125 -38h1
c49.334 0 77.334 -31 84 -93l-5 -40c-12 -58.667 -48.666 -100.667 -110 -126l-26 -3c-27.333 0 -47.666 11.333 -61 34l-22 -106h-52l69 326h47l-6 -29c25.333 24.667 52.333 37 81 37zM4706 -38h5c22.666 0 41 -12.333 55 -37c23.334 24.667 49 37 77 37h6
c37.334 0 59 -22 65 -66l-5 -51l-29 -136h-52l26 122c10 48.667 2 73 -24 73h-7c-23.334 0 -40.334 -16.667 -51 -50l-30 -140l-6 -5h-48l30 140c6 28 -0.666016 46.333 -20 55h-17c-26.666 0 -45.333 -25.667 -56 -77l-25 -118h-51l52 245h47l-4 -21
c18.666 19.333 39.333 29 62 29zM349.004 -46h49l4 -6l-50 -234l-6 -5h-49zM1287 -46h52l-52 -245h-52zM1639 -46h52l-29 -136c-6 -40 4 -60 30 -60h4c29.333 0 50 27 62 81l24 115h52l-52 -245h-47l5 24h-5c-12.667 -22 -34.667 -33 -66 -33c-34.667 0 -56.667 21 -66 63
c-1.33301 8 -0.333008 19.333 3 34zM2448 -46h51l-52 -245h-51zM4505 -46h51l-52 -245h-51zM1041 -169c-7.33301 -35.333 4.33203 -59.666 34.999 -72.999h12c36 0 62.667 22 80 66l3 10c7.33301 35.333 -6 58.666 -40 69.999h-17c-25.333 0 -48.666 -19 -69.999 -57z
M1407 -143h122c-5.33301 31.333 -19.666 47 -42.999 47h-7c-28.667 0 -52.334 -14.667 -71.001 -44zM2568 -143h122c-7.33301 31.333 -22 47 -44 47h-7c-30.667 0 -54.334 -15.667 -71 -47zM3162 -158l-2 -11c-4 -48.667 11 -73 45 -73h5c44 5.33301 70.333 29 79 71l2 5
c6 30 -2.33301 51.667 -25 65l-17 5h-14c-42 -9.33301 -66.333 -30 -73 -62zM3415 -173c-0.666992 -46 15 -69 47 -69h11c27.333 0 51.333 20 72 60l3 13c4.66699 48.667 -9 73 -41 73h-17c-31.333 0 -56 -24.333 -74 -73zM4028 -158l-4 -22
c-6.66699 -31.333 8.33301 -52 45 -62h9c33.334 0 59.334 25.333 78 76c0.666016 46.667 -14 70 -44 70h-15c-39.333 -11.333 -62.333 -32 -69 -62z" />
    <glyph glyph-name="space" unicode=" " horiz-adv-x="567" 
 />
    <glyph glyph-name="exclam" unicode="!" horiz-adv-x="604" 
d="M311 395l238 1121h152l-238 -1121h-152zM227 0l55 258h152l-55 -258h-152z" />
    <glyph glyph-name="quotedbl" unicode="&#x22;" horiz-adv-x="632" 
d="M727 909h-117l104 607h166zM407 909h-116l104 607h166z" />
    <glyph glyph-name="numbersign" unicode="#" horiz-adv-x="1134" 
d="M1080 956l-140 -397h188l-29 -137h-207l-149 -422h-141l149 422h-254l-149 -422h-142l150 422h-199l29 137h219l137 395h-219l30 140h240l149 422h142l-150 -422h254l150 422h141l-150 -422h170l-29 -138h-190zM687 956l-141 -397h252l141 397h-252z" />
    <glyph glyph-name="dollar" unicode="$" horiz-adv-x="1134" 
d="M937 190c-82.667 -76.667 -175.666 -120.335 -278.999 -131.002l-43 -202h-152l43 202c-93.333 10.667 -166.666 52.334 -219.999 125.001c-53.333 74 -70 158.667 -50 254l7 29h152c-40.667 -188.667 32.333 -283 219 -283c177.333 0 285.333 91 324 273
c18 84 4 150 -42 198c-36 36 -97 65.333 -183 88c-54.667 14.667 -100.334 30.667 -137.001 48c-42 20 -75.667 43.333 -101 70c-56.667 60.667 -73.667 146.334 -51 257.001l2 8c41.333 205.333 169.333 326.333 384 363l36 172h152l-35 -166
c207.333 -29.333 291.666 -156.333 252.999 -381h-152c35.333 165.333 -32.334 248 -203.001 248c-155.333 0 -249.666 -78.667 -282.999 -236c-16.667 -77.333 -2.66699 -135.666 42 -174.999c18.667 -16.667 44 -31.334 76 -44.001c22 -9.33301 53.667 -19.333 95 -30
c114 -32.667 196.333 -78.334 247 -137.001c60 -71.333 77.333 -165.666 52 -282.999c-21.333 -102.667 -72.333 -191.667 -153 -267z" />
    <glyph glyph-name="percent" unicode="%" horiz-adv-x="1587" 
d="M869 912c-88 -71.333 -182.666 -107 -283.999 -107c-102 0 -181.667 35.667 -239 107c-57.333 72 -75.333 158.333 -54 259c21.333 101.333 76 188 164 260c88 71.333 183 107 285 107c101.333 0 180.666 -35.667 237.999 -107c57.333 -72 75.333 -158.667 54 -260
c-21.333 -100.667 -76 -187 -164 -259zM422.001 0h-139l1190 1516h139zM1450 81c-88 -72 -183 -108 -285 -108c-101.333 0 -180.666 36 -237.999 108c-57.333 71.333 -75.333 157.666 -54 258.999c22 101.333 77 187.666 165 258.999c87.333 72 181.666 108 282.999 108
c102 0 182 -36 240 -108c57.333 -71.333 75 -157.666 53 -258.999c-21.333 -101.333 -76 -187.666 -164 -258.999zM877.001 1350c-37.333 48.667 -90.665 73 -159.998 73s-133.333 -24.333 -192 -73c-58.667 -49.333 -95.334 -109 -110.001 -179
c-14.667 -69.333 -3.33398 -128.666 33.999 -177.999c38 -48.667 91.667 -73 161 -73s133 24.333 191 73c58 49.333 94.333 108.666 109 177.999c14.667 70 3.66699 129.667 -33 179zM1458 518c-37.333 49.333 -90.999 74 -160.999 74c-69.333 0 -133.333 -24.667 -192 -74
c-57.333 -48.667 -93.666 -108 -108.999 -178c-14.667 -70 -3.33398 -129.333 33.999 -178c37.333 -49.333 90.666 -74 159.999 -74c70 0 134.333 24.667 193 74c57.333 48.667 93.333 108 108 178c15.333 70 4.33301 129.333 -33 178z" />
    <glyph glyph-name="ampersand" unicode="&#x26;" horiz-adv-x="1550" 
d="M1393 -25l-274.999 337.999c-77.333 -106 -154.333 -185.667 -231 -239c-94 -66 -194.333 -99 -301 -99c-129.333 0 -231.333 44.667 -306 134c-76 90.667 -100.333 200.334 -73 329.001c22.667 106 76.667 199 162 279c72.667 66.667 167.334 124 284.001 172
c-44 54 -73.667 101 -89 141c-22.667 55.333 -27.334 114 -14.001 176c20.667 96 75.334 176.667 164.001 242c84.667 62.667 175.667 94 273 94s174.333 -34.333 231 -103c57.333 -70 75.666 -153.667 54.999 -251c-16.667 -80 -62.334 -152.333 -137.001 -217
c-66 -56.667 -143 -99 -231 -127l227 -283l312 426h170l-394 -534l304 -373zM1091 1345c-33.333 36 -79.002 54 -137.002 54c-55.333 0 -107.666 -17.667 -156.999 -53c-51.333 -37.333 -82.666 -83.333 -93.999 -138c-10 -46 -1 -94 27 -144
c11.333 -19.333 25.666 -39.666 42.999 -60.999c12 -14.667 27.667 -32.334 47 -53.001c40.667 14.667 73 27.334 97 38.001c36 15.333 66.333 31.666 91 48.999c64 43.333 103 98.333 117 165c12.667 58 1.33398 105.667 -33.999 143zM738.999 779.999
c-92 -29.333 -171.668 -72.6689 -239.001 -130.002c-78 -65.333 -125.667 -138.666 -143 -219.999c-17.333 -84 -1.66602 -157 47.001 -219c49.333 -61.333 116 -92 200 -92s164.667 32 242 96c31.333 26 63.333 58.333 96 97c24 28.667 52.333 65.334 85 110.001z" />
    <glyph glyph-name="quotesingle" unicode="'" horiz-adv-x="718" 
d="M582 1118h-152l265 398h152z" />
    <glyph glyph-name="parenleft" unicode="(" horiz-adv-x="755" 
d="M637 -420c-78 27.333 -152.333 78.667 -223 154c-203.333 219.333 -269.333 496.333 -198 831c71.333 335.333 255.333 612.666 552 831.999c102 74.667 198 125.667 288 153l-32 -153c-159.333 -84.667 -299.666 -203 -420.999 -355c-122 -154 -200.333 -313 -235 -477
c-35.333 -166 -25.333 -325.667 30 -479c55.333 -151.333 145.666 -270.666 270.999 -357.999z" />
    <glyph glyph-name="parenright" unicode=")" horiz-adv-x="755" 
d="M228 -266c-102.667 -75.333 -198.998 -126.667 -288.998 -154l31 148c162 87.333 303 206.666 423 357.999c120.667 153.333 198.667 313 234 479c35.333 164 24.666 323 -32.001 477c-56.667 152 -146.667 270.333 -270 355l33 153c78 -27.333 152.333 -78.333 223 -153
c203.333 -219.333 269.333 -496.666 198 -831.999c-70.667 -334.667 -254.334 -611.667 -551.001 -831z" />
    <glyph glyph-name="asterisk" unicode="*" horiz-adv-x="870" 
d="M775 1171l99 -188l-111 -70l-97 193l-176 -191l-81 70l181 189l-208 69l61 115l207 -78l48 236h119l-55 -238l240 76l13 -113z" />
    <glyph glyph-name="plus" unicode="+" horiz-adv-x="1241" 
d="M785 449l-95 -449h-140l95 449h-446l30 139h446l95 448h140l-95 -448h446l-30 -139h-446z" />
    <glyph glyph-name="comma" unicode="," horiz-adv-x="567" 
d="M151 -137h-152l264 395h152z" />
    <glyph glyph-name="hyphen" unicode="-" horiz-adv-x="679" 
d="M169 508l29 137h557l-29 -137h-557z" />
    <glyph glyph-name="hyphen" unicode="&#x2010;" horiz-adv-x="679" 
d="M169 508l29 137h557l-29 -137h-557z" />
    <glyph glyph-name="period" unicode="." horiz-adv-x="567" 
d="M208 0l55 258h152l-55 -258h-152z" />
    <glyph glyph-name="slash" unicode="/" horiz-adv-x="894" 
d="M202 -205h-156l939 1721h162z" />
    <glyph glyph-name="zero" unicode="0" horiz-adv-x="1134" 
d="M1192 553c-13.333 -62.667 -31.333 -121.667 -54 -177c-26.667 -64.667 -58.334 -120.334 -95.001 -167.001c-126 -157.333 -286.667 -236 -482 -236s-322.666 78.667 -381.999 236c-16.667 46.667 -24.667 102.334 -24 167.001c0.666992 55.333 7.66699 114.333 21 177
l94 442c24 111.333 62.667 204.333 116 279c128.667 178.667 298 268 508 268s341 -89.333 393 -268c23.333 -74.667 23 -167.667 -1 -279zM1127 961c10.667 49.333 16.332 99 16.999 149c0 58 -7 104.333 -21 139c-43.333 104 -129.333 156 -258 156
s-236.667 -52 -324 -156c-29.333 -34.667 -55.666 -81 -78.999 -139c-20.667 -50 -36.334 -99.667 -47.001 -149l-82 -386c-12 -56.667 -19.333 -108.667 -22 -156c-4 -62.667 1 -111.667 15 -147c42 -107.333 130 -161 264 -161s245.333 53.667 334 161
c28.667 35.333 54.334 84.333 77.001 147c17.333 47.333 32 99.333 44 156z" />
    <glyph glyph-name="one" unicode="1" horiz-adv-x="1134" 
d="M536 0l293 1378h-260l29 138h412l-322 -1516h-152z" />
    <glyph glyph-name="two" unicode="2" horiz-adv-x="1134" 
d="M1138 814c-30.667 -34.667 -67.999 -71.332 -111.999 -109.999c-30.667 -26.667 -72.334 -60.667 -125.001 -102l-586 -465h758l-29 -137h-963l29 137l755 603c46 37.333 84.333 71.333 115 102c83.333 82.667 133.333 163 150 241
c18.667 88.667 2.33398 164.667 -48.999 228c-50.667 62.667 -120.334 94 -209.001 94c-105.333 0 -195.333 -37.667 -270 -113c-69.333 -68.667 -115.666 -157.334 -138.999 -266.001h-152l1 4c24 112.667 67.667 208.667 131 288c69.333 86.667 157.666 149 264.999 187
c66.667 24.667 133.667 37 201 37c208 0 332 -96.333 372 -289c12.667 -58 13 -115.333 1 -172c-20 -92.667 -68 -181.667 -144 -267z" />
    <glyph glyph-name="three" unicode="3" horiz-adv-x="1134" 
d="M926 118c-112 -96.667 -236.664 -144.999 -373.997 -144.999c-62.667 0 -120.334 11.667 -173.001 35c-92 38 -155.333 99 -190 183c-32.667 78 -39.334 172.667 -20.001 284h152c-6 -44.667 -8.66699 -79.667 -8 -105c0.666992 -35.333 6.66699 -68 18 -98
c42 -107.333 125.333 -161 250 -161c98.667 0 185.667 33.667 261 101c71.333 64.667 117.666 147 138.999 247c16 76 6 144.333 -30 205c-35.333 60 -88.333 99.333 -159 118c-22.667 6 -51.334 10 -86.001 12l-87 3l28 133l51 -2c80 0 150 19.333 210 58
c66 42.667 107 102.334 123 179.001c14.667 69.333 5 126.666 -29 171.999c-34.667 45.333 -86.667 68 -156 68c-70.667 0 -133 -28 -187 -84c-49.333 -50 -81.666 -111.333 -96.999 -184h-152c28 115.333 84 210.666 168 285.999c87.333 79.333 187.666 119 300.999 119
c110 0 193.667 -37.333 251 -112c56.667 -74.667 73.334 -167 50.001 -277c-13.333 -61.333 -38.666 -115.333 -75.999 -162c-32.667 -40.667 -79.334 -81.667 -140.001 -123c151.333 -90 208.333 -223.667 171 -401c-29.333 -138 -99 -254.333 -209 -349z" />
    <glyph glyph-name="four" unicode="4" horiz-adv-x="1134" 
d="M1002 276l-59 -276h-151l59 276h-764l29 138l970 1102h180l-235 -1102h138l-29 -138h-138zM1070 1307h-4l-776 -893h590z" />
    <glyph glyph-name="five" unicode="5" horiz-adv-x="1134" 
d="M964 130c-122 -104.667 -254.999 -157.001 -398.999 -157.001c-58.667 0 -115 11 -169 33c-92.667 36.667 -159.334 97.667 -200.001 183c-36.667 78.667 -50.667 174.667 -42 288h152c-11.333 -103.333 7.66699 -189.333 57 -258c53.333 -72 130.333 -108 231 -108
c102.667 0 198 39.667 286 119c84.667 76.667 138 167.334 160 272.001c22.667 106 9.33398 197.333 -39.999 274c-52.667 80.667 -131.667 121 -237 121c-122 0 -239 -57.333 -351 -172l-110 43l296 748h682l-29 -138h-561l-165 -417c97.333 47.333 188.333 71 273 71
c144.667 0 254.667 -52.667 330 -158c73.333 -102.667 94.333 -226.667 63 -372c-30.667 -144.667 -106.334 -268.667 -227.001 -372z" />
    <glyph glyph-name="six" unicode="6" horiz-adv-x="1134" 
d="M965 128c-120 -103.333 -254.334 -154.999 -403.001 -154.999c-152.667 0 -266.667 52 -342 156c-74 101.333 -94.667 229 -62 383c16.667 77.333 52 155.666 106 234.999c21.333 32 48.333 67.333 81 106l89 103l496 557h172l-459 -514l3 -2c50.667 22 100 33 148 33
c146 0 257 -51.333 333 -154c74.667 -101.333 96.334 -225.333 65.001 -372c-31.333 -148.667 -107 -274 -227 -376zM996.999 776.001c-54 78 -133.998 116.999 -239.998 116.999c-106.667 0 -203.334 -39.667 -290.001 -119c-84 -76.667 -137.333 -168.667 -160 -276
c-22.667 -106 -7.33398 -196.333 45.999 -271c54 -77.333 133.333 -116 238 -116c107.333 0 204.333 38.667 291 116c82.667 74.667 135.667 166.334 159 275.001c22.667 106.667 8 198 -44 274z" />
    <glyph glyph-name="seven" unicode="7" horiz-adv-x="1134" 
d="M385 0h-160l918 1378h-721l29 138h877l-29 -138z" />
    <glyph glyph-name="eight" unicode="8" horiz-adv-x="1134" 
d="M929 109c-114 -90.667 -236.335 -136 -367.002 -136s-234 45 -310 135c-78 91.333 -103.333 202 -76 332c18.667 87.333 59.334 168.333 122.001 243c65.333 77.333 140.333 131.666 225 162.999c-102.667 76.667 -140.667 177.667 -114 303c24 112 83 205.667 177 281
c93.333 74.667 196 112 308 112c112.667 0 199.667 -38.333 261 -115s80 -171.334 56 -284.001c-28 -132 -109 -231 -243 -297c156.667 -83.333 215 -218.666 175 -405.999c-27.333 -129.333 -98.666 -239.666 -213.999 -330.999zM1028 1331
c-37.333 49.333 -90.334 74.001 -159.001 74.001c-70.667 0 -136 -24 -196 -72c-59.333 -48 -96.666 -107.333 -111.999 -178c-14 -66.667 -0.333008 -124.334 41 -173.001c39.333 -48.667 92.333 -73 159 -73c68 0 131.333 24 190 72c59.333 48 96 106 110 174
c14.667 68 3.66699 126.667 -33 176zM942.997 673.001c-52 63.333 -124 95 -216 95c-87.333 0 -170.666 -31.667 -249.999 -95c-79.333 -64 -128.333 -139.667 -147 -227c-20.667 -96 -6 -176 44 -240c50.667 -63.333 124 -95 220 -95c91.333 0 175.666 32.333 252.999 97
s125.333 142 144 232c20 92 4 169.667 -48 233z" />
    <glyph glyph-name="nine" unicode="9" horiz-adv-x="1134" 
d="M1192 766c-21.333 -32 -48 -67 -80 -105l-90 -104l-496 -557h-172l460 514l-4 2c-46 -22 -95.333 -33 -148 -33c-146 0 -257 51.333 -333 154c-74.667 101.333 -96.334 225.666 -65.001 372.999c31.333 148.667 107 273.667 227 375c121.333 103.333 256 155 404 155
c152.667 0 266.334 -52 341.001 -156c74 -101.333 94.667 -229 62 -383c-16.667 -77.333 -52 -155.666 -106 -234.999zM1104 1287c-54 77.333 -133.334 116 -238.001 116c-107.333 0 -204 -39 -290 -117c-83.333 -74.667 -136.666 -166 -159.999 -274
c-22.667 -107.333 -8.33398 -198.666 42.999 -273.999c54 -78 134 -117 240 -117c106.667 0 204 39.667 292 119c83.333 76 136.333 168 159 276c22.667 105.333 7.33398 195.666 -45.999 270.999z" />
    <glyph glyph-name="colon" unicode=":" horiz-adv-x="567" 
d="M392 864l54 258h152l-54 -258h-152zM208 0l55 258h152l-55 -258h-152z" />
    <glyph glyph-name="semicolon" unicode=";" horiz-adv-x="567" 
d="M392 864l55 258h152l-55 -258h-152zM151 -137h-152l264 395h152z" />
    <glyph glyph-name="less" unicode="&#x3c;" horiz-adv-x="1241" 
d="M191 455l27 127l1140 471l-30 -140l-954 -395l786 -395l-29 -139z" />
    <glyph glyph-name="equal" unicode="=" horiz-adv-x="1241" 
d="M243 655l30 140h1032l-30 -140h-1032zM155 242l30 139h1032l-30 -139h-1032z" />
    <glyph glyph-name="greater" unicode="&#x3e;" horiz-adv-x="1241" 
d="M103 -16l30 139l954 395l-787 395l30 140l940 -471l-27 -127z" />
    <glyph glyph-name="question" unicode="?" horiz-adv-x="1210" 
d="M1207 887c-20 -24.667 -45.3359 -50.332 -76.0029 -76.999l-41 -35l-127 -104c-31.333 -27.333 -58 -53 -80 -77c-53.333 -60.667 -89.666 -127 -108.999 -199h-151l2 8c17.333 82.667 53.333 158 108 226c22.667 28 49.334 56.333 80.001 85
c22.667 21.333 51.334 46 86.001 74l86 69c31.333 26 57 49.333 77 70c52 53.333 84 108.333 96 165c18 84.667 1 157 -51 217c-50.667 58.667 -118.667 88 -204 88c-117.333 0 -220 -50 -308 -150c-27.333 -30.667 -48 -63.667 -62 -99
c-9.33301 -24.667 -19 -60.667 -29 -108h-152l8 39c27.333 128 99 237.333 215 328c114 88.667 235.333 133 364 133c131.333 0 232.333 -43 303 -129c71.333 -86.667 93.333 -195.334 66 -326.001c-15.333 -72 -49 -138 -101 -198zM538.997 0.00195312l55 258h151l-55 -258
h-151z" />
    <glyph glyph-name="at" unicode="@" horiz-adv-x="1775" 
d="M1761 670c-44.667 -91.333 -101.335 -169.336 -170.002 -234.003c-82.667 -78 -165.667 -117 -249 -117c-104.667 0 -147.667 54.667 -129 164h-4c-90.667 -109.333 -196.667 -164 -318 -164c-98.667 0 -169.667 37.667 -213 113c-40 69.333 -49 154.666 -27 255.999
c25.333 120.667 83.333 226.334 174 317.001c98 97.333 205.667 146 323 146c132.667 0 204.334 -60.667 215.001 -182h4l62 153h123l-214 -544c-9.33301 -24 -16 -44 -20 -60c-11.333 -56 6.33398 -84 53.001 -84c57.333 0 115 32.667 173 98
c44.667 50.667 82 110.334 112 179.001c23.333 54.667 40 106.334 50 155.001c37.333 173.333 10 311.333 -82 414c-88 98 -219.333 147 -394 147c-194 0 -367.667 -63.333 -521 -190c-153.333 -127.333 -250.666 -287.666 -291.999 -480.999
c-44 -206 -14.667 -369.333 88 -490c100 -118.667 254 -178 462 -178c174.667 0 344.667 34 510 102l8 -104c-176 -75.333 -356.667 -113 -542 -113c-171.333 0 -312.666 35 -423.999 105c-121.333 75.333 -198.666 187.333 -231.999 336
c-22.667 99.333 -21.334 208.333 3.99902 327c50 234.667 167 427 351 577c183.333 149.333 392.666 224 627.999 224c205.333 0 359.666 -60.667 462.999 -182c107.333 -124 139.333 -288 96 -492c-15.333 -71.333 -38 -137.333 -68 -198zM1269 966.997
c-28 46 -73.001 69.001 -135.001 69.001c-86.667 0 -165.334 -36.667 -236.001 -110c-63.333 -66 -104.666 -144 -123.999 -234c-16 -75.333 -11 -136 15 -182c28.667 -50.667 79.334 -76 152.001 -76c86 0 163.333 42.333 232 127c56.667 70.667 95 152.667 115 246
c13.333 63.333 7 116.666 -19 159.999z" />
    <glyph glyph-name="A" unicode="A" horiz-adv-x="1515" 
d="M1327 0l-112 510h-704l-329 -510h-158l969 1516h170l329 -1516h-165zM1042 1343l-444 -696h588z" />
    <glyph glyph-name="B" unicode="B" horiz-adv-x="1175" 
d="M957 84c-62.667 -34.667 -127 -58 -193 -70c-49.333 -9.33301 -114.333 -14 -195 -14h-418l322 1516h381c108 0 196 -17.667 264 -53c80.667 -41.333 130.334 -106.333 149.001 -195c10 -49.333 9 -101.333 -3 -156c-14 -66 -41 -124 -81 -174
c-34 -43.333 -83.667 -87 -149 -131c153.333 -68.667 210.666 -193 171.999 -373c-34 -160 -117 -276.667 -249 -350zM1086 1284c-25.333 38.667 -67.3311 64.999 -125.998 78.999c-23.333 6 -50.333 10.333 -81 13c-22.667 1.33301 -49.667 2 -81 2h-202l-110 -516l257 1
c25.333 0.666992 47.666 2.33398 66.999 5.00098c50.667 6 95.667 18.333 135 37c91.333 43.333 147.666 114.333 168.999 213c13.333 62.667 4 118 -28 166zM931.002 689.999c-37.333 16 -83.667 26.334 -139 31.001c-21.333 2 -46 3.33301 -74 4h-261l-125 -588l285 1
l74 4c55.333 5.33301 104.666 16.666 147.999 33.999c116.667 44.667 188.334 130.667 215.001 258c26 122 -15 207.333 -123 256z" />
    <glyph glyph-name="C" unicode="C" horiz-adv-x="1665" 
d="M1663 397c-214 -282.667 -476.664 -423.998 -787.997 -423.998c-218.667 0 -389.334 75.667 -512.001 227c-122.667 152.667 -160.667 338 -114 556c46.667 220.667 162.667 406.667 348 558c184.667 150.667 387.667 226 609 226c239.333 0 419.666 -90 540.999 -270
c33.333 -49.333 55 -97.333 65 -144h-170c-84.667 184.667 -240.667 277 -468 277c-172.667 0 -336.334 -65.333 -491.001 -196c-152 -128.667 -246.333 -279.667 -283 -453c-36 -170.667 -4 -320.334 96 -449.001c100 -129.333 235.333 -194 406 -194
c106 0 211.333 26 316 78c97.333 49.333 189 118.666 275 207.999h170z" />
    <glyph glyph-name="D" unicode="D" horiz-adv-x="1523" 
d="M1114 125c-74 -41.333 -160.333 -73.333 -259 -96c-88 -19.333 -175.333 -29 -262 -29h-442l322 1516h442c87.333 0 170.666 -10 249.999 -30c88.667 -22 161.334 -53.667 218.001 -95c198 -146.667 267.333 -359 208 -637c-57.333 -270 -216.333 -479.667 -477 -629z
M1289 1262c-57.333 47.333 -129.999 79.668 -217.999 97.001c-37.333 7.33301 -79 12.666 -125 15.999c-36.667 2 -80.334 3 -131.001 3h-219l-264 -1241h251c50.667 0 94.667 1.33301 132 4c46 3.33301 88.667 9 128 17c90.667 18.667 175.334 52.667 254.001 102
c87.333 54.667 162 128.667 224 222c59.333 88 99.333 180.667 120 278c45.333 216 -5.33398 383.333 -152.001 502z" />
    <glyph glyph-name="E" unicode="E" horiz-adv-x="1097" 
d="M143 0l322 1516h829l-29 -138h-677l-116 -544h655l-29 -138h-655l-119 -559h677l-29 -137h-829z" />
    <glyph glyph-name="F" unicode="F" horiz-adv-x="993" 
d="M588 1378l-117 -549h591l-29 -137h-591l-147 -692h-152l322 1516h766l-29 -138h-614z" />
    <glyph glyph-name="G" unicode="G" horiz-adv-x="1785" 
d="M1843 696c-60.667 -206 -183.332 -378.335 -367.999 -517.002c-183.333 -137.333 -379 -206 -587 -206c-218 0 -391 76 -519 228c-130.667 154.667 -173 340.334 -127 557.001c46.667 218.667 167.334 404.667 362.001 558c190.667 150.667 396 226 616 226
c250 0 436.667 -92.667 560 -278c33.333 -49.333 55 -100 65 -152h-176c-32.667 90 -94.334 162 -185.001 216c-86.667 51.333 -183.667 77 -291 77c-180.667 0 -349.334 -63 -506.001 -189c-157.333 -126.667 -255 -280 -293 -460
c-38.667 -181.333 -5.33398 -334.666 99.999 -459.999c104.667 -123.333 248 -185 430 -185c136.667 0 272.334 41.667 407.001 125c140 86 240.333 193.667 301 323h-846l29 137h1028z" />
    <glyph glyph-name="H" unicode="H" horiz-adv-x="1398" 
d="M1091 0l151 711h-784l-151 -711h-152l322 1516h152l-142 -668h784l142 668h151l-322 -1516h-151z" />
    <glyph glyph-name="I" unicode="I" horiz-adv-x="462" 
d="M155 0l322 1516h152l-322 -1516h-152z" />
    <glyph glyph-name="J" unicode="J" horiz-adv-x="987" 
d="M909 409l-20 -74.001c-17.333 -56 -38.666 -103.333 -63.999 -142c-94.667 -146.667 -230.334 -220 -407.001 -220c-115.333 0 -203.666 36 -264.999 108s-83 165 -65 279h150c-24 -166 46.333 -249 211 -249c100.667 0 178 38.667 232 116c22 31.333 41 70.333 57 117
c11.333 34.667 22.666 78.334 33.999 131.001l221 1041h152z" />
    <glyph glyph-name="K" unicode="K" horiz-adv-x="1210" 
d="M1019 0l-366 657l-248 -241l-88 -416h-152l322 1516h152l-185 -871h4l879 871h194l-757 -740l435 -776h-190z" />
    <glyph glyph-name="L" unicode="L" horiz-adv-x="946" 
d="M167 0l322 1516h152l-293 -1379h626l-29 -137h-778z" />
    <glyph glyph-name="M" unicode="M" horiz-adv-x="1882" 
d="M1574 0l287 1350h-4l-854 -1350h-129l-276 1350h-4l-287 -1350h-152l322 1516h233l277 -1291l827 1291h234l-322 -1516h-152z" />
    <glyph glyph-name="N" unicode="N" horiz-adv-x="1515" 
d="M1208 0l-616 1333h-4l-283 -1333h-152l322 1516h205l579 -1258h4l267 1258h151l-322 -1516h-151z" />
    <glyph glyph-name="O" unicode="O" horiz-adv-x="1779" 
d="M1495 201c-190 -152 -394 -228.001 -612 -228.001c-214.667 0 -385.334 75.333 -512.001 226c-128 153.333 -169.333 337 -124 551c46.667 220 165 407.333 355 562c188.667 153.333 393.667 230 615 230c218.667 0 390.334 -76 515.001 -228
c126.667 -153.333 167 -338.666 121 -555.999s-165.333 -403 -358 -557zM1606 1214c-101.333 127.333 -240.997 191 -418.997 191c-180 0 -347 -64.333 -501 -193c-153.333 -128.667 -249 -282.667 -287 -462c-36.667 -174.667 -4 -325 98 -451
c101.333 -125.333 239.666 -188 414.999 -188c177.333 0 343.666 63 498.999 189s252 278 290 456c37.333 178 5.66602 330.667 -95.001 458z" />
    <glyph glyph-name="P" unicode="P" horiz-adv-x="1212" 
d="M1114 698c-59.333 -35.333 -127 -59.668 -203 -73.001c-32 -5.33301 -66.667 -9.33301 -104 -12c-29.333 -2 -63.333 -3 -102 -3h-270l-130 -610h-152l322 1516h422c38.667 0 72.667 -1 102 -3c36 -2.66699 68.667 -6.66699 98 -12c70.667 -14 128 -38.667 172 -74
c107.333 -85.333 144.333 -206.666 111 -363.999s-122 -279 -266 -365zM1112 1339c-34 18.667 -73.999 30.333 -119.999 35l-64 4h-330l-134 -630h330l66 4c47.333 4.66699 92 16 134 34c129.333 56 207.666 148.333 234.999 277s-11.667 220.667 -117 276z" />
    <glyph glyph-name="Q" unicode="Q" horiz-adv-x="1783" 
d="M1504 193c54.667 -56.667 124.331 -83.999 208.998 -81.999l-30 -138c-129.333 0 -232.666 43.667 -309.999 131c-150.667 -87.333 -311.667 -131 -483 -131c-220.667 0 -394.667 74.333 -522 223c-131.333 151.333 -173.666 336.666 -126.999 555.999
c48 226 168 414.667 360 566c188.667 149.333 397 224 625 224c230 0 407 -75 531 -225c125.333 -152 163.333 -342.667 114 -572c-44.667 -212.667 -167 -396.667 -367 -552zM1626 1215c-101.333 126.667 -243.667 190 -427 190c-186 0 -357.333 -63.667 -514 -191
c-156.667 -128 -254.667 -285 -294 -471c-12.667 -59.333 -16.334 -116.666 -11.001 -171.999c112.667 34.667 223.334 52 332.001 52c154.667 0 288.667 -29.667 402 -89c50.667 -26.667 102 -61.334 154 -104.001c44 -36 93 -82.333 147 -139
c78.667 64 143.667 133.333 195 208c56 81.333 93.333 165 112 251c38.667 182.667 6.66699 337.667 -96 465zM1237 248.001l-43.001 41c-34.667 32 -64.667 56.333 -90 73c-120 82 -268.333 123 -445 123c-89.333 0 -170.666 -14.333 -243.999 -43
c11.333 -38.667 32.333 -78.667 63 -120c100 -140.667 248.667 -211 446 -211c130 0 248.333 32.667 355 98z" />
    <glyph glyph-name="R" unicode="R" horiz-adv-x="1243" 
d="M1191 705c-102.667 -84.667 -219.333 -131.333 -350 -140l308 -565h-191l-368 686l164 1c69.333 2 125 9.33301 167 22c177.333 50.667 283.333 157.667 318 321c28.667 134 -6 231 -104 291c-38.667 23.333 -83 39.333 -133 48c-37.333 6 -87.333 9 -150 9h-264
l-293 -1378h-152l322 1516h385c34 0 64.667 -0.666992 92 -2c34.667 -2 66.334 -4.66699 95.001 -8c72.667 -9.33301 130.667 -25.333 174 -48c161.333 -86.667 220.666 -230.667 177.999 -432c-27.333 -127.333 -93.333 -234.333 -198 -321z" />
    <glyph glyph-name="S" unicode="S" horiz-adv-x="1019" 
d="M855 101c-106.667 -85.333 -223 -128.001 -349 -128.001c-135.333 0 -237.333 41.333 -306 124c-70 82.667 -91.667 191.667 -65 327h152c-35.333 -208.667 47.667 -313 249 -313c84.667 0 162.334 28.667 233.001 86c72.667 58.667 118 130.334 136 215.001
c19.333 91.333 -1 164.666 -61 219.999c-24 22 -55.667 42.333 -95 61c-29.333 13.333 -67.333 27.333 -114 42c-59.333 18.667 -106 36.334 -140 53.001c-46.667 21.333 -83.334 45.333 -110.001 72c-64 64 -83.333 155.667 -58 275c25.333 118 88 215.667 188 293
c98 76 206.333 114 325 114c117.333 0 208 -39 272 -117c65.333 -79.333 85.333 -177.666 60 -294.999h-152c16 74.667 3.66699 139 -37 193c-40.667 54.667 -98 82 -172 82c-76.667 0 -146.667 -25 -210 -75c-64 -50 -104 -113 -120 -189c-19.333 -88 7 -155 79 -201
c26.667 -16.667 62.334 -32.667 107.001 -48l113 -36c108 -34.667 186 -86.334 234 -155.001c53.333 -76 68 -170.333 44 -283c-26.667 -125.333 -94.334 -231 -203.001 -317z" />
    <glyph glyph-name="T" unicode="T" horiz-adv-x="872" 
d="M805 1378l-293 -1378h-152l293 1378h-348l29 138h846l-29 -138h-346z" />
    <glyph glyph-name="U" unicode="U" 
d="M1306 571c-12 -56.667 -27.332 -110.334 -45.999 -161.001c-22.667 -59.333 -48.667 -110.666 -78 -153.999c-128 -188.667 -301 -283 -519 -283s-351 94.333 -399 283c-10.667 43.333 -14.334 94.666 -11.001 153.999c2 50.667 9 104.334 21 161.001l201 945h152
l-201 -945c-10.667 -49.333 -17.334 -96 -20.001 -140c-2.66699 -56 1.66602 -100.667 12.999 -134c41.333 -124 132.333 -186 273 -186s258.334 62 353.001 186c26 33.333 49 78 69 134c16.667 44 30.334 90.667 41.001 140l201 945h151z" />
    <glyph glyph-name="V" unicode="V" horiz-adv-x="1437" 
d="M790 0h-149l-303 1516h168l252 -1328l819 1328h164z" />
    <glyph glyph-name="W" unicode="W" horiz-adv-x="1966" 
d="M1511 0h-193l-69 1243h-5l-595 -1243h-195l-110 1516h156l89 -1321h4l642 1321h141l83 -1319h4l650 1319h154z" />
    <glyph glyph-name="X" unicode="X" horiz-adv-x="1247" 
d="M1052 0l-288 647l-570 -647h-178l679 774l-328 742h178l274 -607l529 607h176l-645 -742l354 -774h-181z" />
    <glyph glyph-name="Y" unicode="Y" horiz-adv-x="1212" 
d="M787 506l-107 -506h-152l107 506l-311 1010h168l251 -850l625 850h166z" />
    <glyph glyph-name="Z" unicode="Z" horiz-adv-x="983" 
d="M24 0l29 137l1009 1241h-722l29 138h892l-29 -138l-1007 -1241h766l-29 -137h-938z" />
    <glyph glyph-name="bracketleft" unicode="[" horiz-adv-x="718" 
d="M612 -367c-262.667 76.667 -362.001 265.334 -298.001 566.001l164 774c48.667 227.333 174 395.333 376 504c56.667 31.333 111 53 163 65l-32 -153c-194 -77.333 -312.333 -216 -355 -416l-159 -748c-23.333 -112 -23.666 -200.333 -0.999023 -265
c26 -70.667 84 -128.334 174 -173.001z" />
    <glyph glyph-name="backslash" unicode="\" horiz-adv-x="1239" 
d="M777 -205l-214 1721h162l207 -1721h-155z" />
    <glyph glyph-name="bracketright" unicode="]" horiz-adv-x="718" 
d="M488 199c-64 -300.667 -243.333 -489.334 -538 -566.001l33 154c109.333 44.667 192 102.334 248 173.001c50 64.667 87 153 111 265l159 748c42.667 200 -16.666 338.667 -177.999 416l33 153c47.333 -12 92.666 -33.667 135.999 -65
c155.333 -108.667 209 -276.667 161 -504z" />
    <glyph glyph-name="asciicircum" unicode="^" horiz-adv-x="1241" 
d="M1123 629l-214 737l-522 -737h-145l635 887h132l257 -887h-143z" />
    <glyph glyph-name="underscore" unicode="_" horiz-adv-x="1024" 
d="M-54 -256l22 102h1024l-22 -102h-1024z" />
    <glyph glyph-name="grave" unicode="`" horiz-adv-x="718" 
d="M611 1118l-95 398h152l95 -398h-152z" />
    <glyph glyph-name="a" unicode="a" horiz-adv-x="1398" 
d="M1128 0l42.001 196.999h-4c-130.667 -149.333 -292 -224 -484 -224c-168.667 0 -299 56.333 -391 169c-92.667 112.667 -121 253 -85 421c35.333 166.667 124 306.334 266 419.001c140 111.333 293.333 167 460 167c195.333 0 324.666 -75 387.999 -225h4l42 196h144
l-238 -1120h-144zM1196 882.999c-68 91.333 -165 137.001 -291 137.001c-132.667 0 -251.667 -44 -357 -132s-172.333 -198.333 -201 -331c-27.333 -130.667 -6.66602 -239.334 62.001 -326.001c69.333 -86 169.666 -129 300.999 -129c126 0 242 45 348 135
c105.333 88.667 171.333 196 198 322s6.66699 234 -60 324z" />
    <glyph glyph-name="b" unicode="b" horiz-adv-x="1396" 
d="M1180 142c-140 -112.667 -294.334 -168.999 -463.001 -168.999c-188.667 0 -318.334 74.667 -389.001 224h-4l-42 -197h-143l322 1516h143l-126 -592h4c137.333 150 299 225 485 225c166.667 0 296.334 -55.667 389.001 -167
c94.667 -112.667 124.334 -252.334 89.001 -419.001c-36 -168 -124.333 -308.333 -265 -421zM1241 888.001c-68 88 -168.334 131.999 -301.001 131.999c-126 0 -242.333 -45.667 -349 -137c-105.333 -90 -171.333 -198 -198 -324s-6.66699 -233.333 60 -322
c68.667 -90 166 -135 292 -135c131.333 0 249.333 43 354 129c106 86.667 172.667 195.334 200 326.001c28.667 132.667 9.33398 243 -57.999 331z" />
    <glyph glyph-name="c" unicode="c" horiz-adv-x="1325" 
d="M1312 330c-171.333 -238 -382.334 -356.999 -633.001 -356.999c-166.667 0 -296.334 56 -389.001 168c-94 113.333 -123.333 252.666 -88 417.999c34.667 164 123.667 303.667 267 419c142 114 295.333 171 460 171c123.333 0 228.333 -32.333 315 -97
c88 -66.667 142.667 -156.667 164 -270h-158c-49.333 158.667 -164 238 -344 238c-128.667 0 -247 -44 -355 -132c-109.333 -88 -177.666 -196.333 -204.999 -325c-28 -130 -6.66699 -239.333 64 -328s171 -133 301 -133c184.667 0 332.334 76 443.001 228h158z" />
    <glyph glyph-name="d" unicode="d" horiz-adv-x="1402" 
d="M1121 0l42 196.999h-4c-132 -149.333 -293.333 -224 -484 -224c-168.667 0 -299 56.333 -391 169c-92.667 112.667 -121 253 -85 421c35.333 166.667 124 306.334 266 419.001c140 111.333 293.333 167 460 167c190 0 319.667 -73.667 389 -221h4l125 588h144l-322 -1516
h-144zM1189 882.999c-68 91.333 -165 137.001 -291 137.001c-132.667 0 -251.667 -44 -357 -132s-172.333 -198.333 -201 -331c-27.333 -130.667 -6.66602 -239.334 62.001 -326.001c69.333 -86 169.666 -129 300.999 -129c126 0 242 45 348 135
c105.333 88.667 171.333 196 198 322s6.66699 234 -60 324z" />
    <glyph glyph-name="e" unicode="e" horiz-adv-x="1331" 
d="M1352 508h-1020c-18 -110 8 -205.333 78 -286c69.333 -80 159.333 -120 270 -120c88 0 173.667 23.333 257 70c86.667 48.667 153.667 113.667 201 195h152c-66.667 -117.333 -158.334 -212.333 -275.001 -285s-236.667 -109 -360 -109c-161.333 0 -287 57.667 -377 173
c-89.333 114 -117 251.667 -83 413c34.667 160.667 121 299 259 415c139.333 116.667 289 175 449 175c162.667 0 288.667 -59.667 378 -179c88.667 -118 115.667 -258.333 81 -421zM1234 637c4.66699 110.667 -25.667 202 -91 274c-66 72.667 -154.667 109 -266 109
c-110.667 0 -214.667 -36.333 -312 -109c-96 -72 -164.667 -163.333 -206 -274h875z" />
    <glyph glyph-name="f" unicode="f" horiz-adv-x="643" 
d="M566 991l-211.001 -991h-143l211 991h-174l27 129h174l11 42c4 16 8 30 12 42c9.33301 31.333 20 59.333 32 84c44 92.667 109.667 159.667 197 201c72 34 161.333 51.667 268 53l-29 -133c-191.333 0 -306.666 -93.667 -345.999 -281l-2 -8h287l-27 -129h-287z" />
    <glyph glyph-name="g" unicode="g" horiz-adv-x="1378" 
d="M1278 176c-9.33301 -42.667 -18.335 -79.001 -27.002 -109.001c-10.667 -38.667 -22.334 -73.667 -35.001 -105c-31.333 -74.667 -73.666 -139.667 -126.999 -195c-134 -138 -297 -207 -489 -207c-137.333 0 -249.333 35.333 -336 106
c-90 72.667 -140 174.334 -150 305.001h152c34.667 -188 154.334 -282 359.001 -282c125.333 0 233 38.333 323 115c88 75.333 145.333 176 172 302l21 99h-4c-55.333 -74.667 -128.666 -132.667 -219.999 -174c-84.667 -38.667 -172 -58 -262 -58
c-162.667 0 -288.667 56.333 -378 169c-90.667 113.333 -118.667 251 -84 413c34.667 163.333 121 303 259 419c138.667 116.667 289.667 175 453 175c189.333 0 317.333 -76.333 384 -229h4l42 200h143zM1165 881.999c-67.333 92 -163.003 138 -287.003 138
c-124.667 0 -239.667 -46 -345 -138c-104 -89.333 -169.333 -197 -196 -323c-26.667 -124.667 -7 -231.334 59 -320.001c66.667 -91.333 162.334 -137 287.001 -137c122.667 0 237.334 45.667 344.001 137c104.667 89.333 170.334 196 197.001 320
c26.667 124.667 7 232.334 -59 323.001z" />
    <glyph glyph-name="h" unicode="h" horiz-adv-x="1249" 
d="M968 0l130.998 616.001c12.667 60 16.334 115.333 11.001 166c-5.33301 59.333 -23 106.666 -53 141.999c-54 64 -128 96 -222 96c-94.667 0 -183 -32 -265 -96c-44 -34.667 -81 -80.667 -111 -138c-26 -49.333 -45 -102.333 -57 -159l-133 -627h-143l322 1516h143
l-114 -539h4c98 114.667 225 172 381 172c156.667 0 268.334 -50 335.001 -150c64 -96 79 -223.667 45 -383l-131 -616h-143z" />
    <glyph glyph-name="i" unicode="i" horiz-adv-x="409" 
d="M400 1257l55 259h143l-55 -259h-143zM133 0l238 1120h143l-238 -1120h-143z" />
    <glyph glyph-name="j" unicode="j" horiz-adv-x="415" 
d="M404 1257l55 259h144l-55 -259h-144zM292 53c-17.333 -81.333 -37.668 -145.669 -61.001 -193.002c-32.667 -64.667 -78.667 -119 -138 -163c-78.667 -58 -167.667 -88 -267 -90l30 141c92.667 2.66699 163.334 37.334 212.001 104.001c20 28 37.333 62.667 52 104
c12 32.667 23 73.334 33 122.001l222 1042h144z" />
    <glyph glyph-name="k" unicode="k" horiz-adv-x="1028" 
d="M835 0l-274 442l-230 -229l-45 -213h-143l322 1516h143l-229 -1080h4l668 684h184l-562 -565l347 -555h-185z" />
    <glyph glyph-name="l" unicode="l" horiz-adv-x="409" 
d="M133 0l322 1516h143l-322 -1516h-143z" />
    <glyph glyph-name="m" unicode="m" horiz-adv-x="1921" 
d="M1642 0l138.002 649c23.333 108.667 18.666 195.334 -14.001 260.001c-37.333 74 -108 111 -212 111s-190.333 -37 -259 -111c-60 -64.667 -101.667 -151.334 -125 -260.001l-138 -649h-143l138 649c23.333 108.667 18.333 195.334 -15 260.001
c-36.667 74 -107 111 -211 111c-104.667 0 -191.334 -37 -260.001 -111c-60 -64.667 -101.667 -151.334 -125 -260.001l-138 -649h-143l238 1120h143l-27 -129c88.667 105.333 201.667 158 339 158c170.667 0 281 -71.667 331 -215c120 143.333 260.667 215 422 215
c140 0 241 -46.333 303 -139c59.333 -88 74 -202.667 44 -344l-142 -666h-144z" />
    <glyph glyph-name="n" unicode="n" horiz-adv-x="1249" 
d="M975 0l130.998 616.001c12.667 60 16.334 115.333 11.001 166c-5.33301 59.333 -23 106.666 -53 141.999c-54 64 -128 96 -222 96c-94.667 0 -183 -32 -265 -96c-44 -34.667 -81 -80.667 -111 -138c-26 -49.333 -45 -102.333 -57 -159l-133 -627h-143l238 1120h143
l-30 -143h4c98 114.667 225 172 381 172c156.667 0 268.334 -50 335.001 -150c64 -96 79 -223.667 45 -383l-131 -616h-143z" />
    <glyph glyph-name="o" unicode="o" 
d="M1115 147c-140 -116 -290.332 -174.001 -450.999 -174.001c-158 0 -282.667 57.333 -374 172s-120.333 250.667 -87 408c34.667 162.667 121 302.334 259 419.001c139.333 118 290 177 452 177c159.333 0 284.666 -58 375.999 -174s120 -254 86 -414
c-34 -160.667 -121 -298.667 -261 -414zM1173 884.999c-68 90 -162.999 135 -284.999 135c-125.333 0 -240.666 -46.667 -345.999 -140c-103.333 -90.667 -168.333 -199 -195 -325c-26.667 -122.667 -6.33398 -228.667 60.999 -318c67.333 -90 162.333 -135 285 -135
c126.667 0 242.667 46 348 138c101.333 90 165.666 199 192.999 327c26 122.667 5.66699 228.667 -61 318z" />
    <glyph glyph-name="p" unicode="p" horiz-adv-x="1396" 
d="M1172 142c-140 -112.667 -294.334 -168.999 -463.001 -168.999c-188.667 0 -318.667 74.667 -390 224h-4l-125 -590h-143l322 1513h143l-42 -196h4c138 150 299.667 225 485 225c166.667 0 296 -55.667 388 -167c94.667 -112.667 124.334 -252.334 89.001 -419.001
c-35.333 -168 -123.333 -308.333 -264 -421zM1232 888.001c-68 88 -168.331 131.999 -300.998 131.999c-126 0 -242.333 -45.667 -349 -137c-104.667 -90 -170.667 -198 -198 -324c-26.667 -126 -6.33398 -233.333 60.999 -322c68 -90 165 -135 291 -135
c131.333 0 249.666 43 354.999 129c105.333 86.667 172 195.334 200 326.001c28 132.667 8.33301 243 -59 331z" />
    <glyph glyph-name="q" unicode="q" horiz-adv-x="1396" 
d="M1033 -393l126 589.999h-4c-128.667 -149.333 -290 -224 -484 -224c-168.667 0 -299 56.333 -391 169c-92.667 112.667 -121 253 -85 421c35.333 166.667 124 306.334 266 419.001c140 111.333 293.333 167 460 167c194 0 323.333 -75 388 -225h4l42 196h144l-322 -1513
h-144zM1185 882.999c-68 91.333 -165 137.001 -291 137.001c-132.667 0 -251.667 -44 -357 -132s-172.333 -198.333 -201 -331c-27.333 -130.667 -6.66602 -239.334 62.001 -326.001c69.333 -86 169.666 -129 300.999 -129c126 0 242 45 348 135
c105.333 88.667 171.333 196 198 322s6.66699 234 -60 324z" />
    <glyph glyph-name="r" unicode="r" horiz-adv-x="616" 
d="M808 997c-217.333 -17.333 -348.333 -131.333 -393 -342l-139 -655h-143l238 1120h143l-34 -162h4c43.333 67.333 96 116 158 146c50 24 116 39 198 45z" />
    <glyph glyph-name="s" unicode="s" horiz-adv-x="794" 
d="M387 -27c-100 0 -175.33 32.666 -225.997 97.999s-65.334 148 -44.001 248l3 13h143c-30 -153.333 20.667 -230 152 -230c139.333 0 223 67 251 201c14 65.333 -1.66699 117.333 -47 156c-18 15.333 -43 30.333 -75 45l-87 37c-36.667 15.333 -65.667 29 -87 41
c-30 17.333 -53.667 36 -71 56c-44 49.333 -57 116 -39 200c19.333 91.333 65.666 166 138.999 224c72 58 154 87 246 87c86 0 152.333 -29.333 199 -88c46 -58.667 59.667 -131 41 -217h-143c18 117.333 -25.333 176 -130 176c-113.333 0 -182 -56 -206 -168
c-12 -56 5.66699 -100.667 53 -134c18 -12.667 43 -25.667 75 -39l21 -9l23 -9l44 -18c35.333 -15.333 64 -30 86 -44c30 -18 53.333 -38.333 70 -61c42.667 -55.333 54 -129.666 34 -222.999c-48.667 -228 -190.334 -342 -425.001 -342z" />
    <glyph glyph-name="t" unicode="t" horiz-adv-x="694" 
d="M618 991l-211 -991h-143l211 991h-236l27 129h236l85 396h143l-85 -396h268l-27 -129h-268z" />
    <glyph glyph-name="u" unicode="u" horiz-adv-x="1245" 
d="M972 0l36.9971 174.002h-4c-45.333 -66 -105.666 -116.667 -180.999 -152c-68.667 -32.667 -142 -49 -220 -49c-168 0 -284.667 56 -350 168c-26.667 46.667 -40.667 103.667 -42 171c-1.33301 54.667 5.66699 118 21 190l131 618h143l-131 -616
c-26.667 -125.333 -22.334 -221.333 12.999 -288c40.667 -76 121.334 -114 242.001 -114c94.667 0 180.334 30.333 257.001 91c54.667 43.333 97.334 94.666 128.001 153.999c24.667 47.333 44.667 107.666 60 180.999l126 592h143l-238 -1120h-135z" />
    <glyph glyph-name="v" unicode="v" horiz-adv-x="1134" 
d="M645 0h-158l-235 1120h154l195 -942l601 942h154z" />
    <glyph glyph-name="w" unicode="w" horiz-adv-x="1701" 
d="M1251 0h-162l-80 745h-4l-391 -745h-162l-188 1120h150l153 -938h4l426 803h125l88 -803h4l555 938h148z" />
    <glyph glyph-name="x" unicode="x" horiz-adv-x="983" 
d="M788 0l-202 449l-392 -449h-170l504 569l-266 551h172l203 -432l385 432h174l-500 -551l262 -569h-170z" />
    <glyph glyph-name="y" unicode="y" horiz-adv-x="1097" 
d="M337 -393h-149l285 430l-205 1083h152l166 -893l571 893h151z" />
    <glyph glyph-name="z" unicode="z" horiz-adv-x="870" 
d="M20 0l27 125l805 866h-601l27 129h773l-27 -129l-799 -862h651l-27 -129h-829z" />
    <glyph glyph-name="braceleft" unicode="{" horiz-adv-x="718" 
d="M460 -387c-70 0 -118.666 28.0039 -145.999 84.0039c-24.667 50 -29.334 111.333 -14.001 184l79 373c12.667 60.667 9.33398 114 -9.99902 160c-22.667 52.667 -62.667 80.667 -120 84l28 131c56.667 2.66699 108 31 154 85
c40.667 47.333 67.334 100.666 80.001 159.999l79 373c16 73.333 46.667 134.666 92 183.999c51.333 56.667 112 85 182 85h136l-26 -123h-103c-38.667 0 -70.334 -21.333 -95.001 -64c-16.667 -28 -30 -65.333 -40 -112l-80 -375
c-12.667 -61.333 -39.667 -117.333 -81 -168c-44.667 -56.667 -96.334 -92.334 -155.001 -107.001l-2 -6c23.333 -4 45 -14.333 65 -31c32 -25.333 52.333 -61.333 61 -108c6.66699 -39.333 4.66699 -84.333 -6 -135l-80 -375c-9.33301 -46.667 -12 -84.334 -8 -113.001
c7.33301 -42 30.333 -63 69 -63h103l-26 -123h-136z" />
    <glyph glyph-name="bar" unicode="|" horiz-adv-x="1376" 
d="M515 -455l435 2048h152l-435 -2048h-152z" />
    <glyph glyph-name="braceright" unicode="}" horiz-adv-x="718" 
d="M681 498c-59.333 -3.33301 -111.335 -31.3369 -156.002 -84.0039c-39.333 -46 -65.666 -99.333 -78.999 -160l-79 -373c-15.333 -72.667 -45.666 -134 -90.999 -184c-52 -56 -113 -84 -183 -84h-135l26 123h102c39.333 0 71.666 21 96.999 63
c16.667 28.667 30 66.334 40 113.001l79 375c10.667 50.667 28 95.667 52 135c28 46.667 63.333 82.667 106 108c26.667 16.667 53 27 79 31l1 6c-53.333 14.667 -90.333 50.334 -111 107.001c-18.667 50.667 -21.667 106.667 -9 168l80 375c10 46.667 12.667 84 8 112
c-7.33301 42.667 -30.666 64 -69.999 64h-102l26 123h135c70 0 119 -28.333 147 -85c24.667 -49.333 29 -110.666 13 -183.999l-79 -373c-12.667 -59.333 -8.66699 -112.666 12 -159.999c23.333 -54 63 -82.333 119 -85z" />
    <glyph glyph-name="asciitilde" unicode="~" horiz-adv-x="1241" 
d="M1210 551c-52.667 -58 -96.666 -99 -131.999 -123c-52 -35.333 -105.667 -53 -161 -53c-36 0 -72.667 7.66699 -110 23c-22 9.33301 -53.667 26.333 -95 51c-42 24 -74.333 40.667 -97 50c-37.333 15.333 -74.333 23 -111 23c-40.667 0 -80.334 -17 -119.001 -51
c-26.667 -23.333 -55.334 -58 -86.001 -104l-52 102c84.667 117.333 182.334 176 293.001 176c35.333 0 74.333 -7.66699 117 -23c29.333 -10.667 66 -27.667 110 -51l50 -27c19.333 -10 35 -17.667 47 -23c33.333 -15.333 60.333 -23 81 -23c36.667 0 76 18 118 54
c15.333 14 32.333 31 51 51l23 26l21 24z" />
    <glyph glyph-name="dieresis" unicode="&#xa8;" horiz-adv-x="1024" 
 />
    <glyph glyph-name="copyright" unicode="&#xa9;" horiz-adv-x="1529" 
d="M1362 205c-185.333 -153.333 -385.667 -230.003 -601 -230.003c-216 0 -384.667 76.333 -506 229c-120.667 152.667 -158 337.334 -112 554.001s162 401.334 348 554.001c185.333 152 386 228 602 228s384 -76.667 504 -230c120 -152.667 157 -336.667 111 -552
s-161.333 -399.666 -346 -552.999zM1503 1236c-102.667 133.333 -247.334 200 -434.001 200s-359 -66.667 -517 -200c-157.333 -132 -256 -291.333 -296 -478c-39.333 -186.667 -8.66602 -346 92.001 -478c102.667 -133.333 247 -200 433 -200
c186.667 0 359.334 66.667 518.001 200c158 132 256.667 291.333 296 478c39.333 186 8.66602 345.333 -92.001 478zM1298 603.997c-30 -93.333 -91.3311 -169.334 -183.998 -228.001c-86.667 -55.333 -178.334 -83 -275.001 -83c-133.333 0 -231.333 45 -294 135
c-60 86.667 -75.667 197.334 -47 332.001c28 134 90.667 244.667 188 332c101.333 90 218.666 135 351.999 135c96.667 0 176.334 -27.667 239.001 -83c67.333 -58.667 96.333 -135 87 -229h-113c-0.666992 138 -79.334 207 -236.001 207
c-105.333 0 -194.666 -34.667 -267.999 -104c-68 -65.333 -113.333 -151.333 -136 -258c-23.333 -106.667 -14.333 -192.667 27 -258c43.333 -70 117.666 -105 222.999 -105c156.667 0 264.667 69 324 207h113z" />
    <glyph glyph-name="registered" unicode="&#xae;" horiz-adv-x="1529" 
d="M1362 205c-185.333 -153.333 -385.667 -230.003 -601 -230.003c-216 0 -384.667 76.333 -506 229c-120.667 152.667 -158 337.334 -112 554.001s162 401.334 348 554.001c185.333 152 386 228 602 228s384 -76.667 504 -230c120 -152.667 157 -336.667 111 -552
s-161.333 -399.666 -346 -552.999zM1503 1236c-102.667 133.333 -247.334 200 -434.001 200s-359 -66.667 -517 -200c-157.333 -132 -256 -291.333 -296 -478c-39.333 -186.667 -8.66602 -346 92.001 -478c102.667 -133.333 247 -200 433 -200
c186.667 0 359.334 66.667 518.001 200c158 132 256.667 291.333 296 478c39.333 186 8.66602 345.333 -92.001 478zM1086 302.997c-7.33301 18.667 -8.66797 45.6689 -4.00098 81.002c0.666992 6.66699 1.33398 14 2.00098 22l12 63c16 85.333 11.333 142.333 -14 171
c-24.667 28 -81.667 42 -171 42h-223l-81 -379h-112l191 895h385c88 0 154.667 -17.667 200 -53c54.667 -42.667 73 -106.334 55 -191.001c-25.333 -118 -96 -190.333 -212 -217l-1 -4c54 -16 87.667 -43 101 -81c10.667 -30 10.667 -77.333 0 -142l-18 -106
c-6 -44.667 -5 -78.334 3 -101.001h-113zM1164 1069c-31.333 16.667 -79 25.001 -143 25.001h-246l-65 -310h238c65.333 0 119 10.667 161 32c55.333 27.333 89.333 71.333 102 132c12.667 57.333 -3 97.666 -47 120.999z" />
    <glyph glyph-name="acute" unicode="&#xb4;" horiz-adv-x="1024" 
 />
    <glyph glyph-name="paragraph" unicode="&#xb6;" horiz-adv-x="1024" 
d="M1234 1435l-15 -70h-127l-290 -1365h-82l290 1365h-166l-290 -1365h-84l157 738c-114.667 5.33301 -199.167 39.5 -253.5 102.5s-70.833 144.833 -49.5 245.5c22 104.667 75.667 189 161 253s187.333 96 306 96h443z" />
    <glyph glyph-name="onequarter" unicode="&#xbc;" horiz-adv-x="1298" 
 />
    <glyph glyph-name="onehalf" unicode="&#xbd;" horiz-adv-x="1320" 
 />
    <glyph glyph-name="threequarters" unicode="&#xbe;" horiz-adv-x="1288" 
 />
    <glyph glyph-name="Agrave" unicode="&#xc0;" horiz-adv-x="1515" 
d="M1327 0l-112 510h-704l-329 -510h-158l969 1516h170l329 -1516h-165zM1042 1343l-444 -696h588zM1258 1602l-360 219l92 123l361 -224z" />
    <glyph glyph-name="Aacute" unicode="&#xc1;" horiz-adv-x="1515" 
d="M1327 0l-112 510h-704l-329 -510h-158l969 1516h170l329 -1516h-165zM1042 1343l-444 -696h588zM943 1602l-43 118l455 224l39 -123z" />
    <glyph glyph-name="Acircumflex" unicode="&#xc2;" horiz-adv-x="1515" 
d="M1327 0l-112 510h-704l-329 -510h-158l969 1516h170l329 -1516h-165zM1042 1343l-444 -696h588zM1286 1642l-144 150l-212 -150h-186l351 256h135l239 -256h-183z" />
    <glyph glyph-name="Atilde" unicode="&#xc3;" horiz-adv-x="1515" 
d="M1327 0l-112 510h-704l-329 -510h-158l969 1516h170l329 -1516h-165zM1042 1343l-444 -696h588zM1478 1726c-82.667 -52.667 -154.999 -79.002 -216.999 -79.002c-27.333 0 -54.666 4.33301 -81.999 13c-18 5.33301 -40.667 15 -68 29l-63 28
c-23.333 9.33301 -45.333 14 -66 14c-48 0 -98 -20.667 -150 -62l-50 103c73.333 57.333 150.333 86 231 86c26.667 0 53 -4.66699 79 -14c17.333 -5.33301 39.666 -14.666 66.999 -27.999c1.33301 -1.33301 3.66602 -2.66602 6.99902 -3.99902l8 -4
c6 -3.33301 11.333 -6 16 -8l30 -13c23.333 -8.66699 45.333 -13 66 -13c21.333 0 45 5.66699 71 17l51 26l18 10z" />
    <glyph glyph-name="Egrave" unicode="&#xc8;" horiz-adv-x="1097" 
d="M143 0l322 1516h829l-29 -138h-677l-116 -544h655l-29 -138h-655l-119 -559h677l-29 -137h-829zM1049 1602l-359 219l91 123l361 -224z" />
    <glyph glyph-name="Eacute" unicode="&#xc9;" horiz-adv-x="1097" 
d="M143 0l322 1516h829l-29 -138h-677l-116 -544h655l-29 -138h-655l-119 -559h677l-29 -137h-829zM734 1602l-43 118l455 224l39 -123z" />
    <glyph glyph-name="Ecircumflex" unicode="&#xca;" horiz-adv-x="1097" 
d="M143 0l322 1516h829l-29 -138h-677l-116 -544h655l-29 -138h-655l-119 -559h677l-29 -137h-829zM1078 1642l-144 150l-213 -150h-186l351 256h135l239 -256h-182z" />
    <glyph glyph-name="Igrave" unicode="&#xcc;" horiz-adv-x="462" 
d="M156 0l322 1516h151l-322 -1516h-151zM651 1602l-360 219l92 123l360 -224z" />
    <glyph glyph-name="Iacute" unicode="&#xcd;" horiz-adv-x="462" 
d="M156 0l322 1516h151l-322 -1516h-151zM497 1602l-43 118l455 224l39 -123z" />
    <glyph glyph-name="Ograve" unicode="&#xd2;" horiz-adv-x="1779" 
d="M1495 201c-190 -152 -394 -228.001 -612 -228.001c-214.667 0 -385.334 75.333 -512.001 226c-128 153.333 -169.333 337 -124 551c46.667 220 165 407.333 355 562c188.667 153.333 393.667 230 615 230c218.667 0 390.334 -76 515.001 -228
c126.667 -153.333 167 -338.666 121 -555.999s-165.333 -403 -358 -557zM1606 1214c-101.333 127.333 -240.997 191 -418.997 191c-180 0 -347 -64.333 -501 -193c-153.333 -128.667 -249 -282.667 -287 -462c-36.667 -174.667 -4 -325 98 -451
c101.333 -125.333 239.666 -188 414.999 -188c177.333 0 343.666 63 498.999 189s252 278 290 456c37.333 178 5.66602 330.667 -95.001 458zM1391 1602l-359 219l92 123l359 -224z" />
    <glyph glyph-name="Oacute" unicode="&#xd3;" horiz-adv-x="1779" 
d="M1495 201c-190 -152 -394 -228.001 -612 -228.001c-214.667 0 -385.334 75.333 -512.001 226c-128 153.333 -169.333 337 -124 551c46.667 220 165 407.333 355 562c188.667 153.333 393.667 230 615 230c218.667 0 390.334 -76 515.001 -228
c126.667 -153.333 167 -338.666 121 -555.999s-165.333 -403 -358 -557zM1606 1214c-101.333 127.333 -240.997 191 -418.997 191c-180 0 -347 -64.333 -501 -193c-153.333 -128.667 -249 -282.667 -287 -462c-36.667 -174.667 -4 -325 98 -451
c101.333 -125.333 239.666 -188 414.999 -188c177.333 0 343.666 63 498.999 189s252 278 290 456c37.333 178 5.66602 330.667 -95.001 458zM1155 1602l-43 118l456 224l40 -123z" />
    <glyph glyph-name="Ocircumflex" unicode="&#xd4;" horiz-adv-x="1779" 
d="M1495 201c-190 -152 -394 -228.001 -612 -228.001c-214.667 0 -385.334 75.333 -512.001 226c-128 153.333 -169.333 337 -124 551c46.667 220 165 407.333 355 562c188.667 153.333 393.667 230 615 230c218.667 0 390.334 -76 515.001 -228
c126.667 -153.333 167 -338.666 121 -555.999s-165.333 -403 -358 -557zM1606 1214c-101.333 127.333 -240.997 191 -418.997 191c-180 0 -347 -64.333 -501 -193c-153.333 -128.667 -249 -282.667 -287 -462c-36.667 -174.667 -4 -325 98 -451
c101.333 -125.333 239.666 -188 414.999 -188c177.333 0 343.666 63 498.999 189s252 278 290 456c37.333 178 5.66602 330.667 -95.001 458zM1420 1642l-144 150l-212 -150h-187l351 256h135l239 -256h-182z" />
    <glyph glyph-name="Otilde" unicode="&#xd5;" horiz-adv-x="1779" 
d="M1495 201c-190 -152 -394 -228.001 -612 -228.001c-214.667 0 -385.334 75.333 -512.001 226c-128 153.333 -169.333 337 -124 551c46.667 220 165 407.333 355 562c188.667 153.333 393.667 230 615 230c218.667 0 390.334 -76 515.001 -228
c126.667 -153.333 167 -338.666 121 -555.999s-165.333 -403 -358 -557zM1606 1214c-101.333 127.333 -240.997 191 -418.997 191c-180 0 -347 -64.333 -501 -193c-153.333 -128.667 -249 -282.667 -287 -462c-36.667 -174.667 -4 -325 98 -451
c101.333 -125.333 239.666 -188 414.999 -188c177.333 0 343.666 63 498.999 189s252 278 290 456c37.333 178 5.66602 330.667 -95.001 458zM1610 1726c-83.333 -52.667 -156.001 -79.002 -218.001 -79.002c-27.333 0 -54.666 4.33301 -81.999 13
c-18.667 5.33301 -41.334 15 -68.001 29l-63 28c-22.667 9.33301 -44.667 14 -66 14c-48 0 -98 -20.667 -150 -62l-50 103c74 57.333 151.333 86 232 86c26 0 52.333 -4.66699 79 -14c17.333 -5.33301 39.333 -14.666 66 -27.999c1.33301 -1.33301 4 -2.66602 8 -3.99902
c2.66699 -2 5 -3.33301 7 -4c6 -3.33301 11 -6 15 -8l32 -13c22.667 -8.66699 44.334 -13 65.001 -13c21.333 0 45.333 5.66699 72 17l51 26l17 10z" />
    <glyph glyph-name="Ugrave" unicode="&#xd9;" 
d="M1306 571c-12 -56.667 -27.332 -110.334 -45.999 -161.001c-22.667 -59.333 -48.667 -110.666 -78 -153.999c-128 -188.667 -301 -283 -519 -283s-351 94.333 -399 283c-10.667 43.333 -14.334 94.666 -11.001 153.999c2 50.667 9 104.334 21 161.001l201 945h152
l-201 -945c-10.667 -49.333 -17.334 -96 -20.001 -140c-2.66699 -56 1.66602 -100.667 12.999 -134c41.333 -124 132.333 -186 273 -186s258.334 62 353.001 186c26 33.333 49 78 69 134c16.667 44 30.334 90.667 41.001 140l201 945h151zM1130 1602l-359 219l92 123
l360 -224z" />
    <glyph glyph-name="Uacute" unicode="&#xda;" 
d="M1306 571c-12 -56.667 -27.332 -110.334 -45.999 -161.001c-22.667 -59.333 -48.667 -110.666 -78 -153.999c-128 -188.667 -301 -283 -519 -283s-351 94.333 -399 283c-10.667 43.333 -14.334 94.666 -11.001 153.999c2 50.667 9 104.334 21 161.001l201 945h152
l-201 -945c-10.667 -49.333 -17.334 -96 -20.001 -140c-2.66699 -56 1.66602 -100.667 12.999 -134c41.333 -124 132.333 -186 273 -186s258.334 62 353.001 186c26 33.333 49 78 69 134c16.667 44 30.334 90.667 41.001 140l201 945h151zM894.001 1602l-42 118l455 224
l40 -123z" />
    <glyph glyph-name="Yacute" unicode="&#xdd;" horiz-adv-x="1212" 
d="M787 506l-107 -506h-152l107 506l-311 1010h168l251 -850l625 850h166zM831 1602l-42 118l455 224l40 -123z" />
    <glyph glyph-name="agrave" unicode="&#xe0;" horiz-adv-x="1398" 
d="M1128 0l42.001 196.999h-4c-130.667 -149.333 -292 -224 -484 -224c-168.667 0 -299 56.333 -391 169c-92.667 112.667 -121 253 -85 421c35.333 166.667 124 306.334 266 419.001c140 111.333 293.333 167 460 167c195.333 0 324.666 -75 387.999 -225h4l42 196h144
l-238 -1120h-144zM1196 882.999c-68 91.333 -165 137.001 -291 137.001c-132.667 0 -251.667 -44 -357 -132s-172.333 -198.333 -201 -331c-27.333 -130.667 -6.66602 -239.334 62.001 -326.001c69.333 -86 169.666 -129 300.999 -129c126 0 242 45 348 135
c105.333 88.667 171.333 196 198 322s6.66699 234 -60 324zM1129 1268l-358 219l91 123l360 -224z" />
    <glyph glyph-name="aacute" unicode="&#xe1;" horiz-adv-x="1398" 
d="M1128 0l42.001 196.999h-4c-130.667 -149.333 -292 -224 -484 -224c-168.667 0 -299 56.333 -391 169c-92.667 112.667 -121 253 -85 421c35.333 166.667 124 306.334 266 419.001c140 111.333 293.333 167 460 167c195.333 0 324.666 -75 387.999 -225h4l42 196h144
l-238 -1120h-144zM1196 882.999c-68 91.333 -165 137.001 -291 137.001c-132.667 0 -251.667 -44 -357 -132s-172.333 -198.333 -201 -331c-27.333 -130.667 -6.66602 -239.334 62.001 -326.001c69.333 -86 169.666 -129 300.999 -129c126 0 242 45 348 135
c105.333 88.667 171.333 196 198 322s6.66699 234 -60 324zM812.001 1268l-43 118l456 224l39 -123z" />
    <glyph glyph-name="acircumflex" unicode="&#xe2;" horiz-adv-x="1398" 
d="M1128 0l42.001 196.999h-4c-130.667 -149.333 -292 -224 -484 -224c-168.667 0 -299 56.333 -391 169c-92.667 112.667 -121 253 -85 421c35.333 166.667 124 306.334 266 419.001c140 111.333 293.333 167 460 167c195.333 0 324.666 -75 387.999 -225h4l42 196h144
l-238 -1120h-144zM1196 882.999c-68 91.333 -165 137.001 -291 137.001c-132.667 0 -251.667 -44 -357 -132s-172.333 -198.333 -201 -331c-27.333 -130.667 -6.66602 -239.334 62.001 -326.001c69.333 -86 169.666 -129 300.999 -129c126 0 242 45 348 135
c105.333 88.667 171.333 196 198 322s6.66699 234 -60 324zM1159 1309l-145 149l-212 -149h-186l352 256h135l238 -256h-182z" />
    <glyph glyph-name="atilde" unicode="&#xe3;" horiz-adv-x="1398" 
d="M1128 0l42.001 196.999h-4c-130.667 -149.333 -292 -224 -484 -224c-168.667 0 -299 56.333 -391 169c-92.667 112.667 -121 253 -85 421c35.333 166.667 124 306.334 266 419.001c140 111.333 293.333 167 460 167c195.333 0 324.666 -75 387.999 -225h4l42 196h144
l-238 -1120h-144zM1196 882.999c-68 91.333 -165 137.001 -291 137.001c-132.667 0 -251.667 -44 -357 -132s-172.333 -198.333 -201 -331c-27.333 -130.667 -6.66602 -239.334 62.001 -326.001c69.333 -86 169.666 -129 300.999 -129c126 0 242 45 348 135
c105.333 88.667 171.333 196 198 322s6.66699 234 -60 324zM1353 1413c-83.333 -53.333 -155.999 -80.001 -217.999 -80.001c-27.333 0 -54.666 4.33301 -81.999 13c-18 6 -40.667 15.667 -68 29l-63 29c-23.333 8.66699 -45.333 13 -66 13c-48 0 -98 -20.333 -150 -61
l-50 102c73.333 57.333 150.333 86 231 86c26.667 0 53 -4.33301 79 -13c17.333 -6 39.666 -15.667 66.999 -29c1.33301 -0.666992 3.66602 -2 6.99902 -4c4 -1.33301 6.66699 -2.66602 8 -3.99902c6.66699 -2.66699 12 -5 16 -7l30 -14c23.333 -8.66699 45.333 -13 66 -13
c21.333 0 45 6 71 18l53 26l16 9z" />
    <glyph glyph-name="egrave" unicode="&#xe8;" horiz-adv-x="1331" 
d="M1352 508h-1020c-18 -110 8 -205.333 78 -286c69.333 -80 159.333 -120 270 -120c88 0 173.667 23.333 257 70c86.667 48.667 153.667 113.667 201 195h152c-66.667 -117.333 -158.334 -212.333 -275.001 -285s-236.667 -109 -360 -109c-161.333 0 -287 57.667 -377 173
c-89.333 114 -117 251.667 -83 413c34.667 160.667 121 299 259 415c139.333 116.667 289 175 449 175c162.667 0 288.667 -59.667 378 -179c88.667 -118 115.667 -258.333 81 -421zM1234 637c4.66699 110.667 -25.667 202 -91 274c-66 72.667 -154.667 109 -266 109
c-110.667 0 -214.667 -36.333 -312 -109c-96 -72 -164.667 -163.333 -206 -274h875zM1094 1268l-359 219l92 123l359 -224z" />
    <glyph glyph-name="eacute" unicode="&#xe9;" horiz-adv-x="1331" 
d="M1352 508h-1020c-18 -110 8 -205.333 78 -286c69.333 -80 159.333 -120 270 -120c88 0 173.667 23.333 257 70c86.667 48.667 153.667 113.667 201 195h152c-66.667 -117.333 -158.334 -212.333 -275.001 -285s-236.667 -109 -360 -109c-161.333 0 -287 57.667 -377 173
c-89.333 114 -117 251.667 -83 413c34.667 160.667 121 299 259 415c139.333 116.667 289 175 449 175c162.667 0 288.667 -59.667 378 -179c88.667 -118 115.667 -258.333 81 -421zM1234 637c4.66699 110.667 -25.667 202 -91 274c-66 72.667 -154.667 109 -266 109
c-110.667 0 -214.667 -36.333 -312 -109c-96 -72 -164.667 -163.333 -206 -274h875zM778 1268l-42 118l455 224l40 -123z" />
    <glyph glyph-name="ecircumflex" unicode="&#xea;" horiz-adv-x="1331" 
d="M1352 508h-1020c-18 -110 8 -205.333 78 -286c69.333 -80 159.333 -120 270 -120c88 0 173.667 23.333 257 70c86.667 48.667 153.667 113.667 201 195h152c-66.667 -117.333 -158.334 -212.333 -275.001 -285s-236.667 -109 -360 -109c-161.333 0 -287 57.667 -377 173
c-89.333 114 -117 251.667 -83 413c34.667 160.667 121 299 259 415c139.333 116.667 289 175 449 175c162.667 0 288.667 -59.667 378 -179c88.667 -118 115.667 -258.333 81 -421zM1234 637c4.66699 110.667 -25.667 202 -91 274c-66 72.667 -154.667 109 -266 109
c-110.667 0 -214.667 -36.333 -312 -109c-96 -72 -164.667 -163.333 -206 -274h875zM1123 1309l-144 149l-212 -149h-187l351 256h135l239 -256h-182z" />
    <glyph glyph-name="igrave" unicode="&#xec;" horiz-adv-x="409" 
d="M134 0l238 1120h143l-238 -1120h-143zM554 1268l-360 219l92 123l360 -224z" />
    <glyph glyph-name="iacute" unicode="&#xed;" horiz-adv-x="409" 
d="M133 0l238 1120h143l-238 -1120h-143zM399 1268l-43 118l455 224l39 -123z" />
    <glyph glyph-name="ograve" unicode="&#xf2;" 
d="M1115 147c-140 -116 -290.332 -174.001 -450.999 -174.001c-158 0 -282.667 57.333 -374 172s-120.333 250.667 -87 408c34.667 162.667 121 302.334 259 419.001c139.333 118 290 177 452 177c159.333 0 284.666 -58 375.999 -174s120 -254 86 -414
c-34 -160.667 -121 -298.667 -261 -414zM1173 884.999c-68 90 -162.999 135 -284.999 135c-125.333 0 -240.666 -46.667 -345.999 -140c-103.333 -90.667 -168.333 -199 -195 -325c-26.667 -122.667 -6.33398 -228.667 60.999 -318c67.333 -90 162.333 -135 285 -135
c126.667 0 242.667 46 348 138c101.333 90 165.666 199 192.999 327c26 122.667 5.66699 228.667 -61 318zM1100 1268l-358 219l92 123l359 -224z" />
    <glyph glyph-name="oacute" unicode="&#xf3;" 
d="M1115 147c-140 -116 -290.332 -174.001 -450.999 -174.001c-158 0 -282.667 57.333 -374 172s-120.333 250.667 -87 408c34.667 162.667 121 302.334 259 419.001c139.333 118 290 177 452 177c159.333 0 284.666 -58 375.999 -174s120 -254 86 -414
c-34 -160.667 -121 -298.667 -261 -414zM1173 884.999c-68 90 -162.999 135 -284.999 135c-125.333 0 -240.666 -46.667 -345.999 -140c-103.333 -90.667 -168.333 -199 -195 -325c-26.667 -122.667 -6.33398 -228.667 60.999 -318c67.333 -90 162.333 -135 285 -135
c126.667 0 242.667 46 348 138c101.333 90 165.666 199 192.999 327c26 122.667 5.66699 228.667 -61 318zM844.002 1268l-42 118l455 224l40 -123z" />
    <glyph glyph-name="ocircumflex" unicode="&#xf4;" 
d="M1115 147c-140 -116 -290.332 -174.001 -450.999 -174.001c-158 0 -282.667 57.333 -374 172s-120.333 250.667 -87 408c34.667 162.667 121 302.334 259 419.001c139.333 118 290 177 452 177c159.333 0 284.666 -58 375.999 -174s120 -254 86 -414
c-34 -160.667 -121 -298.667 -261 -414zM1173 884.999c-68 90 -162.999 135 -284.999 135c-125.333 0 -240.666 -46.667 -345.999 -140c-103.333 -90.667 -168.333 -199 -195 -325c-26.667 -122.667 -6.33398 -228.667 60.999 -318c67.333 -90 162.333 -135 285 -135
c126.667 0 242.667 46 348 138c101.333 90 165.666 199 192.999 327c26 122.667 5.66699 228.667 -61 318zM1130 1309l-144 149l-212 -149h-187l351 256h135l239 -256h-182z" />
    <glyph glyph-name="otilde" unicode="&#xf5;" 
d="M1115 147c-140 -116 -290.332 -174.001 -450.999 -174.001c-158 0 -282.667 57.333 -374 172s-120.333 250.667 -87 408c34.667 162.667 121 302.334 259 419.001c139.333 118 290 177 452 177c159.333 0 284.666 -58 375.999 -174s120 -254 86 -414
c-34 -160.667 -121 -298.667 -261 -414zM1173 884.999c-68 90 -162.999 135 -284.999 135c-125.333 0 -240.666 -46.667 -345.999 -140c-103.333 -90.667 -168.333 -199 -195 -325c-26.667 -122.667 -6.33398 -228.667 60.999 -318c67.333 -90 162.333 -135 285 -135
c126.667 0 242.667 46 348 138c101.333 90 165.666 199 192.999 327c26 122.667 5.66699 228.667 -61 318zM1324 1413c-83.333 -53.333 -156.002 -80.001 -218.002 -80.001c-27.333 0 -54.666 4.33301 -81.999 13c-18 6 -40.667 15.667 -68 29l-63 29
c-23.333 8.66699 -45.333 13 -66 13c-48 0 -98 -20.333 -150 -61l-50 102c74 57.333 151 86 231 86c26.667 0 53.334 -4.33301 80.001 -13c17.333 -6 39.333 -15.667 66 -29c2 -0.666992 4.66699 -2 8 -4c3.33301 -1.33301 5.66602 -2.66602 6.99902 -3.99902l16 -7l31 -14
c22.667 -8.66699 44.334 -13 65.001 -13c21.333 0 45.333 6 72 18l51 26l17 9z" />
    <glyph glyph-name="divide" unicode="&#xf7;" horiz-adv-x="1706" 
 />
    <glyph glyph-name="glyph216" unicode="&#xf9;" horiz-adv-x="1245" 
d="M972 0l36.9971 174.002h-4c-45.333 -66 -105.666 -116.667 -180.999 -152c-68.667 -32.667 -142 -49 -220 -49c-168 0 -284.667 56 -350 168c-26.667 46.667 -40.667 103.667 -42 171c-1.33301 54.667 5.66699 118 21 190l131 618h143l-131 -616
c-26.667 -125.333 -22.334 -221.333 12.999 -288c40.667 -76 121.334 -114 242.001 -114c94.667 0 180.334 30.333 257.001 91c54.667 43.333 97.334 94.666 128.001 153.999c24.667 47.333 44.667 107.666 60 180.999l126 592h143l-238 -1120h-135zM1010 1268l-359 219
l91 123l361 -224z" />
    <glyph glyph-name="glyph217" unicode="&#xfa;" horiz-adv-x="1245" 
d="M972 0l36.9971 174.002h-4c-45.333 -66 -105.666 -116.667 -180.999 -152c-68.667 -32.667 -142 -49 -220 -49c-168 0 -284.667 56 -350 168c-26.667 46.667 -40.667 103.667 -42 171c-1.33301 54.667 5.66699 118 21 190l131 618h143l-131 -616
c-26.667 -125.333 -22.334 -221.333 12.999 -288c40.667 -76 121.334 -114 242.001 -114c94.667 0 180.334 30.333 257.001 91c54.667 43.333 97.334 94.666 128.001 153.999c24.667 47.333 44.667 107.666 60 180.999l126 592h143l-238 -1120h-135zM776.997 1268l-43 118
l455 224l39 -123z" />
    <glyph glyph-name="glyph234" unicode="&#xfd;" horiz-adv-x="1097" 
d="M337 -393h-149l285 430l-205 1083h152l166 -893l571 893h151zM702 1268l-42 118l455 224l40 -123z" />
    <glyph glyph-name="Abreve" unicode="&#x102;" horiz-adv-x="1515" 
d="M1327 0l-112 510h-704l-329 -510h-158l969 1516h170l329 -1516h-165zM1042 1343l-444 -696h588zM1503 1823c-42.667 -74 -102 -129 -178 -165c-64.667 -30.667 -139.667 -46 -225 -46c-84.667 0 -153.334 15.333 -206.001 46c-59.333 35.333 -94.666 90.333 -105.999 165
h133c33.333 -62.667 101.333 -94 204 -94c45.333 0 88 7 128 21c47.333 16 86 40.333 116 73h134z" />
    <glyph glyph-name="abreve" unicode="&#x103;" horiz-adv-x="1398" 
d="M1128 0l42.001 196.999h-4c-130.667 -149.333 -292 -224 -484 -224c-168.667 0 -299 56.333 -391 169c-92.667 112.667 -121 253 -85 421c35.333 166.667 124 306.334 266 419.001c140 111.333 293.333 167 460 167c195.333 0 324.666 -75 387.999 -225h4l42 196h144
l-238 -1120h-144zM1196 882.999c-68 91.333 -165 137.001 -291 137.001c-132.667 0 -251.667 -44 -357 -132s-172.333 -198.333 -201 -331c-27.333 -130.667 -6.66602 -239.334 62.001 -326.001c69.333 -86 169.666 -129 300.999 -129c126 0 242 45 348 135
c105.333 88.667 171.333 196 198 322s6.66699 234 -60 324zM1385 1491c-43.333 -74 -102.669 -129 -178.002 -165c-65.333 -30.667 -140.666 -46 -225.999 -46c-84.667 0 -153 15.333 -205 46c-60 35.333 -95.333 90.333 -106 165h133
c32.667 -62.667 100.334 -94 203.001 -94c45.333 0 88.333 7 129 21c46.667 16 85.667 40.333 117 73h133z" />
    <glyph glyph-name="Ccaron" unicode="&#x10c;" horiz-adv-x="1274" 
 />
    <glyph glyph-name="ccaron" unicode="&#x10d;" horiz-adv-x="922" 
 />
    <glyph glyph-name="Dslash" unicode="&#x110;" horiz-adv-x="1523" 
d="M453 711l-121.999 -573.998h252c50 0 93.667 1.33301 131 4c46 3.33301 88.667 9 128 17c91.333 18.667 176 52.667 254 102c88 54.667 163 128.667 225 222c59.333 88 99.333 180.667 120 278c45.333 216 -5.33398 383.333 -152.001 502
c-58 47.333 -130.667 79.666 -218 96.999c-37.333 7.33301 -79.333 12.666 -126 15.999c-36 2 -79.667 3 -131 3h-219l-113 -530h460l-29 -137h-460zM331.001 848.002l141.999 668h442c87.333 0 170.666 -10 249.999 -30c88.667 -22 161 -53.667 217 -95
c198.667 -146.667 268.334 -359 209.001 -637c-57.333 -270 -216.666 -479.667 -477.999 -629c-74 -41.333 -160.333 -73.333 -259 -96c-87.333 -19.333 -174.333 -29 -261 -29h-442l151 711h-122l29 137h122z" />
    <glyph glyph-name="dcroat" unicode="&#x111;" horiz-adv-x="1402" 
d="M1121 0l42 196.999h-4c-132 -149.333 -293.333 -224 -484 -224c-168.667 0 -299 56.333 -391 169c-92.667 112.667 -121 253 -85 421c35.333 166.667 124 306.334 266 419.001c140 111.333 293.333 167 460 167c190 0 319.667 -73.667 389 -221h4l125 588h144l-322 -1516
h-144zM1189 882.999c-68 91.333 -165 137.001 -291 137.001c-132.667 0 -251.667 -44 -357 -132s-172.333 -198.333 -201 -331c-27.333 -130.667 -6.66602 -239.334 62.001 -326.001c69.333 -86 169.666 -129 300.999 -129c126 0 242 45 348 135
c105.333 88.667 171.333 196 198 322s6.66699 234 -60 324zM1682 1362l-29 -140h-624l29 140h624z" />
    <glyph glyph-name="Itilde" unicode="&#x128;" horiz-adv-x="462" 
d="M155 0l322 1516h151l-322 -1516h-151zM964 1726c-82.667 -52.667 -154.999 -79.002 -216.999 -79.002c-27.333 0 -54.666 4.33301 -81.999 13c-18 5.33301 -40.667 15 -68 29l-63 28c-23.333 9.33301 -45.333 14 -66 14c-48 0 -98 -20.667 -150 -62l-50 103
c73.333 57.333 150.333 86 231 86c26.667 0 53 -4.66699 79 -14c17.333 -5.33301 39.666 -14.666 66.999 -27.999c1.33301 -1.33301 3.66602 -2.66602 6.99902 -3.99902l8 -4c6 -3.33301 11.333 -6 16 -8l30 -13c23.333 -8.66699 45.333 -13 66 -13
c21.333 0 45 5.66699 71 17l51 26l18 10z" />
    <glyph glyph-name="itilde" unicode="&#x129;" horiz-adv-x="409" 
d="M133 0l238 1120h143l-238 -1120h-143zM862 1353c-83.333 -53.333 -155.999 -80.001 -217.999 -80.001c-27.333 0 -55 4.33301 -83 13c-18 6 -40.333 15.667 -67 29l-63 29c-24 8.66699 -46.333 13 -67 13c-48 0 -98 -20.333 -150 -61l-50 102
c73.333 57.333 150.333 86 231 86c26.667 0 53.334 -4.33301 80.001 -13c17.333 -6 39.666 -15.667 66.999 -29c0.666992 -0.666992 3 -2 7 -4c3.33301 -1.33301 6 -2.66602 8 -3.99902c6 -2.66699 11 -5 15 -7l30 -14c24 -8.66699 46.333 -13 67 -13
c21.333 0 44.666 6 69.999 18l53 26l17 9z" />
    <glyph glyph-name="Utilde" unicode="&#x168;" 
d="M1306 571c-12 -56.667 -27.332 -110.334 -45.999 -161.001c-22.667 -59.333 -48.667 -110.666 -78 -153.999c-128 -188.667 -301 -283 -519 -283s-351 94.333 -399 283c-10.667 43.333 -14.334 94.666 -11.001 153.999c2 50.667 9 104.334 21 161.001l201 945h152
l-201 -945c-10.667 -49.333 -17.334 -96 -20.001 -140c-2.66699 -56 1.66602 -100.667 12.999 -134c41.333 -124 132.333 -186 273 -186s258.334 62 353.001 186c26 33.333 49 78 69 134c16.667 44 30.334 90.667 41.001 140l201 945h151zM1379 1726
c-83.333 -52.667 -156.001 -79.002 -218.001 -79.002c-27.333 0 -54.666 4.33301 -81.999 13c-18.667 5.33301 -41.334 15 -68.001 29l-63 28c-22.667 9.33301 -44.667 14 -66 14c-48 0 -98 -20.667 -150 -62l-50 103c74 57.333 151.333 86 232 86
c26 0 52.333 -4.66699 79 -14c17.333 -5.33301 39.333 -14.666 66 -27.999c1.33301 -1.33301 4 -2.66602 8 -3.99902c2.66699 -2 5 -3.33301 7 -4c6 -3.33301 11 -6 15 -8l32 -13c22.667 -8.66699 44.334 -13 65.001 -13c21.333 0 45 5.66699 71 17l52 26l17 10z" />
    <glyph glyph-name="utilde" unicode="&#x169;" horiz-adv-x="1245" 
d="M972 0l36.9971 174.002h-4c-45.333 -66 -105.666 -116.667 -180.999 -152c-68.667 -32.667 -142 -49 -220 -49c-168 0 -284.667 56 -350 168c-26.667 46.667 -40.667 103.667 -42 171c-1.33301 54.667 5.66699 118 21 190l131 618h143l-131 -616
c-26.667 -125.333 -22.334 -221.333 12.999 -288c40.667 -76 121.334 -114 242.001 -114c94.667 0 180.334 30.333 257.001 91c54.667 43.333 97.334 94.666 128.001 153.999c24.667 47.333 44.667 107.666 60 180.999l126 592h143l-238 -1120h-135zM1324 1413
c-83.333 -53.333 -156 -80.001 -218 -80.001c-27.333 0 -55 4.33301 -83 13c-18 6 -40.333 15.667 -67 29l-63 29c-24 8.66699 -46.333 13 -67 13c-48 0 -98 -20.333 -150 -61l-50 102c74 57.333 151 86 231 86c26.667 0 53.667 -4.33301 81 -13
c17.333 -6 39.333 -15.667 66 -29l8 -4c2.66699 -1.33301 5 -2.66602 7 -3.99902c6 -2.66699 11 -5 15 -7l31 -14c23.333 -8.66699 45.333 -13 66 -13c21.333 0 45 6 71 18l52 26l17 9z" />
    <glyph glyph-name="Ohorn" unicode="&#x1a0;" horiz-adv-x="1779" 
d="M1606 1214c-101.333 127.333 -240.997 191 -418.997 191c-180 0 -347 -64.333 -501 -193c-153.333 -128.667 -249 -282.667 -287 -462c-36.667 -174.667 -4 -325 98 -451c101.333 -125.333 239.666 -188 414.999 -188c177.333 0 343.666 63 498.999 189s252 278 290 456
c37.333 178 5.66602 330.667 -95.001 458zM1702 1348c10.667 -10.667 20.667 -21.999 30 -33.999c126.667 -153.333 167 -338.666 121 -555.999s-165.333 -403 -358 -557c-190 -152 -394 -228 -612 -228c-214.667 0 -385.334 75.333 -512.001 226
c-128 153.333 -169.333 337 -124 551c46.667 220 165 407.333 355 562c188.667 153.333 393.667 230 615 230c156.667 0 289.334 -39 398.001 -117l38 16c14.667 6 37 18.667 67 38s49.667 43 59 71h-65l39 180h189l-40 -186c-11.333 -32.667 -25.333 -59.834 -42 -81.501
s-35.167 -39.834 -55.5 -54.501s-37.5 -26 -51.5 -34c-12 -7.33301 -29 -16 -51 -26z" />
    <glyph glyph-name="ohorn" unicode="&#x1a1;" 
d="M1173 885c-68 90 -162.999 135 -284.999 135c-125.333 0 -240.666 -46.667 -345.999 -140c-103.333 -90.667 -168.333 -199 -195 -325c-26.667 -122.667 -6.33398 -228.667 60.999 -318c67.333 -90 162.333 -135 285 -135c126.667 0 242.667 46 348 138
c101.333 90 165.666 199 192.999 327c26 122.667 5.66699 228.667 -61 318zM1299 962c84 -113.333 109.669 -246.999 77.002 -400.999c-34 -160.667 -121 -298.667 -261 -414c-140 -116 -290.333 -174 -451 -174c-158 0 -282.667 57.333 -374 172s-120.333 250.667 -87 408
c34.667 162.667 121 302.334 259 419.001c139.333 118 290 177 452 177c125.333 0 229.333 -35.667 312 -107l25 11c14 6 35.167 18.667 63.5 38s47.166 43 56.499 71h-61l38 180h176l-40 -186c-11.333 -32.667 -24.833 -59.834 -40.5 -81.501
s-32.834 -39.834 -51.501 -54.501s-35 -26 -49 -34c-11.333 -6.66699 -26 -14.667 -44 -24z" />
    <glyph glyph-name="Uhorn" unicode="&#x1af;" 
d="M1470 1344l-164 -772.997c-12 -56.667 -27.667 -110.334 -47 -161.001c-22 -59.333 -48 -110.666 -78 -153.999c-127.333 -188.667 -300 -283 -518 -283s-351 94.333 -399 283c-10.667 43.333 -14.667 94.666 -12 153.999c2.66699 50.667 10 104.334 22 161.001l201 945
h151l-201 -945c-10.667 -49.333 -17.334 -96 -20.001 -140c-2 -56 2.33301 -100.667 13 -134c42 -124 133.333 -186 274 -186s258.334 62 353.001 186c26 33.333 49 78 69 134c16 44 29.333 90.667 40 140l201 945h152l-8 -36c30 19.333 49.333 42.666 58 69.999h-65l38 180
h189l-39 -186c-11.333 -32.667 -25.333 -59.834 -42 -81.501s-35.167 -39.834 -55.5 -54.501s-37.5 -26 -51.5 -34c-14.667 -8 -35 -18 -61 -30z" />
    <glyph glyph-name="uhorn" unicode="&#x1b0;" horiz-adv-x="1245" 
d="M1310 954l-203.003 -953.997h-135l37 174h-4c-45.333 -66 -105.666 -116.667 -180.999 -152c-68.667 -32.667 -142 -49 -220 -49c-168 0 -284.667 56 -350 168c-26.667 46.667 -40.667 103.667 -42 171c-1.33301 54.667 5.66699 118 21 190l131 618h143l-131 -616
c-26.667 -125.333 -22.334 -221.333 12.999 -288c40.667 -76 121.334 -114 242.001 -114c94.667 0 180.334 30.333 257.001 91c54.667 43.333 97.334 94.666 128.001 153.999c24.667 47.333 44.667 107.666 60 180.999l126 592h143l-7 -33l6 4c28 19.333 46.667 43 56 71
h-61l39 180h176l-40 -186c-11.333 -32.667 -24.833 -59.834 -40.5 -81.501s-33 -39.834 -52 -54.501s-35.5 -26.167 -49.5 -34.5s-34.333 -19.166 -61 -32.499z" />
    <glyph glyph-name="uni1EA0" unicode="&#x1ea0;" horiz-adv-x="1515" 
d="M1327 0l-112 510h-704l-329 -510h-158l969 1516h170l329 -1516h-165zM1042 1343l-444 -696h588zM600 -385l55 259h152l-55 -259h-152z" />
    <glyph glyph-name="uni1EA1" unicode="&#x1ea1;" horiz-adv-x="1398" 
d="M1128 0l42.001 196.999h-4c-130.667 -149.333 -292 -224 -484 -224c-168.667 0 -299 56.333 -391 169c-92.667 112.667 -121 253 -85 421c35.333 166.667 124 306.334 266 419.001c140 111.333 293.333 167 460 167c195.333 0 324.666 -75 387.999 -225h4l42 196h144
l-238 -1120h-144zM1196 882.999c-68 91.333 -165 137.001 -291 137.001c-132.667 0 -251.667 -44 -357 -132s-172.333 -198.333 -201 -331c-27.333 -130.667 -6.66602 -239.334 62.001 -326.001c69.333 -86 169.666 -129 300.999 -129c126 0 242 45 348 135
c105.333 88.667 171.333 196 198 322s6.66699 234 -60 324zM521.001 -385l55 259h152l-55 -259h-152z" />
    <glyph glyph-name="uni1EA2" unicode="&#x1ea2;" horiz-adv-x="1515" 
d="M1327 0l-112 510h-704l-329 -510h-158l969 1516h170l329 -1516h-165zM1042 1343l-444 -696h588zM1335 1794c-6 -7.33301 -15.6641 -16.668 -28.9971 -28.001l-16 -14l-49 -40c-10 -9.33301 -19.667 -19.333 -29 -30c-16 -18 -29.333 -47 -40 -87h-127l6 27
c7.33301 34 23.666 67 48.999 99c7.33301 9.33301 18.666 21.333 33.999 36c6.66699 6 17.334 14.667 32.001 26l33 26l29 28c14 14.667 23 31 27 49c6 28 2 50 -12 66c-15.333 18 -33.666 27 -54.999 27c-30.667 0 -58.334 -14 -83.001 -42
c-8.66699 -10 -15.667 -21.333 -21 -34c-2.66699 -7.33301 -7.33398 -27.666 -14.001 -60.999h-129l8 39c11.333 54 43.666 102 96.999 144c50 38 105.333 57 166 57c62 0 108.333 -18.667 139 -56c32.667 -40.667 43 -88 31 -142c-6 -30.667 -21.667 -60.667 -47 -90z" />
    <glyph glyph-name="uni1EA3" unicode="&#x1ea3;" horiz-adv-x="1398" 
d="M1128 0l42.001 196.999h-4c-130.667 -149.333 -292 -224 -484 -224c-168.667 0 -299 56.333 -391 169c-92.667 112.667 -121 253 -85 421c35.333 166.667 124 306.334 266 419.001c140 111.333 293.333 167 460 167c195.333 0 324.666 -75 387.999 -225h4l42 196h144
l-238 -1120h-144zM1196 882.999c-68 91.333 -165 137.001 -291 137.001c-132.667 0 -251.667 -44 -357 -132s-172.333 -198.333 -201 -331c-27.333 -130.667 -6.66602 -239.334 62.001 -326.001c69.333 -86 169.666 -129 300.999 -129c126 0 242 45 348 135
c105.333 88.667 171.333 196 198 322s6.66699 234 -60 324zM1182 1442c-6 -7.33301 -15.666 -16.667 -28.999 -28l-16 -14l-49 -40c-10 -9.33301 -19.667 -19.333 -29 -30c-16 -18 -29.333 -47 -40 -87h-127l6 27c7.33301 34 23.666 67 48.999 99
c7.33301 9.33301 19 21.333 35 36c6 6 16.333 14.667 31 26l33 26c10.667 9.33301 20.667 18.666 30 27.999c13.333 14.667 22 31 26 49c6 28 2 50 -12 66c-15.333 18 -33.666 27 -54.999 27c-30.667 0 -58.334 -14 -83.001 -42c-8.66699 -10 -15.334 -21.333 -20.001 -34
c-3.33301 -7.33301 -8.33301 -27.666 -15 -60.999h-129l8 39c11.333 54 44 102 98 144c49.333 38 104.333 57 165 57c62 0 108.333 -18.667 139 -56c32.667 -40.667 43.334 -88 32.001 -142c-6.66699 -30.667 -22.667 -60.667 -48 -90z" />
    <glyph glyph-name="uni1EA4" unicode="&#x1ea4;" horiz-adv-x="1515" 
d="M1327 0l-112 510h-704l-329 -510h-158l969 1516h170l329 -1516h-165zM1042 1343l-444 -696h588zM1387 1803l-43 118l456 224l39 -123zM1286 1642l-144 150l-212 -150h-186l351 256h135l239 -256h-183z" />
    <glyph glyph-name="uni1EA5" unicode="&#x1ea5;" horiz-adv-x="1398" 
d="M1128 0l42.001 196.999h-4c-130.667 -149.333 -292 -224 -484 -224c-168.667 0 -299 56.333 -391 169c-92.667 112.667 -121 253 -85 421c35.333 166.667 124 306.334 266 419.001c140 111.333 293.333 167 460 167c195.333 0 324.666 -75 387.999 -225h4l42 196h144
l-238 -1120h-144zM1196 882.999c-68 91.333 -165 137.001 -291 137.001c-132.667 0 -251.667 -44 -357 -132s-172.333 -198.333 -201 -331c-27.333 -130.667 -6.66602 -239.334 62.001 -326.001c69.333 -86 169.666 -129 300.999 -129c126 0 242 45 348 135
c105.333 88.667 171.333 196 198 322s6.66699 234 -60 324zM1313 1448l-43 118l455 224l39 -123zM1159 1309l-145 149l-212 -149h-186l352 256h135l238 -256h-182z" />
    <glyph glyph-name="uni1EA6" unicode="&#x1ea6;" horiz-adv-x="1515" 
d="M1327 0l-112 510h-704l-329 -510h-158l969 1516h170l329 -1516h-165zM1042 1343l-444 -696h588zM1403 1863l-359 219l92 123l360 -224zM1286 1642l-144 150l-212 -150h-186l351 256h135l239 -256h-183z" />
    <glyph glyph-name="uni1EA7" unicode="&#x1ea7;" horiz-adv-x="1398" 
d="M1128 0l42.001 196.999h-4c-130.667 -149.333 -292 -224 -484 -224c-168.667 0 -299 56.333 -391 169c-92.667 112.667 -121 253 -85 421c35.333 166.667 124 306.334 266 419.001c140 111.333 293.333 167 460 167c195.333 0 324.666 -75 387.999 -225h4l42 196h144
l-238 -1120h-144zM1196 882.999c-68 91.333 -165 137.001 -291 137.001c-132.667 0 -251.667 -44 -357 -132s-172.333 -198.333 -201 -331c-27.333 -130.667 -6.66602 -239.334 62.001 -326.001c69.333 -86 169.666 -129 300.999 -129c126 0 242 45 348 135
c105.333 88.667 171.333 196 198 322s6.66699 234 -60 324zM1297 1539l-358 219l91 123l360 -224zM1159 1309l-145 149l-212 -149h-186l352 256h135l238 -256h-182z" />
    <glyph glyph-name="uni1EA8" unicode="&#x1ea8;" horiz-adv-x="1515" 
d="M1327 0l-112 510h-704l-329 -510h-158l969 1516h170l329 -1516h-165zM1042 1343l-444 -696h588zM1610 2045c-6.66699 -7.33301 -16.3311 -16.667 -28.998 -28l-16 -14l-50 -40c-10 -9.33301 -19.667 -19.333 -29 -30c-16 -18 -29.333 -47 -40 -87h-127l6 27
c7.33301 34 23.666 67 48.999 99c7.33301 9.33301 19 21.333 35 36c6.66699 6 17 14.667 31 26l33 26c10.667 9.33301 20.667 18.666 30 28c13.333 14.667 22 31 26 49c6 28 2 50 -12 66c-15.333 18 -33.666 27 -54.999 27c-30.667 0 -58.334 -14 -83.001 -42
c-8.66699 -10 -15.334 -21.333 -20.001 -34c-2.66699 -7.33301 -7.66699 -27.666 -15 -61h-129l8 39c11.333 54 44 102 98 144c49.333 38 104.333 57 165 57c62 0 108.333 -18.667 139 -56c32.667 -40.667 43.334 -88 32.001 -142
c-6.66699 -30.667 -22.334 -60.667 -47.001 -90zM1286 1642l-144 150l-212 -150h-186l351 256h135l239 -256h-183z" />
    <glyph glyph-name="uni1EA9" unicode="&#x1ea9;" horiz-adv-x="1398" 
d="M1128 0l42.001 196.999h-4c-130.667 -149.333 -292 -224 -484 -224c-168.667 0 -299 56.333 -391 169c-92.667 112.667 -121 253 -85 421c35.333 166.667 124 306.334 266 419.001c140 111.333 293.333 167 460 167c195.333 0 324.666 -75 387.999 -225h4l42 196h144
l-238 -1120h-144zM1196 882.999c-68 91.333 -165 137.001 -291 137.001c-132.667 0 -251.667 -44 -357 -132s-172.333 -198.333 -201 -331c-27.333 -130.667 -6.66602 -239.334 62.001 -326.001c69.333 -86 169.666 -129 300.999 -129c126 0 242 45 348 135
c105.333 88.667 171.333 196 198 322s6.66699 234 -60 324zM1159 1309l-145 149l-212 -149h-186l352 256h135l238 -256h-182zM1515 1683c-6.66699 -7.33301 -16.3311 -16.667 -28.998 -28l-16 -14l-50 -40c-10 -9.33301 -19.667 -19.333 -29 -30
c-16 -18 -29.333 -47 -40 -87h-127l6 27c7.33301 34 23.666 67 48.999 99c7.33301 9.33301 19 21.333 35 36c6.66699 6 17 14.667 31 26l33 26c10.667 9.33301 20.667 18.666 30 27.999c13.333 14.667 22 31 26 49c6 28 2 50 -12 66c-15.333 18 -33.666 27 -54.999 27
c-30.667 0 -58.334 -14 -83.001 -42c-8.66699 -10 -15.334 -21.333 -20.001 -34c-3.33301 -7.33301 -8.33301 -27.666 -15 -60.999h-129l8 39c11.333 54 44 102 98 144c49.333 38 104.333 57 165 57c62 0 108.333 -18.667 139 -56c32.667 -40.667 43.334 -88 32.001 -142
c-6.66699 -30.667 -22.334 -60.667 -47.001 -90z" />
    <glyph glyph-name="uni1EAA" unicode="&#x1eaa;" horiz-adv-x="1515" 
d="M1327 0l-112 510h-704l-329 -510h-158l969 1516h170l329 -1516h-165zM1042 1343l-444 -696h588zM1643 1987c-82 -52.667 -153.999 -79 -215.999 -79c-27.333 0 -55 4.33301 -83 13c-18 5.33301 -40.667 15 -68 29l-63 28c-23.333 9.33301 -45.333 14 -66 14
c-48 0 -98 -20.667 -150 -62l-50 103c73.333 57.333 150.333 86 231 86c26.667 0 53 -4.66699 79 -14c18 -5.33301 40.333 -14.666 67 -28c1.33301 -1.33301 4 -2.66602 8 -4c3.33301 -2 6 -3.33301 8 -4c6 -3.33301 11 -6 15 -8l30 -13c24 -8.66699 46.333 -13 67 -13
c21.333 0 44.666 5.66699 69.999 17l52 26l18 10zM1286 1642l-144 150l-212 -150h-186l351 256h135l239 -256h-183z" />
    <glyph glyph-name="uni1EAB" unicode="&#x1eab;" horiz-adv-x="1398" 
d="M1128 0l42.001 196.999h-4c-130.667 -149.333 -292 -224 -484 -224c-168.667 0 -299 56.333 -391 169c-92.667 112.667 -121 253 -85 421c35.333 166.667 124 306.334 266 419.001c140 111.333 293.333 167 460 167c195.333 0 324.666 -75 387.999 -225h4l42 196h144
l-238 -1120h-144zM1196 882.999c-68 91.333 -165 137.001 -291 137.001c-132.667 0 -251.667 -44 -357 -132s-172.333 -198.333 -201 -331c-27.333 -130.667 -6.66602 -239.334 62.001 -326.001c69.333 -86 169.666 -129 300.999 -129c126 0 242 45 348 135
c105.333 88.667 171.333 196 198 322s6.66699 234 -60 324zM1479 1674c-83.333 -53.333 -155.999 -80.001 -217.999 -80.001c-27.333 0 -55 4.33301 -83 13c-18 6 -40.333 15.667 -67 29l-63 29c-23.333 8.66699 -45.333 13 -66 13c-48 0 -98 -20.333 -150 -61l-51 102
c74 57.333 151.333 86 232 86c26.667 0 53 -4.33301 79 -13c17.333 -6 39.666 -15.667 66.999 -29c0.666992 -0.666992 3 -2 7 -4c3.33301 -1.33301 6 -2.66602 8 -3.99902c6 -2.66699 11 -5 15 -7l30 -14c24 -8.66699 46.333 -13 67 -13c21.333 0 45 6 71 18l52 26l17 9z
M1159 1309l-145 149l-212 -149h-186l352 256h135l238 -256h-182z" />
    <glyph glyph-name="uni1EAC" unicode="&#x1eac;" horiz-adv-x="1515" 
d="M1327 0l-112 510h-704l-329 -510h-158l969 1516h170l329 -1516h-165zM1042 1343l-444 -696h588zM600 -385l55 259h152l-55 -259h-152zM1286 1642l-144 150l-212 -150h-186l351 256h135l239 -256h-183z" />
    <glyph glyph-name="uni1EAD" unicode="&#x1ead;" horiz-adv-x="1398" 
d="M1128 0l42.001 196.999h-4c-130.667 -149.333 -292 -224 -484 -224c-168.667 0 -299 56.333 -391 169c-92.667 112.667 -121 253 -85 421c35.333 166.667 124 306.334 266 419.001c140 111.333 293.333 167 460 167c195.333 0 324.666 -75 387.999 -225h4l42 196h144
l-238 -1120h-144zM1196 882.999c-68 91.333 -165 137.001 -291 137.001c-132.667 0 -251.667 -44 -357 -132s-172.333 -198.333 -201 -331c-27.333 -130.667 -6.66602 -239.334 62.001 -326.001c69.333 -86 169.666 -129 300.999 -129c126 0 242 45 348 135
c105.333 88.667 171.333 196 198 322s6.66699 234 -60 324zM521.001 -385l55 259h152l-55 -259h-152zM1159 1309l-145 149l-212 -149h-186l352 256h135l238 -256h-182z" />
    <glyph glyph-name="uni1EAE" unicode="&#x1eae;" horiz-adv-x="1515" 
d="M1327 0l-112 510h-704l-329 -510h-158l969 1516h170l329 -1516h-165zM1042 1343l-444 -696h588zM1156 1803l-43 118l456 224l39 -123zM1503 1823c-42 -74 -101.001 -129 -177.001 -165c-65.333 -30.667 -140.333 -46 -225 -46c-85.333 0 -154 15.333 -206 46
c-59.333 35.333 -95 90.333 -107 165h134c33.333 -62.667 101.333 -94 204 -94c45.333 0 88 7 128 21c46.667 16 85.334 40.333 116.001 73h133z" />
    <glyph glyph-name="uni1EAF" unicode="&#x1eaf;" horiz-adv-x="1398" 
d="M1128 0l42.001 196.999h-4c-130.667 -149.333 -292 -224 -484 -224c-168.667 0 -299 56.333 -391 169c-92.667 112.667 -121 253 -85 421c35.333 166.667 124 306.334 266 419.001c140 111.333 293.333 167 460 167c195.333 0 324.666 -75 387.999 -225h4l42 196h144
l-238 -1120h-144zM1196 882.999c-68 91.333 -165 137.001 -291 137.001c-132.667 0 -251.667 -44 -357 -132s-172.333 -198.333 -201 -331c-27.333 -130.667 -6.66602 -239.334 62.001 -326.001c69.333 -86 169.666 -129 300.999 -129c126 0 242 45 348 135
c105.333 88.667 171.333 196 198 322s6.66699 234 -60 324zM1017 1478l-43 118l456 224l39 -123zM1385 1491c-43.333 -74 -102.669 -129 -178.002 -165c-65.333 -30.667 -140.666 -46 -225.999 -46c-84.667 0 -153 15.333 -205 46c-60 35.333 -95.333 90.333 -106 165h133
c32.667 -62.667 100.334 -94 203.001 -94c45.333 0 88.333 7 129 21c46.667 16 85.667 40.333 117 73h133z" />
    <glyph glyph-name="uni1EB0" unicode="&#x1eb0;" horiz-adv-x="1515" 
d="M1327 0l-112 510h-704l-329 -510h-158l969 1516h170l329 -1516h-165zM1042 1343l-444 -696h588zM1252 1863l-359 219l92 123l360 -224zM1503 1823c-42 -74 -101.001 -129 -177.001 -165c-65.333 -30.667 -140.333 -46 -225 -46c-85.333 0 -154 15.333 -206 46
c-59.333 35.333 -95 90.333 -107 165h134c33.333 -62.667 101.333 -94 204 -94c45.333 0 88 7 128 21c46.667 16 85.334 40.333 116.001 73h133z" />
    <glyph glyph-name="uni1EB1" unicode="&#x1eb1;" horiz-adv-x="1398" 
d="M1128 0l42.001 196.999h-4c-130.667 -149.333 -292 -224 -484 -224c-168.667 0 -299 56.333 -391 169c-92.667 112.667 -121 253 -85 421c35.333 166.667 124 306.334 266 419.001c140 111.333 293.333 167 460 167c195.333 0 324.666 -75 387.999 -225h4l42 196h144
l-238 -1120h-144zM1196 882.999c-68 91.333 -165 137.001 -291 137.001c-132.667 0 -251.667 -44 -357 -132s-172.333 -198.333 -201 -331c-27.333 -130.667 -6.66602 -239.334 62.001 -326.001c69.333 -86 169.666 -129 300.999 -129c126 0 242 45 348 135
c105.333 88.667 171.333 196 198 322s6.66699 234 -60 324zM1147 1539l-358 219l91 123l360 -224zM1385 1491c-43.333 -74 -102.669 -129 -178.002 -165c-65.333 -30.667 -140.666 -46 -225.999 -46c-84.667 0 -153 15.333 -205 46c-60 35.333 -95.333 90.333 -106 165h133
c32.667 -62.667 100.334 -94 203.001 -94c45.333 0 88.333 7 129 21c46.667 16 85.667 40.333 117 73h133z" />
    <glyph glyph-name="uni1EB2" unicode="&#x1eb2;" horiz-adv-x="1515" 
d="M1327 0l-112 510h-704l-329 -510h-158l969 1516h170l329 -1516h-165zM1042 1343l-444 -696h588zM1389 2045c-6.66699 -7.33301 -16.3311 -16.667 -28.998 -28l-16 -14l-50 -40c-10 -9.33301 -19.667 -19.333 -29 -30c-16 -18 -29.333 -47 -40 -87h-127l6 27
c7.33301 34 23.666 67 48.999 99c7.33301 9.33301 19 21.333 35 36c6.66699 6 17 14.667 31 26l33 26c10.667 9.33301 20.667 18.666 30 28c13.333 14.667 22 31 26 49c6 28 2 50 -12 66c-15.333 18 -33.666 27 -54.999 27c-30.667 0 -58.334 -14 -83.001 -42
c-8.66699 -10 -15.334 -21.333 -20.001 -34c-2.66699 -7.33301 -7.66699 -27.666 -15 -61h-129l8 39c11.333 54 44 102 98 144c49.333 38 104.333 57 165 57c62 0 108.333 -18.667 139 -56c32.667 -40.667 43.334 -88 32.001 -142
c-6.66699 -30.667 -22.334 -60.667 -47.001 -90zM1503 1823c-42 -74 -101.001 -129 -177.001 -165c-65.333 -30.667 -140.333 -46 -225 -46c-85.333 0 -154 15.333 -206 46c-59.333 35.333 -95 90.333 -107 165h134c33.333 -62.667 101.333 -94 204 -94
c45.333 0 88 7 128 21c46.667 16 85.334 40.333 116.001 73h133z" />
    <glyph glyph-name="uni1EB3" unicode="&#x1eb3;" horiz-adv-x="1398" 
d="M1128 0l42.001 196.999h-4c-130.667 -149.333 -292 -224 -484 -224c-168.667 0 -299 56.333 -391 169c-92.667 112.667 -121 253 -85 421c35.333 166.667 124 306.334 266 419.001c140 111.333 293.333 167 460 167c195.333 0 324.666 -75 387.999 -225h4l42 196h144
l-238 -1120h-144zM1196 882.999c-68 91.333 -165 137.001 -291 137.001c-132.667 0 -251.667 -44 -357 -132s-172.333 -198.333 -201 -331c-27.333 -130.667 -6.66602 -239.334 62.001 -326.001c69.333 -86 169.666 -129 300.999 -129c126 0 242 45 348 135
c105.333 88.667 171.333 196 198 322s6.66699 234 -60 324zM1268 1703c-6 -7.33301 -15.666 -16.667 -28.999 -28l-16 -14l-50 -40c-10 -9.33301 -19.667 -19.333 -29 -30c-16 -18 -29 -47 -39 -87h-127l5 27c7.33301 34 23.666 67 48.999 99
c7.33301 9.33301 19 21.333 35 36c6.66699 6 17.334 14.667 32.001 26l32 26c10.667 9.33301 20.667 18.666 30 27.999c14 14.667 22.667 31 26 49c6 28 2 50 -12 66c-15.333 18 -33.666 27 -54.999 27c-30.667 0 -58.334 -14 -83.001 -42
c-8.66699 -10 -15.334 -21.333 -20.001 -34c-2.66699 -7.33301 -7.66699 -27.666 -15 -60.999h-129l8 39c12 54 44.667 102 98 144c49.333 38 104.333 57 165 57c62 0 108.333 -18.667 139 -56c32.667 -40.667 43.334 -88 32.001 -142
c-6.66699 -30.667 -22.334 -60.667 -47.001 -90zM1385 1491c-43.333 -74 -102.669 -129 -178.002 -165c-65.333 -30.667 -140.666 -46 -225.999 -46c-84.667 0 -153 15.333 -205 46c-60 35.333 -95.333 90.333 -106 165h133c32.667 -62.667 100.334 -94 203.001 -94
c45.333 0 88.333 7 129 21c46.667 16 85.667 40.333 117 73h133z" />
    <glyph glyph-name="uni1EB4" unicode="&#x1eb4;" horiz-adv-x="1515" 
d="M1327 0l-112 510h-704l-329 -510h-158l969 1516h170l329 -1516h-165zM1042 1343l-444 -696h588zM1643 1987c-82 -52.667 -153.999 -79 -215.999 -79c-27.333 0 -55 4.33301 -83 13c-18 5.33301 -40.667 15 -68 29l-63 28c-23.333 9.33301 -45.333 14 -66 14
c-48 0 -98 -20.667 -150 -62l-50 103c73.333 57.333 150.333 86 231 86c26.667 0 53 -4.66699 79 -14c18 -5.33301 40.333 -14.666 67 -28c1.33301 -1.33301 4 -2.66602 8 -4c3.33301 -2 6 -3.33301 8 -4c6 -3.33301 11 -6 15 -8l30 -13c24 -8.66699 46.333 -13 67 -13
c21.333 0 44.666 5.66699 69.999 17l52 26l18 10zM1503 1823c-42 -74 -101.001 -129 -177.001 -165c-65.333 -30.667 -140.333 -46 -225 -46c-85.333 0 -154 15.333 -206 46c-59.333 35.333 -95 90.333 -107 165h134c33.333 -62.667 101.333 -94 204 -94
c45.333 0 88 7 128 21c46.667 16 85.334 40.333 116.001 73h133z" />
    <glyph glyph-name="uni1EB5" unicode="&#x1eb5;" horiz-adv-x="1398" 
d="M1128 0l42.001 196.999h-4c-130.667 -149.333 -292 -224 -484 -224c-168.667 0 -299 56.333 -391 169c-92.667 112.667 -121 253 -85 421c35.333 166.667 124 306.334 266 419.001c140 111.333 293.333 167 460 167c195.333 0 324.666 -75 387.999 -225h4l42 196h144
l-238 -1120h-144zM1196 882.999c-68 91.333 -165 137.001 -291 137.001c-132.667 0 -251.667 -44 -357 -132s-172.333 -198.333 -201 -331c-27.333 -130.667 -6.66602 -239.334 62.001 -326.001c69.333 -86 169.666 -129 300.999 -129c126 0 242 45 348 135
c105.333 88.667 171.333 196 198 322s6.66699 234 -60 324zM1479 1674c-83.333 -53.333 -155.999 -80.001 -217.999 -80.001c-27.333 0 -55 4.33301 -83 13c-18 6 -40.333 15.667 -67 29l-63 29c-23.333 8.66699 -45.333 13 -66 13c-48 0 -98 -20.333 -150 -61l-51 102
c74 57.333 151.333 86 232 86c26.667 0 53 -4.33301 79 -13c17.333 -6 39.666 -15.667 66.999 -29c0.666992 -0.666992 3 -2 7 -4c3.33301 -1.33301 6 -2.66602 8 -3.99902c6 -2.66699 11 -5 15 -7l30 -14c24 -8.66699 46.333 -13 67 -13c21.333 0 45 6 71 18l52 26l17 9z
M1385 1491c-43.333 -74 -102.669 -129 -178.002 -165c-65.333 -30.667 -140.666 -46 -225.999 -46c-84.667 0 -153 15.333 -205 46c-60 35.333 -95.333 90.333 -106 165h133c32.667 -62.667 100.334 -94 203.001 -94c45.333 0 88.333 7 129 21
c46.667 16 85.667 40.333 117 73h133z" />
    <glyph glyph-name="uni1EB6" unicode="&#x1eb6;" horiz-adv-x="1515" 
d="M1327 0l-112 510h-704l-329 -510h-158l969 1516h170l329 -1516h-165zM1042 1343l-444 -696h588zM600 -385l55 259h152l-55 -259h-152zM1503 1823c-42 -74 -101.001 -129 -177.001 -165c-65.333 -30.667 -140.333 -46 -225 -46c-85.333 0 -154 15.333 -206 46
c-59.333 35.333 -95 90.333 -107 165h134c33.333 -62.667 101.333 -94 204 -94c45.333 0 88 7 128 21c46.667 16 85.334 40.333 116.001 73h133z" />
    <glyph glyph-name="uni1EB7" unicode="&#x1eb7;" horiz-adv-x="1398" 
d="M1128 0l42.001 196.999h-4c-130.667 -149.333 -292 -224 -484 -224c-168.667 0 -299 56.333 -391 169c-92.667 112.667 -121 253 -85 421c35.333 166.667 124 306.334 266 419.001c140 111.333 293.333 167 460 167c195.333 0 324.666 -75 387.999 -225h4l42 196h144
l-238 -1120h-144zM1196 882.999c-68 91.333 -165 137.001 -291 137.001c-132.667 0 -251.667 -44 -357 -132s-172.333 -198.333 -201 -331c-27.333 -130.667 -6.66602 -239.334 62.001 -326.001c69.333 -86 169.666 -129 300.999 -129c126 0 242 45 348 135
c105.333 88.667 171.333 196 198 322s6.66699 234 -60 324zM521.001 -385l55 259h152l-55 -259h-152zM1385 1491c-43.333 -74 -102.669 -129 -178.002 -165c-65.333 -30.667 -140.666 -46 -225.999 -46c-84.667 0 -153 15.333 -205 46c-60 35.333 -95.333 90.333 -106 165
h133c32.667 -62.667 100.334 -94 203.001 -94c45.333 0 88.333 7 129 21c46.667 16 85.667 40.333 117 73h133z" />
    <glyph glyph-name="uni1EB8" unicode="&#x1eb8;" horiz-adv-x="1097" 
d="M143 0l322 1516h829l-29 -138h-677l-116 -544h655l-29 -138h-655l-119 -559h677l-29 -137h-829zM400 -385l55 259h152l-55 -259h-152z" />
    <glyph glyph-name="uni1EB9" unicode="&#x1eb9;" horiz-adv-x="1331" 
d="M1352 508h-1020c-18 -110 8 -205.333 78 -286c69.333 -80 159.333 -120 270 -120c88 0 173.667 23.333 257 70c86.667 48.667 153.667 113.667 201 195h152c-66.667 -117.333 -158.334 -212.333 -275.001 -285s-236.667 -109 -360 -109c-161.333 0 -287 57.667 -377 173
c-89.333 114 -117 251.667 -83 413c34.667 160.667 121 299 259 415c139.333 116.667 289 175 449 175c162.667 0 288.667 -59.667 378 -179c88.667 -118 115.667 -258.333 81 -421zM1234 637c4.66699 110.667 -25.667 202 -91 274c-66 72.667 -154.667 109 -266 109
c-110.667 0 -214.667 -36.333 -312 -109c-96 -72 -164.667 -163.333 -206 -274h875zM504 -385l55 259h152l-55 -259h-152z" />
    <glyph glyph-name="uni1EBA" unicode="&#x1eba;" horiz-adv-x="1097" 
d="M143 0l322 1516h829l-29 -138h-677l-116 -544h655l-29 -138h-655l-119 -559h677l-29 -137h-829zM1125 1794c-6 -7.33301 -15.6641 -16.668 -28.9971 -28.001l-16 -14l-49 -40c-10 -9.33301 -19.667 -19.333 -29 -30c-16 -18 -29.333 -47 -40 -87h-127l6 27
c7.33301 34 23.666 67 48.999 99c7.33301 9.33301 18.666 21.333 33.999 36c6.66699 6 17.334 14.667 32.001 26l33 26l29 28c14 14.667 23 31 27 49c6 28 2 50 -12 66c-15.333 18 -33.666 27 -54.999 27c-30.667 0 -58.334 -14 -83.001 -42
c-8.66699 -10 -15.667 -21.333 -21 -34c-2.66699 -7.33301 -7.33398 -27.666 -14.001 -60.999h-129l8 39c11.333 54 43.666 102 96.999 144c50 38 105.333 57 166 57c62 0 108.333 -18.667 139 -56c32.667 -40.667 43 -88 31 -142c-6 -30.667 -21.667 -60.667 -47 -90z" />
    <glyph glyph-name="uni1EBB" unicode="&#x1ebb;" horiz-adv-x="1331" 
d="M1352 508h-1020c-18 -110 8 -205.333 78 -286c69.333 -80 159.333 -120 270 -120c88 0 173.667 23.333 257 70c86.667 48.667 153.667 113.667 201 195h152c-66.667 -117.333 -158.334 -212.333 -275.001 -285s-236.667 -109 -360 -109c-161.333 0 -287 57.667 -377 173
c-89.333 114 -117 251.667 -83 413c34.667 160.667 121 299 259 415c139.333 116.667 289 175 449 175c162.667 0 288.667 -59.667 378 -179c88.667 -118 115.667 -258.333 81 -421zM1234 637c4.66699 110.667 -25.667 202 -91 274c-66 72.667 -154.667 109 -266 109
c-110.667 0 -214.667 -36.333 -312 -109c-96 -72 -164.667 -163.333 -206 -274h875zM1141 1442c-6 -7.33301 -15.666 -16.667 -28.999 -28l-16 -14l-49 -40c-10 -9.33301 -20 -19.333 -30 -30c-15.333 -18 -28.333 -47 -39 -87h-127l6 27c6.66699 34 23 67 49 99
c7.33301 9.33301 18.666 21.333 33.999 36c6.66699 6 17.334 14.667 32.001 26l32 26c10.667 9.33301 20.667 18.666 30 27.999c14 14.667 23 31 27 49c6 28 2 50 -12 66c-16 18 -34.667 27 -56 27c-30.667 0 -58 -14 -82 -42c-9.33301 -10 -16.333 -21.333 -21 -34
c-2.66699 -7.33301 -7.66699 -27.666 -15 -60.999h-129l9 39c11.333 54 43.666 102 96.999 144c49.333 38 104.333 57 165 57c62 0 108.333 -18.667 139 -56c32.667 -40.667 43.334 -88 32.001 -142c-6.66699 -30.667 -22.334 -60.667 -47.001 -90z" />
    <glyph glyph-name="uni1EBC" unicode="&#x1ebc;" horiz-adv-x="1097" 
d="M143 0l322 1516h829l-29 -138h-677l-116 -544h655l-29 -138h-655l-119 -559h677l-29 -137h-829zM1297 1726c-82.667 -52.667 -154.999 -79.002 -216.999 -79.002c-27.333 0 -54.666 4.33301 -81.999 13c-18 5.33301 -40.667 15 -68 29l-63 28
c-23.333 9.33301 -45.333 14 -66 14c-48 0 -98 -20.667 -150 -62l-50 103c73.333 57.333 150.333 86 231 86c26.667 0 53 -4.66699 79 -14c17.333 -5.33301 39.666 -14.666 66.999 -27.999c1.33301 -1.33301 3.66602 -2.66602 6.99902 -3.99902l8 -4
c6 -3.33301 11.333 -6 16 -8l30 -13c23.333 -8.66699 45.333 -13 66 -13c21.333 0 45 5.66699 71 17l51 26l18 10z" />
    <glyph glyph-name="uni1EBD" unicode="&#x1ebd;" horiz-adv-x="1331" 
d="M1352 508h-1020c-18 -110 8 -205.333 78 -286c69.333 -80 159.333 -120 270 -120c88 0 173.667 23.333 257 70c86.667 48.667 153.667 113.667 201 195h152c-66.667 -117.333 -158.334 -212.333 -275.001 -285s-236.667 -109 -360 -109c-161.333 0 -287 57.667 -377 173
c-89.333 114 -117 251.667 -83 413c34.667 160.667 121 299 259 415c139.333 116.667 289 175 449 175c162.667 0 288.667 -59.667 378 -179c88.667 -118 115.667 -258.333 81 -421zM1234 637c4.66699 110.667 -25.667 202 -91 274c-66 72.667 -154.667 109 -266 109
c-110.667 0 -214.667 -36.333 -312 -109c-96 -72 -164.667 -163.333 -206 -274h875zM1315 1413c-83.333 -53.333 -156.002 -80.001 -218.002 -80.001c-27.333 0 -54.666 4.33301 -81.999 13c-18 6 -40.667 15.667 -68 29l-63 29c-23.333 8.66699 -45.333 13 -66 13
c-48 0 -98 -20.333 -150 -61l-50 102c74 57.333 151 86 231 86c26.667 0 53.334 -4.33301 80.001 -13c17.333 -6 39.333 -15.667 66 -29c2 -0.666992 4.66699 -2 8 -4c3.33301 -1.33301 5.66602 -2.66602 6.99902 -3.99902l16 -7l31 -14
c22.667 -8.66699 44.334 -13 65.001 -13c21.333 0 45.333 6 72 18l51 26l17 9z" />
    <glyph glyph-name="uni1EBE" unicode="&#x1ebe;" horiz-adv-x="1097" 
d="M143 0l322 1516h829l-29 -138h-677l-116 -544h655l-29 -138h-655l-119 -559h677l-29 -137h-829zM1195 1793l-43 118l456 224l39 -123zM1078 1642l-144 150l-213 -150h-186l351 256h135l239 -256h-182z" />
    <glyph glyph-name="uni1EBF" unicode="&#x1ebf;" horiz-adv-x="1331" 
d="M1352 508h-1020c-18 -110 8 -205.333 78 -286c69.333 -80 159.333 -120 270 -120c88 0 173.667 23.333 257 70c86.667 48.667 153.667 113.667 201 195h152c-66.667 -117.333 -158.334 -212.333 -275.001 -285s-236.667 -109 -360 -109c-161.333 0 -287 57.667 -377 173
c-89.333 114 -117 251.667 -83 413c34.667 160.667 121 299 259 415c139.333 116.667 289 175 449 175c162.667 0 288.667 -59.667 378 -179c88.667 -118 115.667 -258.333 81 -421zM1234 637c4.66699 110.667 -25.667 202 -91 274c-66 72.667 -154.667 109 -266 109
c-110.667 0 -214.667 -36.333 -312 -109c-96 -72 -164.667 -163.333 -206 -274h875zM1231 1459l-42 118l454 224l40 -123zM1123 1309l-144 149l-212 -149h-187l351 256h135l239 -256h-182z" />
    <glyph glyph-name="uni1EC0" unicode="&#x1ec0;" horiz-adv-x="1097" 
d="M143 0l322 1516h829l-29 -138h-677l-116 -544h655l-29 -138h-655l-119 -559h677l-29 -137h-829zM1173 1853l-359 219l92 123l360 -224zM1078 1642l-144 150l-213 -150h-186l351 256h135l239 -256h-182z" />
    <glyph glyph-name="uni1EC1" unicode="&#x1ec1;" horiz-adv-x="1331" 
d="M1352 508h-1020c-18 -110 8 -205.333 78 -286c69.333 -80 159.333 -120 270 -120c88 0 173.667 23.333 257 70c86.667 48.667 153.667 113.667 201 195h152c-66.667 -117.333 -158.334 -212.333 -275.001 -285s-236.667 -109 -360 -109c-161.333 0 -287 57.667 -377 173
c-89.333 114 -117 251.667 -83 413c34.667 160.667 121 299 259 415c139.333 116.667 289 175 449 175c162.667 0 288.667 -59.667 378 -179c88.667 -118 115.667 -258.333 81 -421zM1234 637c4.66699 110.667 -25.667 202 -91 274c-66 72.667 -154.667 109 -266 109
c-110.667 0 -214.667 -36.333 -312 -109c-96 -72 -164.667 -163.333 -206 -274h875zM1242 1539l-360 219l92 123l360 -224zM1123 1309l-144 149l-212 -149h-187l351 256h135l239 -256h-182z" />
    <glyph glyph-name="uni1EC2" unicode="&#x1ec2;" horiz-adv-x="1097" 
d="M143 0l322 1516h829l-29 -138h-677l-116 -544h655l-29 -138h-655l-119 -559h677l-29 -137h-829zM1409 2045c-6.66699 -7.33301 -16.3311 -16.667 -28.998 -28l-16 -14l-50 -40c-10 -9.33301 -19.667 -19.333 -29 -30c-16 -18 -29.333 -47 -40 -87h-127l6 27
c7.33301 34 23.666 67 48.999 99c7.33301 9.33301 19 21.333 35 36c6.66699 6 17 14.667 31 26l33 26c10.667 9.33301 20.667 18.666 30 28c13.333 14.667 22 31 26 49c6 28 2 50 -12 66c-15.333 18 -33.666 27 -54.999 27c-30.667 0 -58.334 -14 -83.001 -42
c-8.66699 -10 -15.334 -21.333 -20.001 -34c-2.66699 -7.33301 -7.66699 -27.666 -15 -61h-129l8 39c11.333 54 44 102 98 144c49.333 38 104.333 57 165 57c62 0 108.333 -18.667 139 -56c32.667 -40.667 43.334 -88 32.001 -142
c-6.66699 -30.667 -22.334 -60.667 -47.001 -90zM1078 1642l-144 150l-213 -150h-186l351 256h135l239 -256h-182z" />
    <glyph glyph-name="uni1EC3" unicode="&#x1ec3;" horiz-adv-x="1331" 
d="M1352 508h-1020c-18 -110 8 -205.333 78 -286c69.333 -80 159.333 -120 270 -120c88 0 173.667 23.333 257 70c86.667 48.667 153.667 113.667 201 195h152c-66.667 -117.333 -158.334 -212.333 -275.001 -285s-236.667 -109 -360 -109c-161.333 0 -287 57.667 -377 173
c-89.333 114 -117 251.667 -83 413c34.667 160.667 121 299 259 415c139.333 116.667 289 175 449 175c162.667 0 288.667 -59.667 378 -179c88.667 -118 115.667 -258.333 81 -421zM1234 637c4.66699 110.667 -25.667 202 -91 274c-66 72.667 -154.667 109 -266 109
c-110.667 0 -214.667 -36.333 -312 -109c-96 -72 -164.667 -163.333 -206 -274h875zM1460 1713c-6.66699 -7.33301 -16.3311 -16.667 -28.998 -28l-16 -14l-50 -40c-10 -9.33301 -19.667 -19.333 -29 -30c-16 -18 -29.333 -47 -40 -87h-127l6 27
c7.33301 34 23.666 67 48.999 99c7.33301 9.33301 19 21.333 35 36c6.66699 6 17 14.667 31 26l33 26c10.667 9.33301 20.667 18.666 30 27.999c14 14.667 22.667 31 26 49c6 28 2 50 -12 66c-15.333 18 -33.666 27 -54.999 27c-30.667 0 -58.334 -14 -83.001 -42
c-8.66699 -10 -15.334 -21.333 -20.001 -34c-2.66699 -7.33301 -7.66699 -27.666 -15 -60.999h-129l8 39c11.333 54 44 102 98 144c49.333 38 104.333 57 165 57c62 0 108.333 -18.667 139 -56c32.667 -40.667 43.334 -88 32.001 -142
c-6.66699 -30.667 -22.334 -60.667 -47.001 -90zM1123 1309l-144 149l-212 -149h-187l351 256h135l239 -256h-182z" />
    <glyph glyph-name="uni1EC4" unicode="&#x1ec4;" horiz-adv-x="1097" 
d="M143 0l322 1516h829l-29 -138h-677l-116 -544h655l-29 -138h-655l-119 -559h677l-29 -137h-829zM1421 1977c-82.667 -52.667 -155.001 -79 -217.001 -79c-27.333 0 -54.666 4.33301 -81.999 13c-18 5.33301 -40.667 15 -68 29l-63 28c-23.333 9.33301 -45.333 14 -66 14
c-48 0 -98 -20.667 -150 -62l-50 103c73.333 57.333 150.333 86 231 86c26.667 0 53 -4.66699 79 -14c18 -5.33301 40.333 -14.666 67 -28c1.33301 -1.33301 4 -2.66602 8 -4c3.33301 -2 6 -3.33301 8 -4c6 -3.33301 11 -6 15 -8l30 -13c23.333 -8.66699 45.333 -13 66 -13
c21.333 0 45 5.66699 71 17l52 26l18 10zM1078 1642l-144 150l-213 -150h-186l351 256h135l239 -256h-182z" />
    <glyph glyph-name="uni1EC5" unicode="&#x1ec5;" horiz-adv-x="1331" 
d="M1352 508h-1020c-18 -110 8 -205.333 78 -286c69.333 -80 159.333 -120 270 -120c88 0 173.667 23.333 257 70c86.667 48.667 153.667 113.667 201 195h152c-66.667 -117.333 -158.334 -212.333 -275.001 -285s-236.667 -109 -360 -109c-161.333 0 -287 57.667 -377 173
c-89.333 114 -117 251.667 -83 413c34.667 160.667 121 299 259 415c139.333 116.667 289 175 449 175c162.667 0 288.667 -59.667 378 -179c88.667 -118 115.667 -258.333 81 -421zM1234 637c4.66699 110.667 -25.667 202 -91 274c-66 72.667 -154.667 109 -266 109
c-110.667 0 -214.667 -36.333 -312 -109c-96 -72 -164.667 -163.333 -206 -274h875zM1488 1663c-83.333 -53.333 -156.002 -80.001 -218.002 -80.001c-27.333 0 -54.666 4.33301 -81.999 13c-18 6 -40.667 15.667 -68 29l-63 29c-23.333 8.66699 -45.333 13 -66 13
c-48 0 -98 -20.333 -150 -61l-50 102c74 57.333 151 86 231 86c26.667 0 53.334 -4.33301 80.001 -13c17.333 -6 39.333 -15.667 66 -29c2 -0.666992 4.66699 -2 8 -4c3.33301 -1.33301 5.66602 -2.66602 6.99902 -3.99902l16 -7l31 -14
c22.667 -8.66699 44.334 -13 65.001 -13c21.333 0 45.333 6 72 18l51 26l17 9zM1123 1309l-144 149l-212 -149h-187l351 256h135l239 -256h-182z" />
    <glyph glyph-name="uni1EC6" unicode="&#x1ec6;" horiz-adv-x="1097" 
d="M143 0l322 1516h829l-29 -138h-677l-116 -544h655l-29 -138h-655l-119 -559h677l-29 -137h-829zM400 -385l55 259h152l-55 -259h-152zM1078 1642l-144 150l-213 -150h-186l351 256h135l239 -256h-182z" />
    <glyph glyph-name="uni1EC7" unicode="&#x1ec7;" horiz-adv-x="1331" 
d="M1352 508h-1020c-18 -110 8 -205.333 78 -286c69.333 -80 159.333 -120 270 -120c88 0 173.667 23.333 257 70c86.667 48.667 153.667 113.667 201 195h152c-66.667 -117.333 -158.334 -212.333 -275.001 -285s-236.667 -109 -360 -109c-161.333 0 -287 57.667 -377 173
c-89.333 114 -117 251.667 -83 413c34.667 160.667 121 299 259 415c139.333 116.667 289 175 449 175c162.667 0 288.667 -59.667 378 -179c88.667 -118 115.667 -258.333 81 -421zM1234 637c4.66699 110.667 -25.667 202 -91 274c-66 72.667 -154.667 109 -266 109
c-110.667 0 -214.667 -36.333 -312 -109c-96 -72 -164.667 -163.333 -206 -274h875zM504 -385l55 259h152l-55 -259h-152zM1123 1309l-144 149l-212 -149h-187l351 256h135l239 -256h-182z" />
    <glyph glyph-name="uni1EC8" unicode="&#x1ec8;" horiz-adv-x="462" 
d="M155 0l322 1516h151l-322 -1516h-151zM803 1794c-6 -7.33301 -15.6641 -16.668 -28.9971 -28.001l-16 -14l-49 -40c-10 -9.33301 -19.667 -19.333 -29 -30c-16 -18 -29.333 -47 -40 -87h-127l6 27c7.33301 34 23.666 67 48.999 99
c7.33301 9.33301 18.666 21.333 33.999 36c6.66699 6 17.334 14.667 32.001 26l33 26l29 28c14 14.667 23 31 27 49c6 28 2 50 -12 66c-15.333 18 -33.666 27 -54.999 27c-30.667 0 -58.334 -14 -83.001 -42c-8.66699 -10 -15.667 -21.333 -21 -34
c-2.66699 -7.33301 -7.33398 -27.666 -14.001 -60.999h-129l8 39c11.333 54 43.666 102 96.999 144c50 38 105.333 57 166 57c62 0 108.333 -18.667 139 -56c32.667 -40.667 43 -88 31 -142c-6 -30.667 -21.667 -60.667 -47 -90z" />
    <glyph glyph-name="uni1EC9" unicode="&#x1ec9;" horiz-adv-x="409" 
d="M133 0l238 1120h144l-238 -1120h-144zM691 1442c-6.66699 -7.33301 -16.3311 -16.667 -28.998 -28l-16 -14l-50 -40c-10 -9.33301 -19.667 -19.333 -29 -30c-16 -18 -29.333 -47 -40 -87h-127l6 27c7.33301 34 23.666 67 48.999 99c7.33301 9.33301 19 21.333 35 36
c6.66699 6 17 14.667 31 26l33 26c10.667 9.33301 20.667 18.666 30 27.999c13.333 14.667 22 31 26 49c6 28 2 50 -12 66c-15.333 18 -33.666 27 -54.999 27c-30.667 0 -58.334 -14 -83.001 -42c-8.66699 -10 -15.334 -21.333 -20.001 -34
c-3.33301 -7.33301 -8.33301 -27.666 -15 -60.999h-129l8 39c11.333 54 44 102 98 144c49.333 38 104.333 57 165 57c62 0 108.333 -18.667 139 -56c32.667 -40.667 43.334 -88 32.001 -142c-6.66699 -30.667 -22.334 -60.667 -47.001 -90z" />
    <glyph glyph-name="uni1ECA" unicode="&#x1eca;" horiz-adv-x="462" 
d="M155 0l322 1516h152l-322 -1516h-152zM78 -385l55 259h152l-55 -259h-152z" />
    <glyph glyph-name="uni1ECB" unicode="&#x1ecb;" horiz-adv-x="409" 
d="M401 1257l55 259h143l-55 -259h-143zM134 0l238 1120h143l-238 -1120h-143zM43 -385l55 259h152l-55 -259h-152z" />
    <glyph glyph-name="uni1ECC" unicode="&#x1ecc;" horiz-adv-x="1779" 
d="M1495 201c-190 -152 -394 -228.001 -612 -228.001c-214.667 0 -385.334 75.333 -512.001 226c-128 153.333 -169.333 337 -124 551c46.667 220 165 407.333 355 562c188.667 153.333 393.667 230 615 230c218.667 0 390.334 -76 515.001 -228
c126.667 -153.333 167 -338.666 121 -555.999s-165.333 -403 -358 -557zM1606 1214c-101.333 127.333 -240.997 191 -418.997 191c-180 0 -347 -64.333 -501 -193c-153.333 -128.667 -249 -282.667 -287 -462c-36.667 -174.667 -4 -325 98 -451
c101.333 -125.333 239.666 -188 414.999 -188c177.333 0 343.666 63 498.999 189s252 278 290 456c37.333 178 5.66602 330.667 -95.001 458zM732.003 -385.001l55 259h152l-55 -259h-152z" />
    <glyph glyph-name="uni1ECD" unicode="&#x1ecd;" 
d="M1115 147c-140 -116 -290.332 -174.001 -450.999 -174.001c-158 0 -282.667 57.333 -374 172s-120.333 250.667 -87 408c34.667 162.667 121 302.334 259 419.001c139.333 118 290 177 452 177c159.333 0 284.666 -58 375.999 -174s120 -254 86 -414
c-34 -160.667 -121 -298.667 -261 -414zM1173 884.999c-68 90 -162.999 135 -284.999 135c-125.333 0 -240.666 -46.667 -345.999 -140c-103.333 -90.667 -168.333 -199 -195 -325c-26.667 -122.667 -6.33398 -228.667 60.999 -318c67.333 -90 162.333 -135 285 -135
c126.667 0 242.667 46 348 138c101.333 90 165.666 199 192.999 327c26 122.667 5.66699 228.667 -61 318zM514.002 -385.001l55 259h152l-55 -259h-152z" />
    <glyph glyph-name="uni1ECE" unicode="&#x1ece;" horiz-adv-x="1779" 
d="M1495 201c-190 -152 -394 -228.001 -612 -228.001c-214.667 0 -385.334 75.333 -512.001 226c-128 153.333 -169.333 337 -124 551c46.667 220 165 407.333 355 562c188.667 153.333 393.667 230 615 230c218.667 0 390.334 -76 515.001 -228
c126.667 -153.333 167 -338.666 121 -555.999s-165.333 -403 -358 -557zM1606 1214c-101.333 127.333 -240.997 191 -418.997 191c-180 0 -347 -64.333 -501 -193c-153.333 -128.667 -249 -282.667 -287 -462c-36.667 -174.667 -4 -325 98 -451
c101.333 -125.333 239.666 -188 414.999 -188c177.333 0 343.666 63 498.999 189s252 278 290 456c37.333 178 5.66602 330.667 -95.001 458zM1459 1794c-6 -7.33301 -15.666 -16.667 -28.999 -28l-16 -14l-49 -40c-10 -9.33301 -20 -19.333 -30 -30
c-15.333 -18 -28.333 -47 -39 -87h-127l6 27c6.66699 34 23 67 49 99c7.33301 9.33301 18.666 21.333 33.999 36c6.66699 6 17.334 14.667 32.001 26l32 26c10.667 9.33301 20.667 18.666 30 27.999c14 14.667 23 31 27 49c6 28 2 50 -12 66c-16 18 -34.667 27 -56 27
c-30.667 0 -58 -14 -82 -42c-9.33301 -10 -16.333 -21.333 -21 -34c-2.66699 -7.33301 -7.66699 -27.666 -15 -60.999h-129l9 39c11.333 54 43.666 102 96.999 144c49.333 38 104.333 57 165 57c62 0 108.333 -18.667 139 -56c32.667 -40.667 43.334 -88 32.001 -142
c-6.66699 -30.667 -22.334 -60.667 -47.001 -90z" />
    <glyph glyph-name="uni1ECF" unicode="&#x1ecf;" 
d="M1115 147c-140 -116 -290.332 -174.001 -450.999 -174.001c-158 0 -282.667 57.333 -374 172s-120.333 250.667 -87 408c34.667 162.667 121 302.334 259 419.001c139.333 118 290 177 452 177c159.333 0 284.666 -58 375.999 -174s120 -254 86 -414
c-34 -160.667 -121 -298.667 -261 -414zM1173 884.999c-68 90 -162.999 135 -284.999 135c-125.333 0 -240.666 -46.667 -345.999 -140c-103.333 -90.667 -168.333 -199 -195 -325c-26.667 -122.667 -6.33398 -228.667 60.999 -318c67.333 -90 162.333 -135 285 -135
c126.667 0 242.667 46 348 138c101.333 90 165.666 199 192.999 327c26 122.667 5.66699 228.667 -61 318zM1172 1442c-6 -7.33301 -15.666 -16.667 -28.999 -28l-16 -14l-49 -40c-10 -9.33301 -20 -19.333 -30 -30c-15.333 -18 -28.333 -47 -39 -87h-127l6 27
c6.66699 34 23 67 49 99c7.33301 9.33301 18.666 21.333 33.999 36c6.66699 6 17.334 14.667 32.001 26l32 26c10.667 9.33301 20.667 18.666 30 27.999c14 14.667 23 31 27 49c6 28 2 50 -12 66c-16 18 -34.667 27 -56 27c-30.667 0 -58 -14 -82 -42
c-9.33301 -10 -16.333 -21.333 -21 -34c-2.66699 -7.33301 -7.66699 -27.666 -15 -60.999h-129l9 39c11.333 54 43.666 102 96.999 144c49.333 38 104.333 57 165 57c62 0 108.333 -18.667 139 -56c32.667 -40.667 43.334 -88 32.001 -142
c-6.66699 -30.667 -22.334 -60.667 -47.001 -90z" />
    <glyph glyph-name="uni1ED0" unicode="&#x1ed0;" horiz-adv-x="1779" 
d="M1495 201c-190 -152 -394 -228.001 -612 -228.001c-214.667 0 -385.334 75.333 -512.001 226c-128 153.333 -169.333 337 -124 551c46.667 220 165 407.333 355 562c188.667 153.333 393.667 230 615 230c218.667 0 390.334 -76 515.001 -228
c126.667 -153.333 167 -338.666 121 -555.999s-165.333 -403 -358 -557zM1606 1214c-101.333 127.333 -240.997 191 -418.997 191c-180 0 -347 -64.333 -501 -193c-153.333 -128.667 -249 -282.667 -287 -462c-36.667 -174.667 -4 -325 98 -451
c101.333 -125.333 239.666 -188 414.999 -188c177.333 0 343.666 63 498.999 189s252 278 290 456c37.333 178 5.66602 330.667 -95.001 458zM1534 1773l-43 118l455 224l40 -123zM1420 1642l-144 150l-212 -150h-187l351 256h136l238 -256h-182z" />
    <glyph glyph-name="uni1ED1" unicode="&#x1ed1;" 
d="M1115 147c-140 -116 -290.332 -174.001 -450.999 -174.001c-158 0 -282.667 57.333 -374 172s-120.333 250.667 -87 408c34.667 162.667 121 302.334 259 419.001c139.333 118 290 177 452 177c159.333 0 284.666 -58 375.999 -174s120 -254 86 -414
c-34 -160.667 -121 -298.667 -261 -414zM1173 884.999c-68 90 -162.999 135 -284.999 135c-125.333 0 -240.666 -46.667 -345.999 -140c-103.333 -90.667 -168.333 -199 -195 -325c-26.667 -122.667 -6.33398 -228.667 60.999 -318c67.333 -90 162.333 -135 285 -135
c126.667 0 242.667 46 348 138c101.333 90 165.666 199 192.999 327c26 122.667 5.66699 228.667 -61 318zM1255 1449l-42 118l454 224l40 -123zM1130 1309l-144 149l-212 -149h-187l351 256h135l239 -256h-182z" />
    <glyph glyph-name="uni1ED2" unicode="&#x1ed2;" horiz-adv-x="1779" 
d="M1495 201c-190 -152 -394 -228.001 -612 -228.001c-214.667 0 -385.334 75.333 -512.001 226c-128 153.333 -169.333 337 -124 551c46.667 220 165 407.333 355 562c188.667 153.333 393.667 230 615 230c218.667 0 390.334 -76 515.001 -228
c126.667 -153.333 167 -338.666 121 -555.999s-165.333 -403 -358 -557zM1606 1214c-101.333 127.333 -240.997 191 -418.997 191c-180 0 -347 -64.333 -501 -193c-153.333 -128.667 -249 -282.667 -287 -462c-36.667 -174.667 -4 -325 98 -451
c101.333 -125.333 239.666 -188 414.999 -188c177.333 0 343.666 63 498.999 189s252 278 290 456c37.333 178 5.66602 330.667 -95.001 458zM1517 1863l-360 219l93 123l359 -224zM1420 1642l-144 150l-212 -150h-187l351 256h136l238 -256h-182z" />
    <glyph glyph-name="uni1ED3" unicode="&#x1ed3;" 
d="M1115 147c-140 -116 -290.332 -174.001 -450.999 -174.001c-158 0 -282.667 57.333 -374 172s-120.333 250.667 -87 408c34.667 162.667 121 302.334 259 419.001c139.333 118 290 177 452 177c159.333 0 284.666 -58 375.999 -174s120 -254 86 -414
c-34 -160.667 -121 -298.667 -261 -414zM1173 884.999c-68 90 -162.999 135 -284.999 135c-125.333 0 -240.666 -46.667 -345.999 -140c-103.333 -90.667 -168.333 -199 -195 -325c-26.667 -122.667 -6.33398 -228.667 60.999 -318c67.333 -90 162.333 -135 285 -135
c126.667 0 242.667 46 348 138c101.333 90 165.666 199 192.999 327c26 122.667 5.66699 228.667 -61 318zM1258 1539l-359 219l92 123l360 -224zM1130 1309l-144 149l-212 -149h-187l351 256h135l239 -256h-182z" />
    <glyph glyph-name="uni1ED4" unicode="&#x1ed4;" horiz-adv-x="1779" 
d="M1495 201c-190 -152 -394 -228.001 -612 -228.001c-214.667 0 -385.334 75.333 -512.001 226c-128 153.333 -169.333 337 -124 551c46.667 220 165 407.333 355 562c188.667 153.333 393.667 230 615 230c218.667 0 390.334 -76 515.001 -228
c126.667 -153.333 167 -338.666 121 -555.999s-165.333 -403 -358 -557zM1606 1214c-101.333 127.333 -240.997 191 -418.997 191c-180 0 -347 -64.333 -501 -193c-153.333 -128.667 -249 -282.667 -287 -462c-36.667 -174.667 -4 -325 98 -451
c101.333 -125.333 239.666 -188 414.999 -188c177.333 0 343.666 63 498.999 189s252 278 290 456c37.333 178 5.66602 330.667 -95.001 458zM1746 2055c-6.66699 -7.33301 -16.3311 -16.668 -28.998 -28.001l-16 -14l-50 -40c-10 -9.33301 -19.667 -19.333 -29 -30
c-16 -18 -29.333 -47 -40 -87h-127l6 27c7.33301 34 23.666 67 48.999 99c7.33301 9.33301 19 21.333 35 36c6.66699 6 17 14.667 31 26l33 26c10.667 9.33301 20.667 18.666 30 28c13.333 14.667 22 31 26 49c6 28 2 50 -12 66c-15.333 18 -33.666 27 -54.999 27
c-30.667 0 -58.334 -14 -83.001 -42c-8.66699 -10 -15.334 -21.333 -20.001 -34c-3.33301 -7.33301 -8.33301 -27.666 -15 -60.999h-129l8 39c11.333 54 44 102 98 144c49.333 38 104.333 57 165 57c62 0 108.333 -18.667 139 -56c32.667 -40.667 43.334 -88 32.001 -142
c-6.66699 -30.667 -22.334 -60.667 -47.001 -90zM1420.01 1642l-144 150l-212 -150h-187l351 256h135l239 -256h-182z" />
    <glyph glyph-name="uni1ED5" unicode="&#x1ed5;" 
d="M1115 147c-140 -116 -290.332 -174.001 -450.999 -174.001c-158 0 -282.667 57.333 -374 172s-120.333 250.667 -87 408c34.667 162.667 121 302.334 259 419.001c139.333 118 290 177 452 177c159.333 0 284.666 -58 375.999 -174s120 -254 86 -414
c-34 -160.667 -121 -298.667 -261 -414zM1173 884.999c-68 90 -162.999 135 -284.999 135c-125.333 0 -240.666 -46.667 -345.999 -140c-103.333 -90.667 -168.333 -199 -195 -325c-26.667 -122.667 -6.33398 -228.667 60.999 -318c67.333 -90 162.333 -135 285 -135
c126.667 0 242.667 46 348 138c101.333 90 165.666 199 192.999 327c26 122.667 5.66699 228.667 -61 318zM1469 1703c-6.66699 -7.33301 -16.3311 -16.667 -28.998 -28l-16 -14l-50 -40c-10 -9.33301 -19.667 -19.333 -29 -30c-16 -18 -29.333 -47 -40 -87h-127l6 27
c7.33301 34 23.666 67 48.999 99c7.33301 9.33301 19 21.333 35 36c6.66699 6 17 14.667 31 26l33 26c10.667 9.33301 20.667 18.666 30 27.999c13.333 14.667 22 31 26 49c6 28 2 50 -12 66c-15.333 18 -33.666 27 -54.999 27c-30.667 0 -58.334 -14 -83.001 -42
c-8.66699 -10 -15.334 -21.333 -20.001 -34c-3.33301 -7.33301 -8.33301 -27.666 -15 -60.999h-129l8 39c11.333 54 44 102 98 144c49.333 38 104.333 57 165 57c62 0 108.333 -18.667 139 -56c32.667 -40.667 43.334 -88 32.001 -142
c-6.66699 -30.667 -22.334 -60.667 -47.001 -90zM1130 1309l-144 149l-212 -149h-187l351 256h135l239 -256h-182z" />
    <glyph glyph-name="uni1ED6" unicode="&#x1ed6;" horiz-adv-x="1779" 
d="M1495 201c-190 -152 -394 -228.001 -612 -228.001c-214.667 0 -385.334 75.333 -512.001 226c-128 153.333 -169.333 337 -124 551c46.667 220 165 407.333 355 562c188.667 153.333 393.667 230 615 230c218.667 0 390.334 -76 515.001 -228
c126.667 -153.333 167 -338.666 121 -555.999s-165.333 -403 -358 -557zM1606 1214c-101.333 127.333 -240.997 191 -418.997 191c-180 0 -347 -64.333 -501 -193c-153.333 -128.667 -249 -282.667 -287 -462c-36.667 -174.667 -4 -325 98 -451
c101.333 -125.333 239.666 -188 414.999 -188c177.333 0 343.666 63 498.999 189s252 278 290 456c37.333 178 5.66602 330.667 -95.001 458zM1778 1997c-83.333 -52.667 -156.002 -79.001 -218.002 -79.001c-27.333 0 -54.666 4.33301 -81.999 13
c-18 5.33301 -40.667 15 -68 29l-63 28c-22.667 9.33301 -44.667 14 -66 14c-48 0 -98 -20.667 -150 -62l-49 103c73.333 57.333 150.333 86 231 86c26 0 52.333 -4.66699 79 -14c18 -5.33301 40 -14.666 66 -28c2 -1.33301 5 -2.66602 9 -3.99902
c2.66699 -2 5 -3.33301 7 -4c6 -3.33301 11 -6 15 -8l31 -13c22.667 -8.66699 44.334 -13 65.001 -13c21.333 0 45.333 5.66699 72 17l52 26l17 10zM1420 1642l-144 150l-212 -150h-187l351 256h136l238 -256h-182z" />
    <glyph glyph-name="uni1ED7" unicode="&#x1ed7;" 
d="M1115 147c-140 -116 -290.332 -174.001 -450.999 -174.001c-158 0 -282.667 57.333 -374 172s-120.333 250.667 -87 408c34.667 162.667 121 302.334 259 419.001c139.333 118 290 177 452 177c159.333 0 284.666 -58 375.999 -174s120 -254 86 -414
c-34 -160.667 -121 -298.667 -261 -414zM1173 884.999c-68 90 -162.999 135 -284.999 135c-125.333 0 -240.666 -46.667 -345.999 -140c-103.333 -90.667 -168.333 -199 -195 -325c-26.667 -122.667 -6.33398 -228.667 60.999 -318c67.333 -90 162.333 -135 285 -135
c126.667 0 242.667 46 348 138c101.333 90 165.666 199 192.999 327c26 122.667 5.66699 228.667 -61 318zM1467 1663c-83.333 -53.333 -156.002 -80.001 -218.002 -80.001c-27.333 0 -54.666 4.33301 -81.999 13c-18 6 -40.667 15.667 -68 29l-63 29
c-23.333 8.66699 -45.333 13 -66 13c-48 0 -98 -20.333 -150 -61l-50 102c74 57.333 151 86 231 86c26.667 0 53.334 -4.33301 80.001 -13c17.333 -6 39.333 -15.667 66 -29c2 -0.666992 4.66699 -2 8 -4c3.33301 -1.33301 5.66602 -2.66602 6.99902 -3.99902l16 -7l31 -14
c22.667 -8.66699 44.334 -13 65.001 -13c21.333 0 45.333 6 72 18l51 26l17 9zM1130 1309l-144 149l-212 -149h-187l351 256h135l239 -256h-182z" />
    <glyph glyph-name="uni1ED8" unicode="&#x1ed8;" horiz-adv-x="1779" 
d="M1495 201c-190 -152 -394 -228.001 -612 -228.001c-214.667 0 -385.334 75.333 -512.001 226c-128 153.333 -169.333 337 -124 551c46.667 220 165 407.333 355 562c188.667 153.333 393.667 230 615 230c218.667 0 390.334 -76 515.001 -228
c126.667 -153.333 167 -338.666 121 -555.999s-165.333 -403 -358 -557zM1606 1214c-101.333 127.333 -240.997 191 -418.997 191c-180 0 -347 -64.333 -501 -193c-153.333 -128.667 -249 -282.667 -287 -462c-36.667 -174.667 -4 -325 98 -451
c101.333 -125.333 239.666 -188 414.999 -188c177.333 0 343.666 63 498.999 189s252 278 290 456c37.333 178 5.66602 330.667 -95.001 458zM732.003 -385.001l55 259h152l-55 -259h-152zM1420 1642l-144 150l-212 -150h-187l351 256h135l239 -256h-182z" />
    <glyph glyph-name="uni1ED9" unicode="&#x1ed9;" 
d="M1115 147c-140 -116 -290.332 -174.001 -450.999 -174.001c-158 0 -282.667 57.333 -374 172s-120.333 250.667 -87 408c34.667 162.667 121 302.334 259 419.001c139.333 118 290 177 452 177c159.333 0 284.666 -58 375.999 -174s120 -254 86 -414
c-34 -160.667 -121 -298.667 -261 -414zM1173 884.999c-68 90 -162.999 135 -284.999 135c-125.333 0 -240.666 -46.667 -345.999 -140c-103.333 -90.667 -168.333 -199 -195 -325c-26.667 -122.667 -6.33398 -228.667 60.999 -318c67.333 -90 162.333 -135 285 -135
c126.667 0 242.667 46 348 138c101.333 90 165.666 199 192.999 327c26 122.667 5.66699 228.667 -61 318zM514.002 -385.001l55 259h152l-55 -259h-152zM1130 1309l-144 149l-212 -149h-187l351 256h135l239 -256h-182z" />
    <glyph glyph-name="uni1EDA" unicode="&#x1eda;" horiz-adv-x="1779" 
d="M1606 1214c-101.333 127.333 -240.997 191 -418.997 191c-180 0 -347 -64.333 -501 -193c-153.333 -128.667 -249 -282.667 -287 -462c-36.667 -174.667 -4 -325 98 -451c101.333 -125.333 239.666 -188 414.999 -188c177.333 0 343.666 63 498.999 189s252 278 290 456
c37.333 178 5.66602 330.667 -95.001 458zM1155 1602l-43 118l456 224l40 -123zM1702 1348c10.667 -10.667 20.667 -21.999 30 -33.999c126.667 -153.333 167 -338.666 121 -555.999s-165.333 -403 -358 -557c-190 -152 -394 -228 -612 -228
c-214.667 0 -385.334 75.333 -512.001 226c-128 153.333 -169.333 337 -124 551c46.667 220 165 407.333 355 562c188.667 153.333 393.667 230 615 230c156.667 0 289.334 -39 398.001 -117l38 16c14.667 6 37 18.667 67 38s49.667 43 59 71h-65l39 180h189l-40 -186
c-11.333 -32.667 -25.333 -59.834 -42 -81.501s-35.167 -39.834 -55.5 -54.501s-37.5 -26 -51.5 -34c-12 -7.33301 -29 -16 -51 -26z" />
    <glyph glyph-name="uni1EDB" unicode="&#x1edb;" 
d="M1173 885c-68 90 -162.999 135 -284.999 135c-125.333 0 -240.666 -46.667 -345.999 -140c-103.333 -90.667 -168.333 -199 -195 -325c-26.667 -122.667 -6.33398 -228.667 60.999 -318c67.333 -90 162.333 -135 285 -135c126.667 0 242.667 46 348 138
c101.333 90 165.666 199 192.999 327c26 122.667 5.66699 228.667 -61 318zM844.001 1268l-42 118l455 224l40 -123zM1299 962c84 -113.333 109.669 -246.999 77.002 -400.999c-34 -160.667 -121 -298.667 -261 -414c-140 -116 -290.333 -174 -451 -174
c-158 0 -282.667 57.333 -374 172s-120.333 250.667 -87 408c34.667 162.667 121 302.334 259 419.001c139.333 118 290 177 452 177c125.333 0 229.333 -35.667 312 -107l25 11c14 6 35.167 18.667 63.5 38s47.166 43 56.499 71h-61l38 180h176l-40 -186
c-11.333 -32.667 -24.833 -59.834 -40.5 -81.501s-32.834 -39.834 -51.501 -54.501s-35 -26 -49 -34c-11.333 -6.66699 -26 -14.667 -44 -24z" />
    <glyph glyph-name="uni1EDC" unicode="&#x1edc;" horiz-adv-x="1779" 
d="M1606 1214c-101.333 127.333 -240.997 191 -418.997 191c-180 0 -347 -64.333 -501 -193c-153.333 -128.667 -249 -282.667 -287 -462c-36.667 -174.667 -4 -325 98 -451c101.333 -125.333 239.666 -188 414.999 -188c177.333 0 343.666 63 498.999 189s252 278 290 456
c37.333 178 5.66602 330.667 -95.001 458zM1391 1602l-359 219l92 123l359 -224zM1702 1348c10.667 -10.667 20.667 -21.999 30 -33.999c126.667 -153.333 167 -338.666 121 -555.999s-165.333 -403 -358 -557c-190 -152 -394 -228 -612 -228
c-214.667 0 -385.334 75.333 -512.001 226c-128 153.333 -169.333 337 -124 551c46.667 220 165 407.333 355 562c188.667 153.333 393.667 230 615 230c156.667 0 289.334 -39 398.001 -117l38 16c14.667 6 37 18.667 67 38s49.667 43 59 71h-65l39 180h189l-40 -186
c-11.333 -32.667 -25.333 -59.834 -42 -81.501s-35.167 -39.834 -55.5 -54.501s-37.5 -26 -51.5 -34c-12 -7.33301 -29 -16 -51 -26z" />
    <glyph glyph-name="uni1EDD" unicode="&#x1edd;" 
d="M1173 885c-68 90 -162.999 135 -284.999 135c-125.333 0 -240.666 -46.667 -345.999 -140c-103.333 -90.667 -168.333 -199 -195 -325c-26.667 -122.667 -6.33398 -228.667 60.999 -318c67.333 -90 162.333 -135 285 -135c126.667 0 242.667 46 348 138
c101.333 90 165.666 199 192.999 327c26 122.667 5.66699 228.667 -61 318zM1100 1268l-358 219l92 123l359 -224zM1299 962c84 -113.333 109.669 -246.999 77.002 -400.999c-34 -160.667 -121 -298.667 -261 -414c-140 -116 -290.333 -174 -451 -174
c-158 0 -282.667 57.333 -374 172s-120.333 250.667 -87 408c34.667 162.667 121 302.334 259 419.001c139.333 118 290 177 452 177c125.333 0 229.333 -35.667 312 -107l25 11c14 6 35.167 18.667 63.5 38s47.166 43 56.499 71h-61l38 180h176l-40 -186
c-11.333 -32.667 -24.833 -59.834 -40.5 -81.501s-32.834 -39.834 -51.501 -54.501s-35 -26 -49 -34c-11.333 -6.66699 -26 -14.667 -44 -24z" />
    <glyph glyph-name="uni1EDE" unicode="&#x1ede;" horiz-adv-x="1779" 
d="M1606 1214c-101.333 127.333 -240.997 191 -418.997 191c-180 0 -347 -64.333 -501 -193c-153.333 -128.667 -249 -282.667 -287 -462c-36.667 -174.667 -4 -325 98 -451c101.333 -125.333 239.666 -188 414.999 -188c177.333 0 343.666 63 498.999 189s252 278 290 456
c37.333 178 5.66602 330.667 -95.001 458zM1459 1794c-6 -7.33301 -15.666 -16.667 -28.999 -28l-16 -14l-49 -40c-10 -9.33301 -20 -19.333 -30 -30c-15.333 -18 -28.333 -47 -39 -87h-127l6 27c6.66699 34 23 67 49 99c7.33301 9.33301 18.666 21.333 33.999 36
c6.66699 6 17.334 14.667 32.001 26l32 26c10.667 9.33301 20.667 18.666 30 27.999c14 14.667 23 31 27 49c6 28 2 50 -12 66c-16 18 -34.667 27 -56 27c-30.667 0 -58 -14 -82 -42c-9.33301 -10 -16.333 -21.333 -21 -34c-2.66699 -7.33301 -7.66699 -27.666 -15 -60.999
h-129l9 39c11.333 54 43.666 102 96.999 144c49.333 38 104.333 57 165 57c62 0 108.333 -18.667 139 -56c32.667 -40.667 43.334 -88 32.001 -142c-6.66699 -30.667 -22.334 -60.667 -47.001 -90zM1702 1348c10.667 -10.667 20.667 -21.999 30 -33.999
c126.667 -153.333 167 -338.666 121 -555.999s-165.333 -403 -358 -557c-190 -152 -394 -228 -612 -228c-214.667 0 -385.334 75.333 -512.001 226c-128 153.333 -169.333 337 -124 551c46.667 220 165 407.333 355 562c188.667 153.333 393.667 230 615 230
c156.667 0 289.334 -39 398.001 -117l38 16c14.667 6 37 18.667 67 38s49.667 43 59 71h-65l39 180h189l-40 -186c-11.333 -32.667 -25.333 -59.834 -42 -81.501s-35.167 -39.834 -55.5 -54.501s-37.5 -26 -51.5 -34c-12 -7.33301 -29 -16 -51 -26z" />
    <glyph glyph-name="uni1EDF" unicode="&#x1edf;" 
d="M1173 885c-68 90 -162.999 135 -284.999 135c-125.333 0 -240.666 -46.667 -345.999 -140c-103.333 -90.667 -168.333 -199 -195 -325c-26.667 -122.667 -6.33398 -228.667 60.999 -318c67.333 -90 162.333 -135 285 -135c126.667 0 242.667 46 348 138
c101.333 90 165.666 199 192.999 327c26 122.667 5.66699 228.667 -61 318zM1172 1442c-6 -7.33301 -15.666 -16.667 -28.999 -28l-16 -14l-49 -40c-10 -9.33301 -20 -19.333 -30 -30c-15.333 -18 -28.333 -47 -39 -87h-127l6 27c6.66699 34 23 67 49 99
c7.33301 9.33301 18.666 21.333 33.999 36c6.66699 6 17.334 14.667 32.001 26l32 26c10.667 9.33301 20.667 18.666 30 27.999c14 14.667 23 31 27 49c6 28 2 50 -12 66c-16 18 -34.667 27 -56 27c-30.667 0 -58 -14 -82 -42c-9.33301 -10 -16.333 -21.333 -21 -34
c-2.66699 -7.33301 -7.66699 -27.666 -15 -60.999h-129l9 39c11.333 54 43.666 102 96.999 144c49.333 38 104.333 57 165 57c62 0 108.333 -18.667 139 -56c32.667 -40.667 43.334 -88 32.001 -142c-6.66699 -30.667 -22.334 -60.667 -47.001 -90zM1299 961.999
c84 -113.333 109.669 -246.999 77.002 -400.999c-34 -160.667 -121 -298.667 -261 -414c-140 -116 -290.333 -174 -451 -174c-158 0 -282.667 57.333 -374 172s-120.333 250.667 -87 408c34.667 162.667 121 302.334 259 419.001c139.333 118 290 177 452 177
c125.333 0 229.333 -35.667 312 -107l25 11c14 6 35.167 18.667 63.5 38s47.166 43 56.499 71h-61l38 180h176l-40 -186c-11.333 -32.667 -24.833 -59.834 -40.5 -81.501s-32.834 -39.834 -51.501 -54.501s-35 -26 -49 -34c-11.333 -6.66699 -26 -14.667 -44 -24z" />
    <glyph glyph-name="uni1EE0" unicode="&#x1ee0;" horiz-adv-x="1779" 
d="M1606 1214c-101.333 127.333 -240.997 191 -418.997 191c-180 0 -347 -64.333 -501 -193c-153.333 -128.667 -249 -282.667 -287 -462c-36.667 -174.667 -4 -325 98 -451c101.333 -125.333 239.666 -188 414.999 -188c177.333 0 343.666 63 498.999 189s252 278 290 456
c37.333 178 5.66602 330.667 -95.001 458zM1610 1726c-83.333 -52.667 -156.001 -79.002 -218.001 -79.002c-27.333 0 -54.666 4.33301 -81.999 13c-18.667 5.33301 -41.334 15 -68.001 29l-63 28c-22.667 9.33301 -44.667 14 -66 14c-48 0 -98 -20.667 -150 -62l-50 103
c74 57.333 151.333 86 232 86c26 0 52.333 -4.66699 79 -14c17.333 -5.33301 39.333 -14.666 66 -27.999c1.33301 -1.33301 4 -2.66602 8 -3.99902c2.66699 -2 5 -3.33301 7 -4c6 -3.33301 11 -6 15 -8l32 -13c22.667 -8.66699 44.334 -13 65.001 -13
c21.333 0 45.333 5.66699 72 17l51 26l17 10zM1702 1348c10.667 -10.667 20.667 -21.999 30 -33.999c126.667 -153.333 167 -338.666 121 -555.999s-165.333 -403 -358 -557c-190 -152 -394 -228 -612 -228c-214.667 0 -385.334 75.333 -512.001 226
c-128 153.333 -169.333 337 -124 551c46.667 220 165 407.333 355 562c188.667 153.333 393.667 230 615 230c156.667 0 289.334 -39 398.001 -117l38 16c14.667 6 37 18.667 67 38s49.667 43 59 71h-65l39 180h189l-40 -186c-11.333 -32.667 -25.333 -59.834 -42 -81.501
s-35.167 -39.834 -55.5 -54.501s-37.5 -26 -51.5 -34c-12 -7.33301 -29 -16 -51 -26z" />
    <glyph glyph-name="uni1EE1" unicode="&#x1ee1;" 
d="M1173 885c-68 90 -162.999 135 -284.999 135c-125.333 0 -240.666 -46.667 -345.999 -140c-103.333 -90.667 -168.333 -199 -195 -325c-26.667 -122.667 -6.33398 -228.667 60.999 -318c67.333 -90 162.333 -135 285 -135c126.667 0 242.667 46 348 138
c101.333 90 165.666 199 192.999 327c26 122.667 5.66699 228.667 -61 318zM1324 1413c-83.333 -53.333 -156.002 -80.001 -218.002 -80.001c-27.333 0 -54.666 4.33301 -81.999 13c-18 6 -40.667 15.667 -68 29l-63 29c-23.333 8.66699 -45.333 13 -66 13
c-48 0 -98 -20.333 -150 -61l-50 102c74 57.333 151 86 231 86c26.667 0 53.334 -4.33301 80.001 -13c17.333 -6 39.333 -15.667 66 -29c2 -0.666992 4.66699 -2 8 -4c3.33301 -1.33301 5.66602 -2.66602 6.99902 -3.99902l16 -7l31 -14
c22.667 -8.66699 44.334 -13 65.001 -13c21.333 0 45.333 6 72 18l51 26l17 9zM1299 961.999c84 -113.333 109.669 -246.999 77.002 -400.999c-34 -160.667 -121 -298.667 -261 -414c-140 -116 -290.333 -174 -451 -174c-158 0 -282.667 57.333 -374 172
s-120.333 250.667 -87 408c34.667 162.667 121 302.334 259 419.001c139.333 118 290 177 452 177c125.333 0 229.333 -35.667 312 -107l25 11c14 6 35.167 18.667 63.5 38s47.166 43 56.499 71h-61l38 180h176l-40 -186c-11.333 -32.667 -24.833 -59.834 -40.5 -81.501
s-32.834 -39.834 -51.501 -54.501s-35 -26 -49 -34c-11.333 -6.66699 -26 -14.667 -44 -24z" />
    <glyph glyph-name="uni1EE2" unicode="&#x1ee2;" horiz-adv-x="1779" 
d="M1606 1214c-101.333 127.333 -240.997 191 -418.997 191c-180 0 -347 -64.333 -501 -193c-153.333 -128.667 -249 -282.667 -287 -462c-36.667 -174.667 -4 -325 98 -451c101.333 -125.333 239.666 -188 414.999 -188c177.333 0 343.666 63 498.999 189s252 278 290 456
c37.333 178 5.66602 330.667 -95.001 458zM732.003 -385l55 259h152l-55 -259h-152zM1702 1348c10.667 -10.667 20.667 -21.999 30 -33.999c126.667 -153.333 167 -338.666 121 -555.999s-165.333 -403 -358 -557c-190 -152 -394 -228 -612 -228
c-214.667 0 -385.334 75.333 -512.001 226c-128 153.333 -169.333 337 -124 551c46.667 220 165 407.333 355 562c188.667 153.333 393.667 230 615 230c156.667 0 289.334 -39 398.001 -117l38 16c14.667 6 37 18.667 67 38s49.667 43 59 71h-65l39 180h189l-40 -186
c-11.333 -32.667 -25.333 -59.834 -42 -81.501s-35.167 -39.834 -55.5 -54.501s-37.5 -26 -51.5 -34c-12 -7.33301 -29 -16 -51 -26z" />
    <glyph glyph-name="uni1EE3" unicode="&#x1ee3;" 
d="M1173 885c-68 90 -162.999 135 -284.999 135c-125.333 0 -240.666 -46.667 -345.999 -140c-103.333 -90.667 -168.333 -199 -195 -325c-26.667 -122.667 -6.33398 -228.667 60.999 -318c67.333 -90 162.333 -135 285 -135c126.667 0 242.667 46 348 138
c101.333 90 165.666 199 192.999 327c26 122.667 5.66699 228.667 -61 318zM514.001 -385l55 259h152l-55 -259h-152zM1299 962c84 -113.333 109.669 -246.999 77.002 -400.999c-34 -160.667 -121 -298.667 -261 -414c-140 -116 -290.333 -174 -451 -174
c-158 0 -282.667 57.333 -374 172s-120.333 250.667 -87 408c34.667 162.667 121 302.334 259 419.001c139.333 118 290 177 452 177c125.333 0 229.333 -35.667 312 -107l25 11c14 6 35.167 18.667 63.5 38s47.166 43 56.499 71h-61l38 180h176l-40 -186
c-11.333 -32.667 -24.833 -59.834 -40.5 -81.501s-32.834 -39.834 -51.501 -54.501s-35 -26 -49 -34c-11.333 -6.66699 -26 -14.667 -44 -24z" />
    <glyph glyph-name="uni1EE4" unicode="&#x1ee4;" 
d="M1306 571c-12 -56.667 -27.332 -110.334 -45.999 -161.001c-22.667 -59.333 -48.667 -110.666 -78 -153.999c-128 -188.667 -301 -283 -519 -283s-351 94.333 -399 283c-10.667 43.333 -14.334 94.666 -11.001 153.999c2 50.667 9 104.334 21 161.001l201 945h152
l-201 -945c-10.667 -49.333 -17.334 -96 -20.001 -140c-2.66699 -56 1.66602 -100.667 12.999 -134c41.333 -124 132.333 -186 273 -186s258.334 62 353.001 186c26 33.333 49 78 69 134c16.667 44 30.334 90.667 41.001 140l201 945h151zM511.001 -385l55 259h152l-55 -259
h-152z" />
    <glyph glyph-name="uni1EE5" unicode="&#x1ee5;" horiz-adv-x="1245" 
d="M972 0l36.9971 174.002h-4c-45.333 -66 -105.666 -116.667 -180.999 -152c-68.667 -32.667 -142 -49 -220 -49c-168 0 -284.667 56 -350 168c-26.667 46.667 -40.667 103.667 -42 171c-1.33301 54.667 5.66699 118 21 190l131 618h143l-131 -616
c-26.667 -125.333 -22.334 -221.333 12.999 -288c40.667 -76 121.334 -114 242.001 -114c94.667 0 180.334 30.333 257.001 91c54.667 43.333 97.334 94.666 128.001 153.999c24.667 47.333 44.667 107.666 60 180.999l126 592h143l-238 -1120h-135zM512.997 -384.998
l55 259h152l-55 -259h-152z" />
    <glyph glyph-name="uni1EE6" unicode="&#x1ee6;" 
d="M1306 571c-12 -56.667 -27.332 -110.334 -45.999 -161.001c-22.667 -59.333 -48.667 -110.666 -78 -153.999c-128 -188.667 -301 -283 -519 -283s-351 94.333 -399 283c-10.667 43.333 -14.334 94.666 -11.001 153.999c2 50.667 9 104.334 21 161.001l201 945h152
l-201 -945c-10.667 -49.333 -17.334 -96 -20.001 -140c-2.66699 -56 1.66602 -100.667 12.999 -134c41.333 -124 132.333 -186 273 -186s258.334 62 353.001 186c26 33.333 49 78 69 134c16.667 44 30.334 90.667 41.001 140l201 945h151zM1228 1794
c-6 -7.33301 -15.6641 -16.667 -28.9971 -28l-16 -14l-49 -40c-10 -9.33301 -20 -19.333 -30 -30c-15.333 -18 -28.333 -47 -39 -87h-127l6 27c6.66699 34 23 67 49 99c7.33301 9.33301 18.666 21.333 33.999 36c6.66699 6 17.334 14.667 32.001 26l32 26
c10.667 9.33301 20.667 18.666 30 27.999c14 14.667 23 31 27 49c6 28 2 50 -12 66c-16 18 -34.667 27 -56 27c-30.667 0 -58.334 -14 -83.001 -42c-8.66699 -10 -15.334 -21.333 -20.001 -34c-2.66699 -7.33301 -7.66699 -27.666 -15 -60.999h-129l9 39
c11.333 54 43.666 102 96.999 144c49.333 38 104.333 57 165 57c62 0 108.333 -18.667 139 -56c32.667 -40.667 43.334 -88 32.001 -142c-6.66699 -30.667 -22.334 -60.667 -47.001 -90z" />
    <glyph glyph-name="uni1EE7" unicode="&#x1ee7;" horiz-adv-x="1245" 
d="M972 0l36.9971 174.002h-4c-45.333 -66 -105.666 -116.667 -180.999 -152c-68.667 -32.667 -142 -49 -220 -49c-168 0 -284.667 56 -350 168c-26.667 46.667 -40.667 103.667 -42 171c-1.33301 54.667 5.66699 118 21 190l131 618h143l-131 -616
c-26.667 -125.333 -22.334 -221.333 12.999 -288c40.667 -76 121.334 -114 242.001 -114c94.667 0 180.334 30.333 257.001 91c54.667 43.333 97.334 94.666 128.001 153.999c24.667 47.333 44.667 107.666 60 180.999l126 592h143l-238 -1120h-135zM1122 1442
c-6.66699 -7.33301 -16.3311 -16.667 -28.998 -28l-16 -14l-50 -40c-10 -9.33301 -19.667 -19.333 -29 -30c-16 -18 -29.333 -47 -40 -87h-127l6 27c7.33301 34 23.666 67 48.999 99c7.33301 9.33301 19 21.333 35 36c6.66699 6 17 14.667 31 26l33 26
c10.667 9.33301 20.667 18.666 30 27.999c14 14.667 22.667 31 26 49c6 28 2 50 -12 66c-15.333 18 -33.666 27 -54.999 27c-30.667 0 -58.334 -14 -83.001 -42c-8.66699 -10 -15.334 -21.333 -20.001 -34c-2.66699 -7.33301 -7.66699 -27.666 -15 -60.999h-129l8 39
c11.333 54 44 102 98 144c49.333 38 104.333 57 165 57c62 0 108.333 -18.667 139 -56c32.667 -40.667 43.334 -88 32.001 -142c-6.66699 -30.667 -22.334 -60.667 -47.001 -90z" />
    <glyph glyph-name="uni1EE8" unicode="&#x1ee8;" 
d="M894 1602l-42 118l455 224l40 -123zM1471 1344l-164 -772.997c-12 -56.667 -27.667 -110.334 -47 -161.001c-22 -59.333 -48 -110.666 -78 -153.999c-127.333 -188.667 -300 -283 -518 -283s-351 94.333 -399 283c-10.667 43.333 -14.667 94.666 -12 153.999
c2.66699 50.667 10 104.334 22 161.001l201 945h151l-201 -945c-10.667 -49.333 -17.334 -96 -20.001 -140c-2 -56 2.33301 -100.667 13 -134c42 -124 133.333 -186 274 -186s258.334 62 353.001 186c26 33.333 49 78 69 134c16 44 29.333 90.667 40 140l201 945h152l-8 -36
c30 19.333 49.333 42.666 58 69.999h-65l38 180h189l-39 -186c-11.333 -32.667 -25.333 -59.834 -42 -81.501s-35.167 -39.834 -55.5 -54.501s-37.5 -26 -51.5 -34c-14.667 -8 -35 -18 -61 -30z" />
    <glyph glyph-name="uni1EE9" unicode="&#x1ee9;" horiz-adv-x="1245" 
d="M777 1268l-43 118l455 224l39 -123zM1310 954l-203.003 -953.997h-135l37 174h-4c-45.333 -66 -105.666 -116.667 -180.999 -152c-68.667 -32.667 -142 -49 -220 -49c-168 0 -284.667 56 -350 168c-26.667 46.667 -40.667 103.667 -42 171
c-1.33301 54.667 5.66699 118 21 190l131 618h143l-131 -616c-26.667 -125.333 -22.334 -221.333 12.999 -288c40.667 -76 121.334 -114 242.001 -114c94.667 0 180.334 30.333 257.001 91c54.667 43.333 97.334 94.666 128.001 153.999
c24.667 47.333 44.667 107.666 60 180.999l126 592h143l-7 -33l6 4c28 19.333 46.667 43 56 71h-61l39 180h176l-40 -186c-11.333 -32.667 -24.833 -59.834 -40.5 -81.501s-33 -39.834 -52 -54.501s-35.5 -26.167 -49.5 -34.5s-34.333 -19.166 -61 -32.499z" />
    <glyph glyph-name="uni1EEA" unicode="&#x1eea;" 
d="M1130 1602l-359 219l92 123l360 -224zM1471 1344l-164 -772.997c-12 -56.667 -27.667 -110.334 -47 -161.001c-22 -59.333 -48 -110.666 -78 -153.999c-127.333 -188.667 -300 -283 -518 -283s-351 94.333 -399 283c-10.667 43.333 -14.667 94.666 -12 153.999
c2.66699 50.667 10 104.334 22 161.001l201 945h151l-201 -945c-10.667 -49.333 -17.334 -96 -20.001 -140c-2 -56 2.33301 -100.667 13 -134c42 -124 133.333 -186 274 -186s258.334 62 353.001 186c26 33.333 49 78 69 134c16 44 29.333 90.667 40 140l201 945h152l-8 -36
c30 19.333 49.333 42.666 58 69.999h-65l38 180h189l-39 -186c-11.333 -32.667 -25.333 -59.834 -42 -81.501s-35.167 -39.834 -55.5 -54.501s-37.5 -26 -51.5 -34c-14.667 -8 -35 -18 -61 -30z" />
    <glyph glyph-name="uni1EEB" unicode="&#x1eeb;" horiz-adv-x="1245" 
d="M1010 1268l-359 219l91 123l361 -224zM1310 954l-203.003 -953.997h-135l37 174h-4c-45.333 -66 -105.666 -116.667 -180.999 -152c-68.667 -32.667 -142 -49 -220 -49c-168 0 -284.667 56 -350 168c-26.667 46.667 -40.667 103.667 -42 171
c-1.33301 54.667 5.66699 118 21 190l131 618h143l-131 -616c-26.667 -125.333 -22.334 -221.333 12.999 -288c40.667 -76 121.334 -114 242.001 -114c94.667 0 180.334 30.333 257.001 91c54.667 43.333 97.334 94.666 128.001 153.999
c24.667 47.333 44.667 107.666 60 180.999l126 592h143l-7 -33l6 4c28 19.333 46.667 43 56 71h-61l39 180h176l-40 -186c-11.333 -32.667 -24.833 -59.834 -40.5 -81.501s-33 -39.834 -52 -54.501s-35.5 -26.167 -49.5 -34.5s-34.333 -19.166 -61 -32.499z" />
    <glyph glyph-name="uni1EEC" unicode="&#x1eec;" 
d="M1227 1794c-6 -7.33301 -15.6641 -16.667 -28.9971 -28l-16 -14l-49 -40c-10 -9.33301 -20 -19.333 -30 -30c-15.333 -18 -28.333 -47 -39 -87h-127l6 27c6.66699 34 23 67 49 99c7.33301 9.33301 18.666 21.333 33.999 36c6.66699 6 17.334 14.667 32.001 26l32 26
c10.667 9.33301 20.667 18.666 30 27.999c14 14.667 23 31 27 49c6 28 2 50 -12 66c-16 18 -34.667 27 -56 27c-30.667 0 -58.334 -14 -83.001 -42c-8.66699 -10 -15.334 -21.333 -20.001 -34c-2.66699 -7.33301 -7.66699 -27.666 -15 -60.999h-129l9 39
c11.333 54 43.666 102 96.999 144c49.333 38 104.333 57 165 57c62 0 108.333 -18.667 139 -56c32.667 -40.667 43.334 -88 32.001 -142c-6.66699 -30.667 -22.334 -60.667 -47.001 -90zM1470 1344l-164 -772.997c-12 -56.667 -27.667 -110.334 -47 -161.001
c-22 -59.333 -48 -110.666 -78 -153.999c-127.333 -188.667 -300 -283 -518 -283s-351 94.333 -399 283c-10.667 43.333 -14.667 94.666 -12 153.999c2.66699 50.667 10 104.334 22 161.001l201 945h151l-201 -945c-10.667 -49.333 -17.334 -96 -20.001 -140
c-2 -56 2.33301 -100.667 13 -134c42 -124 133.333 -186 274 -186s258.334 62 353.001 186c26 33.333 49 78 69 134c16 44 29.333 90.667 40 140l201 945h152l-8 -36c30 19.333 49.333 42.666 58 69.999h-65l38 180h189l-39 -186
c-11.333 -32.667 -25.333 -59.834 -42 -81.501s-35.167 -39.834 -55.5 -54.501s-37.5 -26 -51.5 -34c-14.667 -8 -35 -18 -61 -30z" />
    <glyph glyph-name="uni1EED" unicode="&#x1eed;" horiz-adv-x="1245" 
d="M1122 1442c-6.66699 -7.33301 -16.3311 -16.667 -28.998 -28l-16 -14l-50 -40c-10 -9.33301 -19.667 -19.333 -29 -30c-16 -18 -29.333 -47 -40 -87h-127l6 27c7.33301 34 23.666 67 48.999 99c7.33301 9.33301 19 21.333 35 36c6.66699 6 17 14.667 31 26l33 26
c10.667 9.33301 20.667 18.666 30 27.999c14 14.667 22.667 31 26 49c6 28 2 50 -12 66c-15.333 18 -33.666 27 -54.999 27c-30.667 0 -58.334 -14 -83.001 -42c-8.66699 -10 -15.334 -21.333 -20.001 -34c-2.66699 -7.33301 -7.66699 -27.666 -15 -60.999h-129l8 39
c11.333 54 44 102 98 144c49.333 38 104.333 57 165 57c62 0 108.333 -18.667 139 -56c32.667 -40.667 43.334 -88 32.001 -142c-6.66699 -30.667 -22.334 -60.667 -47.001 -90zM1310 953.999l-203.003 -953.997h-135l37 174h-4
c-45.333 -66 -105.666 -116.667 -180.999 -152c-68.667 -32.667 -142 -49 -220 -49c-168 0 -284.667 56 -350 168c-26.667 46.667 -40.667 103.667 -42 171c-1.33301 54.667 5.66699 118 21 190l131 618h143l-131 -616c-26.667 -125.333 -22.334 -221.333 12.999 -288
c40.667 -76 121.334 -114 242.001 -114c94.667 0 180.334 30.333 257.001 91c54.667 43.333 97.334 94.666 128.001 153.999c24.667 47.333 44.667 107.666 60 180.999l126 592h143l-7 -33l6 4c28 19.333 46.667 43 56 71h-61l39 180h176l-40 -186
c-11.333 -32.667 -24.833 -59.834 -40.5 -81.501s-33 -39.834 -52 -54.501s-35.5 -26.167 -49.5 -34.5s-34.333 -19.166 -61 -32.499z" />
    <glyph glyph-name="uni1EEE" unicode="&#x1eee;" 
d="M1379 1726c-83.333 -52.667 -156.001 -79.002 -218.001 -79.002c-27.333 0 -54.666 4.33301 -81.999 13c-18.667 5.33301 -41.334 15 -68.001 29l-63 28c-22.667 9.33301 -44.667 14 -66 14c-48 0 -98 -20.667 -150 -62l-50 103c74 57.333 151.333 86 232 86
c26 0 52.333 -4.66699 79 -14c17.333 -5.33301 39.333 -14.666 66 -27.999c1.33301 -1.33301 4 -2.66602 8 -3.99902c2.66699 -2 5 -3.33301 7 -4c6 -3.33301 11 -6 15 -8l32 -13c22.667 -8.66699 44.334 -13 65.001 -13c21.333 0 45 5.66699 71 17l52 26l17 10zM1470 1344
l-164 -772.997c-12 -56.667 -27.667 -110.334 -47 -161.001c-22 -59.333 -48 -110.666 -78 -153.999c-127.333 -188.667 -300 -283 -518 -283s-351 94.333 -399 283c-10.667 43.333 -14.667 94.666 -12 153.999c2.66699 50.667 10 104.334 22 161.001l201 945h151l-201 -945
c-10.667 -49.333 -17.334 -96 -20.001 -140c-2 -56 2.33301 -100.667 13 -134c42 -124 133.333 -186 274 -186s258.334 62 353.001 186c26 33.333 49 78 69 134c16 44 29.333 90.667 40 140l201 945h152l-8 -36c30 19.333 49.333 42.666 58 69.999h-65l38 180h189l-39 -186
c-11.333 -32.667 -25.333 -59.834 -42 -81.501s-35.167 -39.834 -55.5 -54.501s-37.5 -26 -51.5 -34c-14.667 -8 -35 -18 -61 -30z" />
    <glyph glyph-name="uni1EEF" unicode="&#x1eef;" horiz-adv-x="1245" 
d="M1324 1413c-83.333 -53.333 -156 -80.001 -218 -80.001c-27.333 0 -55 4.33301 -83 13c-18 6 -40.333 15.667 -67 29l-63 29c-24 8.66699 -46.333 13 -67 13c-48 0 -98 -20.333 -150 -61l-50 102c74 57.333 151 86 231 86c26.667 0 53.667 -4.33301 81 -13
c17.333 -6 39.333 -15.667 66 -29l8 -4c2.66699 -1.33301 5 -2.66602 7 -3.99902c6 -2.66699 11 -5 15 -7l31 -14c23.333 -8.66699 45.333 -13 66 -13c21.333 0 45 6 71 18l52 26l17 9zM1310 953.999l-203.003 -953.997h-135l37 174h-4
c-45.333 -66 -105.666 -116.667 -180.999 -152c-68.667 -32.667 -142 -49 -220 -49c-168 0 -284.667 56 -350 168c-26.667 46.667 -40.667 103.667 -42 171c-1.33301 54.667 5.66699 118 21 190l131 618h143l-131 -616c-26.667 -125.333 -22.334 -221.333 12.999 -288
c40.667 -76 121.334 -114 242.001 -114c94.667 0 180.334 30.333 257.001 91c54.667 43.333 97.334 94.666 128.001 153.999c24.667 47.333 44.667 107.666 60 180.999l126 592h143l-7 -33l6 4c28 19.333 46.667 43 56 71h-61l39 180h176l-40 -186
c-11.333 -32.667 -24.833 -59.834 -40.5 -81.501s-33 -39.834 -52 -54.501s-35.5 -26.167 -49.5 -34.5s-34.333 -19.166 -61 -32.499z" />
    <glyph glyph-name="uni1EF0" unicode="&#x1ef0;" 
d="M511 -385l55 259h152l-55 -259h-152zM1470 1344l-164 -772.997c-12 -56.667 -27.667 -110.334 -47 -161.001c-22 -59.333 -48 -110.666 -78 -153.999c-127.333 -188.667 -300 -283 -518 -283s-351 94.333 -399 283c-10.667 43.333 -14.667 94.666 -12 153.999
c2.66699 50.667 10 104.334 22 161.001l201 945h151l-201 -945c-10.667 -49.333 -17.334 -96 -20.001 -140c-2 -56 2.33301 -100.667 13 -134c42 -124 133.333 -186 274 -186s258.334 62 353.001 186c26 33.333 49 78 69 134c16 44 29.333 90.667 40 140l201 945h152l-8 -36
c30 19.333 49.333 42.666 58 69.999h-65l38 180h189l-39 -186c-11.333 -32.667 -25.333 -59.834 -42 -81.501s-35.167 -39.834 -55.5 -54.501s-37.5 -26 -51.5 -34c-14.667 -8 -35 -18 -61 -30z" />
    <glyph glyph-name="uni1EF1" unicode="&#x1ef1;" horiz-adv-x="1245" 
d="M513 -385l55 259h152l-55 -259h-152zM1310 954l-203.003 -953.997h-135l37 174h-4c-45.333 -66 -105.666 -116.667 -180.999 -152c-68.667 -32.667 -142 -49 -220 -49c-168 0 -284.667 56 -350 168c-26.667 46.667 -40.667 103.667 -42 171
c-1.33301 54.667 5.66699 118 21 190l131 618h143l-131 -616c-26.667 -125.333 -22.334 -221.333 12.999 -288c40.667 -76 121.334 -114 242.001 -114c94.667 0 180.334 30.333 257.001 91c54.667 43.333 97.334 94.666 128.001 153.999
c24.667 47.333 44.667 107.666 60 180.999l126 592h143l-7 -33l6 4c28 19.333 46.667 43 56 71h-61l39 180h176l-40 -186c-11.333 -32.667 -24.833 -59.834 -40.5 -81.501s-33 -39.834 -52 -54.501s-35.5 -26.167 -49.5 -34.5s-34.333 -19.166 -61 -32.499z" />
    <glyph glyph-name="Ygrave" unicode="&#x1ef2;" horiz-adv-x="1212" 
d="M787 506l-107 -506h-152l107 506l-311 1010h168l251 -850l625 850h166zM1130 1602l-359 219l92 123l360 -224z" />
    <glyph glyph-name="ygrave" unicode="&#x1ef3;" horiz-adv-x="1097" 
d="M337 -393h-149l285 430l-205 1083h152l166 -893l571 893h151zM626 1487l91 123l360 -224l-93 -118z" />
    <glyph glyph-name="uni1EF4" unicode="&#x1ef4;" horiz-adv-x="1212" 
d="M787 506l-107 -506h-152l107 506l-311 1010h168l251 -850l625 850h166zM451 -385l55 259h152l-55 -259h-152z" />
    <glyph glyph-name="uni1EF5" unicode="&#x1ef5;" horiz-adv-x="1097" 
d="M337 -393h-149l285 430l-205 1083h152l166 -893l571 893h151zM513 -385l55 259h152l-55 -259h-152z" />
    <glyph glyph-name="uni1EF6" unicode="&#x1ef6;" horiz-adv-x="1212" 
d="M787 506l-107 -506h-152l107 506l-311 1010h168l251 -850l625 850h166zM1177 1794c-6 -7.33301 -15.6641 -16.667 -28.9971 -28l-16 -14l-49 -40c-10 -9.33301 -20 -19.333 -30 -30c-15.333 -18 -28.333 -47 -39 -87h-127l6 27c6.66699 34 23 67 49 99
c7.33301 9.33301 18.666 21.333 33.999 36c6.66699 6 17.334 14.667 32.001 26l32 26c10.667 9.33301 20.667 18.666 30 27.999c14 14.667 23 31 27 49c6 28 2 50 -12 66c-16 18 -34.667 27 -56 27c-30.667 0 -58.334 -14 -83.001 -42
c-8.66699 -10 -15.334 -21.333 -20.001 -34c-2.66699 -7.33301 -7.66699 -27.666 -15 -60.999h-129l9 39c11.333 54 43.666 102 96.999 144c49.333 38 104.333 57 165 57c62 0 108.333 -18.667 139 -56c32.667 -40.667 43.334 -88 32.001 -142
c-6.66699 -30.667 -22.334 -60.667 -47.001 -90z" />
    <glyph glyph-name="uni1EF7" unicode="&#x1ef7;" horiz-adv-x="1097" 
d="M337 -393h-149l285 430l-205 1083h152l166 -893l571 893h151zM1081 1442c-6 -7.33301 -15.6641 -16.667 -28.9971 -28l-16 -14l-49 -40c-10 -9.33301 -20 -19.333 -30 -30c-16 -18 -29 -47 -39 -87h-127l5 27c7.33301 34 24 67 50 99
c7.33301 9.33301 18.666 21.333 33.999 36c6.66699 6 17.334 14.667 32.001 26l32 26c10.667 9.33301 20.667 18.666 30 27.999c14 14.667 23 31 27 49c6 28 2 50 -12 66c-16 18 -34.667 27 -56 27c-30.667 0 -58.334 -14 -83.001 -42
c-8.66699 -10 -15.334 -21.333 -20.001 -34c-2.66699 -7.33301 -7.66699 -27.666 -15 -60.999h-129l9 39c11.333 54 43.666 102 96.999 144c49.333 38 104.333 57 165 57c62 0 108.333 -18.667 139 -56c32.667 -40.667 43.334 -88 32.001 -142
c-6.66699 -30.667 -22.334 -60.667 -47.001 -90z" />
    <glyph glyph-name="uni1EF8" unicode="&#x1ef8;" horiz-adv-x="1212" 
d="M787 506l-107 -506h-152l107 506l-311 1010h168l251 -850l625 850h166zM1327 1726c-83.333 -52.667 -156.001 -79.002 -218.001 -79.002c-27.333 0 -54.666 4.33301 -81.999 13c-18.667 5.33301 -41.334 15 -68.001 29l-63 28c-22.667 9.33301 -44.667 14 -66 14
c-48 0 -98 -20.667 -150 -62l-50 103c74 57.333 151.333 86 232 86c26 0 52.333 -4.66699 79 -14c17.333 -5.33301 39.333 -14.666 66 -27.999c1.33301 -1.33301 4 -2.66602 8 -3.99902c2.66699 -2 5 -3.33301 7 -4c6 -3.33301 11 -6 15 -8l32 -13
c22.667 -8.66699 44.334 -13 65.001 -13c21.333 0 45 5.66699 71 17l52 26l17 10z" />
    <glyph glyph-name="uni1EF9" unicode="&#x1ef9;" horiz-adv-x="1097" 
d="M337 -393h-149l285 430l-205 1083h152l166 -893l571 893h151zM1233 1413c-83.333 -53.333 -155.666 -80.001 -216.999 -80.001c-28 0 -55.333 4.33301 -82 13c-18 6 -41 15.667 -69 29l-63 29c-22.667 8.66699 -44.334 13 -65.001 13c-48.667 0 -99 -20.333 -151 -61
l-50 102c74 57.333 151.333 86 232 86c26.667 0 53 -4.33301 79 -13c17.333 -6 39.333 -15.667 66 -29c2 -0.666992 4.66699 -2 8 -4c3.33301 -1.33301 5.66602 -2.66602 6.99902 -3.99902l16 -7l31 -14c22.667 -8.66699 44.667 -13 66 -13c20.667 0 44.334 6 71.001 18
l51 26l18 9z" />
    <glyph glyph-name="quoteleft" unicode="&#x2018;" horiz-adv-x="802" 
d="M615 1118l-95 398h152l95 -398h-152z" />
    <glyph glyph-name="quoteright" unicode="&#x2019;" horiz-adv-x="731" 
d="M627 1118h-152l265 398h152z" />
    <glyph glyph-name="quotedblleft" unicode="&#x201c;" horiz-adv-x="1028" 
d="M916 1118l-93 398h150l95 -398h-152zM615 1118l-95 398h152l95 -398h-152z" />
    <glyph glyph-name="quotedblright" unicode="&#x201d;" horiz-adv-x="991" 
d="M887 1118h-152l265 398h152zM586 1118h-152l265 398h150z" />
    <glyph glyph-name="ellipsis" unicode="&#x2026;" horiz-adv-x="2048" 
d="M1630 0l55 258h152l-55 -258h-152zM948 0l55 258h152l-55 -258h-152zM266 0l55 258h152l-55 -258h-152z" />
    <glyph glyph-name=".null" horiz-adv-x="0" 
 />
    <glyph glyph-name="nonmarkingreturn" horiz-adv-x="571" 
 />
    <glyph glyph-name="ugrave" horiz-adv-x="582" 
 />
    <glyph glyph-name="uacute" horiz-adv-x="580" 
 />
    <glyph glyph-name="yacute" horiz-adv-x="629" 
 />
    </font>
</defs>
</svg>
