<svg xmlns="http://www.w3.org/2000/svg">
<defs>
<font id="UTMAvo-BoldItalic" horiz-adv-x="1552" >
  <font-face 
    font-family="UTM Avo"
    font-weight="700"
    font-style="italic"
    font-stretch="normal"
    units-per-em="2048"
    panose-1="2 4 6 3 5 5 6 9 2 4"
    ascent="1638"
    descent="-410"
    x-height="1137"
    cap-height="1516"
    bbox="-77 -541.001 4956 2460"
    underline-thickness="109"
    underline-position="-143"
    slope="-12"
    unicode-range="U+0020-U+2026"
  />
<missing-glyph horiz-adv-x="5040" 
d="M3785 2045h10c23.333 -6.66699 32 -24 26 -52c-1.33301 -8 -16 -27 -44 -57h-28c3.33301 16 16.666 34 40 54l4 10c-1.33301 8.66699 -3.66602 13.667 -7 15h-9c-5.33301 0 -10 -6.33301 -14 -19h-30c10.667 32.667 28 49 52 49zM2447 2016l23 -31
c-2.66699 -10.667 -18.334 -20.667 -47 -30h-19l-56 12l-14 -12l-22 25c11.333 19.333 27.666 29 49 29h11l39 -11h2c6.66699 0 18 6 34 18zM889 1980h142l-13 -60h-94l-16 -75h89l-13 -59h-89l-27 -129l-6 -5h-49l69 323zM1576 1980h43l5 -5l-17 -78h30l-11 -52h-30
l-40 -188l-7 -5h-49l41 193h-25l11 52h25l17 78zM2042 1980h42l3 -5l-20 -94h3c18.667 16 38.334 24 59 24h2c38.667 0 61.334 -23.667 68 -71l-7 -39l-30 -143h-52l24 115c11.333 53.333 3 80 -25 80h-7c-28.667 0 -49 -28.667 -61 -86l-23 -109h-51l69 323zM2621 1980
l49 -0.000976562l4 -5l-48 -222c0 -34 11.667 -51 35 -51c30 4.66699 48.667 24.334 56 59.001l46 214l6 5h49l-46 -216c-12 -56.667 -42 -94 -90 -112c-11.333 -5.33301 -23.666 -8 -37 -8c-31.333 0 -54.666 18.333 -70 55c-6 16 -6.66699 35 -2 57zM2856 1980h159
l-13 -60h-56l-57 -268h-53l57 268h-55l12 55zM3042 1980l71 0.000976562c4 -2.66699 13.667 -86.334 29 -251.001h2l134 251h73l-70 -328h-54l51 242h-2l-125 -242h-44c-2.66699 0 -9 60.667 -19 182l-7 60h-3l-51 -242h-55zM4181 1980l52 -0.000976562l-70 -328h-45l-4 5
l2 11l4 2v14c-25.333 -26.667 -54.333 -40 -87 -40c-44.667 0 -71.334 30.333 -80 91l3 39l1 3c12.667 62.667 52 104.334 118 125.001l24 3c23.334 0 42 -10.667 56 -32h3zM2467 1928l36 0.00195312l2 -6l-10 -49h-45l-47 -221h-48l5 23c-20 -20.667 -42 -31 -66 -31

<glyph glyph-name=".notdef" horiz-adv-x="5040" 
d="M3785 2045h10c23.333 -6.66699 32 -24 26 -52c-1.33301 -8 -16 -27 -44 -57h-28c3.33301 16 16.666 34 40 54l4 10c-1.33301 8.66699 -3.66602 13.667 -7 15h-9c-5.33301 0 -10 -6.33301 -14 -19h-30c10.667 32.667 28 49 52 49zM2447 2016l23 -31
c-2.66699 -10.667 -18.334 -20.667 -47 -30h-19l-56 12l-14 -12l-22 25c11.333 19.333 27.666 29 49 29h11l39 -11h2c6.66699 0 18 6 34 18zM889 1980h142l-13 -60h-94l-16 -75h89l-13 -59h-89l-27 -129l-6 -5h-49l69 323zM1576 1980h43l5 -5l-17 -78h30l-11 -52h-30
l-40 -188l-7 -5h-49l41 193h-25l11 52h25l17 78zM2042 1980h42l3 -5l-20 -94h3c18.667 16 38.334 24 59 24h2c38.667 0 61.334 -23.667 68 -71l-7 -39l-30 -143h-52l24 115c11.333 53.333 3 80 -25 80h-7c-28.667 0 -49 -28.667 -61 -86l-23 -109h-51l69 323zM2621 1980
l49 -0.000976562l4 -5l-48 -222c0 -34 11.667 -51 35 -51c30 4.66699 48.667 24.334 56 59.001l46 214l6 5h49l-46 -216c-12 -56.667 -42 -94 -90 -112c-11.333 -5.33301 -23.666 -8 -37 -8c-31.333 0 -54.666 18.333 -70 55c-6 16 -6.66699 35 -2 57zM2856 1980h159
l-13 -60h-56l-57 -268h-53l57 268h-55l12 55zM3042 1980l71 0.000976562c4 -2.66699 13.667 -86.334 29 -251.001h2l134 251h73l-70 -328h-54l51 242h-2l-125 -242h-44c-2.66699 0 -9 60.667 -19 182l-7 60h-3l-51 -242h-55zM4181 1980l52 -0.000976562l-70 -328h-45l-4 5
l2 11l4 2v14c-25.333 -26.667 -54.333 -40 -87 -40c-44.667 0 -71.334 30.333 -80 91l3 39l1 3c12.667 62.667 52 104.334 118 125.001l24 3c23.334 0 42 -10.667 56 -32h3zM2467 1928l36 0.00195312l2 -6l-10 -49h-45l-47 -221h-48l5 23c-20 -20.667 -42 -31 -66 -31
c-57.333 9.33301 -80 41.666 -68 96.999l33 156h51l-22 -104c-11.333 -52.667 -8.66602 -81.334 8 -86.001l17 -5h6c17.333 0 32.666 12 46 36l9 26l28 133h53l5 25zM3886 1928l-12 -55h-31l-47 -221h-47l5 25h-2c-14.667 -22 -36 -33 -64 -33c-45.333 0 -68.333 26 -69 78
l3 29l31 146h52l-25 -120c-7.33301 -33.333 -6 -56 4 -68l20 -7h9c28 0 46.667 23 56 69l27 126h27c2.66699 0 6 9.33301 10 28l4 3h49zM1163 1905c45.333 0 73.999 -25.667 85.999 -77c4 -12 4.33301 -30 1 -54c-12.667 -58.667 -51.667 -101 -117 -127l-33 -3
c-42 0 -70.333 24.333 -85 73c-5.33301 14.667 -5.66602 32 -0.999023 52l2 10c13.333 62.667 56 104.667 128 126h19zM1416 1905h3.00098c49.333 0 69.666 -33.667 60.999 -101l-32 -152h-51l25 119c10.667 50.667 2 76 -26 76h-5c-29.333 0 -49.333 -25.333 -60 -76
l-25 -119h-52l52 245h46l-4 -21c24 19.333 46.667 29 68 29zM1871 1905l6.99805 -0.000976562c48 0 76.667 -29.667 86 -89h-60c-6.66699 20.667 -18.667 31 -36 31h-17c-37.333 -9.33301 -59.333 -29.666 -66 -60.999l-6 -15c-1.33301 -46 14.334 -69 47.001 -69h9
c14.667 0 32 9 52 27h40l3 3h3l1 -3l3 3l2 -3l3 3v-7c-33.333 -54 -75.666 -81 -126.999 -81c-50.667 0 -80.667 31.333 -90 94l4 36l1 3c12 56.667 46 96.667 102 120c11.333 5.33301 24.333 8 39 8zM3546 1905h2c32.667 0 51.667 -20 57 -60l-3 -14h-52
c2 10.667 -2.33301 16 -13 16h-4c-9.33301 0 -16.333 -4.33301 -21 -13l-3 -13c-1.33301 -6 18.667 -17.667 60 -35c17.333 -12.667 23.333 -32.334 18 -59.001c-8 -38.667 -34 -65.334 -78 -80.001l-24 -3c-48.667 8 -68 35.667 -58 83h54
c-2.66699 -13.333 4.66602 -21.666 22 -24.999h4c12.667 0 22 7.66699 28 23c3.33301 14.667 -16 29.334 -58 44.001c-18.667 18 -26 37.667 -22 59c9.33301 44 39.666 69.667 91 77zM4608 1905c36.666 0 57.666 -21 63 -63c2 -12 0 -33.667 -6 -65l-27 -125h-52l24 112
c11.334 55.333 3.66699 83 -23 83h-11c-22 0 -39 -18 -51 -54l-30 -141h-52l1 5h-2l2 2l51 238h47l-4 -21c20.666 19.333 44 29 70 29zM4837 1905h5c26.666 0 46.666 -13.333 60 -40l4 18l-2 3l5 11h47l-44 -208c-14 -64.667 -51.666 -108.667 -113 -132l-34 -4h-7
c-46.666 0 -75.666 26.667 -87 80h59c12.666 -14.667 26 -22.334 40 -23.001h13c14.666 0 30.666 7.33301 48 22c11.334 8.66699 22.334 26 33 52h-3c-27.334 -26.667 -54.667 -40 -82 -40c-38 0 -65 23.333 -81 70c-4 12 -4 33 0 63c12 58.667 49.666 100.334 113 125.001z
M4254 1897l53 -0.000976562l-29 -136c-4 -39.333 5.33398 -59 28 -59h7c30.666 0 52.333 31 65 93l22 102h51l-52 -245h-47l-1 10h3l-2 3l1 5l3 2l1 3h-4c-3.33398 -15.333 -24.667 -25.666 -64 -30.999h-3c-39.334 0 -62 25 -68 75l16 85zM1066 1771
c-2.66699 -46 13.667 -69 49 -69h7c41.333 9.33301 65.333 31 72 65l4 15c0 43.333 -15.333 65 -46 65h-5c-38.667 0 -65.667 -25.333 -81 -76zM4007 1774c-1.33301 -48 14.001 -72 46.001 -72h5c38.666 0 66 25 82 75c6.66602 32.667 -5.66699 56 -37 70h-22
c-24.667 0 -47.334 -19 -68.001 -57zM4751 1774c-4.66602 -48 12 -71.999 50 -71.999h5c40.666 8 65.333 32 74 72c8.66602 40.667 -6 65 -44 73h-14c-39.334 -10.667 -62.334 -31.334 -69 -62.001zM4272 1620h52l-12 -57h-52zM1352 1402
c26.667 -7.33301 37.334 -23.667 32.001 -49v-4c-2.66699 -11.333 -17.667 -31.333 -45 -60h-28c3.33301 16.667 17.666 35.667 42.999 57l1 7c2 8 1 13 -3 15h-12c-7.33301 -2.66699 -12 -9 -14 -19h-28l1 6c4.66699 21.333 18.667 36 42 44zM3633 1339
c61.333 0 100.333 -33.001 117 -99.001h-60c-18.667 28 -42.334 42 -71 42c-36.667 0 -70.334 -22.667 -101 -68c-10 -14.667 -16.667 -30.334 -20 -47.001c-11.333 -52 7.66699 -88.667 57 -110l18 -1c24 0 52 13 84 39h61c-43.333 -64.667 -96.333 -97 -159 -97
c-62 0 -101 37.333 -117 112c-2.66699 20.667 -1.66699 41.334 3 62.001c14 64.667 54.667 115.334 122 152.001c21.333 10 43.333 15 66 15zM3948 1339c38 0 69 -15.666 93 -46.999c24 -34 31.333 -72.333 22 -115l-4 -20c-12.667 -59.333 -53.334 -108 -122 -146
c-24 -8.66699 -46 -13 -66 -13c-59.333 0 -98.333 33.667 -117 101c-4 22 -4 42 0 60l4 18c14 65.333 57.333 115.666 130 150.999c20.667 7.33301 40.667 11 60 11zM2545 1337h2l45 -11h3c7.33301 0 16.666 3.66699 28 11l10 -36c-14.667 -12.667 -27.667 -19 -39 -19h-3
l-52 10l-21 -7l-12 36c14 10.667 27 16 39 16zM999 1334h19c78.667 0 120 -8.66699 124 -26c12.667 -17.333 16.667 -38 12 -62c-14.667 -38 -28.667 -57 -42 -57l-2 -6c28 -15.333 39 -37.333 33 -66l-4 -18c-8.66699 -42 -37.667 -71.333 -87 -88l-55 -5h-67zM2833 1334
h53l-46 -217c-4.66699 -40.667 6 -61 32 -61c19.333 0 37 13 53 39l9 30l43 203l5 6h45l4 -6l-36 -171c-16.667 -78.667 -39.667 -123 -69 -133c-19.333 -17.333 -42.333 -26 -69 -26c-36.667 0 -61.667 25.333 -75 76l8 54zM3088 1334h59c2.66699 0 26.667 -79 72 -237h4
l50 237h50l3 -6l-68 -322h-58c-12.667 32 -37.667 111.333 -75 238h-3l-50 -238h-53zM3384 1334h54l-69 -328h-54zM4142 1334l8 0.000976562c103.334 0 158.667 -13.333 166 -40c14 -7.33301 24.334 -32.333 31 -75l-4 -36l-2 -11l2 -2
c-12.666 -62.667 -50.333 -112.334 -113 -149.001c-25.334 -10 -59.334 -15 -102 -15h-55zM4424 1334h153l-12 -60h-103l-16 -75h101l-12 -57h-101l-16 -74l3 -5h99l-12 -57h-157l68 322zM3813 1175l-3 -10c-10.667 -50.667 8 -86.667 56 -108l19 -1
c45.333 0 83.666 28.667 115 86l7 20l3 15c8.66699 40.667 -4.66602 72 -40 94c-6.66699 5.33301 -19 9 -37 11c-44 0 -81.667 -27.667 -113 -83zM1041 1274l-15 -67h9c36 0 56 9.33301 60 28l6 14c-3.33301 16.667 -11 25 -23 25h-37zM4183 1274l-44 -206.001l1 -3v-2
c69.334 0 115.334 25.333 138 76l5 15l6 29c4.66602 22.667 -1 45.334 -17 68.001c-13.334 15.333 -37.667 23 -73 23h-16zM1308 1259h4.99902c25.333 0 46.333 -13.333 63 -40l7 32h49l-52 -245h-49l6 32c-29.333 -26.667 -58.666 -40 -87.999 -40
c-50 0 -76.667 32.333 -80 97l2 36c12.667 59.333 50 101 112 125zM1581 1259h3c49.333 0 70 -34 62 -102l-32 -151h-51l27 128c9.33301 44.667 0 67 -28 67h-10c-22.667 0 -40 -20.667 -52 -62l-28 -133h-52l52 245h47l-5 -21c22.667 19.333 45 29 67 29zM1810 1259h5
c30 0 51 -13.333 63 -40l7 32h47l-47 -219c-13.333 -63.333 -57 -105.333 -131 -126h-16c-49.333 0 -79.333 27.333 -90 82h59c13.333 -16.667 26 -25 38 -25h14c34.667 0 61.667 25.667 81 77c-28 -28 -56.333 -42 -85 -42c-40 0 -68 27 -84 81l2 44l4 16
c11.333 52.667 48 91.667 110 117zM2179 1259l2.00098 0.000976562c28.667 0 46.667 -12.333 54 -37h2c26 24.667 51.333 37 76 37h4c38 0 60.667 -18.333 68 -55c1.33301 -16.667 0.666016 -31.667 -2.00098 -45l-32 -153h-52l29 138c6 29.333 2.33301 47.666 -11 54.999
l-12 2h-15c-21.333 0 -38 -21.667 -50 -65l-27 -130h-52l29 136c8 39.333 -2.33301 59 -31 59h-8c-21.333 0 -37.333 -19 -48 -57l-29 -138h-54l52 245h50l-5 -21h2c7.33301 16 27.333 25.667 60 29zM2549 1259c31.333 0 53.333 -14 66 -42l8 34h47l-52 -245h-47l6 32
c-29.333 -26.667 -58 -40 -86 -40c-49.333 0 -77 30.667 -83 92l3 41c12.667 60 50 101.667 112 125zM1222 1117c-6.66699 -32 9.33301 -52.333 48 -61h4c30 0 54 15.333 72 46l6 15l5 22c0.666992 41.333 -14 62 -44 62h-14c-27.333 0 -51 -19 -71 -57zM1727 1128
c-7.33301 -32 2 -54.667 28 -68l17 -4h5c31.333 0 56.333 19 75 57l5 23c2 43.333 -12.667 65 -44 65h-12c-33.333 0 -58 -24.333 -74 -73zM2465 1131l-3 -14.001c1.33301 -40.667 16 -61 44 -61h14c40.667 8 64.667 29.333 72 64l2 11c6.66699 30 -1 51.667 -23 65l-17 5
h-10c-44 -5.33301 -70.333 -28.666 -79 -69.999zM1014 1150l-16.999 -82c-0.666992 -3.33301 1.33301 -5 6 -5c51.333 0 80 15 86 45c5.33301 22.667 -7.33398 36.667 -38.001 42h-37zM3126 752.999l18 -28l-63 -55c-10 8 -17 16.667 -21 26zM1678 726.999l74 -54
c-2 -10 -12 -24 -30 -42l-76 54c18 27.333 28.667 41.333 32 42zM2997 692.999h38l42 -60h-54l-15 26l-29 -26h-54c44.667 40 68.667 60 72 60zM3569 692.999h40l43 -60h-54l-18 26h-1c-0.666992 -3.33301 -9 -12 -25 -26h-54zM767.001 684.999l52.001 0.00195312
c5.33301 -2.66699 11.333 -48.334 18 -137.001l11 -110c7.33301 5.33301 25.666 38.666 54.999 99.999l79 147h54v-2l-181 -326h-44zM1304 685.001h51l-11 -54h-51zM1499 685.001h46l5 -5l-68 -323h-52zM2462 685.001h45l3 -5l-16 -78h31l-11 -52h-31l-41 -193h-53l41 193
h-26l11 52h26l16 78zM2570 685.001h52l-20 -98h2c18 15.333 37.333 23 58 23h3c38 0 60 -23.667 66 -71l-5 -38l-30 -144h-52l24 115c11.333 54 4 81 -22 81h-10c-28 0 -48 -29 -60 -87l-23 -109h-52zM2809 685.001h52l-11 -54h-52zM3173 685.001h44l5 -5l-16 -78h29
l-11 -52h-29l-41 -193h-54l41 193h-27l11 52h27l16 78zM3379 685.001h52l-69 -328h-52zM4102 685.001h52l-69 -328h-52zM4461 685.001h51l-11 -54h-51zM1684 610.001h5c55.333 0 85 -34 89 -102l-2 -23l-2 -11c-12 -55.333 -49 -95.333 -111 -120l-36 -5
c-50.667 0 -80.667 32.333 -90 97l2 32c14 64.667 54.333 108 121 130zM1940 610.001h4c35.333 0 57.333 -20 66 -60c0.666992 -16.667 -3 -43.667 -11 -81l-23 -112h-54l31 146c2 33.333 -7 50 -27 50h-10c-25.333 0 -43.333 -19 -54 -57l-29 -139h-54l52 245h49l-5 -21
c21.333 19.333 43 29 65 29zM2175 610.001h4.00098c30 0 48.333 -13 55 -39h3l7 31h49l-44 -206c-14.667 -68 -54 -113 -118 -135l-28 -3h-5c-48.667 0 -78.334 27 -89.001 81h52l33 -20l14 -3h14c33.333 0 58.666 24 76 72c-27.333 -26 -54.333 -39 -81 -39
c-41.333 0 -68.666 25.333 -82 76c-4 15.333 -3.66699 35.333 1 60c12 56.667 49.333 97.667 112 123zM2995 610.001l1.99902 -0.000976562c54.667 0 84.334 -34.667 89.001 -104l-3 -25l-8 -27h-172c4 -30 16 -45 36 -45l13 -3c19.333 0 37.333 7.33301 54 22h57l-1 -3
c-34 -50.667 -75.333 -76 -124 -76c-51.333 0 -81.333 32.333 -90 97l5 28l1 8c7.33301 32.667 24.333 62.334 51 89.001c28 26 58 39 90 39zM3558 610h5c27.333 0 48 -13 62 -39h2l7 31h47l-52 -245h-47l6 31h-2c-28.667 -26 -57 -39 -85 -39
c-47.333 0 -74.666 29.667 -82 89l3 36l3 14c12 57.333 48.333 97.333 109 120zM3840 610l7 -0.000976562c58.667 0 85.334 -42.667 80 -128l-2 -1l-3 -15c-9.33301 -43.333 -39 -78.666 -89 -105.999c-15.333 -7.33301 -31.333 -11 -48 -11
c-22.667 0 -41.667 10.667 -57 32l-21 -99l-6 -5h-49l69 325h49l-6 -28c25.333 24 50.666 36 76 36zM4280 609.999c29.334 0 51.667 -13 67 -39l7 31h49l-52 -245h-49l6 31c-28.666 -26 -57 -39 -85 -39c-61.334 0 -88 44 -80 132c12 56 45 96.333 99 121
c10.666 5.33301 23.333 8 38 8zM1050 601.999h50l-29 -136c-6.66699 -40 3 -60 29 -60h5c29.333 0 50.333 29 63 87l23 109h52l-52 -245h-47l5 24h-5c-3.33301 -15.333 -24.333 -26 -63 -32h-3c-36.667 0 -59.334 22.667 -68.001 68
c2.66699 23.333 8.33398 56.333 17.001 99l18 81zM1287 601.999h51l-52 -245h-51zM2792 601.999h52l-52 -245h-52zM4444 601.999h51l-52 -245h-51zM1596 487.999l-3.99805 -15.999c-0.666992 -44 14.333 -66 45 -66h4c39.333 0 66.666 25.333 81.999 76
c1.33301 47.333 -13.334 71 -44.001 71h-11c-41.333 -10.667 -65.333 -32.334 -72 -65.001zM2087 472c0.666992 -44 15.667 -66 45 -66h11c32 0 57 25 75 75v1c1.33301 47.333 -13.334 71 -44 71h-14c-26 0 -48.667 -19 -68 -57zM2912 506h122l1 2
c-4.66699 30 -21.334 45 -50 45h-7c-23.333 0 -45.333 -15.667 -66 -47zM3474 474c-1.33301 -45.333 14 -68 46 -68h5c34.667 0 60.667 21 78 63l3 12c3.33301 48 -10.667 72 -42 72h-16c-39.333 -9.33301 -62.333 -30.333 -69 -63zM3743 478
c-2 -48 13.333 -72.001 46 -72.001h3c33.333 0 59.333 20 78 60l5 22c6 28.667 -6 50.334 -36 65.001h-22c-31.333 0 -55.666 -24 -73 -72zM4195 471.999c-2.66602 -44 14.667 -66 52 -66c28.666 0 52.333 16 71 48l5 15l4 16c7.33398 36 -5.33301 58.667 -38 68h-18
c-28 0 -51.666 -20 -71 -60zM3484 320.999h51l-11 -52h-51zM4205 320.999h51l-11 -52h-51zM2761 132.999h4c23.333 0 34 -16.667 32 -50v-2c-2 -10.667 -13 -24.334 -33 -41.001l-13 -17h-28c3.33301 16.667 16.666 35.334 40 56.001l3 2v2c0.666992 12.667 -1 19 -5 19h-10
c-5.33301 0 -9.66602 -6.33301 -13 -19h-30c11.333 33.333 29 50 53 50zM1570 115.999l40 -60l-30 -19l-41 52zM369.004 78.999h4c42.667 -32 66.667 -52 72 -60l-28 -37c-52 32.667 -77.333 52 -76 58zM3507 78.999l73 -58l-26 -39c-6.66699 0 -33 18.333 -79 55
c14.667 24 25.334 38 32 42zM4594 75.999l10 -42l-102 -52l-12 39l105 58zM1215 52.999h51l-4 -19l4 -5h14l-8 -36h-14l-6 -5l-59 -279h-46l7 31c-28.667 -26.667 -58.667 -40 -90 -40c-48 0 -74.667 35 -80 105l3 26c14.667 68 57.667 111.667 129 131h14
c22 0 41.667 -11 59 -33l12 59l-5 5h-43l8 36h49zM1489 44.999h40l43 -61h-53l-17 27l-29 -27h-53zM2650 44.999h33c8 0 24.667 -20.333 50 -61h-54l-17 27c-15.333 -14 -23.666 -23 -25 -27h-58l1 4zM57.0039 36.999h160l-13 -60h-56l-57 -268h-50l-3 5l52 245l3 3v2l-1 2
l2 3l-1 2l2 3l-1 3h-54l11 54zM707.004 36.999h47.001l-16 -73l2 -2l-3 -3l-1 -3l2 -2l-3 -3v-3l1 -2v-2l-3 -3l2 -3h3c14.667 16 33.334 24 56.001 24h3c35.333 0 56.666 -19.333 63.999 -58c2.66699 -11.333 2 -25.333 -2 -42l-32 -153h-52l27 127
c9.33301 45.333 0.666016 68 -26.001 68h-8c-28.667 0 -49 -28.667 -61 -86l-23 -109h-52l68 322zM1305 36.999h47l3 -6l-10 -49h-52zM1995 36.999h52l-42 -198l94 115h62l-103 -118l63 -125v-2h-70c-3.33301 14.667 -20 53 -50 115l-24 -115h-52zM2279 36.999
l-21.001 -98.999c19.333 16 38.666 24 58 24c38 0 60.667 -18.667 68 -56c4 -12.667 1.66699 -38.334 -7 -77.001l-25 -120h-54l28 133c8.66699 41.333 -0.666016 62 -27.999 62h-11c-20.667 0 -36.667 -18.333 -48 -55l-30 -140h-53l67 314l-1 3l1 3l1 2v3l2 3h53zM2466 37
h51l-12 -55h-51zM3156 37h51l-23 -108c22.667 22 47.667 33 75 33h3c50 0 78.333 -31.333 85 -94l-3 -37c-10.667 -50 -40.667 -90 -90 -120c-21.333 -7.33301 -38.333 -11 -51 -11c-27.333 0 -48.333 13.333 -63 40l-7 -31h-47zM4283 37h52l-21 -99h2
c18.666 16 38.333 24 59 24h3c40 0 62 -24.667 66 -74l-7 -41l-29 -138h-52l24 111c11.334 54.667 6.33398 82 -15 82l-10 2h-12c-24.666 0 -42.666 -26.667 -54 -80l-24 -115h-52zM321.004 -38h3l-13 -58h-5c-28 0 -46 -19 -54 -57l-29 -138h-53l52 245h47l-4 -21
c16 19.333 34.667 29 56 29zM556.004 -38c47.333 0 69.666 -29 66.999 -87l-35 -166h-51l29 136c4 39.333 -5.66699 59 -29 59h-6c-30 0 -50.667 -28 -62 -84l-24 -111h-52l52 245h50l-4 -21c20.667 19.333 42.334 29 65.001 29zM1496 -38c48 0 76.333 -31.333 85 -94
l-4 -39c-4.66699 -16 -8.66699 -24 -12 -24h-169c4.66699 -31.333 22 -47 52 -47c16 0 33.667 7 53 21h57c-33.333 -52.667 -75 -79 -125 -79c-54.667 0 -85 35 -91 105l8 37c11.333 54 49.333 93 114 117zM2649 -38h5c51.333 0 80 -32.333 86 -97l-2 -26l-5 -21l-6 -13
h-170c5.33301 -31.333 19.666 -47 43 -47h12c14 0 29.667 7 47 21h59c-34 -52.667 -74.667 -79 -122 -79c-56 0 -87 34 -93 102l4 29c13.333 62 52.666 104.667 118 128zM2907 -38h4c36 0 57.667 -20 65 -60c1.33301 -16.667 -2 -44 -10 -82l-24 -111h-54l29 138
c6.66699 32 -1 51 -23 57h-11c-25.333 0 -43.666 -19 -55 -57l-29 -138h-54l52 245h50l-4 -21c20.667 19.333 42 29 64 29zM3500 -38h6c26.667 0 47 -13.333 61 -40h2l7 32h47l-52 -245h-47l7 31h-2c-28.667 -26.667 -57.667 -40 -87 -40c-47.333 0 -74.666 30 -82 90l4 37
l3 12c11.333 54.667 45 93.667 101 117c8.66699 4 19.334 6 32 6zM3773 -38h4c41.333 0 63 -26 65 -78l-15 -84l-19 -91h-54l29 138c6.66699 32 -2 51 -26 57h-9c-25.333 0 -43 -17.333 -53 -52l-30 -143h-54l52 245h49l-4 -21c21.333 19.333 43 29 65 29zM4125 -38h1
c49.334 0 77.334 -31 84 -93l-5 -40c-12 -58.667 -48.666 -100.667 -110 -126l-26 -3c-27.333 0 -47.666 11.333 -61 34l-22 -106h-52l69 326h47l-6 -29c25.333 24.667 52.333 37 81 37zM4706 -38h5c22.666 0 41 -12.333 55 -37c23.334 24.667 49 37 77 37h6
c37.334 0 59 -22 65 -66l-5 -51l-29 -136h-52l26 122c10 48.667 2 73 -24 73h-7c-23.334 0 -40.334 -16.667 -51 -50l-30 -140l-6 -5h-48l30 140c6 28 -0.666016 46.333 -20 55h-17c-26.666 0 -45.333 -25.667 -56 -77l-25 -118h-51l52 245h47l-4 -21
c18.666 19.333 39.333 29 62 29zM349.004 -46h49l4 -6l-50 -234l-6 -5h-49zM1287 -46h52l-52 -245h-52zM1639 -46h52l-29 -136c-6 -40 4 -60 30 -60h4c29.333 0 50 27 62 81l24 115h52l-52 -245h-47l5 24h-5c-12.667 -22 -34.667 -33 -66 -33c-34.667 0 -56.667 21 -66 63
c-1.33301 8 -0.333008 19.333 3 34zM2448 -46h51l-52 -245h-51zM4505 -46h51l-52 -245h-51zM1041 -169c-7.33301 -35.333 4.33203 -59.666 34.999 -72.999h12c36 0 62.667 22 80 66l3 10c7.33301 35.333 -6 58.666 -40 69.999h-17c-25.333 0 -48.666 -19 -69.999 -57z
M1407 -143h122c-5.33301 31.333 -19.666 47 -42.999 47h-7c-28.667 0 -52.334 -14.667 -71.001 -44zM2568 -143h122c-7.33301 31.333 -22 47 -44 47h-7c-30.667 0 -54.334 -15.667 -71 -47zM3162 -158l-2 -11c-4 -48.667 11 -73 45 -73h5c44 5.33301 70.333 29 79 71l2 5
c6 30 -2.33301 51.667 -25 65l-17 5h-14c-42 -9.33301 -66.333 -30 -73 -62zM3415 -173c-0.666992 -46 15 -69 47 -69h11c27.333 0 51.333 20 72 60l3 13c4.66699 48.667 -9 73 -41 73h-17c-31.333 0 -56 -24.333 -74 -73zM4028 -158l-4 -22
c-6.66699 -31.333 8.33301 -52 45 -62h9c33.334 0 59.334 25.333 78 76c0.666016 46.667 -14 70 -44 70h-15c-39.333 -11.333 -62.333 -32 -69 -62z" />
    <glyph glyph-name="space" unicode=" " horiz-adv-x="632" 
 />
    <glyph glyph-name="exclam" unicode="!" horiz-adv-x="681" 
d="M271 500l216 1016h350l-216 -1016h-350zM165 0l74 348h350l-74 -348h-350z" />
    <glyph glyph-name="quotedbl" unicode="&#x22;" horiz-adv-x="948" 
d="M1001 907h-219l62 609h356zM549 907h-219l61 609h356z" />
    <glyph glyph-name="numbersign" unicode="#" horiz-adv-x="1265" 
d="M1348 825h-229l-53 -149h227l-78 -227h-230l-125 -357h-231l125 357h-160l-125 -357h-233l125 357h-203l79 227h205l52 149h-205l79 228h205l114 323h233l-114 -323h160l114 323h233l-114 -323h228zM727 825l-52 -149h160l52 149h-160z" />
    <glyph glyph-name="dollar" unicode="$" horiz-adv-x="860" 
d="M1056 215c-73.333 -72 -161.667 -124.003 -265 -156.003l-45 -215h-276l44 207c-106 24 -179.667 70.333 -221 139c-44 74.667 -55 164.334 -33 269.001h350c-14.667 -97.333 15.333 -146 90 -146c78 0 125.667 40.333 143 121c11.333 54.667 -9 99.667 -61 135
c-19.333 13.333 -47 28 -83 44l-97 43c-38 18 -69.333 35.667 -94 53c-32 22.667 -57.667 47.334 -77 74.001c-46 66 -57.667 151.667 -35 257c46 216 184.667 354 416 414l44 207h276l-44 -207c183.333 -44.667 251.333 -171 204 -379l-2 -10h-317
c13.333 86 -15 129 -85 129c-74 0 -119.333 -38.333 -136 -115c-11.333 -54 13.334 -100.333 74.001 -139c20.667 -13.333 48 -27 82 -41l76 -31c84 -35.333 145.333 -85 184 -149c42.667 -69.333 54 -150.666 34 -243.999c-20.667 -98 -69.334 -184.667 -146.001 -260z" />
    <glyph glyph-name="percent" unicode="%" horiz-adv-x="1757" 
d="M1590 79c-87.333 -73.333 -181.667 -110 -283 -110c-102.667 0 -182.334 36.333 -239.001 109c-57.333 72 -75 159.333 -53 262s77 190 165 262c87.333 72.667 182.333 109 285 109c102 0 181 -36.667 237 -110c56.667 -72 74.334 -159 53.001 -261
c-21.333 -101.333 -76.333 -188.333 -165 -261zM676.999 0h-235l948 1516h238zM895.999 915c-87.333 -72 -181.667 -108 -283 -108s-180.666 36 -237.999 108c-56.667 72 -74 159 -52 261c21.333 101.333 75.666 188.333 162.999 261s182 109 284 109s181.333 -36 238 -108
c56 -72.667 73.333 -160 52 -262c-22 -102 -76.667 -189 -164 -261zM1416 483c-95.333 0 -152.999 -47.667 -172.999 -143c-20.667 -95.333 16.666 -143 111.999 -143c94 0 151.333 47.667 172 143c20 95.333 -17 143 -111 143zM721.999 1319
c-94.667 0 -152 -47.667 -172 -143c-20.667 -94.667 16.333 -142 111 -142c94 0 151.333 48 172 144c20 94 -17 141 -111 141z" />
    <glyph glyph-name="ampersand" unicode="&#x26;" 
d="M1505 610c-49.333 -77.333 -101.669 -144.001 -157.002 -200.001l161 -213l-279 -228l-140 185c-82.667 -60.667 -161.667 -106 -237 -136c-83.333 -32.667 -168 -49 -254 -49c-133.333 0 -241 39.333 -323 118c-87.333 84.667 -117 192.334 -89 323.001
c19.333 91.333 64.333 172.666 135 243.999c30 30.667 66.333 61 109 91c34 24.667 75.667 51.334 125 80.001c-75.333 98 -100 207.333 -74 328c24 113.333 86 207.333 186 282c96.667 72.667 202.334 109 317.001 109c110 0 195.667 -34.333 257 -103
c63.333 -71.333 83.333 -161.333 60 -270c-15.333 -74 -48.666 -141 -99.999 -201c-44 -50.667 -105 -99.667 -183 -147l141 -180l163 248h359zM927.997 1270c-61.333 0 -99 -33.667 -113 -101c-6 -29.333 -3.33301 -59 8 -89c8 -22 22.333 -46.667 43 -74l43 36
c14.667 13.333 27.334 26 38.001 38c26 30.667 42.333 62 49 94c13.333 64 -9.33398 96 -68.001 96zM720.997 620.999c-43.333 -29.333 -75 -54.333 -95 -75c-32 -32 -51.667 -66 -59 -102c-21.333 -99.333 26 -149 142 -149c76 0 143.333 27.333 202 82z" />
    <glyph glyph-name="quotesingle" unicode="'" horiz-adv-x="643" 
d="M730 1085c-15.333 -69.333 -44.667 -126.666 -88 -171.999c-48.667 -50 -106.667 -75 -174 -75h-147l39 182l50 -1c22 0.666992 40.333 2.66699 55 6c40.667 9.33301 65 33.666 73 72.999l15 69h-162l74 349h356z" />
    <glyph glyph-name="parenleft" unicode="(" horiz-adv-x="968" 
d="M766 -541c-210.667 86.667 -363.331 221.001 -457.998 403.001c-96.667 187.333 -119.667 400.666 -69 639.999c51.333 240 165.333 453.333 342 640c171.333 182 380.666 316 627.999 402l-76 -356c-127.333 -63.333 -239.333 -162 -336 -296
c-90.667 -126 -150.667 -257.333 -180 -394c-28.667 -136 -24.334 -266.667 12.999 -392c40 -132.667 110.333 -230 211 -292z" />
    <glyph glyph-name="parenright" unicode=")" horiz-adv-x="968" 
d="M601 -140c-172 -182 -381.333 -315.667 -628 -401l75 355c126.667 62.667 238.667 161.334 336 296.001c90.667 125.333 150.667 256.666 180 393.999c28.667 136 24.334 266.333 -12.999 391c-40 133.333 -110 231 -210 293l75 356c210 -86 362.333 -220.333 457 -403
c97.333 -187.333 120.333 -401 69 -641c-50.667 -240 -164.334 -453.333 -341.001 -640z" />
    <glyph glyph-name="asterisk" unicode="*" horiz-adv-x="1372" 
d="M1085 1020l122 -225l-221 -144l-118 236l-211 -236l-161 144l224 225l-250 84l121 223l242 -98l55 287h243l-75 -287l284 98l31 -223z" />
    <glyph glyph-name="plus" unicode="+" horiz-adv-x="1228" 
d="M853 354l-75 -354h-328l75 354h-352l70 328h352l75 354h328l-75 -354h352l-70 -328h-352z" />
    <glyph glyph-name="comma" unicode="," horiz-adv-x="643" 
d="M482 -82c-14.667 -68 -44.333 -125 -89 -171c-49.333 -51.333 -107 -77 -173 -77h-145l39 183l51 -1c21.333 0 39 2 53 6c40 9.33301 64 33.333 72 72l15 70h-160l74 348h354z" />
    <glyph glyph-name="hyphen" unicode="-" horiz-adv-x="575" 
d="M90 424l71 334h575l-71 -334h-575z" />
    <glyph glyph-name="hyphen" unicode="&#x2010;" horiz-adv-x="575" 
d="M90 424l71 334h575l-71 -334h-575z" />
    <glyph glyph-name="period" unicode="." horiz-adv-x="643" 
d="M145 0l74 348h354l-74 -348h-354z" />
    <glyph glyph-name="slash" unicode="/" horiz-adv-x="1214" 
d="M482 -205h-379l909 1721h377z" />
    <glyph glyph-name="zero" unicode="0" horiz-adv-x="1265" 
d="M1313 547c-25.333 -118 -71.999 -221.001 -139.999 -309.001c-72.667 -93.333 -165.667 -163.666 -279 -210.999c-85.333 -37.333 -172.666 -56 -261.999 -56c-78.667 0 -152.334 15.667 -221.001 47c-206.667 95.333 -282.667 271.666 -228 528.999l90 422
c55.333 262 206.666 438.667 453.999 530c84 30 163.667 45 239 45c78 0 152 -16.333 222 -49c197.333 -95.333 269 -270.666 215 -525.999zM1018 978.999c14 67.333 12.999 119.666 -3.00098 156.999c-20 45.333 -62.333 68 -127 68c-61.333 0 -112.666 -23 -153.999 -69
c-34.667 -39.333 -58.667 -91.333 -72 -156l-94 -442c-14 -65.333 -12 -117.666 6 -156.999c20.667 -46 62 -69 124 -69c64.667 0 116.667 22.667 156 68c32 38 55.333 90.667 70 158z" />
    <glyph glyph-name="one" unicode="1" horiz-adv-x="1265" 
d="M460 0l253 1190h-248l69 326h635l-322 -1516h-387z" />
    <glyph glyph-name="two" unicode="2" horiz-adv-x="1265" 
d="M104 0l63.999 301.001l143 83c50 30 95.667 58.667 137 86c98 64.667 185 131.334 261 200.001c31.333 27.333 60.666 54.666 87.999 81.999c32.667 33.333 62 65.666 88 96.999c64 78 102.667 147.333 116 208c20.667 98 -16.666 147 -111.999 147
c-62.667 0 -113.667 -25.667 -153 -77c-30 -38 -54 -92 -72 -162h-369c17.333 73.333 37 133.666 59 180.999c26 60 61 115.667 105 167c65.333 76 145.333 134.333 240 175c88 37.333 180 56 276 56c104 0 192.667 -21.333 266 -64c80 -46.667 131.667 -114 155 -202
c13.333 -58.667 14 -116.667 2 -174c-16.667 -78 -49 -155.333 -97 -232c-41.333 -68 -95.666 -136.667 -162.999 -206c-56 -57.333 -123 -117.666 -201 -180.999l-105 -82c-27.333 -21.333 -62 -47 -104 -77h514l-69 -326h-1069z" />
    <glyph glyph-name="three" unicode="3" horiz-adv-x="1265" 
d="M1026 99c-128.667 -85.333 -264.667 -127.997 -408 -127.997c-92.667 0 -176.667 17.333 -252 52c-86 38 -144.667 91.667 -176 161c-17.333 39.333 -27.666 82.333 -30.999 129c-2.66699 38 -1 84.667 5 140h391c0.666992 -94.667 49 -142 145 -142
c109.333 0 176.333 56.667 201 170c16 77.333 -15.667 125.666 -95 144.999c-27.333 6.66699 -63.333 10 -108 10l-105 -1l61 285h43c16.667 0 31.334 0.333008 44.001 1c34 2.66699 63 8 87 16c61.333 21.333 99.333 66 114 134c18.667 88.667 -7.33301 133 -78 133
c-77.333 0 -126.333 -43.667 -147 -131h-381c33.333 146 109.666 262.333 228.999 349c112.667 81.333 242.667 122 390 122c127.333 0 228.666 -36.333 303.999 -109c81.333 -78.667 109 -180.334 83 -305.001c-30 -139.333 -119.333 -245 -268 -317
c176 -64.667 244.667 -187 206 -367c-29.333 -138.667 -114 -254.334 -254 -347.001z" />
    <glyph glyph-name="four" unicode="4" horiz-adv-x="1265" 
d="M1125 266l-57 -266h-370l57 266h-668l60 283l884 967h360l-202 -947h168l-64 -303h-168zM944 1044h-4l-400 -475h303z" />
    <glyph glyph-name="five" unicode="5" horiz-adv-x="1265" 
d="M1233 307c-145.333 -225.333 -347.996 -337.998 -607.996 -337.998c-144 0 -260.333 37.333 -349 112c-94 79.333 -139.333 187.666 -136 324.999h389c32 -63.333 84.667 -95 158 -95c56 0 108 19.667 156 59c49.333 39.333 79.666 86.666 90.999 141.999
c28.667 132.667 -26 199 -164 199c-94.667 0 -170 -43.667 -226 -131l-298 77l314 859h838l-70 -326h-541l-76 -207c61.333 30 132.666 45 213.999 45c225.333 0 358.666 -101.667 399.999 -305c13.333 -65.333 12.666 -133 -2.00098 -203
c-15.333 -73.333 -45.333 -144.333 -90 -213z" />
    <glyph glyph-name="six" unicode="6" horiz-adv-x="1265" 
d="M1088 135c-135.333 -109.333 -286.334 -163.998 -453.001 -163.998c-173.333 0 -304.666 54 -393.999 162c-90 109.333 -116.667 250.666 -80 423.999c15.333 70 43.666 141 84.999 213c36.667 64 83.667 128.333 141 193l494 553h449l-431 -457l3 -4
c10.667 3.33301 23.334 5.66602 38.001 6.99902l38 1c140 0 244.333 -51 313 -153c66.667 -98.667 85 -219 55 -361c-35.333 -166 -121.333 -304 -258 -414zM920.999 665.002c-32 38.667 -78.0029 58.001 -138.003 58.001c-58 0 -111 -19 -159 -57
c-47.333 -38.667 -77 -86.667 -89 -144c-12.667 -58.667 -4 -108.334 26 -149.001c30.667 -41.333 75.334 -62 134.001 -62s112.667 19.333 162 58c50.667 39.333 82.334 88.333 95.001 147c12.667 60 2.33398 109.667 -30.999 149z" />
    <glyph glyph-name="seven" unicode="7" horiz-adv-x="1265" 
d="M588 0h-426l812 1190h-588l69 326h987l-63 -297z" />
    <glyph glyph-name="eight" unicode="8" horiz-adv-x="1265" 
d="M1033 100c-126 -86 -261 -129.002 -405 -129.002c-144.667 0 -262.334 43 -353.001 129c-96.667 92.667 -130 209.667 -100 351c40 187.333 146.333 315 319 383c-82.667 74.667 -111.667 169.334 -87 284.001c26.667 126.667 95 230.334 205 311.001
c104 76.667 220 115 348 115c126.667 0 226.334 -38 299.001 -114c76.667 -80 101.667 -182.667 75 -308c-24.667 -114.667 -94.667 -210.667 -210 -288c144.667 -67.333 197 -195 157 -383c-30 -141.333 -112.667 -258.333 -248 -351zM896 1231
c-94 0 -151 -46.333 -171 -139c-19.333 -93.333 16.667 -140 108 -140c94 0 151 48 171 144c19.333 90 -16.667 135 -108 135zM772 656.998c-110.667 0 -178.333 -57.333 -203 -172c-24.667 -116 20.333 -174 135 -174c44.667 0 87 17.667 127 53
c36.667 34 60 73.667 70 119c24.667 116 -18.333 174 -129 174z" />
    <glyph glyph-name="nine" unicode="9" horiz-adv-x="1265" 
d="M1352 754c-36.667 -63.333 -85.667 -129.668 -147 -199.001l-495 -555h-449l432 459l-4 4c-10.667 -4 -23.334 -6.33301 -38.001 -7c-5.33301 -0.666992 -11.666 -1 -18.999 -1h-18c-68 0 -131.667 16.333 -191 49c-164.667 90.667 -223.667 245.667 -177 465
c35.333 166.667 121 304.334 257 413.001c134.667 108 285.667 162 453 162c201.333 0 346.333 -66 435 -198c64 -96 80 -219.667 48 -371c-16 -75.333 -45 -149 -87 -221zM1028 1144c-31.333 40 -76.667 60 -136 60c-58 0 -111 -19 -159 -57c-50 -39.333 -81 -88 -93 -146
c-12.667 -58.667 -3.33398 -107.667 27.999 -147c32 -39.333 77.667 -59 137 -59c58.667 0 111.667 18.333 159 55c49.333 38.667 80 87 92 145c12.667 59.333 3.33398 109 -27.999 149z" />
    <glyph glyph-name="colon" unicode=":" horiz-adv-x="643" 
d="M312 788l75 349h354l-75 -349h-354zM145 0l74 348h354l-74 -348h-354z" />
    <glyph glyph-name="semicolon" unicode=";" horiz-adv-x="643" 
d="M313 788l74 349h354l-74 -349h-354zM482 -82c-14.667 -68 -44.333 -125 -89 -171c-49.333 -51.333 -107 -77 -173 -77h-145l39 183l51 -1c21.333 0 39 2 53 6c40 9.33301 64 33.333 72 72l15 70h-160l74 348h354z" />
    <glyph glyph-name="less" unicode="&#x3c;" horiz-adv-x="1228" 
d="M171 360l67 316l1133 438l-76 -358l-746 -236l-1 -4l646 -235l-76 -359z" />
    <glyph glyph-name="equal" unicode="=" horiz-adv-x="1228" 
d="M231 625l69 327h1032l-69 -327h-1032zM116 84l70 328h1032l-70 -328h-1032z" />
    <glyph glyph-name="greater" unicode="&#x3e;" horiz-adv-x="1228" 
d="M77 -78l76 359l746 235l1 4l-646 236l76 358l947 -438l-67 -316z" />
    <glyph glyph-name="question" unicode="?" horiz-adv-x="1212" 
d="M1262 901c-22 -26.667 -48.002 -53.665 -78.002 -80.998c-22.667 -20.667 -51 -44 -85 -70l-83 -65c-31.333 -24.667 -56.666 -46 -75.999 -64c-52 -48 -85 -94.667 -99 -140h-356c14.667 63.333 46.334 124.666 95.001 183.999c20.667 24 45 49 73 75
c20.667 18.667 47 41 79 67l78 64c28 23.333 50.667 44 68 62c46.667 46.667 74.667 91.334 84 134.001c18 84.667 -12.667 127 -92 127c-56 0 -99.333 -20.333 -130 -61c-20.667 -28 -38.334 -73.333 -53.001 -136h-375c0.666992 6 1.33398 12.333 2.00098 19l4 18
c32 150.667 110.667 274 236 370c121.333 93.333 258.333 140 411 140c208 0 338 -82 390 -246c20 -60.667 23 -123.334 9 -188.001c-16 -74.667 -50 -144.334 -102 -209.001zM382.998 0.00195312l74 348h356l-74 -348h-356z" />
    <glyph glyph-name="at" unicode="@" horiz-adv-x="1531" 
d="M1624 655c-48.667 -88 -109.667 -162.333 -183 -223c-84 -70.667 -168 -106 -252 -106c-99.333 0 -155.666 49 -168.999 147c-80 -98 -171.667 -147 -275 -147c-94 0 -163 37.667 -207 113c-41.333 69.333 -51.666 152.333 -30.999 249c24.667 116 83.667 220 177 312
c100 98 206.333 147 319 147c105.333 0 164.666 -40.333 177.999 -121h4l36 96h213l-191 -498c-7.33301 -20.667 -12.666 -38.334 -15.999 -53.001c-7.33301 -35.333 7.33398 -53 44.001 -53c35.333 0 74.333 26.667 117 80c15.333 20 30.666 42.667 45.999 68
c12.667 20.667 22.667 39.667 30 57c22.667 49.333 39.334 99.666 50.001 150.999c31.333 146 5.33301 264.667 -78 356c-80.667 88 -194.667 132 -342 132c-169.333 0 -325.333 -61 -468 -183c-140.667 -120 -229.334 -265.333 -266.001 -436
c-16 -76.667 -18 -151.667 -6 -225c18 -122.667 70 -215 156 -277c81.333 -58 189.666 -87 324.999 -87c152.667 0 302 25 448 75l3 -188c-76.667 -25.333 -158.667 -44.333 -246 -57c-78.667 -11.333 -160 -17 -244 -17c-175.333 0 -319 40 -431 120
c-118 82.667 -191 203.334 -219 362.001c-17.333 97.333 -15 197 7 299c47.333 224.667 164.666 414.334 351.999 569.001c188.667 154 395.667 231 621 231c201.333 0 358 -61 470 -183c116.667 -127.333 154 -290 112 -488c-16 -76 -44 -150 -84 -222zM989 954
c-60.667 0 -117.333 -28.668 -170 -86.001c-47.333 -51.333 -78 -108.666 -92 -171.999c-24.667 -118.667 14 -178 116 -178c62.667 0 117.667 31 165 93c40 50.667 67 109.667 81 177c23.333 110.667 -10 166 -100 166z" />
    <glyph glyph-name="A" unicode="A" 
d="M1114 0l-27 219h-526l-127 -219h-416l930 1516h305l281 -1516h-420zM1004 1044h-6l-266 -518h318z" />
    <glyph glyph-name="B" unicode="B" horiz-adv-x="1325" 
d="M1142 131c-82.667 -60 -168.67 -98.3311 -258.003 -114.998c-36.667 -7.33301 -79 -12 -127 -14c-19.333 -0.666992 -41.666 -1.33398 -66.999 -2.00098h-553l322 1516h467c58.667 0 103.334 -1 134.001 -3c48 -2.66699 89.333 -8.33398 124 -17.001
c86 -20.667 151.333 -63.334 196 -128.001c46 -66 58.333 -149.333 37 -250c-29.333 -137.333 -109.666 -239 -240.999 -305c154.667 -57.333 213 -174.666 175 -351.999c-30 -141.333 -99.667 -251.333 -209 -330zM1008 1154c-20.667 14.667 -54.333 22 -101 22h-149
l-50 -236h147c102.667 0 162.667 40.333 180 121c9.33301 44 0.333008 75 -27 93zM951.998 592.002c-26 16 -65.668 24 -119.001 24h-194l-59 -276h192c54.667 0 99.334 10 134.001 30c42 24.667 68.333 63 79 115c10.667 50 -0.333008 85.667 -33 107z" />
    <glyph glyph-name="C" unicode="C" horiz-adv-x="1703" 
d="M1761 567c-82 -178 -205.67 -322 -371.003 -432c-164 -109.333 -338 -164 -522 -164c-221.333 0 -393.666 76 -516.999 228c-123.333 152.667 -161.333 339.667 -114 561c46.667 220.667 163.334 407 350.001 559c186 150 389.667 225 611 225
c288 0 485.333 -118.667 592 -356c36.667 -82 53.334 -164.667 50.001 -248h-406c-30 176 -133.333 264 -310 264c-119.333 0 -227 -44.333 -323 -133c-92.667 -85.333 -151.667 -188.333 -177 -309c-26 -122 -11.333 -226.333 44 -313c58.667 -92 148 -138 268 -138
c165.333 0 305 85.333 419 256h406z" />
    <glyph glyph-name="D" unicode="D" horiz-adv-x="1519" 
d="M646 0l-530.001 0.000976562l322 1516h502c74.667 0 139.334 -3.66699 194.001 -11c63.333 -8.66699 119.333 -22.667 168 -42c108.667 -42.667 191 -119.334 247 -230.001c66 -129.333 79.333 -286.333 40 -471c-108 -508 -422.333 -762 -943 -762zM1176 1056
c-46.667 80 -131.668 120 -255.001 120h-168l-178 -836h166c126.667 0 229.667 38.667 309 116c72.667 70.667 123 170.667 151 300c26.667 127.333 18.334 227.333 -24.999 300z" />
    <glyph glyph-name="E" unicode="E" horiz-adv-x="1081" 
d="M137 0l322 1516h842l-72 -340h-471l-50 -236h456l-72 -340h-456l-56 -260h471l-72 -340h-842z" />
    <glyph glyph-name="F" unicode="F" horiz-adv-x="1036" 
d="M758 1176l-55 -258h440l-72 -340h-440l-123 -578h-371l322 1516h827l-72 -340h-456z" />
    <glyph glyph-name="G" unicode="G" horiz-adv-x="1748" 
d="M1851 782c-49.333 -232.667 -167 -426.334 -353 -581.001c-187.333 -154.667 -397 -232 -629 -232c-224 0 -397.667 76.333 -521 229c-124 154 -162.333 342.667 -115 566c48 224 167.333 411 358 561c187.333 146 393.666 219 618.999 219c168 0 313.333 -49 436 -147
c126.667 -101.333 196 -231 208 -389h-434c-45.333 130.667 -142.666 196 -291.999 196c-121.333 0 -230.666 -43.333 -327.999 -130c-94 -84 -154 -187.333 -180 -310c-27.333 -128 -13 -234.667 43 -320c58.667 -90 150.667 -135 276 -135c87.333 0 167 19.667 239 59
c77.333 42.667 135.666 104.334 174.999 185.001h-452l66 309h899c-2 -12 -4 -25.333 -6 -40z" />
    <glyph glyph-name="H" unicode="H" horiz-adv-x="1544" 
d="M1020 0l129 606h-496l-129 -606h-387l322 1516h387l-121 -570h496l121 570h387l-322 -1516h-387z" />
    <glyph glyph-name="I" unicode="I" horiz-adv-x="661" 
d="M137 0l322 1516h387l-322 -1516h-387z" />
    <glyph glyph-name="J" unicode="J" horiz-adv-x="1183" 
d="M1172 600c-10.667 -49.333 -18.998 -86.666 -24.998 -111.999c-10.667 -42 -22.334 -79.667 -35.001 -113c-31.333 -84 -73.333 -152.333 -126 -205c-134.667 -132.667 -291.334 -199 -470.001 -199c-73.333 0 -139 12.333 -197 37c-95.333 37.333 -160 99.333 -194 186
c-30.667 80 -33.667 177.667 -9 293h412c-8 -50.667 -8.66699 -89.334 -2 -116.001c10 -40 36.667 -60 80 -60c49.333 0 87.333 21.667 114 65c17.333 27.333 32 70 44 128l215 1012h387z" />
    <glyph glyph-name="K" unicode="K" horiz-adv-x="1447" 
d="M983 0l-275 655h-4l-139 -655h-387l322 1516h387l-145 -682h4l573 682h406l-662 -756l372 -760h-452z" />
    <glyph glyph-name="L" unicode="L" horiz-adv-x="997" 
d="M147 0l322 1516h387l-250 -1176h449l-72 -340h-836z" />
    <glyph glyph-name="M" unicode="M" horiz-adv-x="1873" 
d="M1380 0l253 1135l-3 4l-565 -1139h-256l-82 1139l-5 -4l-229 -1135h-356l322 1516h498l89 -998h4l509 998h499l-322 -1516h-356z" />
    <glyph glyph-name="N" unicode="N" horiz-adv-x="1554" 
d="M1079 0l-381 922l-5 -2l-185 -920h-371l322 1516h334l384 -953l5 4l184 949h371l-322 -1516h-336z" />
    <glyph glyph-name="O" unicode="O" horiz-adv-x="1742" 
d="M1477 196c-187.333 -150 -392.667 -224.999 -616 -224.999c-217.333 0 -388 73.667 -512 221c-126.667 149.333 -167 331.666 -121 546.999c24 114.667 66.667 222.667 128 324c32 54 77 110.667 135 170c201.333 207.333 437 311 707 311
c222.667 0 395.334 -75.333 518.001 -226c123.333 -151.333 161.666 -338 114.999 -560c-47.333 -222.667 -165.333 -410 -354 -562zM1398 1068c-60.667 90.667 -151.002 136 -271.002 136c-121.333 0 -230.666 -44 -327.999 -132c-94 -84.667 -153.667 -188 -179 -310
c-26.667 -124.667 -11 -230 47 -316c60.667 -90 152.334 -135 275.001 -135c118 0 226 45.333 324 136c92.667 86 151.667 189 177 309c26 122 11 226 -45 312z" />
    <glyph glyph-name="P" unicode="P" horiz-adv-x="1302" 
d="M1405 788c-45.333 -76 -98 -136.665 -158 -181.998c-72 -52.667 -148.667 -88.667 -230 -108c-62.667 -15.333 -142.667 -23 -240 -23h-168l-101 -475h-371l322 1516h496c48 0 88.333 -1 121 -3c44.667 -2.66699 85 -7.33398 121 -14.001c88.667 -16 156 -47.333 202 -94
c97.333 -100.667 128 -234.334 92 -401.001c-15.333 -74 -44 -146 -86 -216zM1071 1146c-34.667 20 -91.334 30 -170.001 30h-143l-77 -361h157c74.667 0 133.334 11.333 176.001 34c55.333 28.667 90.333 78 105 148c15.333 71.333 -0.666992 121 -48 149z" />
    <glyph glyph-name="Q" unicode="Q" horiz-adv-x="1773" 
d="M1745 -27c-44 -2.66699 -76.3311 -4 -96.998 -4c-68 0 -129.667 8.66699 -185 26c-66.667 20.667 -115.334 51.667 -146.001 93c-144 -79.333 -294.333 -119 -451 -119c-219.333 0 -391 75 -515 225c-126.667 152 -166.667 337.333 -120 556c46.667 222 164 410 352 564
c186 153.333 390.333 230 613 230c219.333 0 392.666 -73.667 519.999 -221c129.333 -150.667 171 -335 125 -553c-36 -168 -108.667 -314 -218 -438c40.667 -46.667 103 -63.667 187 -51zM1402 1082c-62 81.333 -154 122.001 -276 122.001
c-110.667 0 -210.667 -37 -300 -111c-84 -68.667 -147.667 -159.334 -191 -272.001c46 18 83.667 30.333 113 37c37.333 9.33301 75 14 113 14c106 0 204.333 -32 295 -96c77.333 -55.333 144 -129.666 200 -222.999c47.333 59.333 80.333 133.666 99 222.999
c26 122.667 8.33301 224.667 -53 306zM1053 442.001c-24 31.333 -48.999 57 -74.999 77c-60 47.333 -132.667 71 -218 71c-42.667 0 -89.667 -8.33301 -141 -25c36 -170.667 141 -256 315 -256c69.333 0 130.666 13 183.999 39c-24 38 -45.667 69.333 -65 94z" />
    <glyph glyph-name="R" unicode="R" horiz-adv-x="1337" 
d="M862 0l-246.002 489.001h-4l-104 -489h-371l322 1516h479c50.667 0 91.334 -1 122.001 -3c44.667 -2 84.334 -6.33301 119.001 -13c87.333 -15.333 155 -46.333 203 -93c103.333 -100 136.333 -238 99 -414c-25.333 -120.667 -80.333 -224.334 -165 -311.001
c-88 -92 -192.333 -147.333 -313 -166l301 -516h-442zM1064 1129c-36.667 31.333 -91.666 47 -164.999 47h-141l-90 -422h137c169.333 0 269.333 72.333 300 217c15.333 70 1.66602 122.667 -41.001 158z" />
    <glyph glyph-name="S" unicode="S" horiz-adv-x="1173" 
d="M993 85c-110 -76 -243.669 -114.002 -401.002 -114.002c-160.667 0 -281.334 40 -362.001 120c-88 85.333 -115.333 206 -82 362l10 49h385c-12 -56 -9.66699 -103 7 -141c18.667 -44 54.334 -66 107.001 -66c98 0 157.333 48.333 178 145c9.33301 44 0 79.667 -28 107
c-11.333 10.667 -26.333 21.334 -45 32.001l-27 14l-149 71c-50 22.667 -92.333 45.667 -127 69c-40.667 27.333 -73.667 57 -99 89c-58 75.333 -75.333 167.333 -52 276c28.667 134 108 243.667 238 329c119.333 78 248.333 117 387 117c78 0 149.667 -14 215 -42
c70.667 -30.667 123.334 -74 158.001 -130c46 -77.333 58.333 -177 37 -299h-383c6 98.667 -30 148 -108 148c-88.667 0 -141.334 -39.667 -158.001 -119c-6 -28 -6 -49.333 0 -64c10 -26 49.667 -58 119 -96l144 -72c50.667 -25.333 92.334 -49.666 125.001 -72.999
c39.333 -28 70.333 -57.667 93 -89c52.667 -72 67.334 -162.667 44.001 -272c-32 -152 -107.333 -269 -226 -351z" />
    <glyph glyph-name="T" unicode="T" horiz-adv-x="1021" 
d="M956 1176l-250 -1176h-387l250 1176h-299l72 340h983l-72 -340h-297z" />
    <glyph glyph-name="U" unicode="U" horiz-adv-x="1429" 
d="M1423 600c-22 -103.333 -48.3359 -187.002 -79.0029 -251.002c-40.667 -82 -97.667 -153.333 -171 -214c-130 -109.333 -282.667 -164 -458 -164c-85.333 0 -161.666 12.333 -228.999 37c-75.333 28 -133 69.667 -173 125c-49.333 67.333 -76.666 139.333 -81.999 216
c-2 34.667 -0.333008 73.667 5 117c4.66699 34.667 12.667 79.334 24 134.001l195 916h387l-195 -916c-8 -40 -13.333 -74.333 -16 -103c-2 -36.667 0.666992 -67.667 8 -93c17.333 -62 65.333 -93 144 -93c81.333 0 142.333 30.333 183 91
c16.667 24.667 31.334 55.334 44.001 92.001c8 26.667 16.667 62 26 106l195 916h387z" />
    <glyph glyph-name="V" unicode="V" horiz-adv-x="1478" 
d="M937 0h-399l-184 1516h397l79 -1063h5l533 1063h399z" />
    <glyph glyph-name="W" unicode="W" horiz-adv-x="2009" 
d="M1572 0h-340l-19 981h-4l-436 -981h-350l-69 1516h393l-7 -986h4l433 986h297l9 -990h4l417 990h392z" />
    <glyph glyph-name="X" unicode="X" horiz-adv-x="1554" 
d="M1093 0l-214 537l-425 -537h-432l702 807l-319 709h439l168 -433l344 433h436l-615 -717l354 -799h-438z" />
    <glyph glyph-name="Y" unicode="Y" horiz-adv-x="1325" 
d="M975 551l-117 -551h-387l117 551l-248 965h420l96 -609l356 609h416z" />
    <glyph glyph-name="Z" unicode="Z" horiz-adv-x="1021" 
d="M32 0l54 254l718 922h-522l72 340h956l-67 -314l-666 -862h483l-72 -340h-956z" />
    <glyph glyph-name="bracketleft" unicode="[" horiz-adv-x="968" 
d="M705 -541c-147.333 8.66699 -265.671 49.667 -355.004 123c-72.667 60.667 -117 137.667 -133 231c-13.333 78 -7.66602 175 17.001 291l169 795c24.667 116.667 60.334 213.667 107.001 291c55.333 92 132.333 169 231 231c65.333 40.667 132.333 71 201 91
c60.667 17.333 129.334 28 206.001 32l-76 -356c-85.333 -4 -150.666 -31 -195.999 -81c-38 -42 -66.333 -106.667 -85 -194l-175 -823c-18.667 -87.333 -17.667 -152 3 -194c24 -50 78 -76.667 162 -80z" />
    <glyph glyph-name="backslash" unicode="\" horiz-adv-x="1214" 
d="M644 -205l-175 1721h377l177 -1721h-379z" />
    <glyph glyph-name="bracketright" unicode="]" horiz-adv-x="968" 
d="M777 104c-24.667 -116 -60.3291 -213 -106.996 -291c-55.333 -91.333 -132.333 -168.333 -231 -231c-65.333 -40.667 -132.333 -70.667 -201 -90c-60.667 -17.333 -129.334 -28.333 -206.001 -33l76 357c85.333 3.33301 150.666 30 195.999 80
c38 42 66.333 106.667 85 194l175 823c18.667 87.333 17.667 152 -3 194c-24 50 -77.667 77 -161 81l75 356c147.333 -8.66699 265.666 -49.667 354.999 -123c72.667 -60 117 -136.667 133 -230c13.333 -78 7.66602 -175.333 -17.001 -292z" />
    <glyph glyph-name="asciicircum" unicode="^" horiz-adv-x="1228" 
d="M935 768l-59 457h-4l-254 -457h-367l515 748h340l198 -748h-369z" />
    <glyph glyph-name="underscore" unicode="_" horiz-adv-x="1024" 
d="M-54 -256l22 102h1024l-22 -102h-1024z" />
    <glyph glyph-name="grave" unicode="`" horiz-adv-x="643" 
d="M321 838l91 429.999c14.667 68 44.334 125 89.001 171c49.333 51.333 107 77 173 77h147l-39 -183l-51 1c-20.667 -0.666992 -38.334 -2.66699 -53.001 -6c-39.333 -9.33301 -63 -33.666 -71 -72.999l-15 -69h159l-74 -348h-356z" />
    <glyph glyph-name="a" unicode="a" horiz-adv-x="1441" 
d="M976 0l26.001 123h-4c-40 -54.667 -96.333 -96.334 -169 -125.001c-62.667 -24.667 -128.334 -37 -197.001 -37c-171.333 0 -298 59 -380 177c-78 114.667 -98.667 258.334 -62 431.001c36 170 118.667 312.667 248 428c134 119.333 284.667 179 452 179
c68 0 128 -12.667 180 -38c58 -28 97.333 -68.667 118 -122h4l26 121h340l-242 -1137h-340zM1060 776c-42.667 54.667 -105.331 81.999 -187.998 81.999c-82 0 -155.667 -28.667 -221 -86c-63.333 -55.333 -104 -124.333 -122 -207c-16.667 -79.333 -4 -146.666 38 -201.999
c43.333 -56 104.666 -84 183.999 -84c82 0 156 27.667 222 83c65.333 55.333 106.666 124.333 123.999 207c18 83.333 5.66699 152.333 -37 207z" />
    <glyph glyph-name="b" unicode="b" horiz-adv-x="1419" 
d="M1227 140c-132 -119.333 -284.666 -178.999 -457.999 -178.999c-64.667 0 -123.334 12.667 -176.001 38c-60.667 29.333 -99 70 -115 122h-4l-26 -121h-326l322 1516h340l-99 -469c98.667 86 217.667 129 357 129c79.333 0 155 -18.667 227 -56
c96 -49.333 161 -123.333 195 -222c32 -92.667 35 -200.334 9 -323.001c-37.333 -175.333 -119.333 -320.333 -246 -435zM1095 772.001c-42 57.333 -102.336 86 -181.003 86c-80 0 -153 -27.667 -219 -83c-65.333 -55.333 -106.666 -123.333 -123.999 -204
c-17.333 -82 -6.66602 -151 32.001 -207c40 -56.667 100.667 -85 182 -85s155.333 28 222 84c66 56 107.667 124.667 125 206c16.667 79.333 4.33398 147 -36.999 203z" />
    <glyph glyph-name="c" unicode="c" horiz-adv-x="1335" 
d="M1363 432c-62.667 -138.667 -158.334 -251.668 -287.001 -339.001c-128.667 -86.667 -265 -130 -409 -130c-170 0 -301 59 -393 177c-93.333 117.333 -122 261 -86 431c36 168.667 124 311.334 264 428.001c141.333 118 296.333 177 465 177
c147.333 0 267.333 -43.667 360 -131c94.667 -88 141.334 -203.667 140.001 -347h-344c-26.667 106.667 -100 160 -220 160c-79.333 0 -149.333 -29 -210 -87c-58.667 -54.667 -96.334 -122 -113.001 -202c-17.333 -82 -7.66602 -150 29.001 -204
c39.333 -56 99.333 -84 180 -84c111.333 0 204 50.333 278 151h346z" />
    <glyph glyph-name="d" unicode="d" horiz-adv-x="1429" 
d="M982 0l27 123.001h-4c-45.333 -56.667 -103.333 -98.334 -174 -125.001c-59.333 -23.333 -126 -35 -200 -35c-170 0 -296 59.333 -378 178c-78 114.667 -98.667 258 -62 430c36 169.333 117 311.333 243 426c132 119.333 281.333 179 448 179
c134.667 0 236.667 -45.333 306 -136l101 476h340l-323 -1516h-324zM1069 777.001c-43.333 54 -106.001 81 -188.001 81c-82.667 0 -157 -26.667 -223 -80c-66.667 -54 -109 -122.333 -127 -205c-18 -84 -6.33301 -153.333 35 -208c41.333 -56 104 -84 188 -84
c84.667 0 160.334 27.667 227.001 83c65.333 55.333 107 125 125 209c17.333 82 5 150 -37 204z" />
    <glyph glyph-name="e" unicode="e" horiz-adv-x="1323" 
d="M1348 465l-851.999 -0.000976562c-9.33301 -143.333 64 -215 220 -215c81.333 0 158 35.333 230 106h348c-76 -118 -168.667 -212 -278 -282c-116.667 -74 -237 -111 -361 -111c-166 0 -295 59 -387 177c-93.333 117.333 -122.333 259 -87 425
c35.333 166.667 123.333 309.667 264 429c142.667 121.333 296.667 182 462 182c172 0 302.667 -60.667 392 -182c87.333 -119.333 112.666 -265.666 75.999 -438.999c-7.33301 -32.667 -16.333 -62.667 -27 -90zM1064 693.999c0 130 -72 195 -216 195s-244 -65 -300 -195
h516z" />
    <glyph glyph-name="f" unicode="f" horiz-adv-x="643" 
d="M662 879l-187 -879.001h-340l187 879h-127l55 258h127l12 59c27.333 128.667 89.666 221.334 186.999 278.001c80.667 46.667 187.667 70 321 70h49l-54 -256c-60.667 0 -101.667 -9.33301 -123 -28c-21.333 -18 -38.666 -59 -51.999 -123h143l-55 -258h-143z" />
    <glyph glyph-name="g" unicode="g" horiz-adv-x="1419" 
d="M1319 89l-10.999 -47.998c-9.33301 -36 -19 -68.333 -29 -97c-24.667 -70.667 -57 -131.334 -97 -182.001c-72 -88.667 -170.667 -157 -296 -205c-109.333 -42 -221.333 -63 -336 -63c-104 0 -193.667 16.667 -269 50c-84.667 38 -145.334 95.667 -182.001 173
c-26.667 56 -37.334 115 -32.001 177h394c17.333 -75.333 75.333 -113 174 -113c184.667 0 298.667 103 342 309l8 35h-4c-40 -52.667 -93 -93.334 -159 -122.001c-60.667 -26.667 -123.334 -40 -188.001 -40c-167.333 0 -292.666 58.333 -375.999 175
c-82 113.333 -105 254.333 -69 423c36 171.333 118.667 315.333 248 432c134.667 120.667 286.334 181 455.001 181c64.667 0 121 -11 169 -33c56 -25.333 94 -62.333 114 -111h4l23 107h340zM1049 771.002c-40 56.667 -101.334 85 -184.001 85
c-77.333 0 -148.666 -28 -213.999 -84c-63.333 -54.667 -103.333 -121 -120 -199c-17.333 -80.667 -6.66602 -149 32.001 -205c38.667 -58 98 -87 178 -87c82 0 154.667 26.333 218 79c63.333 53.333 103.666 121 120.999 203c18 84 7.66699 153.333 -31 208z" />
    <glyph glyph-name="h" unicode="h" horiz-adv-x="1294" 
d="M835 0l131.001 618.001c15.333 71.333 15 126.333 -1 165c-19.333 48.667 -63 73 -131 73c-68.667 0 -123.334 -21.333 -164.001 -64c-34 -36.667 -58.667 -90.334 -74 -161.001l-134 -631h-340l322 1516h340l-103 -484h4c38.667 50 88.667 87.333 150 112
c52.667 21.333 110.667 32 174 32c134.667 0 228.667 -41.667 282 -125c37.333 -56 55 -121.667 53 -197c-0.666992 -30 -4.66699 -65.333 -12 -106c-2.66699 -16 -6 -34.667 -10 -56l-147 -692h-340z" />
    <glyph glyph-name="i" unicode="i" horiz-adv-x="585" 
d="M389 1257l55 259h340l-55 -259h-340zM122 0l242 1137h340l-242 -1137h-340z" />
    <glyph glyph-name="j" unicode="j" horiz-adv-x="657" 
d="M445 1257l55 259h340l-55 -259h-340zM523 25c-34 -162 -87 -275 -159 -339c-76.667 -69.333 -195.667 -104 -357 -104h-84l55 258h45c51.333 0 89.333 17.333 114 52c16.667 23.333 31 63.333 43 120l240 1125h340z" />
    <glyph glyph-name="k" unicode="k" horiz-adv-x="1210" 
d="M905 637l281 -637h-385l-206 547h-4l-116 -547h-340l322 1516h340l-168 -791h4l403 412h404z" />
    <glyph glyph-name="l" unicode="l" horiz-adv-x="585" 
d="M122 0l322 1516h340l-322 -1516h-340z" />
    <glyph glyph-name="m" unicode="m" horiz-adv-x="1984" 
d="M1527 0l127.998 604c16.667 78 19.667 135.667 9 173c-15.333 52.667 -58.333 79 -129 79c-70 0 -125.333 -23 -166 -69c-33.333 -38 -57.666 -93.333 -72.999 -166l-132 -621h-340l131 618c15.333 70.667 16.666 125 3.99902 163c-16.667 50 -57.667 75 -123 75
c-72 0 -129 -25.333 -171 -76c-33.333 -40 -58.333 -98.667 -75 -176l-128 -604h-340l242 1137h317l-26 -121h5c42.667 55.333 95.334 96.333 158.001 123c56.667 24.667 119.667 37 189 37c145.333 0 240.333 -67.667 285 -203c114 135.333 248.333 203 403 203
c124.667 0 216.334 -38.333 275.001 -115c44.667 -58.667 66.667 -126.667 66 -204c-0.666992 -32 -4.66699 -69.667 -12 -113c-2.66699 -16.667 -6.66699 -36.667 -12 -60l-145 -684h-340z" />
    <glyph glyph-name="n" unicode="n" horiz-adv-x="1294" 
d="M835 0l132.002 621c16 74 17 129 3 165c-17.333 46.667 -61 70 -131 70c-74 0 -131.333 -22.667 -172 -68c-32.667 -37.333 -57.334 -94 -74.001 -170l-131 -618h-340l242 1137h317l-26 -121h5c88 106.667 202.333 160 343 160c115.333 0 205.333 -33 270 -99
c40.667 -41.333 64 -97 70 -167c5.33301 -54.667 -0.333984 -121 -17.001 -199l-151 -711h-340z" />
    <glyph glyph-name="o" unicode="o" horiz-adv-x="1363" 
d="M1147 137c-140.667 -114.667 -298.333 -172 -473 -172s-308 57.333 -400 172c-92.667 114.667 -120.667 258.667 -84 432c37.333 174 126.666 318.333 267.999 433c140.667 114.667 298.334 172 473.001 172s308 -57.333 400 -172c93.333 -114.667 121.333 -259 84 -433
c-36.667 -173.333 -126 -317.333 -268 -432zM1041 770c-40.667 57.333 -100.002 86 -178.002 86c-77.333 0 -148.333 -28.667 -213 -86c-63.333 -55.333 -103.333 -122.333 -120 -201c-16.667 -78 -5 -145 35 -201c40 -56.667 98.667 -85 176 -85
c78 0 149.667 28.333 215 85c62.667 56 102.334 123 119.001 201c16.667 78.667 5.33398 145.667 -33.999 201z" />
    <glyph glyph-name="p" unicode="p" horiz-adv-x="1427" 
d="M1234 140c-131.333 -119.333 -277.667 -179 -439 -179c-141.333 0 -245.333 47 -312 141l-102 -481h-340l322 1516h319l-26 -125h7c110 109.333 239.667 164 389 164c170 0 293.333 -62 370 -186c72 -116 89.667 -260.333 53 -433
c-34.667 -163.333 -115 -302.333 -241 -417zM1100 773c-42.667 56.667 -104.669 85 -186.002 85s-155 -28.333 -221 -85c-66 -55.333 -107.667 -124 -125 -206c-16.667 -80 -4 -148 38 -204c43.333 -56 105 -84 185 -84c80.667 0 154.334 28 221.001 84
s108.334 124 125.001 204c17.333 82 5 150.667 -37 206z" />
    <glyph glyph-name="q" unicode="q" horiz-adv-x="1429" 
d="M885 -379l105 496.001h-4c-50 -54.667 -109 -94.667 -177 -120c-60 -22.667 -126.333 -34 -199 -34c-160.667 0 -280.667 57.667 -360 173c-78 111.333 -99.667 248.333 -65 411c37.333 176.667 119 324 245 442c133.333 124.667 286.666 187 459.999 187
c70 0 130.667 -13 182 -39c58.667 -28.667 98.334 -70.334 119.001 -125.001h4l26 125h326l-322 -1516h-340zM1061 774.001c-42.667 56 -105.002 84 -187.002 84c-83.333 0 -158 -29 -224 -87c-63.333 -56 -104 -126 -122 -210c-16.667 -78.667 -2.66699 -145 42 -199
c44 -54 105.667 -81 185 -81c78.667 0 151.334 28 218.001 84s108.334 123.333 125.001 202c17.333 82.667 5 151.667 -37 207z" />
    <glyph glyph-name="r" unicode="r" horiz-adv-x="743" 
d="M905 834c-88 -2.66699 -154 -16 -198 -40c-58.667 -32 -96.667 -88.333 -114 -169l-133 -625h-340l242 1137h319l-26 -121h5c76.667 106.667 182.667 160 318 160z" />
    <glyph glyph-name="s" unicode="s" horiz-adv-x="1021" 
d="M842 59c-101.333 -65.333 -214.334 -98 -339.001 -98c-124 0 -220.667 31.667 -290 95c-74.667 67.333 -105.667 161.333 -93 282h338c-4.66699 -70 31 -105 107 -105c29.333 0 57.333 7.33301 84 22c30 16.667 48 39 54 67c7.33301 35.333 -4.33398 64.333 -35.001 87
l-45 24l-182 71c-73.333 28.667 -127.666 64.334 -162.999 107.001c-45.333 53.333 -60.333 116.666 -45 189.999c24 112.667 89.667 204.667 197 276c98.667 66 206.667 99 324 99c119.333 0 211.333 -29.667 276 -89c69.333 -63.333 97 -153.333 83 -270h-334
c10.667 57.333 -18.333 86 -87 86c-64.667 0 -102.667 -25.333 -114 -76c-8 -38 15.667 -69 71 -93c18 -8.66699 46 -19 84 -31c3.33301 -0.666992 7.33301 -1.66699 12 -3l86 -29c38 -13.333 70 -27.333 96 -42c32.667 -18 58.667 -38.667 78 -62
c48.667 -55.333 63.334 -128.333 44.001 -219c-26 -120.667 -95 -217 -207 -289z" />
    <glyph glyph-name="t" unicode="t" horiz-adv-x="718" 
d="M717 879l-187 -879h-340l187 879h-168l55 258h168l80 379h340l-80 -379h164l-55 -258h-164z" />
    <glyph glyph-name="u" unicode="u" horiz-adv-x="1298" 
d="M853 0l25.999 121.001h-4c-40 -58 -89.333 -99.667 -148 -125c-50.667 -22 -110.667 -33 -180 -33c-144.667 0 -246 47.667 -304 143c-31.333 53.333 -48 108.666 -50 165.999c-2 43.333 5.66699 105 23 185l144 680h340l-134 -629
c-15.333 -73.333 -15.333 -127.333 0 -162c18.667 -43.333 63.334 -65 134.001 -65c130 0 211.333 77 244 231l133 625h340l-242 -1137h-322z" />
    <glyph glyph-name="v" unicode="v" horiz-adv-x="1212" 
d="M767 0h-325l-166 1137h352l66 -709h4l369 709h352z" />
    <glyph glyph-name="w" unicode="w" horiz-adv-x="1740" 
d="M1378 0h-315l-34 735h-4l-347 -735h-316l-106 1137h352l20 -707h4l337 707h286l39 -707h4l320 707h350z" />
    <glyph glyph-name="x" unicode="x" horiz-adv-x="1290" 
d="M870 0l-152 352l-306 -352h-410l561 608l-270 529h408l120 -299l246 299h404l-496 -529l311 -608h-416z" />
    <glyph glyph-name="y" unicode="y" horiz-adv-x="1175" 
d="M523 -379h-360l273 436l-193 1080h362l88 -660h4l357 660h360z" />
    <glyph glyph-name="z" unicode="z" horiz-adv-x="909" 
d="M30 0l50 233l616 646h-479l55 258h846l-55 -258l-577 -621h445l-55 -258h-846z" />
    <glyph glyph-name="braceleft" unicode="{" horiz-adv-x="1134" 
d="M612 -541c-90.667 0 -159.334 24.335 -206.001 73.002c-50 50.667 -65.667 120.667 -47 210l92 434c10 45.333 -6 78.666 -48 99.999c-31.333 16.667 -72.666 25 -123.999 25l75 352c52 0 98 10 138 30c50 24 80 60 90 108l94 442c18.667 88.667 64 158.667 136 210
c67.333 48.667 146.333 73 237 73h262l-55 -259l-87 2c-31.333 0 -56.666 -3 -75.999 -9c-49.333 -14.667 -81.333 -56.667 -96 -126l-91 -428c-28 -132 -117 -203.667 -267 -215l-1 -8c59.333 -3.33301 106.333 -20 141 -50c38.667 -34 52 -80 40 -138l-93 -435
c-14.667 -68.667 -0.333984 -110.334 42.999 -125.001c16.667 -6 40.667 -9 72 -9l88 1l-55 -258h-262z" />
    <glyph glyph-name="bar" unicode="|" horiz-adv-x="1136" 
d="M336 -205l366 1721h375l-366 -1721h-375z" />
    <glyph glyph-name="braceright" unicode="}" horiz-adv-x="1134" 
d="M983 301c-50.667 0 -95.332 -8.33496 -133.999 -25.002c-51.333 -21.333 -82 -54.666 -92 -99.999l-92 -434c-18.667 -89.333 -63.667 -159.333 -135 -210c-68 -48.667 -147.333 -73 -238 -73h-262l55 258l88 -1c31.333 0 56.666 3 75.999 9
c48.667 14.667 80.334 56.334 95.001 125.001l93 435c12 58 45 104 99 138c46 30 100.333 46.667 163 50l1 8c-145.333 11.333 -204 83 -176 215l91 428c14.667 69.333 0.666992 111.333 -42 126c-16.667 6 -40.667 9 -72 9l-89 -2l55 259h262
c90.667 0 159.667 -24.333 207 -73c49.333 -51.333 64.666 -121.333 45.999 -210l-94 -442c-10 -48 5 -84 45 -108c31.333 -20 73 -30 125 -30z" />
    <glyph glyph-name="asciitilde" unicode="~" horiz-adv-x="1228" 
d="M1187 449c-7.33301 -8 -12.667 -13.667 -16 -17l-49 -50c-25.333 -23.333 -48.333 -42.333 -69 -57c-54 -38 -109 -57 -165 -57c-36 0 -71.667 7.33301 -107 22c-14 6 -29.333 13.333 -46 22l-45 26c-38 22.667 -69.667 38.667 -95 48c-38.667 14.667 -79 22 -121 22
c-40 0 -78.667 -15 -116 -45c-28 -22 -58 -54.333 -90 -97l-6 320c44 57.333 88 100.666 132 129.999c52 34.667 107.667 52 167 52c34 0 71.333 -7.33301 112 -22c27.333 -9.33301 63 -25.333 107 -48l51 -25l49 -23c34.667 -14 63.667 -21 87 -21
c36.667 0 75.667 16 117 48c16 12.667 33.333 28.334 52 47.001l47 48z" />
    <glyph glyph-name="dieresis" unicode="&#xa8;" horiz-adv-x="1024" 
 />
    <glyph glyph-name="copyright" unicode="&#xa9;" horiz-adv-x="1638" 
d="M1417 202c-186 -154 -387 -231 -603 -231s-384.333 77 -505 231s-158 339.333 -112 556c46 217.333 162.333 403 349 557c186.667 152.667 388.667 229 606 229c214.667 0 382 -77.667 502 -233c119.333 -154 156 -338.333 110 -553
c-46 -216.667 -161.667 -402 -347 -556zM1512 1200c-92.667 124 -224.333 185.999 -395 185.999c-172.667 0 -332 -61.667 -478 -185c-144.667 -122 -235.334 -269.667 -272.001 -443c-36.667 -171.333 -8.66699 -318.666 84 -441.999
c93.333 -124.667 225.333 -187 396 -187c172 0 330.667 62 476 186c144 122.667 234.333 270.334 271 443.001c36.667 171.333 9.33398 318.666 -81.999 441.999zM1042 329.999c-4 14.667 -3.33301 47.9971 2 99.9971l8 60c1.33301 12 2.66602 21 3.99902 27
c0.666992 8.66699 1.33398 16 2.00098 22c7.33301 84.667 -35.334 127 -128.001 127h-86l-72 -336h-217l185 872h368c89.333 0 158.666 -18 207.999 -54c58 -43.333 78 -107.333 60 -192c-20.667 -97.333 -83 -167.666 -187 -210.999
c38.667 -17.333 64.334 -42.666 77.001 -75.999c10 -26.667 13 -61.667 9 -105c-2 -15.333 -5 -35 -9 -59l-5 -30c-2 -11.333 -3.33301 -21.333 -4 -30c-7.33301 -47.333 -8.66602 -85.666 -3.99902 -114.999h-211zM1042 1053h-116l-53 -246h112
c94.667 0 151.667 44.333 171 133c16 75.333 -22 113 -114 113z" />
    <glyph glyph-name="registered" unicode="&#xae;" horiz-adv-x="1638" 
d="M1417 202c-186 -154 -387 -231 -603 -231s-384.333 77 -505 231s-158 339.333 -112 556c46 217.333 162.333 403 349 557c186.667 152.667 388.667 229 606 229c214.667 0 382 -77.667 502 -233c119.333 -154 156 -338.333 110 -553
c-46 -216.667 -161.667 -402 -347 -556zM1512 1200c-92.667 124 -224.333 185.999 -395 185.999c-172.667 0 -332 -61.667 -478 -185c-144.667 -122 -235.334 -269.667 -272.001 -443c-36.667 -171.333 -8.66699 -318.666 84 -441.999
c93.333 -124.667 225.333 -187 396 -187c172 0 330.667 62 476 186c144 122.667 234.333 270.334 271 443.001c36.667 171.333 9.33398 318.666 -81.999 441.999zM1042 329.999c-4 14.667 -3.33301 47.9971 2 99.9971l8 60c1.33301 12 2.66602 21 3.99902 27
c0.666992 8.66699 1.33398 16 2.00098 22c7.33301 84.667 -35.334 127 -128.001 127h-86l-72 -336h-217l185 872h368c89.333 0 158.666 -18 207.999 -54c58 -43.333 78 -107.333 60 -192c-20.667 -97.333 -83 -167.666 -187 -210.999
c38.667 -17.333 64.334 -42.666 77.001 -75.999c10 -26.667 13 -61.667 9 -105c-2 -15.333 -5 -35 -9 -59l-5 -30c-2 -11.333 -3.33301 -21.333 -4 -30c-7.33301 -47.333 -8.66602 -85.666 -3.99902 -114.999h-211zM1042 1053h-116l-53 -246h112
c94.667 0 151.667 44.333 171 133c16 75.333 -22 113 -114 113z" />
    <glyph glyph-name="acute" unicode="&#xb4;" horiz-adv-x="1024" 
 />
    <glyph glyph-name="paragraph" unicode="&#xb6;" horiz-adv-x="1024" 
d="M1234 1435l-15 -70h-127l-290 -1365h-82l290 1365h-166l-290 -1365h-84l157 738c-114.667 5.33301 -199.167 39.5 -253.5 102.5s-70.833 144.833 -49.5 245.5c22 104.667 75.667 189 161 253s187.333 96 306 96h443z" />
    <glyph glyph-name="onequarter" unicode="&#xbc;" horiz-adv-x="1298" 
 />
    <glyph glyph-name="onehalf" unicode="&#xbd;" horiz-adv-x="1320" 
 />
    <glyph glyph-name="threequarters" unicode="&#xbe;" horiz-adv-x="1288" 
 />
    <glyph glyph-name="Agrave" unicode="&#xc0;" 
d="M1114 0l-27 219h-526l-127 -219h-416l930 1516h305l281 -1516h-420zM1004 1044h-6l-266 -518h318zM1280 1589l-459 221l155 240l440 -262z" />
    <glyph glyph-name="Aacute" unicode="&#xc1;" 
d="M1114 0l-27 219h-526l-127 -219h-416l930 1516h305l281 -1516h-420zM1004 1044h-6l-266 -518h318zM952 1589l-54 201l548 264l57 -242z" />
    <glyph glyph-name="Acircumflex" unicode="&#xc2;" 
d="M1114 0l-27 219h-526l-127 -219h-416l930 1516h305l281 -1516h-420zM1004 1044h-6l-266 -518h318zM1223 1649l-69 118l-119 -118h-332l391 340h221l236 -340h-328z" />
    <glyph glyph-name="Atilde" unicode="&#xc3;" 
d="M1114 0l-27 219h-526l-127 -219h-416l930 1516h305l281 -1516h-420zM1004 1044h-6l-266 -518h318zM1562 1739c-92 -50.667 -175.001 -76 -249.001 -76c-22.667 0 -48.667 2.66699 -78 8l-161 37c-29.333 5.33301 -55 8 -77 8c-24 0 -50 -4 -78 -12l-78 -27l-84 181
c42.667 21.333 82.334 38 119.001 50c44 14 84.333 21 121 21c25.333 0 52.666 -2.66699 81.999 -8c12 -2 25.333 -4.66699 40 -8l78 -19c14.667 -3.33301 28 -6 40 -8c29.333 -5.33301 56.333 -8 81 -8c44.667 0 97.334 11.667 158.001 35z" />
    <glyph glyph-name="Egrave" unicode="&#xc8;" horiz-adv-x="1081" 
d="M137 0l322 1516h842l-72 -340h-471l-50 -236h456l-72 -340h-456l-56 -260h471l-72 -340h-842zM1044 1589l-459 221l156 240l440 -262z" />
    <glyph glyph-name="Eacute" unicode="&#xc9;" horiz-adv-x="1081" 
d="M137 0l322 1516h842l-72 -340h-471l-50 -236h456l-72 -340h-456l-56 -260h471l-72 -340h-842zM717 1589l-55 201l549 264l56 -242z" />
    <glyph glyph-name="Ecircumflex" unicode="&#xca;" horiz-adv-x="1081" 
d="M136 0l322 1516h842l-72 -340h-471l-50 -236h457l-72 -340h-457l-56 -260h471l-72 -340h-842zM997 1649l-69 118l-119 -118h-332l391 340h222l235 -340h-328z" />
    <glyph glyph-name="Igrave" unicode="&#xcc;" horiz-adv-x="661" 
d="M138 0l322 1516h387l-322 -1516h-387zM783 1589l-459 221l155 240l440 -262z" />
    <glyph glyph-name="Iacute" unicode="&#xcd;" horiz-adv-x="661" 
d="M136 0l322 1516h387l-322 -1516h-387zM556 1589l-54 201l549 264l56 -242z" />
    <glyph glyph-name="Ograve" unicode="&#xd2;" horiz-adv-x="1742" 
d="M1477 196c-187.333 -150 -392.667 -224.999 -616 -224.999c-217.333 0 -388 73.667 -512 221c-126.667 149.333 -167 331.666 -121 546.999c24 114.667 66.667 222.667 128 324c32 54 77 110.667 135 170c201.333 207.333 437 311 707 311
c222.667 0 395.334 -75.333 518.001 -226c123.333 -151.333 161.666 -338 114.999 -560c-47.333 -222.667 -165.333 -410 -354 -562zM1398 1068c-60.667 90.667 -151.002 136 -271.002 136c-121.333 0 -230.666 -44 -327.999 -132c-94 -84.667 -153.667 -188 -179 -310
c-26.667 -124.667 -11 -230 47 -316c60.667 -90 152.334 -135 275.001 -135c118 0 226 45.333 324 136c92.667 86 151.667 189 177 309c26 122 11 226 -45 312zM1373 1589l-459 221l155 240l441 -262z" />
    <glyph glyph-name="Oacute" unicode="&#xd3;" horiz-adv-x="1742" 
d="M1477 196c-187.333 -150 -392.667 -224.999 -616 -224.999c-217.333 0 -388 73.667 -512 221c-126.667 149.333 -167 331.666 -121 546.999c24 114.667 66.667 222.667 128 324c32 54 77 110.667 135 170c201.333 207.333 437 311 707 311
c222.667 0 395.334 -75.333 518.001 -226c123.333 -151.333 161.666 -338 114.999 -560c-47.333 -222.667 -165.333 -410 -354 -562zM1398 1068c-60.667 90.667 -151.002 136 -271.002 136c-121.333 0 -230.666 -44 -327.999 -132c-94 -84.667 -153.667 -188 -179 -310
c-26.667 -124.667 -11 -230 47 -316c60.667 -90 152.334 -135 275.001 -135c118 0 226 45.333 324 136c92.667 86 151.667 189 177 309c26 122 11 226 -45 312zM1045 1589l-53 201l547 264l58 -242z" />
    <glyph glyph-name="Ocircumflex" unicode="&#xd4;" horiz-adv-x="1742" 
d="M1477 196c-187.333 -150 -392.667 -224.999 -616 -224.999c-217.333 0 -388 73.667 -512 221c-126.667 149.333 -167 331.666 -121 546.999c24 114.667 66.667 222.667 128 324c32 54 77 110.667 135 170c201.333 207.333 437 311 707 311
c222.667 0 395.334 -75.333 518.001 -226c123.333 -151.333 161.666 -338 114.999 -560c-47.333 -222.667 -165.333 -410 -354 -562zM1398 1068c-60.667 90.667 -151.002 136 -271.002 136c-121.333 0 -230.666 -44 -327.999 -132c-94 -84.667 -153.667 -188 -179 -310
c-26.667 -124.667 -11 -230 47 -316c60.667 -90 152.334 -135 275.001 -135c118 0 226 45.333 324 136c92.667 86 151.667 189 177 309c26 122 11 226 -45 312zM1316 1649l-69 118l-119 -118h-332l391 340h221l236 -340h-328z" />
    <glyph glyph-name="Otilde" unicode="&#xd5;" horiz-adv-x="1742" 
d="M1477 196c-187.333 -150 -392.667 -224.999 -616 -224.999c-217.333 0 -388 73.667 -512 221c-126.667 149.333 -167 331.666 -121 546.999c24 114.667 66.667 222.667 128 324c32 54 77 110.667 135 170c201.333 207.333 437 311 707 311
c222.667 0 395.334 -75.333 518.001 -226c123.333 -151.333 161.666 -338 114.999 -560c-47.333 -222.667 -165.333 -410 -354 -562zM1398 1068c-60.667 90.667 -151.002 136 -271.002 136c-121.333 0 -230.666 -44 -327.999 -132c-94 -84.667 -153.667 -188 -179 -310
c-26.667 -124.667 -11 -230 47 -316c60.667 -90 152.334 -135 275.001 -135c118 0 226 45.333 324 136c92.667 86 151.667 189 177 309c26 122 11 226 -45 312zM1654 1739c-90.667 -50.667 -173 -76 -247 -76c-22.667 0 -49 2.66699 -79 8l-160 37c-30 5.33301 -56 8 -78 8
c-24 0 -49.667 -4 -77 -12l-78 -27l-84 181c42 21.333 81.333 38 118 50c44.667 14 85.334 21 122.001 21c25.333 0 52.666 -2.66699 81.999 -8c11.333 -2 24.333 -4.66699 39 -8l78 -19c14.667 -3.33301 28 -6 40 -8c30 -5.33301 57.333 -8 82 -8
c44.667 0 97 11.667 157 35z" />
    <glyph glyph-name="Ugrave" unicode="&#xd9;" horiz-adv-x="1429" 
d="M1423 600c-22 -103.333 -48.3359 -187.002 -79.0029 -251.002c-40.667 -82 -97.667 -153.333 -171 -214c-130 -109.333 -282.667 -164 -458 -164c-85.333 0 -161.666 12.333 -228.999 37c-75.333 28 -133 69.667 -173 125c-49.333 67.333 -76.666 139.333 -81.999 216
c-2 34.667 -0.333008 73.667 5 117c4.66699 34.667 12.667 79.334 24 134.001l195 916h387l-195 -916c-8 -40 -13.333 -74.333 -16 -103c-2 -36.667 0.666992 -67.667 8 -93c17.333 -62 65.333 -93 144 -93c81.333 0 142.333 30.333 183 91
c16.667 24.667 31.334 55.334 44.001 92.001c8 26.667 16.667 62 26 106l195 916h387zM1147 1589l-460 221l156 240l440 -262z" />
    <glyph glyph-name="Uacute" unicode="&#xda;" horiz-adv-x="1429" 
d="M1423 600c-22 -103.333 -48.3359 -187.002 -79.0029 -251.002c-40.667 -82 -97.667 -153.333 -171 -214c-130 -109.333 -282.667 -164 -458 -164c-85.333 0 -161.666 12.333 -228.999 37c-75.333 28 -133 69.667 -173 125c-49.333 67.333 -76.666 139.333 -81.999 216
c-2 34.667 -0.333008 73.667 5 117c4.66699 34.667 12.667 79.334 24 134.001l195 916h387l-195 -916c-8 -40 -13.333 -74.333 -16 -103c-2 -36.667 0.666992 -67.667 8 -93c17.333 -62 65.333 -93 144 -93c81.333 0 142.333 30.333 183 91
c16.667 24.667 31.334 55.334 44.001 92.001c8 26.667 16.667 62 26 106l195 916h387zM962.997 1589l-55 201l548 264l57 -242z" />
    <glyph glyph-name="Yacute" unicode="&#xdd;" horiz-adv-x="1325" 
d="M975 551l-117 -551h-387l117 551l-248 965h420l96 -609l356 609h416zM962 1589l-54 201l547 264l58 -242z" />
    <glyph glyph-name="agrave" unicode="&#xe0;" horiz-adv-x="1441" 
d="M976 0l26.001 123h-4c-40 -54.667 -96.333 -96.334 -169 -125.001c-62.667 -24.667 -128.334 -37 -197.001 -37c-171.333 0 -298 59 -380 177c-78 114.667 -98.667 258.334 -62 431.001c36 170 118.667 312.667 248 428c134 119.333 284.667 179 452 179
c68 0 128 -12.667 180 -38c58 -28 97.333 -68.667 118 -122h4l26 121h340l-242 -1137h-340zM1060 776c-42.667 54.667 -105.331 81.999 -187.998 81.999c-82 0 -155.667 -28.667 -221 -86c-63.333 -55.333 -104 -124.333 -122 -207c-16.667 -79.333 -4 -146.666 38 -201.999
c43.333 -56 104.666 -84 183.999 -84c82 0 156 27.667 222 83c65.333 55.333 106.666 124.333 123.999 207c18 83.333 5.66699 152.333 -37 207zM1153 1257l-459 222l156 239l440 -262z" />
    <glyph glyph-name="aacute" unicode="&#xe1;" horiz-adv-x="1441" 
d="M976 0l26.001 123h-4c-40 -54.667 -96.333 -96.334 -169 -125.001c-62.667 -24.667 -128.334 -37 -197.001 -37c-171.333 0 -298 59 -380 177c-78 114.667 -98.667 258.334 -62 431.001c36 170 118.667 312.667 248 428c134 119.333 284.667 179 452 179
c68 0 128 -12.667 180 -38c58 -28 97.333 -68.667 118 -122h4l26 121h340l-242 -1137h-340zM1060 776c-42.667 54.667 -105.331 81.999 -187.998 81.999c-82 0 -155.667 -28.667 -221 -86c-63.333 -55.333 -104 -124.333 -122 -207c-16.667 -79.333 -4 -146.666 38 -201.999
c43.333 -56 104.666 -84 183.999 -84c82 0 156 27.667 222 83c65.333 55.333 106.666 124.333 123.999 207c18 83.333 5.66699 152.333 -37 207zM828.004 1272l-53 201l548 264l57 -242z" />
    <glyph glyph-name="acircumflex" unicode="&#xe2;" horiz-adv-x="1441" 
d="M976 0l26.001 123h-4c-40 -54.667 -96.333 -96.334 -169 -125.001c-62.667 -24.667 -128.334 -37 -197.001 -37c-171.333 0 -298 59 -380 177c-78 114.667 -98.667 258.334 -62 431.001c36 170 118.667 312.667 248 428c134 119.333 284.667 179 452 179
c68 0 128 -12.667 180 -38c58 -28 97.333 -68.667 118 -122h4l26 121h340l-242 -1137h-340zM1060 776c-42.667 54.667 -105.331 81.999 -187.998 81.999c-82 0 -155.667 -28.667 -221 -86c-63.333 -55.333 -104 -124.333 -122 -207c-16.667 -79.333 -4 -146.666 38 -201.999
c43.333 -56 104.666 -84 183.999 -84c82 0 156 27.667 222 83c65.333 55.333 106.666 124.333 123.999 207c18 83.333 5.66699 152.333 -37 207zM1096 1311l-70 119l-119 -119h-332l392 340h221l235 -340h-327z" />
    <glyph glyph-name="atilde" unicode="&#xe3;" horiz-adv-x="1441" 
d="M976 0l26.001 123h-4c-40 -54.667 -96.333 -96.334 -169 -125.001c-62.667 -24.667 -128.334 -37 -197.001 -37c-171.333 0 -298 59 -380 177c-78 114.667 -98.667 258.334 -62 431.001c36 170 118.667 312.667 248 428c134 119.333 284.667 179 452 179
c68 0 128 -12.667 180 -38c58 -28 97.333 -68.667 118 -122h4l26 121h340l-242 -1137h-340zM1060 776c-42.667 54.667 -105.331 81.999 -187.998 81.999c-82 0 -155.667 -28.667 -221 -86c-63.333 -55.333 -104 -124.333 -122 -207c-16.667 -79.333 -4 -146.666 38 -201.999
c43.333 -56 104.666 -84 183.999 -84c82 0 156 27.667 222 83c65.333 55.333 106.666 124.333 123.999 207c18 83.333 5.66699 152.333 -37 207zM1436 1409c-92 -50.667 -174.668 -76 -248.001 -76c-23.333 0 -49.666 3 -78.999 9l-161 36c-28.667 5.33301 -54 8 -76 8
c-24.667 0 -50.667 -3.66699 -78 -11l-78 -27l-84 180c42.667 22 82.334 38.667 119.001 50c43.333 14 83.666 21 120.999 21c24.667 0 51.667 -2.66699 81 -8c12.667 -2 26.334 -4.66699 41.001 -8l78 -19c14 -3.33301 27 -6 39 -8c29.333 -5.33301 56.666 -8 81.999 -8
c44.667 0 97 11.667 157 35z" />
    <glyph glyph-name="egrave" unicode="&#xe8;" horiz-adv-x="1323" 
d="M1348 465l-851.999 -0.000976562c-9.33301 -143.333 64 -215 220 -215c81.333 0 158 35.333 230 106h348c-76 -118 -168.667 -212 -278 -282c-116.667 -74 -237 -111 -361 -111c-166 0 -295 59 -387 177c-93.333 117.333 -122.333 259 -87 425
c35.333 166.667 123.333 309.667 264 429c142.667 121.333 296.667 182 462 182c172 0 302.667 -60.667 392 -182c87.333 -119.333 112.666 -265.666 75.999 -438.999c-7.33301 -32.667 -16.333 -62.667 -27 -90zM1064 693.999c0 130 -72 195 -216 195s-244 -65 -300 -195
h516zM1094 1257l-459 222l156 239l439 -262z" />
    <glyph glyph-name="eacute" unicode="&#xe9;" horiz-adv-x="1323" 
d="M1348 465l-851.999 -0.000976562c-9.33301 -143.333 64 -215 220 -215c81.333 0 158 35.333 230 106h348c-76 -118 -168.667 -212 -278 -282c-116.667 -74 -237 -111 -361 -111c-166 0 -295 59 -387 177c-93.333 117.333 -122.333 259 -87 425
c35.333 166.667 123.333 309.667 264 429c142.667 121.333 296.667 182 462 182c172 0 302.667 -60.667 392 -182c87.333 -119.333 112.666 -265.666 75.999 -438.999c-7.33301 -32.667 -16.333 -62.667 -27 -90zM1064 693.999c0 130 -72 195 -216 195s-244 -65 -300 -195
h516zM769.001 1272l-53 201l548 264l57 -242z" />
    <glyph glyph-name="ecircumflex" unicode="&#xea;" horiz-adv-x="1323" 
d="M1348 465l-851.999 -0.000976562c-9.33301 -143.333 64 -215 220 -215c81.333 0 158 35.333 230 106h348c-76 -118 -168.667 -212 -278 -282c-116.667 -74 -237 -111 -361 -111c-166 0 -295 59 -387 177c-93.333 117.333 -122.333 259 -87 425
c35.333 166.667 123.333 309.667 264 429c142.667 121.333 296.667 182 462 182c172 0 302.667 -60.667 392 -182c87.333 -119.333 112.666 -265.666 75.999 -438.999c-7.33301 -32.667 -16.333 -62.667 -27 -90zM1064 693.999c0 130 -72 195 -216 195s-244 -65 -300 -195
h516zM1035 1311l-68 119l-120 -119h-332l393 340h221l234 -340h-328z" />
    <glyph glyph-name="igrave" unicode="&#xec;" horiz-adv-x="585" 
d="M123 0l242 1137h340l-242 -1137h-340zM675 1257l-459 222l155 239l440 -262z" />
    <glyph glyph-name="iacute" unicode="&#xed;" horiz-adv-x="585" 
d="M123 0l242 1137h340l-242 -1137h-340zM452 1272l-53 201l548 264l57 -242z" />
    <glyph glyph-name="ograve" unicode="&#xf2;" horiz-adv-x="1363" 
d="M1147 137c-140.667 -114.667 -298.333 -172 -473 -172s-308 57.333 -400 172c-92.667 114.667 -120.667 258.667 -84 432c37.333 174 126.666 318.333 267.999 433c140.667 114.667 298.334 172 473.001 172s308 -57.333 400 -172c93.333 -114.667 121.333 -259 84 -433
c-36.667 -173.333 -126 -317.333 -268 -432zM1041 770c-40.667 57.333 -100.002 86 -178.002 86c-77.333 0 -148.333 -28.667 -213 -86c-63.333 -55.333 -103.333 -122.333 -120 -201c-16.667 -78 -5 -145 35 -201c40 -56.667 98.667 -85 176 -85
c78 0 149.667 28.333 215 85c62.667 56 102.334 123 119.001 201c16.667 78.667 5.33398 145.667 -33.999 201zM1115 1257l-459 222l155 239l440 -262z" />
    <glyph glyph-name="oacute" unicode="&#xf3;" horiz-adv-x="1363" 
d="M1147 137c-140.667 -114.667 -298.333 -172 -473 -172s-308 57.333 -400 172c-92.667 114.667 -120.667 258.667 -84 432c37.333 174 126.666 318.333 267.999 433c140.667 114.667 298.334 172 473.001 172s308 -57.333 400 -172c93.333 -114.667 121.333 -259 84 -433
c-36.667 -173.333 -126 -317.333 -268 -432zM1041 770c-40.667 57.333 -100.002 86 -178.002 86c-77.333 0 -148.333 -28.667 -213 -86c-63.333 -55.333 -103.333 -122.333 -120 -201c-16.667 -78 -5 -145 35 -201c40 -56.667 98.667 -85 176 -85
c78 0 149.667 28.333 215 85c62.667 56 102.334 123 119.001 201c16.667 78.667 5.33398 145.667 -33.999 201zM790.999 1272l-55 201l549 264l56 -242z" />
    <glyph glyph-name="ocircumflex" unicode="&#xf4;" horiz-adv-x="1363" 
d="M1147 137c-140.667 -114.667 -298.333 -172 -473 -172s-308 57.333 -400 172c-92.667 114.667 -120.667 258.667 -84 432c37.333 174 126.666 318.333 267.999 433c140.667 114.667 298.334 172 473.001 172s308 -57.333 400 -172c93.333 -114.667 121.333 -259 84 -433
c-36.667 -173.333 -126 -317.333 -268 -432zM1041 770c-40.667 57.333 -100.002 86 -178.002 86c-77.333 0 -148.333 -28.667 -213 -86c-63.333 -55.333 -103.333 -122.333 -120 -201c-16.667 -78 -5 -145 35 -201c40 -56.667 98.667 -85 176 -85
c78 0 149.667 28.333 215 85c62.667 56 102.334 123 119.001 201c16.667 78.667 5.33398 145.667 -33.999 201zM1057 1311l-70 119l-119 -119h-332l392 340h221l235 -340h-327z" />
    <glyph glyph-name="otilde" unicode="&#xf5;" horiz-adv-x="1363" 
d="M1147 137c-140.667 -114.667 -298.333 -172 -473 -172s-308 57.333 -400 172c-92.667 114.667 -120.667 258.667 -84 432c37.333 174 126.666 318.333 267.999 433c140.667 114.667 298.334 172 473.001 172s308 -57.333 400 -172c93.333 -114.667 121.333 -259 84 -433
c-36.667 -173.333 -126 -317.333 -268 -432zM1041 770c-40.667 57.333 -100.002 86 -178.002 86c-77.333 0 -148.333 -28.667 -213 -86c-63.333 -55.333 -103.333 -122.333 -120 -201c-16.667 -78 -5 -145 35 -201c40 -56.667 98.667 -85 176 -85
c78 0 149.667 28.333 215 85c62.667 56 102.334 123 119.001 201c16.667 78.667 5.33398 145.667 -33.999 201zM1397 1409c-90.667 -50.667 -173 -76 -247 -76c-23.333 0 -49.666 3 -78.999 9l-162 36c-28.667 5.33301 -54 8 -76 8c-24.667 0 -50.334 -3.66699 -77.001 -11
l-78 -27l-85 180c42.667 22 82.334 38.667 119.001 50c43.333 14 83.666 21 120.999 21c24.667 0 51.667 -2.66699 81 -8c12.667 -2 26.334 -4.66699 41.001 -8l78 -19c14.667 -3.33301 27.667 -6 39 -8c29.333 -5.33301 56.666 -8 81.999 -8c44.667 0 97 11.667 157 35z
" />
    <glyph glyph-name="divide" unicode="&#xf7;" horiz-adv-x="1706" 
 />
    <glyph glyph-name="glyph216" unicode="&#xf9;" horiz-adv-x="1298" 
d="M853 0l25.999 121.001h-4c-40 -58 -89.333 -99.667 -148 -125c-50.667 -22 -110.667 -33 -180 -33c-144.667 0 -246 47.667 -304 143c-31.333 53.333 -48 108.666 -50 165.999c-2 43.333 5.66699 105 23 185l144 680h340l-134 -629
c-15.333 -73.333 -15.333 -127.333 0 -162c18.667 -43.333 63.334 -65 134.001 -65c130 0 211.333 77 244 231l133 625h340l-242 -1137h-322zM1011 1257l-459 222l155 239l440 -262z" />
    <glyph glyph-name="glyph217" unicode="&#xfa;" horiz-adv-x="1298" 
d="M853 0l25.999 121.001h-4c-40 -58 -89.333 -99.667 -148 -125c-50.667 -22 -110.667 -33 -180 -33c-144.667 0 -246 47.667 -304 143c-31.333 53.333 -48 108.666 -50 165.999c-2 43.333 5.66699 105 23 185l144 680h340l-134 -629
c-15.333 -73.333 -15.333 -127.333 0 -162c18.667 -43.333 63.334 -65 134.001 -65c130 0 211.333 77 244 231l133 625h340l-242 -1137h-322zM828.999 1272l-54 201l549 264l56 -242z" />
    <glyph glyph-name="glyph234" unicode="&#xfd;" horiz-adv-x="1175" 
d="M523 -379h-360l273 436l-193 1080h362l88 -660h4l357 660h360zM768 1272l-54 201l548 264l56 -242z" />
    <glyph glyph-name="Abreve" unicode="&#x102;" 
d="M1114 0l-27 219h-526l-127 -219h-416l930 1516h305l281 -1516h-420zM1004 1044h-6l-266 -518h318zM1608 1927c-28.667 -103.333 -93.332 -180.666 -193.999 -231.999c-82.667 -42 -179.667 -63 -291 -63c-113.333 0 -202 21 -266 63
c-76.667 51.333 -107.667 128.666 -93 231.999h231c18 -30 44 -50 78 -60c23.333 -8 59 -12 107 -12c39.333 0 73.666 4.66699 102.999 14c38.667 12 69.667 31.333 93 58h232z" />
    <glyph glyph-name="abreve" unicode="&#x103;" horiz-adv-x="1441" 
d="M976 0l26.001 123h-4c-40 -54.667 -96.333 -96.334 -169 -125.001c-62.667 -24.667 -128.334 -37 -197.001 -37c-171.333 0 -298 59 -380 177c-78 114.667 -98.667 258.334 -62 431.001c36 170 118.667 312.667 248 428c134 119.333 284.667 179 452 179
c68 0 128 -12.667 180 -38c58 -28 97.333 -68.667 118 -122h4l26 121h340l-242 -1137h-340zM1060 776c-42.667 54.667 -105.331 81.999 -187.998 81.999c-82 0 -155.667 -28.667 -221 -86c-63.333 -55.333 -104 -124.333 -122 -207c-16.667 -79.333 -4 -146.666 38 -201.999
c43.333 -56 104.666 -84 183.999 -84c82 0 156 27.667 222 83c65.333 55.333 106.666 124.333 123.999 207c18 83.333 5.66699 152.333 -37 207zM1537 1594c-28.667 -103.333 -93 -180.666 -193 -231.999c-82.667 -42 -180 -63 -292 -63c-112.667 0 -200.667 21 -264 63
c-77.333 51.333 -109 128.666 -95 231.999h232c17.333 -30 43 -50 77 -60c24.667 -8 60.667 -12 108 -12c39.333 0 74 4.66699 104 14c37.333 12 68 31.333 92 58h231z" />
    <glyph glyph-name="Ccaron" unicode="&#x10c;" horiz-adv-x="1274" 
 />
    <glyph glyph-name="ccaron" unicode="&#x10d;" horiz-adv-x="922" 
 />
    <glyph glyph-name="Dslash" unicode="&#x110;" horiz-adv-x="1581" 
d="M1359 210c-163.333 -140 -359.666 -210 -588.999 -210h-572l129 606h-137l72 340h137l121 570h510c74 0 138.333 -4 193 -12c62.667 -8 117.667 -21.667 165 -41c105.333 -43.333 186.666 -120 243.999 -230c65.333 -128.667 78.333 -285.667 39 -471
c-48.667 -230.667 -152.667 -414.667 -312 -552zM1259 1056c-46.667 80 -132 120 -256 120h-168l-49 -230h221l-72 -340h-221l-57 -266h166c126.667 0 230 38.667 310 116c72.667 70.667 122.667 170.667 150 300c26.667 127.333 18.667 227.333 -24 300z" />
    <glyph glyph-name="dcroat" unicode="&#x111;" horiz-adv-x="1429" 
d="M1069 777c-43.333 54 -106.001 81 -188.001 81c-82.667 0 -157 -26.667 -223 -80c-66.667 -54 -109 -122.333 -127 -205c-18 -84 -6.33301 -153.333 35 -208c41.333 -56 104 -84 188 -84c84.667 0 160.334 27.667 227.001 83c65.333 55.333 107 125 125 209
c17.333 82 5 150 -37 204zM1566 1219l-260 -1219h-324l27 123h-4c-45.333 -56.667 -103.333 -98.334 -174 -125.001c-59.333 -23.333 -126 -35 -200 -35c-170 0 -296 59.333 -378 178c-78 114.667 -98.667 258 -62 430c36 169.333 117 311.333 243 426
c132 119.333 281.333 179 448 179c134.667 0 236.667 -45.333 306 -136l38 179h-224l42 201h224l21 96h340l-21 -96h97l-42 -201h-97z" />
    <glyph glyph-name="Itilde" unicode="&#x128;" horiz-adv-x="661" 
d="M137 0l322 1516h387l-322 -1516h-387zM1134 1739c-91.333 -50.667 -174.001 -76 -248.001 -76c-22.667 0 -49 2.66699 -79 8l-160 37c-29.333 5.33301 -55 8 -77 8c-24 0 -50 -4 -78 -12l-78 -27l-84 181c42.667 21.333 82.334 38 119.001 50c44 14 84.333 21 121 21
c25.333 0 52.666 -2.66699 81.999 -8c12 -2 25.333 -4.66699 40 -8l78 -19c14.667 -3.33301 28 -6 40 -8c29.333 -5.33301 56.333 -8 81 -8c44.667 0 97.334 11.667 158.001 35z" />
    <glyph glyph-name="itilde" unicode="&#x129;" horiz-adv-x="585" 
d="M122 0l242 1137h340l-242 -1137h-340zM991 1317c-90.667 -50.667 -173.002 -76 -247.002 -76c-22.667 0 -49 3 -79 9l-161 36c-29.333 5.33301 -55 8 -77 8c-24 0 -49.667 -3.66699 -77 -11l-78 -27l-85 180c42.667 22 82.334 38.667 119.001 50c44 14 84.333 21 121 21
c25.333 0 53 -2.66699 83 -8c11.333 -2 24.333 -4.66699 39 -8l78 -19c14.667 -3.33301 28 -6 40 -8c29.333 -5.33301 56.333 -8 81 -8c44.667 0 97.334 11.667 158.001 35z" />
    <glyph glyph-name="Utilde" unicode="&#x168;" horiz-adv-x="1429" 
d="M1423 600c-22 -103.333 -48.3359 -187.002 -79.0029 -251.002c-40.667 -82 -97.667 -153.333 -171 -214c-130 -109.333 -282.667 -164 -458 -164c-85.333 0 -161.666 12.333 -228.999 37c-75.333 28 -133 69.667 -173 125c-49.333 67.333 -76.666 139.333 -81.999 216
c-2 34.667 -0.333008 73.667 5 117c4.66699 34.667 12.667 79.334 24 134.001l195 916h387l-195 -916c-8 -40 -13.333 -74.333 -16 -103c-2 -36.667 0.666992 -67.667 8 -93c17.333 -62 65.333 -93 144 -93c81.333 0 142.333 30.333 183 91
c16.667 24.667 31.334 55.334 44.001 92.001c8 26.667 16.667 62 26 106l195 916h387zM1479 1739c-91.333 -50.667 -173.667 -76 -247 -76c-23.333 0 -49.666 2.66699 -78.999 8l-161 37c-28.667 5.33301 -54 8 -76 8c-24.667 0 -50.667 -4 -78 -12l-79 -27l-83 181
c42 21.333 81.333 38 118 50c44 14 84.667 21 122 21c24.667 0 51.667 -2.66699 81 -8c12 -2 25.333 -4.66699 40 -8l78 -19c14.667 -3.33301 28 -6 40 -8c29.333 -5.33301 56.666 -8 81.999 -8c44.667 0 96.667 11.667 156 35z" />
    <glyph glyph-name="utilde" unicode="&#x169;" horiz-adv-x="1298" 
d="M853 0l25.999 121.001h-4c-40 -58 -89.333 -99.667 -148 -125c-50.667 -22 -110.667 -33 -180 -33c-144.667 0 -246 47.667 -304 143c-31.333 53.333 -48 108.666 -50 165.999c-2 43.333 5.66699 105 23 185l144 680h340l-134 -629
c-15.333 -73.333 -15.333 -127.333 0 -162c18.667 -43.333 63.334 -65 134.001 -65c130 0 211.333 77 244 231l133 625h340l-242 -1137h-322zM1397 1409c-91.333 -50.667 -173.666 -76 -246.999 -76c-23.333 0 -49.666 3 -78.999 9l-162 36c-28.667 5.33301 -54 8 -76 8
c-24.667 0 -50.334 -3.66699 -77.001 -11l-79 -27l-84 180c42.667 22 82.334 38.667 119.001 50c43.333 14 83.666 21 120.999 21c24.667 0 52 -2.66699 82 -8c12 -2 25.333 -4.66699 40 -8l78 -19c14.667 -3.33301 27.667 -6 39 -8c29.333 -5.33301 56.666 -8 81.999 -8
c44.667 0 97 11.667 157 35z" />
    <glyph glyph-name="Ohorn" unicode="&#x1a0;" horiz-adv-x="1742" 
d="M1397 1068c-60 90.667 -150.332 136 -270.999 136s-229.667 -44 -327 -132c-94 -84.667 -153.667 -188 -179 -310c-26.667 -124.667 -11.334 -230 45.999 -316c60.667 -90 152.667 -135 276 -135c118 0 226 45.333 324 136c92.667 86 151.667 189 177 309
c26 122 10.667 226 -46 312zM1748 1274c98 -143.333 125.666 -315.333 82.999 -516c-47.333 -222.667 -165.666 -410 -354.999 -562c-186.667 -150 -392 -225 -616 -225c-216.667 0 -387 73.667 -511 221c-126.667 149.333 -167 331.666 -121 546.999
c24 114.667 66.667 222.667 128 324c32 54 76.667 110.667 134 170c202 207.333 437.667 311 707 311c188 0 340.667 -53.667 458 -161c6.66699 2.66699 14 5.33398 22 8.00098c76.667 34 122 83.667 136 149h-80l48 228h229l-50 -235
c-29.333 -96.667 -76 -168.667 -140 -216c-24 -16.667 -48 -31 -72 -43z" />
    <glyph glyph-name="ohorn" unicode="&#x1a1;" horiz-adv-x="1363" 
d="M1040 770c-40.667 57.333 -99.668 86 -177.001 86s-148.333 -28.667 -213 -86c-63.333 -55.333 -103.333 -122.333 -120 -201c-16.667 -78 -5 -145 35 -201c40 -56.667 98.667 -85 176 -85s148.666 28.333 213.999 85c62.667 56 102.334 123 119.001 201
c16.667 78.667 5.33398 145.667 -33.999 201zM1378 931c54 -101.333 66.001 -222 36.001 -362c-36.667 -173.333 -125.667 -317.333 -267 -432c-140.667 -114.667 -298.334 -172 -473.001 -172s-308.334 57.333 -401.001 172c-92 114.667 -119.667 258.667 -83 432
c37.333 174 126.333 318.333 267 433c141.333 114.667 299.333 172 474 172c154 0 276 -44.333 366 -133c56.667 32.667 91 76.667 103 132h-80l48 228h229l-50 -235c-30 -96.667 -77 -168.667 -141 -216c-9.33301 -6.66699 -18.666 -13 -27.999 -19z" />
    <glyph glyph-name="Uhorn" unicode="&#x1af;" horiz-adv-x="1429" 
d="M1423 600c-22 -103.333 -48.3359 -187.002 -79.0029 -251.002c-40.667 -82 -97.667 -153.333 -171 -214c-130 -109.333 -282.667 -164 -458 -164c-85.333 0 -161.666 12.333 -228.999 37c-75.333 28 -133 69.667 -173 125c-49.333 67.333 -76.666 139.333 -81.999 216
c-2 34.667 -0.333008 73.667 5 117c4.66699 34.667 12.667 79.334 24 134.001l195 916h387l-195 -916c-8 -40 -13.333 -74.333 -16 -103c-2 -36.667 0.666992 -67.667 8 -93c17.333 -62 65.333 -93 144 -93c81.333 0 142.333 30.333 183 91
c16.667 24.667 31.334 55.334 44.001 92.001c8 26.667 16.667 62 26 106l195 916h387zM1633 1768h229l-50 -235c-30 -96.667 -77.167 -168.667 -141.5 -216s-131.833 -75 -202.5 -83l-101 -8l38 144l39 -1c16 0.666992 44 8 84 22c76.667 34 122 83.667 136 149h-80z" />
    <glyph glyph-name="uhorn" unicode="&#x1b0;" horiz-adv-x="1298" 
d="M853 0l25.999 121.001h-4c-40 -58 -89.333 -99.667 -148 -125c-50.667 -22 -110.667 -33 -180 -33c-144.667 0 -246 47.667 -304 143c-31.333 53.333 -48 108.666 -50 165.999c-2 43.333 5.66699 105 23 185l144 680h340l-134 -629
c-15.333 -73.333 -15.333 -127.333 0 -162c18.667 -43.333 63.334 -65 134.001 -65c130 0 211.333 77 244 231l133 625h340l-242 -1137h-322zM1470 1401h229l-50 -235c-30 -96.667 -77.167 -168.667 -141.5 -216s-131.5 -75 -201.5 -83l-101 -8l38 144l38 -1
c16.667 0.666992 45 8 85 22c76.667 34 122 83.667 136 149h-80z" />
    <glyph glyph-name="uni1EA0" unicode="&#x1ea0;" 
d="M1114 0l-27 219h-526l-127 -219h-416l930 1516h305l281 -1516h-420zM1004 1044h-6l-266 -518h318zM509 -491l65 309h326l-65 -309h-326z" />
    <glyph glyph-name="uni1EA1" unicode="&#x1ea1;" horiz-adv-x="1441" 
d="M976 0l26.001 123h-4c-40 -54.667 -96.333 -96.334 -169 -125.001c-62.667 -24.667 -128.334 -37 -197.001 -37c-171.333 0 -298 59 -380 177c-78 114.667 -98.667 258.334 -62 431.001c36 170 118.667 312.667 248 428c134 119.333 284.667 179 452 179
c68 0 128 -12.667 180 -38c58 -28 97.333 -68.667 118 -122h4l26 121h340l-242 -1137h-340zM1060 776c-42.667 54.667 -105.331 81.999 -187.998 81.999c-82 0 -155.667 -28.667 -221 -86c-63.333 -55.333 -104 -124.333 -122 -207c-16.667 -79.333 -4 -146.666 38 -201.999
c43.333 -56 104.666 -84 183.999 -84c82 0 156 27.667 222 83c65.333 55.333 106.666 124.333 123.999 207c18 83.333 5.66699 152.333 -37 207zM484.004 -491.001l65 309h326l-65 -309h-326z" />
    <glyph glyph-name="uni1EA2" unicode="&#x1ea2;" 
d="M1114 0l-27 219h-526l-127 -219h-416l930 1516h305l281 -1516h-420zM1004 1044h-6l-266 -518h318zM1409 1821c-10.667 -12.667 -22.999 -25.666 -36.999 -38.999c-12 -10.667 -26 -22.334 -42 -35.001l-40 -32c-16 -12 -28.667 -22.333 -38 -31
c-25.333 -23.333 -41.333 -46 -48 -68h-174c6.66699 30.667 22.334 60.667 47.001 90c9.33301 11.333 21 23.333 35 36c10 9.33301 22.667 20.333 38 33l39 31c14 12 25 22.333 33 31c23.333 22.667 37 44.334 41 65.001c8.66699 41.333 -6.33301 62 -45 62
c-28 0 -49 -10 -63 -30c-10.667 -13.333 -19.334 -35.333 -26.001 -66h-183c0 2.66699 0.333008 5.66699 1 9l2 9c15.333 73.333 53.333 133.666 114 180.999c60 45.333 127.333 68 202 68c101.333 0 164.666 -40 189.999 -120c10 -30 11.667 -60.667 5 -92
c-8 -36.667 -25 -70.667 -51 -102z" />
    <glyph glyph-name="uni1EA3" unicode="&#x1ea3;" horiz-adv-x="1441" 
d="M976 0l26.001 123h-4c-40 -54.667 -96.333 -96.334 -169 -125.001c-62.667 -24.667 -128.334 -37 -197.001 -37c-171.333 0 -298 59 -380 177c-78 114.667 -98.667 258.334 -62 431.001c36 170 118.667 312.667 248 428c134 119.333 284.667 179 452 179
c68 0 128 -12.667 180 -38c58 -28 97.333 -68.667 118 -122h4l26 121h340l-242 -1137h-340zM1060 776c-42.667 54.667 -105.331 81.999 -187.998 81.999c-82 0 -155.667 -28.667 -221 -86c-63.333 -55.333 -104 -124.333 -122 -207c-16.667 -79.333 -4 -146.666 38 -201.999
c43.333 -56 104.666 -84 183.999 -84c82 0 156 27.667 222 83c65.333 55.333 106.666 124.333 123.999 207c18 83.333 5.66699 152.333 -37 207zM1244 1487c-10.667 -12.667 -23.001 -25.666 -37.001 -38.999c-12 -10.667 -26 -22.334 -42 -35.001l-41 -32
c-15.333 -12 -27.666 -22.333 -36.999 -31c-25.333 -23.333 -41.333 -46 -48 -68h-174c6.66699 30.667 22.334 60.667 47.001 90c9.33301 11.333 21 23.333 35 36c10 9.33301 22.667 20.333 38 33l38 31l35 31c22 22.667 35 44.334 39 65.001
c9.33301 41.333 -5.33398 62 -44.001 62c-27.333 0 -48.666 -10 -63.999 -30c-10 -13.333 -18.667 -35.333 -26 -66h-183c0.666992 2.66699 1 5.66699 1 9l2 9c15.333 73.333 53.666 133.666 114.999 180.999c60 45.333 127 68 201 68c102 0 165.333 -40 190 -120
c10 -30 11.667 -60.667 5 -92c-8 -36.667 -24.667 -70.667 -50 -102z" />
    <glyph glyph-name="uni1EA4" unicode="&#x1ea4;" 
d="M1114 0l-27 219h-526l-127 -219h-416l930 1516h305l281 -1516h-420zM1004 1044h-6l-266 -518h318zM1508 1849l-53 201l547 264l57 -242zM1223 1649l-69 118l-119 -118h-332l391 340h221l236 -340h-328z" />
    <glyph glyph-name="uni1EA5" unicode="&#x1ea5;" horiz-adv-x="1441" 
d="M976 0l26.001 123h-4c-40 -54.667 -96.333 -96.334 -169 -125.001c-62.667 -24.667 -128.334 -37 -197.001 -37c-171.333 0 -298 59 -380 177c-78 114.667 -98.667 258.334 -62 431.001c36 170 118.667 312.667 248 428c134 119.333 284.667 179 452 179
c68 0 128 -12.667 180 -38c58 -28 97.333 -68.667 118 -122h4l26 121h340l-242 -1137h-340zM1060 776c-42.667 54.667 -105.331 81.999 -187.998 81.999c-82 0 -155.667 -28.667 -221 -86c-63.333 -55.333 -104 -124.333 -122 -207c-16.667 -79.333 -4 -146.666 38 -201.999
c43.333 -56 104.666 -84 183.999 -84c82 0 156 27.667 222 83c65.333 55.333 106.666 124.333 123.999 207c18 83.333 5.66699 152.333 -37 207zM1440 1488l-53 201l548 264l57 -242zM1096 1311l-70 119l-119 -119h-332l392 340h221l235 -340h-327z" />
    <glyph glyph-name="uni1EA6" unicode="&#x1ea6;" 
d="M1114 0l-27 219h-526l-127 -219h-416l930 1516h305l281 -1516h-420zM1004 1044h-6l-266 -518h318zM1513 1950l-459 221l155 240l441 -262zM1223 1649l-69 118l-119 -118h-332l391 340h221l236 -340h-328z" />
    <glyph glyph-name="uni1EA7" unicode="&#x1ea7;" horiz-adv-x="1441" 
d="M976 0l26.001 123h-4c-40 -54.667 -96.333 -96.334 -169 -125.001c-62.667 -24.667 -128.334 -37 -197.001 -37c-171.333 0 -298 59 -380 177c-78 114.667 -98.667 258.334 -62 431.001c36 170 118.667 312.667 248 428c134 119.333 284.667 179 452 179
c68 0 128 -12.667 180 -38c58 -28 97.333 -68.667 118 -122h4l26 121h340l-242 -1137h-340zM1060 776c-42.667 54.667 -105.331 81.999 -187.998 81.999c-82 0 -155.667 -28.667 -221 -86c-63.333 -55.333 -104 -124.333 -122 -207c-16.667 -79.333 -4 -146.666 38 -201.999
c43.333 -56 104.666 -84 183.999 -84c82 0 156 27.667 222 83c65.333 55.333 106.666 124.333 123.999 207c18 83.333 5.66699 152.333 -37 207zM1358 1641l-459 222l156 239l440 -262zM1096 1311l-70 119l-119 -119h-332l392 340h221l235 -340h-327z" />
    <glyph glyph-name="uni1EA8" unicode="&#x1ea8;" 
d="M1114 0l-27 219h-526l-127 -219h-416l930 1516h305l281 -1516h-420zM1004 1044h-6l-266 -518h318zM1775 2146c-10.667 -12.667 -22.9971 -25.665 -36.9971 -38.998c-12 -10.667 -26 -22.334 -42 -35.001l-40 -32c-16 -12 -28.667 -22.333 -38 -31
c-25.333 -23.333 -41 -46 -47 -68h-174c6 30.667 21.333 60.667 46 90c9.33301 11.333 21 23.333 35 35.999c10 9.33301 22.667 20.333 38 33l39 31c14 12 25.333 22.333 34 31c22.667 22.667 36 44.334 40 65c9.33301 41.333 -5.33398 62 -44.001 62
c-28 0 -49.333 -10 -64 -30c-10.667 -13.333 -19.334 -35.333 -26.001 -66h-183c0 2.66699 0.333008 5.66699 1 9l2 9c15.333 73.333 53.333 133.666 114 181c60 45.333 127.333 68 202 68c101.333 0 164.666 -40 189.999 -120c10 -30 11.667 -60.667 5 -92
c-8 -36.667 -25 -70.667 -51 -102zM1223 1649l-69 118l-119 -118h-332l391 340h221l236 -340h-328z" />
    <glyph glyph-name="uni1EA9" unicode="&#x1ea9;" horiz-adv-x="1441" 
d="M976 0l26.001 123h-4c-40 -54.667 -96.333 -96.334 -169 -125.001c-62.667 -24.667 -128.334 -37 -197.001 -37c-171.333 0 -298 59 -380 177c-78 114.667 -98.667 258.334 -62 431.001c36 170 118.667 312.667 248 428c134 119.333 284.667 179 452 179
c68 0 128 -12.667 180 -38c58 -28 97.333 -68.667 118 -122h4l26 121h340l-242 -1137h-340zM1060 776c-42.667 54.667 -105.331 81.999 -187.998 81.999c-82 0 -155.667 -28.667 -221 -86c-63.333 -55.333 -104 -124.333 -122 -207c-16.667 -79.333 -4 -146.666 38 -201.999
c43.333 -56 104.666 -84 183.999 -84c82 0 156 27.667 222 83c65.333 55.333 106.666 124.333 123.999 207c18 83.333 5.66699 152.333 -37 207zM1735 1745c-10.667 -12.667 -23.001 -25.666 -37.001 -38.999c-12 -10.667 -26 -22.334 -42 -35.001l-41 -32
c-15.333 -12 -27.666 -22.333 -36.999 -31c-25.333 -23.333 -41.333 -46 -48 -68h-174c6.66699 30.667 22.334 60.667 47.001 90c9.33301 11.333 21 23.333 35 36c10 9.33301 22.667 20.333 38 33l38 31l35 31c22 22.667 35 44.334 39 65.001
c9.33301 41.333 -5.33398 62 -44.001 62c-27.333 0 -48.666 -10 -63.999 -30c-10 -13.333 -18.667 -35.333 -26 -66h-183c0.666992 2.66699 1 5.66699 1 9l2 9c15.333 73.333 53.666 133.666 114.999 180.999c60 45.333 127 68 201 68c102 0 165.333 -40 190 -120
c10 -30 11.667 -60.667 5 -92c-8 -36.667 -24.667 -70.667 -50 -102zM1096 1311l-70 119l-119 -119h-332l392 340h221l235 -340h-327z" />
    <glyph glyph-name="uni1EAA" unicode="&#x1eaa;" 
d="M1114 0l-27 219h-526l-127 -219h-416l930 1516h305l281 -1516h-420zM1004 1044h-6l-266 -518h318zM1697 2119c-91.333 -50.667 -174.001 -76 -248.001 -76c-22.667 0 -48.667 2.66699 -78 8l-161 37c-29.333 5.33301 -55 8 -77 8c-24 0 -50 -4 -78 -12l-78 -27l-84 181
c42.667 21.333 82 38 118 50c44.667 14 85.334 21 122.001 21c25.333 0 52.666 -2.66699 81.999 -8c11.333 -2 24.333 -4.66699 39 -8l78 -19c14.667 -3.33301 28.334 -6 41.001 -8c29.333 -5.33301 56.333 -8 81 -8c44.667 0 97 11.667 157 35zM1223 1649l-69 118
l-119 -118h-332l391 340h221l236 -340h-328z" />
    <glyph glyph-name="uni1EAB" unicode="&#x1eab;" horiz-adv-x="1441" 
d="M976 0l26.001 123h-4c-40 -54.667 -96.333 -96.334 -169 -125.001c-62.667 -24.667 -128.334 -37 -197.001 -37c-171.333 0 -298 59 -380 177c-78 114.667 -98.667 258.334 -62 431.001c36 170 118.667 312.667 248 428c134 119.333 284.667 179 452 179
c68 0 128 -12.667 180 -38c58 -28 97.333 -68.667 118 -122h4l26 121h340l-242 -1137h-340zM1060 776c-42.667 54.667 -105.331 81.999 -187.998 81.999c-82 0 -155.667 -28.667 -221 -86c-63.333 -55.333 -104 -124.333 -122 -207c-16.667 -79.333 -4 -146.666 38 -201.999
c43.333 -56 104.666 -84 183.999 -84c82 0 156 27.667 222 83c65.333 55.333 106.666 124.333 123.999 207c18 83.333 5.66699 152.333 -37 207zM1569 1805c-92 -50.667 -174.668 -76 -248.001 -76c-23.333 0 -49.666 3 -78.999 9l-161 36c-28.667 5.33301 -54 8 -76 8
c-24.667 0 -50.667 -3.66699 -78 -11l-78 -27l-84 180c42.667 22 82.334 38.667 119.001 50c43.333 14 83.666 21 120.999 21c24.667 0 51.667 -2.66699 81 -8c12.667 -2 26.334 -4.66699 41.001 -8l78 -19c14 -3.33301 27 -6 39 -8c29.333 -5.33301 56.666 -8 81.999 -8
c44.667 0 97 11.667 157 35zM1096 1311l-70 119l-119 -119h-332l392 340h221l235 -340h-327z" />
    <glyph glyph-name="uni1EAC" unicode="&#x1eac;" 
d="M1114 0l-27 219h-526l-127 -219h-416l930 1516h305l281 -1516h-420zM1004 1044h-6l-266 -518h318zM509 -491l65 309h326l-65 -309h-326zM1223 1649l-69 118l-119 -118h-332l391 340h221l236 -340h-328z" />
    <glyph glyph-name="uni1EAD" unicode="&#x1ead;" horiz-adv-x="1441" 
d="M976 0l26.001 123h-4c-40 -54.667 -96.333 -96.334 -169 -125.001c-62.667 -24.667 -128.334 -37 -197.001 -37c-171.333 0 -298 59 -380 177c-78 114.667 -98.667 258.334 -62 431.001c36 170 118.667 312.667 248 428c134 119.333 284.667 179 452 179
c68 0 128 -12.667 180 -38c58 -28 97.333 -68.667 118 -122h4l26 121h340l-242 -1137h-340zM1060 776c-42.667 54.667 -105.331 81.999 -187.998 81.999c-82 0 -155.667 -28.667 -221 -86c-63.333 -55.333 -104 -124.333 -122 -207c-16.667 -79.333 -4 -146.666 38 -201.999
c43.333 -56 104.666 -84 183.999 -84c82 0 156 27.667 222 83c65.333 55.333 106.666 124.333 123.999 207c18 83.333 5.66699 152.333 -37 207zM484.004 -491.001l65 309h326l-65 -309h-326zM1096 1311l-70 119l-119 -119h-332l392 340h221l235 -340h-327z" />
    <glyph glyph-name="uni1EAE" unicode="&#x1eae;" 
d="M1114 0l-27 219h-526l-127 -219h-416l930 1516h305l281 -1516h-420zM1004 1044h-6l-266 -518h318zM1143 1924l-53 201l547 264l57 -242zM1608 1927c-28.667 -103.333 -93.333 -180.666 -194 -231.999c-82 -42 -179 -63 -291 -63c-112.667 0 -201 21 -265 63
c-76.667 51.333 -108 128.666 -94 231.999h232c17.333 -30 43 -50 77 -60c24 -8 59.667 -12 107 -12c39.333 0 74 4.66699 104 14c38 12 69 31.333 93 58h231z" />
    <glyph glyph-name="uni1EAF" unicode="&#x1eaf;" horiz-adv-x="1441" 
d="M976 0l26.001 123h-4c-40 -54.667 -96.333 -96.334 -169 -125.001c-62.667 -24.667 -128.334 -37 -197.001 -37c-171.333 0 -298 59 -380 177c-78 114.667 -98.667 258.334 -62 431.001c36 170 118.667 312.667 248 428c134 119.333 284.667 179 452 179
c68 0 128 -12.667 180 -38c58 -28 97.333 -68.667 118 -122h4l26 121h340l-242 -1137h-340zM1060 776c-42.667 54.667 -105.331 81.999 -187.998 81.999c-82 0 -155.667 -28.667 -221 -86c-63.333 -55.333 -104 -124.333 -122 -207c-16.667 -79.333 -4 -146.666 38 -201.999
c43.333 -56 104.666 -84 183.999 -84c82 0 156 27.667 222 83c65.333 55.333 106.666 124.333 123.999 207c18 83.333 5.66699 152.333 -37 207zM1108 1588l-54 201l548 264l57 -242zM1537 1594c-28.667 -103.333 -93 -180.666 -193 -231.999c-82.667 -42 -180 -63 -292 -63
c-112.667 0 -200.667 21 -264 63c-77.333 51.333 -109 128.666 -95 231.999h232c17.333 -30 43 -50 77 -60c24.667 -8 60.667 -12 108 -12c39.333 0 74 4.66699 104 14c37.333 12 68 31.333 92 58h231z" />
    <glyph glyph-name="uni1EB0" unicode="&#x1eb0;" 
d="M1114 0l-27 219h-526l-127 -219h-416l930 1516h305l281 -1516h-420zM1004 1044h-6l-266 -518h318zM1291 1950l-459 221l155 240l441 -262zM1608 1927c-28.667 -103.333 -93.333 -180.666 -194 -231.999c-82 -42 -179 -63 -291 -63c-112.667 0 -201 21 -265 63
c-76.667 51.333 -108 128.666 -94 231.999h232c17.333 -30 43 -50 77 -60c24 -8 59.667 -12 107 -12c39.333 0 74 4.66699 104 14c38 12 69 31.333 93 58h231z" />
    <glyph glyph-name="uni1EB1" unicode="&#x1eb1;" horiz-adv-x="1441" 
d="M976 0l26.001 123h-4c-40 -54.667 -96.333 -96.334 -169 -125.001c-62.667 -24.667 -128.334 -37 -197.001 -37c-171.333 0 -298 59 -380 177c-78 114.667 -98.667 258.334 -62 431.001c36 170 118.667 312.667 248 428c134 119.333 284.667 179 452 179
c68 0 128 -12.667 180 -38c58 -28 97.333 -68.667 118 -122h4l26 121h340l-242 -1137h-340zM1060 776c-42.667 54.667 -105.331 81.999 -187.998 81.999c-82 0 -155.667 -28.667 -221 -86c-63.333 -55.333 -104 -124.333 -122 -207c-16.667 -79.333 -4 -146.666 38 -201.999
c43.333 -56 104.666 -84 183.999 -84c82 0 156 27.667 222 83c65.333 55.333 106.666 124.333 123.999 207c18 83.333 5.66699 152.333 -37 207zM1184 1581l-459 222l156 239l439 -262zM1537 1594c-28.667 -103.333 -93 -180.666 -193 -231.999
c-82.667 -42 -180 -63 -292 -63c-112.667 0 -200.667 21 -264 63c-77.333 51.333 -109 128.666 -95 231.999h232c17.333 -30 43 -50 77 -60c24.667 -8 60.667 -12 108 -12c39.333 0 74 4.66699 104 14c37.333 12 68 31.333 92 58h231z" />
    <glyph glyph-name="uni1EB2" unicode="&#x1eb2;" 
d="M1114 0l-27 219h-526l-127 -219h-416l930 1516h305l281 -1516h-420zM1004 1044h-6l-266 -518h318zM1488 2146c-10.667 -12.667 -22.9971 -25.665 -36.9971 -38.998c-12 -10.667 -26 -22.334 -42 -35.001l-40 -32c-16 -12 -28.667 -22.333 -38 -31
c-25.333 -23.333 -41 -46 -47 -68h-174c6 30.667 21.333 60.667 46 90c9.33301 11.333 21 23.333 35 35.999c10 9.33301 22.667 20.333 38 33l39 31c14 12 25.333 22.333 34 31c22.667 22.667 36 44.334 40 65c9.33301 41.333 -5.33398 62 -44.001 62
c-28 0 -49.333 -10 -64 -30c-10.667 -13.333 -19.334 -35.333 -26.001 -66h-183c0 2.66699 0.333008 5.66699 1 9l2 9c15.333 73.333 53.333 133.666 114 181c60 45.333 127.333 68 202 68c101.333 0 164.666 -40 189.999 -120c10 -30 11.667 -60.667 5 -92
c-8 -36.667 -25 -70.667 -51 -102zM1608 1927c-28.667 -103.333 -93.333 -180.666 -194 -231.999c-82 -42 -179 -63 -291 -63c-112.667 0 -201 21 -265 63c-76.667 51.333 -108 128.666 -94 231.999h232c17.333 -30 43 -50 77 -60c24 -8 59.667 -12 107 -12
c39.333 0 74 4.66699 104 14c38 12 69 31.333 93 58h231z" />
    <glyph glyph-name="uni1EB3" unicode="&#x1eb3;" horiz-adv-x="1441" 
d="M976 0l26.001 123h-4c-40 -54.667 -96.333 -96.334 -169 -125.001c-62.667 -24.667 -128.334 -37 -197.001 -37c-171.333 0 -298 59 -380 177c-78 114.667 -98.667 258.334 -62 431.001c36 170 118.667 312.667 248 428c134 119.333 284.667 179 452 179
c68 0 128 -12.667 180 -38c58 -28 97.333 -68.667 118 -122h4l26 121h340l-242 -1137h-340zM1060 776c-42.667 54.667 -105.331 81.999 -187.998 81.999c-82 0 -155.667 -28.667 -221 -86c-63.333 -55.333 -104 -124.333 -122 -207c-16.667 -79.333 -4 -146.666 38 -201.999
c43.333 -56 104.666 -84 183.999 -84c82 0 156 27.667 222 83c65.333 55.333 106.666 124.333 123.999 207c18 83.333 5.66699 152.333 -37 207zM1415 1812c-10.667 -12.667 -23.002 -25.666 -37.002 -38.999c-11.333 -10.667 -25 -22.334 -41 -35.001l-42 -32
c-15.333 -12 -27.666 -22.333 -36.999 -31c-25.333 -23.333 -41.333 -46 -48 -68h-174c6.66699 30.667 22.334 60.667 47.001 90c9.33301 11.333 21 23.333 35 36c10 9.33301 22.667 20.333 38 33l38 31l35 31c22 22.667 35 44.334 39 65.001
c9.33301 41.333 -5.33398 62 -44.001 62c-27.333 0 -48.666 -10 -63.999 -30c-10 -13.333 -18.667 -35.333 -26 -66h-183c0.666992 2.66699 1 5.66699 1 9l2 9c15.333 73.333 54 133.666 116 180.999c59.333 45.333 126 68 200 68c102 0 165.333 -40 190 -120
c10 -30 11.667 -60.667 5 -92c-8 -36.667 -24.667 -70.667 -50 -102zM1537 1594c-28.667 -103.333 -93 -180.666 -193 -231.999c-82.667 -42 -180 -63 -292 -63c-112.667 0 -200.667 21 -264 63c-77.333 51.333 -109 128.666 -95 231.999h232c17.333 -30 43 -50 77 -60
c24.667 -8 60.667 -12 108 -12c39.333 0 74 4.66699 104 14c37.333 12 68 31.333 92 58h231z" />
    <glyph glyph-name="uni1EB4" unicode="&#x1eb4;" 
d="M1114 0l-27 219h-526l-127 -219h-416l930 1516h305l281 -1516h-420zM1004 1044h-6l-266 -518h318zM1697 2119c-91.333 -50.667 -174.001 -76 -248.001 -76c-22.667 0 -48.667 2.66699 -78 8l-161 37c-29.333 5.33301 -55 8 -77 8c-24 0 -50 -4 -78 -12l-78 -27l-84 181
c42.667 21.333 82 38 118 50c44.667 14 85.334 21 122.001 21c25.333 0 52.666 -2.66699 81.999 -8c11.333 -2 24.333 -4.66699 39 -8l78 -19c14.667 -3.33301 28.334 -6 41.001 -8c29.333 -5.33301 56.333 -8 81 -8c44.667 0 97 11.667 157 35zM1608 1927
c-28.667 -103.333 -93.333 -180.666 -194 -231.999c-82 -42 -179 -63 -291 -63c-112.667 0 -201 21 -265 63c-76.667 51.333 -108 128.666 -94 231.999h232c17.333 -30 43 -50 77 -60c24 -8 59.667 -12 107 -12c39.333 0 74 4.66699 104 14c38 12 69 31.333 93 58h231z" />
    <glyph glyph-name="uni1EB5" unicode="&#x1eb5;" horiz-adv-x="1441" 
d="M976 0l26.001 123h-4c-40 -54.667 -96.333 -96.334 -169 -125.001c-62.667 -24.667 -128.334 -37 -197.001 -37c-171.333 0 -298 59 -380 177c-78 114.667 -98.667 258.334 -62 431.001c36 170 118.667 312.667 248 428c134 119.333 284.667 179 452 179
c68 0 128 -12.667 180 -38c58 -28 97.333 -68.667 118 -122h4l26 121h340l-242 -1137h-340zM1060 776c-42.667 54.667 -105.331 81.999 -187.998 81.999c-82 0 -155.667 -28.667 -221 -86c-63.333 -55.333 -104 -124.333 -122 -207c-16.667 -79.333 -4 -146.666 38 -201.999
c43.333 -56 104.666 -84 183.999 -84c82 0 156 27.667 222 83c65.333 55.333 106.666 124.333 123.999 207c18 83.333 5.66699 152.333 -37 207zM1550 1724c-92 -50.667 -174.668 -76 -248.001 -76c-23.333 0 -49.666 3 -78.999 9l-161 36c-28.667 5.33301 -54 8 -76 8
c-24.667 0 -50.667 -3.66699 -78 -11l-78 -27l-84 180c42.667 22 82 38.667 118 50c44 14 84.667 21 122 21c24.667 0 51.667 -2.66699 81 -8c12.667 -2 26.334 -4.66699 41.001 -8l78 -19c14 -3.33301 27 -6 39 -8c29.333 -5.33301 56.666 -8 81.999 -8
c44.667 0 97 11.667 157 35zM1537 1594c-28.667 -103.333 -93 -180.666 -193 -231.999c-82.667 -42 -180 -63 -292 -63c-112.667 0 -200.667 21 -264 63c-77.333 51.333 -109 128.666 -95 231.999h232c17.333 -30 43 -50 77 -60c24.667 -8 60.667 -12 108 -12
c39.333 0 74 4.66699 104 14c37.333 12 68 31.333 92 58h231z" />
    <glyph glyph-name="uni1EB6" unicode="&#x1eb6;" 
d="M1114 0l-27 219h-526l-127 -219h-416l930 1516h305l281 -1516h-420zM1004 1044h-6l-266 -518h318zM509 -491l65 309h326l-65 -309h-326zM1608 1927c-28.667 -103.333 -93.333 -180.666 -194 -231.999c-82 -42 -179 -63 -291 -63c-112.667 0 -201 21 -265 63
c-76.667 51.333 -108 128.666 -94 231.999h232c17.333 -30 43 -50 77 -60c24 -8 59.667 -12 107 -12c39.333 0 74 4.66699 104 14c38 12 69 31.333 93 58h231z" />
    <glyph glyph-name="uni1EB7" unicode="&#x1eb7;" horiz-adv-x="1441" 
d="M976 0l26.001 123h-4c-40 -54.667 -96.333 -96.334 -169 -125.001c-62.667 -24.667 -128.334 -37 -197.001 -37c-171.333 0 -298 59 -380 177c-78 114.667 -98.667 258.334 -62 431.001c36 170 118.667 312.667 248 428c134 119.333 284.667 179 452 179
c68 0 128 -12.667 180 -38c58 -28 97.333 -68.667 118 -122h4l26 121h340l-242 -1137h-340zM1060 776c-42.667 54.667 -105.331 81.999 -187.998 81.999c-82 0 -155.667 -28.667 -221 -86c-63.333 -55.333 -104 -124.333 -122 -207c-16.667 -79.333 -4 -146.666 38 -201.999
c43.333 -56 104.666 -84 183.999 -84c82 0 156 27.667 222 83c65.333 55.333 106.666 124.333 123.999 207c18 83.333 5.66699 152.333 -37 207zM484.004 -491.001l65 309h326l-65 -309h-326zM1537 1594c-28.667 -103.333 -93 -180.666 -193 -231.999
c-82.667 -42 -180 -63 -292 -63c-112.667 0 -200.667 21 -264 63c-77.333 51.333 -109 128.666 -95 231.999h232c17.333 -30 43 -50 77 -60c24.667 -8 60.667 -12 108 -12c39.333 0 74 4.66699 104 14c37.333 12 68 31.333 92 58h231z" />
    <glyph glyph-name="uni1EB8" unicode="&#x1eb8;" horiz-adv-x="1081" 
d="M137 0l322 1516h842l-72 -340h-471l-50 -236h456l-72 -340h-456l-56 -260h471l-72 -340h-842zM291 -491l65 309h326l-65 -309h-326z" />
    <glyph glyph-name="uni1EB9" unicode="&#x1eb9;" horiz-adv-x="1323" 
d="M1348 465l-851.999 -0.000976562c-9.33301 -143.333 64 -215 220 -215c81.333 0 158 35.333 230 106h348c-76 -118 -168.667 -212 -278 -282c-116.667 -74 -237 -111 -361 -111c-166 0 -295 59 -387 177c-93.333 117.333 -122.333 259 -87 425
c35.333 166.667 123.333 309.667 264 429c142.667 121.333 296.667 182 462 182c172 0 302.667 -60.667 392 -182c87.333 -119.333 112.666 -265.666 75.999 -438.999c-7.33301 -32.667 -16.333 -62.667 -27 -90zM1064 693.999c0 130 -72 195 -216 195s-244 -65 -300 -195
h516zM391.001 -491.001l66 309h326l-66 -309h-326z" />
    <glyph glyph-name="uni1EBA" unicode="&#x1eba;" horiz-adv-x="1081" 
d="M137 0l322 1516h842l-72 -340h-471l-50 -236h456l-72 -340h-456l-56 -260h471l-72 -340h-842zM1186 1821c-10.667 -12.667 -23.001 -25.666 -37.001 -38.999c-12 -10.667 -26 -22.334 -42 -35.001l-41 -32c-15.333 -12 -27.666 -22.333 -36.999 -31
c-25.333 -23.333 -41.666 -46 -48.999 -68h-174c7.33301 30.667 23.333 60.667 48 90c9.33301 11.333 21 23.333 35 36c10 9.33301 22.667 20.333 38 33l38 31c14.667 12 26 22.333 34 31c22.667 22.667 36 44.334 40 65.001c8.66699 41.333 -6.33301 62 -45 62
c-27.333 0 -48.333 -10 -63 -30c-10 -13.333 -18.667 -35.333 -26 -66h-183c0.666992 2.66699 1 5.66699 1 9l2 9c15.333 73.333 53.666 133.666 114.999 180.999c60 45.333 127 68 201 68c102 0 165.333 -40 190 -120c10 -30 11.667 -60.667 5 -92
c-8 -36.667 -24.667 -70.667 -50 -102z" />
    <glyph glyph-name="uni1EBB" unicode="&#x1ebb;" horiz-adv-x="1323" 
d="M1348 465l-851.999 -0.000976562c-9.33301 -143.333 64 -215 220 -215c81.333 0 158 35.333 230 106h348c-76 -118 -168.667 -212 -278 -282c-116.667 -74 -237 -111 -361 -111c-166 0 -295 59 -387 177c-93.333 117.333 -122.333 259 -87 425
c35.333 166.667 123.333 309.667 264 429c142.667 121.333 296.667 182 462 182c172 0 302.667 -60.667 392 -182c87.333 -119.333 112.666 -265.666 75.999 -438.999c-7.33301 -32.667 -16.333 -62.667 -27 -90zM1064 693.999c0 130 -72 195 -216 195s-244 -65 -300 -195
h516zM1198 1487c-10.667 -12.667 -22.999 -25.666 -36.999 -38.999c-12 -10.667 -26 -22.334 -42 -35.001l-41 -32c-15.333 -12 -27.666 -22.333 -36.999 -31c-26 -23.333 -42 -46 -48 -68h-174c6.66699 30.667 22 60.667 46 90c10 11.333 22 23.333 36 36
c10 9.33301 22.667 20.333 38 33l39 31c14 12 25 22.333 33 31c23.333 22.667 37 44.334 41 65.001c8.66699 41.333 -6.33301 62 -45 62c-28 0 -49 -10 -63 -30c-10.667 -13.333 -19.334 -35.333 -26.001 -66h-183c0 2.66699 0.333008 5.66699 1 9l2 9
c15.333 73.333 53.333 133.666 114 180.999c60 45.333 127.333 68 202 68c101.333 0 164.666 -40 189.999 -120c10 -30 11.667 -60.667 5 -92c-8 -36.667 -25 -70.667 -51 -102z" />
    <glyph glyph-name="uni1EBC" unicode="&#x1ebc;" horiz-adv-x="1081" 
d="M137 0l322 1516h842l-72 -340h-471l-50 -236h456l-72 -340h-456l-56 -260h471l-72 -340h-842zM1338 1739c-91.333 -50.667 -173.999 -76 -247.999 -76c-22.667 0 -49 2.66699 -79 8l-161 37c-28.667 5.33301 -54 8 -76 8c-24 0 -50 -4 -78 -12l-78 -27l-84 181
c42.667 21.333 82.334 38 119.001 50c44 14 84.333 21 121 21c25.333 0 52.666 -2.66699 81.999 -8c12 -2 25.333 -4.66699 40 -8l78 -19c14.667 -3.33301 27.667 -6 39 -8c29.333 -5.33301 56.666 -8 81.999 -8c44.667 0 97 11.667 157 35z" />
    <glyph glyph-name="uni1EBD" unicode="&#x1ebd;" horiz-adv-x="1323" 
d="M1348 465l-851.999 -0.000976562c-9.33301 -143.333 64 -215 220 -215c81.333 0 158 35.333 230 106h348c-76 -118 -168.667 -212 -278 -282c-116.667 -74 -237 -111 -361 -111c-166 0 -295 59 -387 177c-93.333 117.333 -122.333 259 -87 425
c35.333 166.667 123.333 309.667 264 429c142.667 121.333 296.667 182 462 182c172 0 302.667 -60.667 392 -182c87.333 -119.333 112.666 -265.666 75.999 -438.999c-7.33301 -32.667 -16.333 -62.667 -27 -90zM1064 693.999c0 130 -72 195 -216 195s-244 -65 -300 -195
h516zM1373 1409c-91.333 -50.667 -173.999 -76 -247.999 -76c-22.667 0 -48.667 3 -78 9l-161 36c-30 5.33301 -55.667 8 -77 8c-24.667 0 -50.667 -3.66699 -78 -11l-78 -27l-84 180c42.667 22 82 38.667 118 50c44.667 14 85.667 21 123 21
c24.667 0 51.667 -2.66699 81 -8c11.333 -2 24.333 -4.66699 39 -8l79 -19c14 -3.33301 27.333 -6 40 -8c29.333 -5.33301 56.333 -8 81 -8c45.333 0 97.666 11.667 156.999 35z" />
    <glyph glyph-name="uni1EBE" unicode="&#x1ebe;" horiz-adv-x="1081" 
d="M137 0l322 1516h842l-72 -340h-471l-50 -236h457l-72 -340h-457l-56 -260h471l-72 -340h-842zM1313 1821l-53 201l547 264l57 -242zM998 1649l-69 118l-119 -118h-332l391 340h222l235 -340h-328z" />
    <glyph glyph-name="uni1EBF" unicode="&#x1ebf;" horiz-adv-x="1323" 
d="M1348 465l-851.999 -0.000976562c-9.33301 -143.333 64 -215 220 -215c81.333 0 158 35.333 230 106h348c-76 -118 -168.667 -212 -278 -282c-116.667 -74 -237 -111 -361 -111c-166 0 -295 59 -387 177c-93.333 117.333 -122.333 259 -87 425
c35.333 166.667 123.333 309.667 264 429c142.667 121.333 296.667 182 462 182c172 0 302.667 -60.667 392 -182c87.333 -119.333 112.666 -265.666 75.999 -438.999c-7.33301 -32.667 -16.333 -62.667 -27 -90zM1064 693.999c0 130 -72 195 -216 195s-244 -65 -300 -195
h516zM1323 1476l-54 201l548 264l57 -242zM1035 1311l-68 119l-120 -119h-332l393 340h221l234 -340h-328z" />
    <glyph glyph-name="uni1EC0" unicode="&#x1ec0;" horiz-adv-x="1081" 
d="M137 0l322 1516h842l-72 -340h-471l-50 -236h457l-72 -340h-457l-56 -260h471l-72 -340h-842zM1319 1960l-459 221l155 240l440 -262zM998 1649l-69 118l-119 -118h-332l391 340h222l235 -340h-328z" />
    <glyph glyph-name="uni1EC1" unicode="&#x1ec1;" horiz-adv-x="1323" 
d="M1348 465l-851.999 -0.000976562c-9.33301 -143.333 64 -215 220 -215c81.333 0 158 35.333 230 106h348c-76 -118 -168.667 -212 -278 -282c-116.667 -74 -237 -111 -361 -111c-166 0 -295 59 -387 177c-93.333 117.333 -122.333 259 -87 425
c35.333 166.667 123.333 309.667 264 429c142.667 121.333 296.667 182 462 182c172 0 302.667 -60.667 392 -182c87.333 -119.333 112.666 -265.666 75.999 -438.999c-7.33301 -32.667 -16.333 -62.667 -27 -90zM1064 693.999c0 130 -72 195 -216 195s-244 -65 -300 -195
h516zM1341 1591l-459 222l156 239l439 -262zM1035 1311l-68 119l-120 -119h-332l393 340h221l234 -340h-328z" />
    <glyph glyph-name="uni1EC2" unicode="&#x1ec2;" horiz-adv-x="1081" 
d="M137 0l322 1516h842l-72 -340h-471l-50 -236h457l-72 -340h-457l-56 -260h471l-72 -340h-842zM1569 2137c-10 -12.667 -22.3311 -25.667 -36.998 -39c-10.667 -10.667 -24.334 -22.334 -41.001 -35l-41 -32c-15.333 -12 -28 -22.333 -38 -31
c-24.667 -23.333 -40.334 -46 -47.001 -68h-174c6.66699 30.667 22.334 60.667 47.001 90c9.33301 11.333 20.666 23.333 33.999 36c10 9.33301 23 20.333 39 33l38 31c14 12 25.333 22.333 34 31c22.667 22.667 36 44.334 40 65c9.33301 41.333 -5.33398 62 -44.001 62
c-27.333 0 -48.666 -10 -63.999 -30c-10 -13.333 -18.667 -35.333 -26 -66h-183c0 2.66699 0.333008 5.66699 1 9l2 9c15.333 73.333 54 133.666 116 181c58.667 45.333 125.334 68 200.001 68c101.333 0 164.666 -40 189.999 -120c10 -30 11.667 -60.667 5 -92
c-8 -36.667 -25 -70.667 -51 -102zM998.002 1649l-69 118l-119 -118h-332l391 340h222l235 -340h-328z" />
    <glyph glyph-name="uni1EC3" unicode="&#x1ec3;" horiz-adv-x="1323" 
d="M1348 465l-851.999 -0.000976562c-9.33301 -143.333 64 -215 220 -215c81.333 0 158 35.333 230 106h348c-76 -118 -168.667 -212 -278 -282c-116.667 -74 -237 -111 -361 -111c-166 0 -295 59 -387 177c-93.333 117.333 -122.333 259 -87 425
c35.333 166.667 123.333 309.667 264 429c142.667 121.333 296.667 182 462 182c172 0 302.667 -60.667 392 -182c87.333 -119.333 112.666 -265.666 75.999 -438.999c-7.33301 -32.667 -16.333 -62.667 -27 -90zM1064 693.999c0 130 -72 195 -216 195s-244 -65 -300 -195
h516zM1608 1803c-10.667 -12.667 -22.999 -25.666 -36.999 -38.999c-12 -10.667 -26 -22.334 -42 -35.001l-40 -32c-16 -12 -28.667 -22.333 -38 -31c-25.333 -23.333 -41.333 -46 -48 -68h-174c6.66699 30.667 22.334 60.667 47.001 90c9.33301 11.333 21 23.333 35 36
c10 9.33301 22.667 20.333 38 33l39 31c14 12 25 22.333 33 31c23.333 22.667 37 44.334 41 65.001c8.66699 41.333 -6.33301 62 -45 62c-28 0 -49 -10 -63 -30c-10.667 -13.333 -19.334 -35.333 -26.001 -66h-183c0 2.66699 0.333008 5.66699 1 9l2 9
c15.333 73.333 53.333 133.666 114 180.999c60 45.333 127.333 68 202 68c101.333 0 164.666 -40 189.999 -120c10 -30 11.667 -60.667 5 -92c-8 -36.667 -25 -70.667 -51 -102zM1035 1311l-68 119l-120 -119h-332l393 340h221l234 -340h-328z" />
    <glyph glyph-name="uni1EC4" unicode="&#x1ec4;" horiz-adv-x="1081" 
d="M137 0l322 1516h842l-72 -340h-471l-50 -236h457l-72 -340h-457l-56 -260h471l-72 -340h-842zM1510 2110c-91.333 -50.667 -174 -76 -248 -76c-22.667 0 -48.667 2.66699 -78 8l-161 37c-29.333 5.33301 -54.666 8 -75.999 8c-24.667 0 -51 -4 -79 -12l-78 -27l-84 181
c42.667 21.333 82 38 118 50c44.667 14 85.667 21 123 21c24.667 0 51.667 -2.66699 81 -8c12.667 -2 25.667 -4.66699 39 -8l79 -19c14 -3.33301 27.333 -6 40 -8c29.333 -5.33301 56.333 -8 81 -8c45.333 0 97.666 11.667 156.999 35zM998 1649l-69 118l-119 -118h-332
l391 340h222l235 -340h-328z" />
    <glyph glyph-name="uni1EC5" unicode="&#x1ec5;" horiz-adv-x="1323" 
d="M1348 465l-851.999 -0.000976562c-9.33301 -143.333 64 -215 220 -215c81.333 0 158 35.333 230 106h348c-76 -118 -168.667 -212 -278 -282c-116.667 -74 -237 -111 -361 -111c-166 0 -295 59 -387 177c-93.333 117.333 -122.333 259 -87 425
c35.333 166.667 123.333 309.667 264 429c142.667 121.333 296.667 182 462 182c172 0 302.667 -60.667 392 -182c87.333 -119.333 112.666 -265.666 75.999 -438.999c-7.33301 -32.667 -16.333 -62.667 -27 -90zM1064 693.999c0 130 -72 195 -216 195s-244 -65 -300 -195
h516zM1502 1752c-91.333 -50.667 -173.999 -76 -247.999 -76c-22.667 0 -48.667 3 -78 9l-161 36c-30 5.33301 -55.667 8 -77 8c-24.667 0 -50.667 -3.66699 -78 -11l-78 -27l-84 180c42.667 22 82 38.667 118 50c44.667 14 85.667 21 123 21
c24.667 0 51.667 -2.66699 81 -8c11.333 -2 24.333 -4.66699 39 -8l79 -19c14 -3.33301 27 -6 39 -8c30 -5.33301 57.333 -8 82 -8c45.333 0 97.666 11.667 156.999 35zM1035 1311l-68 119l-120 -119h-332l393 340h221l234 -340h-328z" />
    <glyph glyph-name="uni1EC6" unicode="&#x1ec6;" horiz-adv-x="1081" 
d="M137 0l322 1516h842l-72 -340h-471l-50 -236h457l-72 -340h-457l-56 -260h471l-72 -340h-842zM292 -491l65 309h325l-65 -309h-325zM998 1649l-69 118l-119 -118h-332l391 340h222l235 -340h-328z" />
    <glyph glyph-name="uni1EC7" unicode="&#x1ec7;" horiz-adv-x="1323" 
d="M1348 465l-851.999 -0.000976562c-9.33301 -143.333 64 -215 220 -215c81.333 0 158 35.333 230 106h348c-76 -118 -168.667 -212 -278 -282c-116.667 -74 -237 -111 -361 -111c-166 0 -295 59 -387 177c-93.333 117.333 -122.333 259 -87 425
c35.333 166.667 123.333 309.667 264 429c142.667 121.333 296.667 182 462 182c172 0 302.667 -60.667 392 -182c87.333 -119.333 112.666 -265.666 75.999 -438.999c-7.33301 -32.667 -16.333 -62.667 -27 -90zM1064 693.999c0 130 -72 195 -216 195s-244 -65 -300 -195
h516zM391.001 -491.001l66 309h326l-66 -309h-326zM1035 1311l-68 119l-120 -119h-332l393 340h221l234 -340h-328z" />
    <glyph glyph-name="uni1EC8" unicode="&#x1ec8;" horiz-adv-x="661" 
d="M138 0l322 1516h387l-322 -1516h-387zM963 1821c-10.667 -12.667 -23.3301 -25.666 -37.9971 -38.999c-11.333 -10.667 -25.333 -22.334 -42 -35.001l-40 -32c-15.333 -12 -28 -22.333 -38 -31c-24.667 -23.333 -40.667 -46 -48 -68h-174
c7.33301 30.667 23.333 60.667 48 90c9.33301 11.333 20.666 23.333 33.999 36c10 9.33301 23 20.333 39 33l38 31c14 12 25 22.333 33 31c23.333 22.667 37 44.334 41 65.001c8.66699 41.333 -6.33301 62 -45 62c-27.333 0 -48.333 -10 -63 -30
c-10 -13.333 -18.667 -35.333 -26 -66h-183c0 2.66699 0.333008 5.66699 1 9l2 9c15.333 73.333 53.666 133.666 114.999 180.999c59.333 45.333 126.333 68 201 68c101.333 0 164.666 -40 189.999 -120c10 -30 11.667 -60.667 5 -92c-8 -36.667 -24.667 -70.667 -50 -102z
" />
    <glyph glyph-name="uni1EC9" unicode="&#x1ec9;" horiz-adv-x="585" 
d="M122 0l242 1137h340l-242 -1137h-340zM854 1487c-10.667 -12.667 -23.3301 -25.666 -37.9971 -38.999c-11.333 -10.667 -25.333 -22.334 -42 -35.001l-40 -32c-15.333 -12 -28 -22.333 -38 -31c-24.667 -23.333 -40.667 -46 -48 -68h-174
c7.33301 30.667 23.333 60.667 48 90c9.33301 11.333 20.666 23.333 33.999 36c10 9.33301 23 20.333 39 33l38 31c14 12 25 22.333 33 31c23.333 22.667 37 44.334 41 65.001c8.66699 41.333 -6.33301 62 -45 62c-27.333 0 -48.333 -10 -63 -30
c-10 -13.333 -18.667 -35.333 -26 -66h-183c0 2.66699 0.333008 5.66699 1 9l2 9c15.333 73.333 53.666 133.666 114.999 180.999c59.333 45.333 126.333 68 201 68c101.333 0 164.666 -40 189.999 -120c10 -30 11.667 -60.667 5 -92c-8 -36.667 -24.667 -70.667 -50 -102z
" />
    <glyph glyph-name="uni1ECA" unicode="&#x1eca;" horiz-adv-x="661" 
d="M137 0l323 1516h387l-323 -1516h-387zM64 -491l66 309h325l-66 -309h-325z" />
    <glyph glyph-name="uni1ECB" unicode="&#x1ecb;" horiz-adv-x="585" 
d="M390 1257l55 259h340l-55 -259h-340zM122 0l242 1137h340l-242 -1137h-340zM25 -491l66 309h326l-66 -309h-326z" />
    <glyph glyph-name="uni1ECC" unicode="&#x1ecc;" horiz-adv-x="1742" 
d="M1477 196c-187.333 -150 -392.667 -224.999 -616 -224.999c-217.333 0 -388 73.667 -512 221c-126.667 149.333 -167 331.666 -121 546.999c24 114.667 66.667 222.667 128 324c32 54 77 110.667 135 170c201.333 207.333 437 311 707 311
c222.667 0 395.334 -75.333 518.001 -226c123.333 -151.333 161.666 -338 114.999 -560c-47.333 -222.667 -165.333 -410 -354 -562zM1398 1068c-60.667 90.667 -151.002 136 -271.002 136c-121.333 0 -230.666 -44 -327.999 -132c-94 -84.667 -153.667 -188 -179 -310
c-26.667 -124.667 -11 -230 47 -316c60.667 -90 152.334 -135 275.001 -135c118 0 226 45.333 324 136c92.667 86 151.667 189 177 309c26 122 11 226 -45 312zM602.997 -490.999l66 309h326l-66 -309h-326z" />
    <glyph glyph-name="uni1ECD" unicode="&#x1ecd;" horiz-adv-x="1363" 
d="M1147 137c-140.667 -114.667 -298.333 -172 -473 -172s-308 57.333 -400 172c-92.667 114.667 -120.667 258.667 -84 432c37.333 174 126.666 318.333 267.999 433c140.667 114.667 298.334 172 473.001 172s308 -57.333 400 -172c93.333 -114.667 121.333 -259 84 -433
c-36.667 -173.333 -126 -317.333 -268 -432zM1041 770c-40.667 57.333 -100.002 86 -178.002 86c-77.333 0 -148.333 -28.667 -213 -86c-63.333 -55.333 -103.333 -122.333 -120 -201c-16.667 -78 -5 -145 35 -201c40 -56.667 98.667 -85 176 -85
c78 0 149.667 28.333 215 85c62.667 56 102.334 123 119.001 201c16.667 78.667 5.33398 145.667 -33.999 201zM414.999 -491l66 309h325l-66 -309h-325z" />
    <glyph glyph-name="uni1ECE" unicode="&#x1ece;" horiz-adv-x="1742" 
d="M1477 196c-187.333 -150 -392.667 -224.999 -616 -224.999c-217.333 0 -388 73.667 -512 221c-126.667 149.333 -167 331.666 -121 546.999c24 114.667 66.667 222.667 128 324c32 54 77 110.667 135 170c201.333 207.333 437 311 707 311
c222.667 0 395.334 -75.333 518.001 -226c123.333 -151.333 161.666 -338 114.999 -560c-47.333 -222.667 -165.333 -410 -354 -562zM1398 1068c-60.667 90.667 -151.002 136 -271.002 136c-121.333 0 -230.666 -44 -327.999 -132c-94 -84.667 -153.667 -188 -179 -310
c-26.667 -124.667 -11 -230 47 -316c60.667 -90 152.334 -135 275.001 -135c118 0 226 45.333 324 136c92.667 86 151.667 189 177 309c26 122 11 226 -45 312zM1481 1821c-10.667 -12.667 -23.666 -25.666 -38.999 -38.999c-10.667 -10.667 -24 -22.334 -40 -35.001
l-42 -32c-15.333 -12 -27.333 -22.333 -36 -31c-26 -23.333 -42.333 -46 -49 -68h-174c7.33301 30.667 23 60.667 47 90c10 11.333 22 23.333 36 36c10 9.33301 22.667 20.333 38 33l37 31l35 31c22 22.667 35.333 44.334 40 65.001c8.66699 41.333 -6.33301 62 -45 62
c-27.333 0 -48.333 -10 -63 -30c-10.667 -13.333 -19.334 -35.333 -26.001 -66h-183c0 2.66699 0.333008 5.66699 1 9l1 9c16 73.333 54.667 133.666 116 180.999c59.333 45.333 126 68 200 68c102 0 165.667 -40 191 -120c9.33301 -30 10.666 -60.667 3.99902 -92
c-7.33301 -36.667 -23.666 -70.667 -48.999 -102z" />
    <glyph glyph-name="uni1ECF" unicode="&#x1ecf;" horiz-adv-x="1363" 
d="M1147 137c-140.667 -114.667 -298.333 -172 -473 -172s-308 57.333 -400 172c-92.667 114.667 -120.667 258.667 -84 432c37.333 174 126.666 318.333 267.999 433c140.667 114.667 298.334 172 473.001 172s308 -57.333 400 -172c93.333 -114.667 121.333 -259 84 -433
c-36.667 -173.333 -126 -317.333 -268 -432zM1041 770c-40.667 57.333 -100.002 86 -178.002 86c-77.333 0 -148.333 -28.667 -213 -86c-63.333 -55.333 -103.333 -122.333 -120 -201c-16.667 -78 -5 -145 35 -201c40 -56.667 98.667 -85 176 -85
c78 0 149.667 28.333 215 85c62.667 56 102.334 123 119.001 201c16.667 78.667 5.33398 145.667 -33.999 201zM1220 1487c-10 -12.667 -22.333 -25.666 -37 -38.999c-10.667 -10.667 -24.334 -22.334 -41.001 -35.001l-41 -32c-15.333 -12 -28 -22.333 -38 -31
c-24.667 -23.333 -40.334 -46 -47.001 -68h-174c7.33301 30.667 23 60.667 47 90c10 11.333 21.667 23.333 35 36c10 9.33301 23 20.333 39 33l37 31c14 12 25.333 22.333 34 31c22.667 22.667 36.334 44.334 41.001 65.001c8.66699 41.333 -6.33301 62 -45 62
c-27.333 0 -48.666 -10 -63.999 -30c-10 -13.333 -18.667 -35.333 -26 -66h-183c0 2.66699 0.333008 5.66699 1 9l2 9c16 73.333 54.667 133.666 116 180.999c58.667 45.333 125.334 68 200.001 68c101.333 0 165 -40 191 -120c9.33301 -30 10.666 -60.667 3.99902 -92
c-8 -36.667 -25 -70.667 -51 -102z" />
    <glyph glyph-name="uni1ED0" unicode="&#x1ed0;" horiz-adv-x="1742" 
d="M1477 196c-187.333 -150 -392.667 -224.999 -616 -224.999c-217.333 0 -388 73.667 -512 221c-126.667 149.333 -167 331.666 -121 546.999c24 114.667 66.667 222.667 128 324c32 54 77 110.667 135 170c201.333 207.333 437 311 707 311
c222.667 0 395.334 -75.333 518.001 -226c123.333 -151.333 161.666 -338 114.999 -560c-47.333 -222.667 -165.333 -410 -354 -562zM1398 1068c-60.667 90.667 -151.002 136 -271.002 136c-121.333 0 -230.666 -44 -327.999 -132c-94 -84.667 -153.667 -188 -179 -310
c-26.667 -124.667 -11 -230 47 -316c60.667 -90 152.334 -135 275.001 -135c118 0 226 45.333 324 136c92.667 86 151.667 189 177 309c26 122 11 226 -45 312zM1614 1821l-54 201l547 264l58 -242zM1316 1649l-69 118l-119 -118h-332l391 340h221l236 -340h-328z" />
    <glyph glyph-name="uni1ED1" unicode="&#x1ed1;" horiz-adv-x="1363" 
d="M1147 137c-140.667 -114.667 -298.333 -172 -473 -172s-308 57.333 -400 172c-92.667 114.667 -120.667 258.667 -84 432c37.333 174 126.666 318.333 267.999 433c140.667 114.667 298.334 172 473.001 172s308 -57.333 400 -172c93.333 -114.667 121.333 -259 84 -433
c-36.667 -173.333 -126 -317.333 -268 -432zM1041 770c-40.667 57.333 -100.002 86 -178.002 86c-77.333 0 -148.333 -28.667 -213 -86c-63.333 -55.333 -103.333 -122.333 -120 -201c-16.667 -78 -5 -145 35 -201c40 -56.667 98.667 -85 176 -85
c78 0 149.667 28.333 215 85c62.667 56 102.334 123 119.001 201c16.667 78.667 5.33398 145.667 -33.999 201zM1352 1476l-54 201l548 264l56 -242zM1057 1311l-70 119l-119 -119h-332l392 340h221l235 -340h-327z" />
    <glyph glyph-name="uni1ED2" unicode="&#x1ed2;" horiz-adv-x="1742" 
d="M1477 196c-187.333 -150 -392.667 -224.999 -616 -224.999c-217.333 0 -388 73.667 -512 221c-126.667 149.333 -167 331.666 -121 546.999c24 114.667 66.667 222.667 128 324c32 54 77 110.667 135 170c201.333 207.333 437 311 707 311
c222.667 0 395.334 -75.333 518.001 -226c123.333 -151.333 161.666 -338 114.999 -560c-47.333 -222.667 -165.333 -410 -354 -562zM1398 1068c-60.667 90.667 -151.002 136 -271.002 136c-121.333 0 -230.666 -44 -327.999 -132c-94 -84.667 -153.667 -188 -179 -310
c-26.667 -124.667 -11 -230 47 -316c60.667 -90 152.334 -135 275.001 -135c118 0 226 45.333 324 136c92.667 86 151.667 189 177 309c26 122 11 226 -45 312zM1638 1960l-459 221l155 240l440 -262zM1316 1649l-69 118l-119 -118h-332l391 340h221l236 -340h-328z" />
    <glyph glyph-name="uni1ED3" unicode="&#x1ed3;" horiz-adv-x="1363" 
d="M1147 137c-140.667 -114.667 -298.333 -172 -473 -172s-308 57.333 -400 172c-92.667 114.667 -120.667 258.667 -84 432c37.333 174 126.666 318.333 267.999 433c140.667 114.667 298.334 172 473.001 172s308 -57.333 400 -172c93.333 -114.667 121.333 -259 84 -433
c-36.667 -173.333 -126 -317.333 -268 -432zM1041 770c-40.667 57.333 -100.002 86 -178.002 86c-77.333 0 -148.333 -28.667 -213 -86c-63.333 -55.333 -103.333 -122.333 -120 -201c-16.667 -78 -5 -145 35 -201c40 -56.667 98.667 -85 176 -85
c78 0 149.667 28.333 215 85c62.667 56 102.334 123 119.001 201c16.667 78.667 5.33398 145.667 -33.999 201zM1350 1627l-459 222l156 239l439 -262zM1057 1311l-70 119l-119 -119h-332l392 340h221l235 -340h-327z" />
    <glyph glyph-name="uni1ED4" unicode="&#x1ed4;" horiz-adv-x="1742" 
d="M1477 196c-187.333 -150 -392.667 -224.999 -616 -224.999c-217.333 0 -388 73.667 -512 221c-126.667 149.333 -167 331.666 -121 546.999c24 114.667 66.667 222.667 128 324c32 54 77 110.667 135 170c201.333 207.333 437 311 707 311
c222.667 0 395.334 -75.333 518.001 -226c123.333 -151.333 161.666 -338 114.999 -560c-47.333 -222.667 -165.333 -410 -354 -562zM1398 1068c-60.667 90.667 -151.002 136 -271.002 136c-121.333 0 -230.666 -44 -327.999 -132c-94 -84.667 -153.667 -188 -179 -310
c-26.667 -124.667 -11 -230 47 -316c60.667 -90 152.334 -135 275.001 -135c118 0 226 45.333 324 136c92.667 86 151.667 189 177 309c26 122 11 226 -45 312zM1901 2145c-11.333 -12.667 -24.333 -25.6641 -39 -38.9971c-10.667 -10.667 -24 -22.334 -40 -35.001l-42 -32
c-15.333 -12 -27.666 -22.333 -36.999 -31c-25.333 -23.333 -41.333 -46 -48 -68h-174c7.33301 30.667 23 60.667 47 90c10 11.333 22 23.333 36 35.999c10 9.33301 22.667 20.333 38 33l37 31l35 31c22 22.667 35.333 44.334 40 65c8.66699 41.333 -6.33301 62 -45 62
c-27.333 0 -48.333 -10 -63 -30c-10.667 -13.333 -19.334 -35.333 -26.001 -66h-183v9l2 9c16 73.333 54.667 133.666 116 180.999c59.333 45.333 126 68 200 68c102 0 165.667 -40 191 -120c9.33301 -30 10.666 -60.667 3.99902 -92
c-7.33301 -36.667 -23.666 -70.667 -48.999 -102zM1316 1649l-69 118l-119 -118h-332l391 340h221l236 -340h-328z" />
    <glyph glyph-name="uni1ED5" unicode="&#x1ed5;" horiz-adv-x="1363" 
d="M1147 137c-140.667 -114.667 -298.333 -172 -473 -172s-308 57.333 -400 172c-92.667 114.667 -120.667 258.667 -84 432c37.333 174 126.666 318.333 267.999 433c140.667 114.667 298.334 172 473.001 172s308 -57.333 400 -172c93.333 -114.667 121.333 -259 84 -433
c-36.667 -173.333 -126 -317.333 -268 -432zM1041 770c-40.667 57.333 -100.002 86 -178.002 86c-77.333 0 -148.333 -28.667 -213 -86c-63.333 -55.333 -103.333 -122.333 -120 -201c-16.667 -78 -5 -145 35 -201c40 -56.667 98.667 -85 176 -85
c78 0 149.667 28.333 215 85c62.667 56 102.334 123 119.001 201c16.667 78.667 5.33398 145.667 -33.999 201zM1627 1784c-10.667 -12.667 -23.3311 -25.666 -37.998 -38.999c-10.667 -10.667 -24.334 -22.334 -41.001 -35.001l-41 -32c-15.333 -12 -28 -22.333 -38 -31
c-24.667 -23.333 -40.334 -46 -47.001 -68h-174c7.33301 30.667 23 60.667 47 90c10 11.333 21.667 23.333 35 36c10 9.33301 23 20.333 39 33l37 31c14 12 25.333 22.333 34 31c22.667 22.667 36.334 44.334 41.001 65.001c8.66699 41.333 -6.33301 62 -45 62
c-27.333 0 -48.333 -10 -63 -30c-10.667 -13.333 -19.334 -35.333 -26.001 -66h-183c-0.666992 2.66699 -0.666992 5.66699 0 9l2 9c16 73.333 54.667 133.666 116 180.999c58.667 45.333 125.334 68 200.001 68c101.333 0 165 -40 191 -120
c9.33301 -30 10.666 -60.667 3.99902 -92c-7.33301 -36.667 -24 -70.667 -50 -102zM1057 1311l-70 119l-119 -119h-332l392 340h221l235 -340h-327z" />
    <glyph glyph-name="uni1ED6" unicode="&#x1ed6;" horiz-adv-x="1742" 
d="M1477 196c-187.333 -150 -392.667 -224.999 -616 -224.999c-217.333 0 -388 73.667 -512 221c-126.667 149.333 -167 331.666 -121 546.999c24 114.667 66.667 222.667 128 324c32 54 77 110.667 135 170c201.333 207.333 437 311 707 311
c222.667 0 395.334 -75.333 518.001 -226c123.333 -151.333 161.666 -338 114.999 -560c-47.333 -222.667 -165.333 -410 -354 -562zM1398 1068c-60.667 90.667 -151.002 136 -271.002 136c-121.333 0 -230.666 -44 -327.999 -132c-94 -84.667 -153.667 -188 -179 -310
c-26.667 -124.667 -11 -230 47 -316c60.667 -90 152.334 -135 275.001 -135c118 0 226 45.333 324 136c92.667 86 151.667 189 177 309c26 122 11 226 -45 312zM1831 2091c-90.667 -50.667 -173.001 -76 -247.001 -76c-22.667 0 -49 2.66699 -79 8l-161 37
c-29.333 5.33301 -55 8 -77 8c-24 0 -49.667 -4 -77 -12l-78 -27l-85 181c42.667 21.333 82.334 38 119.001 50c44 14 84.333 21 121 21c25.333 0 53 -2.66699 83 -8c11.333 -2 24.333 -4.66699 39 -8l78 -19c14.667 -3.33301 28 -6 40 -8c30 -5.33301 57.333 -8 82 -8
c44.667 0 97 11.667 157 35zM1316 1649l-69 118l-119 -118h-332l391 340h221l236 -340h-328z" />
    <glyph glyph-name="uni1ED7" unicode="&#x1ed7;" horiz-adv-x="1363" 
d="M1147 137c-140.667 -114.667 -298.333 -172 -473 -172s-308 57.333 -400 172c-92.667 114.667 -120.667 258.667 -84 432c37.333 174 126.666 318.333 267.999 433c140.667 114.667 298.334 172 473.001 172s308 -57.333 400 -172c93.333 -114.667 121.333 -259 84 -433
c-36.667 -173.333 -126 -317.333 -268 -432zM1041 770c-40.667 57.333 -100.002 86 -178.002 86c-77.333 0 -148.333 -28.667 -213 -86c-63.333 -55.333 -103.333 -122.333 -120 -201c-16.667 -78 -5 -145 35 -201c40 -56.667 98.667 -85 176 -85
c78 0 149.667 28.333 215 85c62.667 56 102.334 123 119.001 201c16.667 78.667 5.33398 145.667 -33.999 201zM1553 1753c-90.667 -50.667 -172.999 -76 -246.999 -76c-23.333 0 -49.666 3 -78.999 9l-162 36c-28.667 5.33301 -54 8 -76 8
c-24.667 0 -50.334 -3.66699 -77.001 -11l-78 -27l-85 180c42.667 22 82.334 38.667 119.001 50c43.333 14 83.666 21 120.999 21c24.667 0 52 -2.66699 82 -8c12 -2 25.333 -4.66699 40 -8l78 -19c14.667 -3.33301 27.667 -6 39 -8c29.333 -5.33301 56.666 -8 81.999 -8
c44.667 0 97 11.667 157 35zM1057 1311l-70 119l-119 -119h-332l392 340h221l235 -340h-327z" />
    <glyph glyph-name="uni1ED8" unicode="&#x1ed8;" horiz-adv-x="1742" 
d="M1477 196c-187.333 -150 -392.667 -224.999 -616 -224.999c-217.333 0 -388 73.667 -512 221c-126.667 149.333 -167 331.666 -121 546.999c24 114.667 66.667 222.667 128 324c32 54 77 110.667 135 170c201.333 207.333 437 311 707 311
c222.667 0 395.334 -75.333 518.001 -226c123.333 -151.333 161.666 -338 114.999 -560c-47.333 -222.667 -165.333 -410 -354 -562zM1398 1068c-60.667 90.667 -151.002 136 -271.002 136c-121.333 0 -230.666 -44 -327.999 -132c-94 -84.667 -153.667 -188 -179 -310
c-26.667 -124.667 -11 -230 47 -316c60.667 -90 152.334 -135 275.001 -135c118 0 226 45.333 324 136c92.667 86 151.667 189 177 309c26 122 11 226 -45 312zM602.997 -490.999l66 309h326l-66 -309h-326zM1316 1649l-69 118l-119 -118h-332l391 340h221l236 -340h-328z
" />
    <glyph glyph-name="uni1ED9" unicode="&#x1ed9;" horiz-adv-x="1363" 
d="M1147 137c-140.667 -114.667 -298.333 -172 -473 -172s-308 57.333 -400 172c-92.667 114.667 -120.667 258.667 -84 432c37.333 174 126.666 318.333 267.999 433c140.667 114.667 298.334 172 473.001 172s308 -57.333 400 -172c93.333 -114.667 121.333 -259 84 -433
c-36.667 -173.333 -126 -317.333 -268 -432zM1041 770c-40.667 57.333 -100.002 86 -178.002 86c-77.333 0 -148.333 -28.667 -213 -86c-63.333 -55.333 -103.333 -122.333 -120 -201c-16.667 -78 -5 -145 35 -201c40 -56.667 98.667 -85 176 -85
c78 0 149.667 28.333 215 85c62.667 56 102.334 123 119.001 201c16.667 78.667 5.33398 145.667 -33.999 201zM414.999 -491l66 309h325l-66 -309h-325zM1057 1311l-70 119l-119 -119h-332l392 340h221l235 -340h-327z" />
    <glyph glyph-name="uni1EDA" unicode="&#x1eda;" horiz-adv-x="1742" 
d="M1397 1068c-60 90.667 -150.332 136 -270.999 136s-229.667 -44 -327 -132c-94 -84.667 -153.667 -188 -179 -310c-26.667 -124.667 -11.334 -230 45.999 -316c60.667 -90 152.667 -135 276 -135c118 0 226 45.333 324 136c92.667 86 151.667 189 177 309
c26 122 10.667 226 -46 312zM1045 1589l-54 201l548 264l57 -242zM1748 1274c98 -143.333 125.666 -315.333 82.999 -516c-47.333 -222.667 -165.666 -410 -354.999 -562c-186.667 -150 -392 -225 -616 -225c-216.667 0 -387 73.667 -511 221
c-126.667 149.333 -167 331.666 -121 546.999c24 114.667 66.667 222.667 128 324c32 54 76.667 110.667 134 170c202 207.333 437.667 311 707 311c188 0 340.667 -53.667 458 -161c6.66699 2.66699 14 5.33398 22 8.00098c76.667 34 122 83.667 136 149h-80l48 228h229
l-50 -235c-29.333 -96.667 -76 -168.667 -140 -216c-24 -16.667 -48 -31 -72 -43z" />
    <glyph glyph-name="uni1EDB" unicode="&#x1edb;" horiz-adv-x="1363" 
d="M1040 770c-40.667 57.333 -99.668 86 -177.001 86s-148.333 -28.667 -213 -86c-63.333 -55.333 -103.333 -122.333 -120 -201c-16.667 -78 -5 -145 35 -201c40 -56.667 98.667 -85 176 -85s148.666 28.333 213.999 85c62.667 56 102.334 123 119.001 201
c16.667 78.667 5.33398 145.667 -33.999 201zM789.999 1272l-54 201l548 264l57 -242zM1378 931c54 -101.333 66.001 -222 36.001 -362c-36.667 -173.333 -125.667 -317.333 -267 -432c-140.667 -114.667 -298.334 -172 -473.001 -172s-308.334 57.333 -401.001 172
c-92 114.667 -119.667 258.667 -83 432c37.333 174 126.333 318.333 267 433c141.333 114.667 299.333 172 474 172c154 0 276 -44.333 366 -133c56.667 32.667 91 76.667 103 132h-80l48 228h229l-50 -235c-30 -96.667 -77 -168.667 -141 -216
c-9.33301 -6.66699 -18.666 -13 -27.999 -19z" />
    <glyph glyph-name="uni1EDC" unicode="&#x1edc;" horiz-adv-x="1742" 
d="M1397 1068c-60 90.667 -150.332 136 -270.999 136s-229.667 -44 -327 -132c-94 -84.667 -153.667 -188 -179 -310c-26.667 -124.667 -11.334 -230 45.999 -316c60.667 -90 152.667 -135 276 -135c118 0 226 45.333 324 136c92.667 86 151.667 189 177 309
c26 122 10.667 226 -46 312zM1372 1589l-459 221l156 240l440 -262zM1748 1274c98 -143.333 125.666 -315.333 82.999 -516c-47.333 -222.667 -165.666 -410 -354.999 -562c-186.667 -150 -392 -225 -616 -225c-216.667 0 -387 73.667 -511 221
c-126.667 149.333 -167 331.666 -121 546.999c24 114.667 66.667 222.667 128 324c32 54 76.667 110.667 134 170c202 207.333 437.667 311 707 311c188 0 340.667 -53.667 458 -161c6.66699 2.66699 14 5.33398 22 8.00098c76.667 34 122 83.667 136 149h-80l48 228h229
l-50 -235c-29.333 -96.667 -76 -168.667 -140 -216c-24 -16.667 -48 -31 -72 -43z" />
    <glyph glyph-name="uni1EDD" unicode="&#x1edd;" horiz-adv-x="1363" 
d="M1040 770c-40.667 57.333 -99.668 86 -177.001 86s-148.333 -28.667 -213 -86c-63.333 -55.333 -103.333 -122.333 -120 -201c-16.667 -78 -5 -145 35 -201c40 -56.667 98.667 -85 176 -85s148.666 28.333 213.999 85c62.667 56 102.334 123 119.001 201
c16.667 78.667 5.33398 145.667 -33.999 201zM1115 1257l-459 222l154 239l441 -262zM1378 931c54 -101.333 66.001 -222 36.001 -362c-36.667 -173.333 -125.667 -317.333 -267 -432c-140.667 -114.667 -298.334 -172 -473.001 -172s-308.334 57.333 -401.001 172
c-92 114.667 -119.667 258.667 -83 432c37.333 174 126.333 318.333 267 433c141.333 114.667 299.333 172 474 172c154 0 276 -44.333 366 -133c56.667 32.667 91 76.667 103 132h-80l48 228h229l-50 -235c-30 -96.667 -77 -168.667 -141 -216
c-9.33301 -6.66699 -18.666 -13 -27.999 -19z" />
    <glyph glyph-name="uni1EDE" unicode="&#x1ede;" horiz-adv-x="1742" 
d="M1397 1068c-60 90.667 -150.332 136 -270.999 136s-229.667 -44 -327 -132c-94 -84.667 -153.667 -188 -179 -310c-26.667 -124.667 -11.334 -230 45.999 -316c60.667 -90 152.667 -135 276 -135c118 0 226 45.333 324 136c92.667 86 151.667 189 177 309
c26 122 10.667 226 -46 312zM1481 1821c-10.667 -12.667 -23.667 -25.666 -39 -38.999c-10.667 -10.667 -24.334 -22.334 -41.001 -35.001l-41 -32c-15.333 -12 -27.666 -22.333 -36.999 -31c-25.333 -23.333 -41.333 -46 -48 -68h-174c7.33301 30.667 23 60.667 47 90
c10 11.333 21.667 23.333 35 36c10 9.33301 23 20.333 39 33l37 31c14 12 25.333 22.333 34 31c22.667 22.667 36.334 44.334 41.001 65.001c8.66699 41.333 -6.33301 62 -45 62c-27.333 0 -48.333 -10 -63 -30c-10.667 -13.333 -19.334 -35.333 -26.001 -66h-183
c-0.666992 2.66699 -0.333984 5.66699 0.999023 9l1 9c16 73.333 54.667 133.666 116 180.999c58.667 45.333 125.334 68 200.001 68c101.333 0 165 -40 191 -120c9.33301 -30 10.666 -60.667 3.99902 -92c-7.33301 -36.667 -23.666 -70.667 -48.999 -102zM1748 1274
c98 -143.333 125.666 -315.333 82.999 -516c-47.333 -222.667 -165.666 -410 -354.999 -562c-186.667 -150 -392 -225 -616 -225c-216.667 0 -387 73.667 -511 221c-126.667 149.333 -167 331.666 -121 546.999c24 114.667 66.667 222.667 128 324
c32 54 76.667 110.667 134 170c202 207.333 437.667 311 707 311c188 0 340.667 -53.667 458 -161c6.66699 2.66699 14 5.33398 22 8.00098c76.667 34 122 83.667 136 149h-80l48 228h229l-50 -235c-29.333 -96.667 -76 -168.667 -140 -216c-24 -16.667 -48 -31 -72 -43z
" />
    <glyph glyph-name="uni1EDF" unicode="&#x1edf;" horiz-adv-x="1363" 
d="M1040 770c-40.667 57.333 -99.668 86 -177.001 86s-148.333 -28.667 -213 -86c-63.333 -55.333 -103.333 -122.333 -120 -201c-16.667 -78 -5 -145 35 -201c40 -56.667 98.667 -85 176 -85s148.666 28.333 213.999 85c62.667 56 102.334 123 119.001 201
c16.667 78.667 5.33398 145.667 -33.999 201zM1220 1487c-10.667 -12.667 -23.001 -25.666 -37.001 -38.999c-11.333 -10.667 -25 -22.334 -41 -35.001l-41 -32c-16 -12 -28.667 -22.333 -38 -31c-25.333 -23.333 -41.333 -46 -48 -68h-174c7.33301 30.667 23 60.667 47 90
c10 11.333 22 23.333 36 36c10 9.33301 22.667 20.333 38 33l38 31c14 12 25.333 22.333 34 31c22 22.667 35.333 44.334 40 65.001c8.66699 41.333 -6.33301 62 -45 62c-27.333 0 -48.666 -10 -63.999 -30c-10 -13.333 -18.667 -35.333 -26 -66h-183
c0.666992 2.66699 1.33398 5.66699 2.00098 9l1 9c16 73.333 54.667 133.666 116 180.999c59.333 45.333 126 68 200 68c102 0 165.667 -40 191 -120c9.33301 -30 10.666 -60.667 3.99902 -92c-8 -36.667 -24.667 -70.667 -50 -102zM1378 931.001
c54 -101.333 66.001 -222 36.001 -362c-36.667 -173.333 -125.667 -317.333 -267 -432c-140.667 -114.667 -298.334 -172 -473.001 -172s-308.334 57.333 -401.001 172c-92 114.667 -119.667 258.667 -83 432c37.333 174 126.333 318.333 267 433
c141.333 114.667 299.333 172 474 172c154 0 276 -44.333 366 -133c56.667 32.667 91 76.667 103 132h-80l48 228h229l-50 -235c-30 -96.667 -77 -168.667 -141 -216c-9.33301 -6.66699 -18.666 -13 -27.999 -19z" />
    <glyph glyph-name="uni1EE0" unicode="&#x1ee0;" horiz-adv-x="1742" 
d="M1477 196c-187.333 -150 -392.667 -224.999 -616 -224.999c-217.333 0 -388 73.667 -512 221c-126.667 149.333 -167 331.666 -121 546.999c24 114.667 66.667 222.667 128 324c32 54 77 110.667 135 170c201.333 207.333 437 311 707 311
c222.667 0 395.334 -75.333 518.001 -226c123.333 -151.333 161.666 -338 114.999 -560c-47.333 -222.667 -165.333 -410 -354 -562zM1398 1068c-60.667 90.667 -151.002 136 -271.002 136c-121.333 0 -230.666 -44 -327.999 -132c-94 -84.667 -153.667 -188 -179 -310
c-26.667 -124.667 -11 -230 47 -316c60.667 -90 152.334 -135 275.001 -135c118 0 226 45.333 324 136c92.667 86 151.667 189 177 309c26 122 11 226 -45 312zM1654 1739c-90.667 -50.667 -173 -76 -247 -76c-22.667 0 -49 2.66699 -79 8l-160 37c-30 5.33301 -56 8 -78 8
c-24 0 -49.667 -4 -77 -12l-78 -27l-84 181c42 21.333 81.333 38 118 50c44.667 14 85.334 21 122.001 21c25.333 0 52.666 -2.66699 81.999 -8c11.333 -2 24.333 -4.66699 39 -8l78 -19c14.667 -3.33301 28 -6 40 -8c30 -5.33301 57.333 -8 82 -8
c44.667 0 97 11.667 157 35zM1781 1768h229l-50 -235c-29.333 -96.667 -76.333 -168.667 -141 -216s-132 -75 -202 -83l-101 -8l38 144l39 -1c16 0.666992 44 8 84 22c76.667 34 122 83.667 136 149h-80z" />
    <glyph glyph-name="uni1EE1" unicode="&#x1ee1;" horiz-adv-x="1363" 
d="M1040 770c-40.667 57.333 -99.668 86 -177.001 86s-148.333 -28.667 -213 -86c-63.333 -55.333 -103.333 -122.333 -120 -201c-16.667 -78 -5 -145 35 -201c40 -56.667 98.667 -85 176 -85s148.666 28.333 213.999 85c62.667 56 102.334 123 119.001 201
c16.667 78.667 5.33398 145.667 -33.999 201zM1502 1511c-91.333 -50.667 -174 -76 -248 -76c-22.667 0 -48.667 3 -78 9l-161 36c-29.333 5.33301 -54.666 8 -75.999 8c-24.667 0 -51 -3.66699 -79 -11l-77 -27l-85 180c42.667 22 82 38.667 118 50
c44.667 14 85.667 21 123 21c24.667 0 51.667 -2.66699 81 -8c12 -2 25 -4.66699 39 -8l79 -19c14 -3.33301 27.333 -6 40 -8c29.333 -5.33301 56.333 -8 81 -8c45.333 0 97.666 11.667 156.999 35zM1378 931c54 -101.333 66.001 -222 36.001 -362
c-36.667 -173.333 -125.667 -317.333 -267 -432c-140.667 -114.667 -298.334 -172 -473.001 -172s-308.334 57.333 -401.001 172c-92 114.667 -119.667 258.667 -83 432c37.333 174 126.333 318.333 267 433c141.333 114.667 299.333 172 474 172
c154 0 276 -44.333 366 -133c56.667 32.667 91 76.667 103 132h-80l48 228h229l-50 -235c-30 -96.667 -77 -168.667 -141 -216c-9.33301 -6.66699 -18.666 -13 -27.999 -19z" />
    <glyph glyph-name="uni1EE2" unicode="&#x1ee2;" horiz-adv-x="1742" 
d="M1397 1068c-60 90.667 -150.332 136 -270.999 136s-229.667 -44 -327 -132c-94 -84.667 -153.667 -188 -179 -310c-26.667 -124.667 -11.334 -230 45.999 -316c60.667 -90 152.667 -135 276 -135c118 0 226 45.333 324 136c92.667 86 151.667 189 177 309
c26 122 10.667 226 -46 312zM603.001 -491l66 309h325l-66 -309h-325zM1748 1274c98 -143.333 125.666 -315.333 82.999 -516c-47.333 -222.667 -165.666 -410 -354.999 -562c-186.667 -150 -392 -225 -616 -225c-216.667 0 -387 73.667 -511 221
c-126.667 149.333 -167 331.666 -121 546.999c24 114.667 66.667 222.667 128 324c32 54 76.667 110.667 134 170c202 207.333 437.667 311 707 311c188 0 340.667 -53.667 458 -161c6.66699 2.66699 14 5.33398 22 8.00098c76.667 34 122 83.667 136 149h-80l48 228h229
l-50 -235c-29.333 -96.667 -76 -168.667 -140 -216c-24 -16.667 -48 -31 -72 -43z" />
    <glyph glyph-name="uni1EE3" unicode="&#x1ee3;" horiz-adv-x="1363" 
d="M1040 770c-40.667 57.333 -99.668 86 -177.001 86s-148.333 -28.667 -213 -86c-63.333 -55.333 -103.333 -122.333 -120 -201c-16.667 -78 -5 -145 35 -201c40 -56.667 98.667 -85 176 -85s148.666 28.333 213.999 85c62.667 56 102.334 123 119.001 201
c16.667 78.667 5.33398 145.667 -33.999 201zM413.999 -491l66 309h326l-66 -309h-326zM1378 931c54 -101.333 66.001 -222 36.001 -362c-36.667 -173.333 -125.667 -317.333 -267 -432c-140.667 -114.667 -298.334 -172 -473.001 -172s-308.334 57.333 -401.001 172
c-92 114.667 -119.667 258.667 -83 432c37.333 174 126.333 318.333 267 433c141.333 114.667 299.333 172 474 172c154 0 276 -44.333 366 -133c56.667 32.667 91 76.667 103 132h-80l48 228h229l-50 -235c-30 -96.667 -77 -168.667 -141 -216
c-9.33301 -6.66699 -18.666 -13 -27.999 -19z" />
    <glyph glyph-name="uni1EE4" unicode="&#x1ee4;" horiz-adv-x="1429" 
d="M1423 600c-22 -103.333 -48.3359 -187.002 -79.0029 -251.002c-40.667 -82 -97.667 -153.333 -171 -214c-130 -109.333 -282.667 -164 -458 -164c-85.333 0 -161.666 12.333 -228.999 37c-75.333 28 -133 69.667 -173 125c-49.333 67.333 -76.666 139.333 -81.999 216
c-2 34.667 -0.333008 73.667 5 117c4.66699 34.667 12.667 79.334 24 134.001l195 916h387l-195 -916c-8 -40 -13.333 -74.333 -16 -103c-2 -36.667 0.666992 -67.667 8 -93c17.333 -62 65.333 -93 144 -93c81.333 0 142.333 30.333 183 91
c16.667 24.667 31.334 55.334 44.001 92.001c8 26.667 16.667 62 26 106l195 916h387zM446.997 -491.002l66 309h325l-66 -309h-325z" />
    <glyph glyph-name="uni1EE5" unicode="&#x1ee5;" horiz-adv-x="1298" 
d="M853 0l25.999 121.001h-4c-40 -58 -89.333 -99.667 -148 -125c-50.667 -22 -110.667 -33 -180 -33c-144.667 0 -246 47.667 -304 143c-31.333 53.333 -48 108.666 -50 165.999c-2 43.333 5.66699 105 23 185l144 680h340l-134 -629
c-15.333 -73.333 -15.333 -127.333 0 -162c18.667 -43.333 63.334 -65 134.001 -65c130 0 211.333 77 244 231l133 625h340l-242 -1137h-322zM413.999 -490.999l66 309h326l-66 -309h-326z" />
    <glyph glyph-name="uni1EE6" unicode="&#x1ee6;" horiz-adv-x="1429" 
d="M1423 600c-22 -103.333 -48.3359 -187.002 -79.0029 -251.002c-40.667 -82 -97.667 -153.333 -171 -214c-130 -109.333 -282.667 -164 -458 -164c-85.333 0 -161.666 12.333 -228.999 37c-75.333 28 -133 69.667 -173 125c-49.333 67.333 -76.666 139.333 -81.999 216
c-2 34.667 -0.333008 73.667 5 117c4.66699 34.667 12.667 79.334 24 134.001l195 916h387l-195 -916c-8 -40 -13.333 -74.333 -16 -103c-2 -36.667 0.666992 -67.667 8 -93c17.333 -62 65.333 -93 144 -93c81.333 0 142.333 30.333 183 91
c16.667 24.667 31.334 55.334 44.001 92.001c8 26.667 16.667 62 26 106l195 916h387zM1343 1821c-10 -12.667 -22.334 -25.666 -37.001 -38.999c-11.333 -10.667 -25.333 -22.334 -42 -35.001l-41 -32c-15.333 -12 -27.666 -22.333 -36.999 -31
c-25.333 -23.333 -41.333 -46 -48 -68h-174c6.66699 30.667 22.334 60.667 47.001 90c10 11.333 21.667 23.333 35 36c10 9.33301 23 20.333 39 33l38 31c13.333 12 24.333 22.333 33 31c22.667 22.667 36.334 44.334 41.001 65.001c8.66699 41.333 -6.33301 62 -45 62
c-27.333 0 -48.333 -10 -63 -30c-10 -13.333 -18.667 -35.333 -26 -66h-183c0 2.66699 0.333008 5.66699 1 9l2 9c15.333 73.333 53.666 133.666 114.999 180.999c59.333 45.333 126.333 68 201 68c101.333 0 164.666 -40 189.999 -120c10 -30 11.667 -60.667 5 -92
c-8 -36.667 -25 -70.667 -51 -102z" />
    <glyph glyph-name="uni1EE7" unicode="&#x1ee7;" horiz-adv-x="1298" 
d="M853 0l25.999 121.001h-4c-40 -58 -89.333 -99.667 -148 -125c-50.667 -22 -110.667 -33 -180 -33c-144.667 0 -246 47.667 -304 143c-31.333 53.333 -48 108.666 -50 165.999c-2 43.333 5.66699 105 23 185l144 680h340l-134 -629
c-15.333 -73.333 -15.333 -127.333 0 -162c18.667 -43.333 63.334 -65 134.001 -65c130 0 211.333 77 244 231l133 625h340l-242 -1137h-322zM1220 1487c-10 -12.667 -22.332 -25.666 -36.999 -38.999c-11.333 -10.667 -25 -22.334 -41 -35.001l-41 -32
c-16 -12 -28.667 -22.333 -38 -31c-24.667 -23.333 -40.334 -46 -47.001 -68h-174c6.66699 30.667 22 60.667 46 90c10 11.333 22 23.333 36 36c10 9.33301 22.667 20.333 38 33l38 31c14 12 25.333 22.333 34 31c22.667 22.667 36.334 44.334 41.001 65.001
c8.66699 41.333 -6.33301 62 -45 62c-28 0 -49.333 -10 -64 -30c-10 -13.333 -18.667 -35.333 -26 -66h-183c0 2.66699 0.333008 5.66699 1 9l2 9c16 73.333 54.333 133.666 115 180.999c59.333 45.333 126.333 68 201 68c101.333 0 165 -40 191 -120
c9.33301 -30 10.666 -60.667 3.99902 -92c-8 -36.667 -25 -70.667 -51 -102z" />
    <glyph glyph-name="uni1EE8" unicode="&#x1ee8;" horiz-adv-x="1429" 
d="M963 1589l-55 201l548 264l57 -242zM1563 1257l-140.001 -657.002c-22 -103.333 -48.333 -187 -79 -251c-40.667 -82 -97.667 -153.333 -171 -214c-130 -109.333 -282.667 -164 -458 -164c-84.667 0 -161 12.333 -229 37c-75.333 28 -133 69.667 -173 125
c-49.333 67.333 -76.666 139.333 -81.999 216c-2 34.667 0 73.667 6 117c4 34.667 11.667 79.334 23 134.001l195 916h387l-195 -916c-8 -40 -13.333 -74.333 -16 -103c-2 -36.667 0.666992 -67.667 8 -93c17.333 -62 65.333 -93 144 -93c81.333 0 142.333 30.333 183 91
c17.333 24.667 32 55.334 44 92.001c8 26.667 16.667 62 26 106l195 916h387l-17 -81c33.333 28.667 54.333 63.667 63 105h-80l49 228h229l-50 -235c-30 -96.667 -77 -168.667 -141 -216c-35.333 -25.333 -71.333 -45.333 -108 -60z" />
    <glyph glyph-name="uni1EE9" unicode="&#x1ee9;" horiz-adv-x="1298" 
d="M829 1272l-54 201l548 264l57 -242zM1362 878l-187.001 -877.999h-322l26 121h-4c-40 -58 -89.333 -99.667 -148 -125c-50.667 -22 -110.667 -33 -180 -33c-144.667 0 -246 47.667 -304 143c-31.333 53.333 -48.333 108.666 -51 165.999
c-1.33301 43.333 6.66699 105 24 185l144 680h340l-134 -629c-15.333 -73.333 -15.666 -127.333 -0.999023 -162c19.333 -43.333 64.333 -65 135 -65c130 0 211.333 77 244 231l133 625h340l-21 -98c58.667 33.333 94 78 106 134h-80l48 228h229l-50 -235
c-30 -96.667 -77 -168.667 -141 -216c-47.333 -34.667 -96 -58.667 -146 -72z" />
    <glyph glyph-name="uni1EEA" unicode="&#x1eea;" horiz-adv-x="1429" 
d="M1147 1589l-460 221l157 240l439 -262zM1563 1257l-140.001 -657.002c-22 -103.333 -48.333 -187 -79 -251c-40.667 -82 -97.667 -153.333 -171 -214c-130 -109.333 -282.667 -164 -458 -164c-84.667 0 -161 12.333 -229 37c-75.333 28 -133 69.667 -173 125
c-49.333 67.333 -76.666 139.333 -81.999 216c-2 34.667 0 73.667 6 117c4 34.667 11.667 79.334 23 134.001l195 916h387l-195 -916c-8 -40 -13.333 -74.333 -16 -103c-2 -36.667 0.666992 -67.667 8 -93c17.333 -62 65.333 -93 144 -93c81.333 0 142.333 30.333 183 91
c17.333 24.667 32 55.334 44 92.001c8 26.667 16.667 62 26 106l195 916h387l-17 -81c33.333 28.667 54.333 63.667 63 105h-80l49 228h229l-50 -235c-30 -96.667 -77 -168.667 -141 -216c-35.333 -25.333 -71.333 -45.333 -108 -60z" />
    <glyph glyph-name="uni1EEB" unicode="&#x1eeb;" horiz-adv-x="1298" 
d="M1010 1257l-458 222l155 239l440 -262zM1362 878l-187.001 -877.999h-322l26 121h-4c-40 -58 -89.333 -99.667 -148 -125c-50.667 -22 -110.667 -33 -180 -33c-144.667 0 -246 47.667 -304 143c-31.333 53.333 -48.333 108.666 -51 165.999
c-1.33301 43.333 6.66699 105 24 185l144 680h340l-134 -629c-15.333 -73.333 -15.666 -127.333 -0.999023 -162c19.333 -43.333 64.333 -65 135 -65c130 0 211.333 77 244 231l133 625h340l-21 -98c58.667 33.333 94 78 106 134h-80l48 228h229l-50 -235
c-30 -96.667 -77 -168.667 -141 -216c-47.333 -34.667 -96 -58.667 -146 -72z" />
    <glyph glyph-name="uni1EEC" unicode="&#x1eec;" horiz-adv-x="1429" 
d="M1344 1821c-10.667 -12.667 -23.333 -25.666 -38 -38.999c-11.333 -10.667 -25.333 -22.334 -42 -35.001l-41 -32c-15.333 -12 -27.666 -22.333 -36.999 -31c-25.333 -23.333 -41.333 -46 -48 -68h-174c7.33301 30.667 23 60.667 47 90c10 11.333 21.667 23.333 35 36
c10 9.33301 23 20.333 39 33l38 31c13.333 12 24.333 22.333 33 31c22.667 22.667 36.334 44.334 41.001 65.001c8.66699 41.333 -6.33301 62 -45 62c-27.333 0 -48.333 -10 -63 -30c-10 -13.333 -18.667 -35.333 -26 -66h-183c0 2.66699 0.333008 5.66699 1 9l2 9
c15.333 73.333 53.666 133.666 114.999 180.999c59.333 45.333 126.333 68 201 68c101.333 0 164.666 -40 189.999 -120c10 -30 11.667 -60.667 5 -92c-8 -36.667 -24.667 -70.667 -50 -102zM1563 1257l-140.001 -657.002c-22 -103.333 -48.333 -187 -79 -251
c-40.667 -82 -97.667 -153.333 -171 -214c-130 -109.333 -282.667 -164 -458 -164c-84.667 0 -161 12.333 -229 37c-75.333 28 -133 69.667 -173 125c-49.333 67.333 -76.666 139.333 -81.999 216c-2 34.667 0 73.667 6 117c4 34.667 11.667 79.334 23 134.001l195 916h387
l-195 -916c-8 -40 -13.333 -74.333 -16 -103c-2 -36.667 0.666992 -67.667 8 -93c17.333 -62 65.333 -93 144 -93c81.333 0 142.333 30.333 183 91c17.333 24.667 32 55.334 44 92.001c8 26.667 16.667 62 26 106l195 916h387l-17 -81c33.333 28.667 54.333 63.667 63 105
h-80l49 228h229l-50 -235c-30 -96.667 -77 -168.667 -141 -216c-35.333 -25.333 -71.333 -45.333 -108 -60z" />
    <glyph glyph-name="uni1EED" unicode="&#x1eed;" horiz-adv-x="1298" 
d="M1220 1487c-10.667 -12.667 -23.001 -25.666 -37.001 -38.999c-11.333 -10.667 -25 -22.334 -41 -35.001l-41 -32c-16 -12 -28.667 -22.333 -38 -31c-25.333 -23.333 -41.333 -46 -48 -68h-174c7.33301 30.667 23 60.667 47 90c10 11.333 22 23.333 36 36
c10 9.33301 22.667 20.333 38 33l38 31c14 12 25.333 22.333 34 31c22 22.667 35.333 44.334 40 65.001c8.66699 41.333 -6.33301 62 -45 62c-27.333 0 -48.666 -10 -63.999 -30c-10 -13.333 -18.667 -35.333 -26 -66h-183c0.666992 2.66699 1.33398 5.66699 2.00098 9l1 9
c16 73.333 54.667 133.666 116 180.999c59.333 45.333 126 68 200 68c102 0 165.667 -40 191 -120c9.33301 -30 10.666 -60.667 3.99902 -92c-8 -36.667 -24.667 -70.667 -50 -102zM1362 878.001l-187.001 -877.999h-322l26 121h-4c-40 -58 -89.333 -99.667 -148 -125
c-50.667 -22 -110.667 -33 -180 -33c-144.667 0 -246 47.667 -304 143c-31.333 53.333 -48.333 108.666 -51 165.999c-1.33301 43.333 6.66699 105 24 185l144 680h340l-134 -629c-15.333 -73.333 -15.666 -127.333 -0.999023 -162c19.333 -43.333 64.333 -65 135 -65
c130 0 211.333 77 244 231l133 625h340l-21 -98c58.667 33.333 94 78 106 134h-80l48 228h229l-50 -235c-30 -96.667 -77 -168.667 -141 -216c-47.333 -34.667 -96 -58.667 -146 -72z" />
    <glyph glyph-name="uni1EEE" unicode="&#x1eee;" horiz-adv-x="1429" 
d="M1479 1739c-90.667 -50.667 -172.998 -76 -246.998 -76c-22.667 0 -49 2.66699 -79 8l-161 37c-28.667 5.33301 -54 8 -76 8c-24.667 0 -50.667 -4 -78 -12l-78 -27l-84 181c42 21.333 81.333 38 118 50c44 14 84.667 21 122 21c25.333 0 52.666 -2.66699 81.999 -8
c11.333 -2 24.333 -4.66699 39 -8l78 -19c14.667 -3.33301 28 -6 40 -8c29.333 -5.33301 56.666 -8 81.999 -8c44.667 0 96.667 11.667 156 35zM1563 1257l-140.001 -657.002c-22 -103.333 -48.333 -187 -79 -251c-40.667 -82 -97.667 -153.333 -171 -214
c-130 -109.333 -282.667 -164 -458 -164c-84.667 0 -161 12.333 -229 37c-75.333 28 -133 69.667 -173 125c-49.333 67.333 -76.666 139.333 -81.999 216c-2 34.667 0 73.667 6 117c4 34.667 11.667 79.334 23 134.001l195 916h387l-195 -916
c-8 -40 -13.333 -74.333 -16 -103c-2 -36.667 0.666992 -67.667 8 -93c17.333 -62 65.333 -93 144 -93c81.333 0 142.333 30.333 183 91c17.333 24.667 32 55.334 44 92.001c8 26.667 16.667 62 26 106l195 916h387l-17 -81c33.333 28.667 54.333 63.667 63 105h-80l49 228
h229l-50 -235c-30 -96.667 -77 -168.667 -141 -216c-35.333 -25.333 -71.333 -45.333 -108 -60z" />
    <glyph glyph-name="uni1EEF" unicode="&#x1eef;" horiz-adv-x="1298" 
d="M1397 1409c-91.333 -50.667 -174.002 -76 -248.002 -76c-22.667 0 -48.667 3 -78 9l-162 36c-29.333 5.33301 -54.666 8 -75.999 8c-24.667 0 -50.667 -3.66699 -78 -11l-78 -27l-85 180c42.667 22 82.334 38.667 119.001 50c44 14 84.667 21 122 21
c24.667 0 52 -2.66699 82 -8c11.333 -2 24.333 -4.66699 39 -8l79 -19c14 -3.33301 27 -6 39 -8c29.333 -5.33301 56.333 -8 81 -8c45.333 0 98 11.667 158 35zM1362 878l-187.001 -877.999h-322l26 121h-4c-40 -58 -89.333 -99.667 -148 -125
c-50.667 -22 -110.667 -33 -180 -33c-144.667 0 -246 47.667 -304 143c-31.333 53.333 -48.333 108.666 -51 165.999c-1.33301 43.333 6.66699 105 24 185l144 680h340l-134 -629c-15.333 -73.333 -15.666 -127.333 -0.999023 -162c19.333 -43.333 64.333 -65 135 -65
c130 0 211.333 77 244 231l133 625h340l-21 -98c58.667 33.333 94 78 106 134h-80l48 228h229l-50 -235c-30 -96.667 -77 -168.667 -141 -216c-47.333 -34.667 -96 -58.667 -146 -72z" />
    <glyph glyph-name="uni1EF0" unicode="&#x1ef0;" horiz-adv-x="1429" 
d="M447 -491l66 309h326l-66 -309h-326zM1563 1257l-140.001 -657.002c-22 -103.333 -48.333 -187 -79 -251c-40.667 -82 -97.667 -153.333 -171 -214c-130 -109.333 -282.667 -164 -458 -164c-84.667 0 -161 12.333 -229 37c-75.333 28 -133 69.667 -173 125
c-49.333 67.333 -76.666 139.333 -81.999 216c-2 34.667 0 73.667 6 117c4 34.667 11.667 79.334 23 134.001l195 916h387l-195 -916c-8 -40 -13.333 -74.333 -16 -103c-2 -36.667 0.666992 -67.667 8 -93c17.333 -62 65.333 -93 144 -93c81.333 0 142.333 30.333 183 91
c17.333 24.667 32 55.334 44 92.001c8 26.667 16.667 62 26 106l195 916h387l-17 -81c33.333 28.667 54.333 63.667 63 105h-80l49 228h229l-50 -235c-30 -96.667 -77 -168.667 -141 -216c-35.333 -25.333 -71.333 -45.333 -108 -60z" />
    <glyph glyph-name="uni1EF1" unicode="&#x1ef1;" horiz-adv-x="1298" 
d="M414 -491l66 309h326l-66 -309h-326zM1362 878l-187.001 -877.999h-322l26 121h-4c-40 -58 -89.333 -99.667 -148 -125c-50.667 -22 -110.667 -33 -180 -33c-144.667 0 -246 47.667 -304 143c-31.333 53.333 -48.333 108.666 -51 165.999
c-1.33301 43.333 6.66699 105 24 185l144 680h340l-134 -629c-15.333 -73.333 -15.666 -127.333 -0.999023 -162c19.333 -43.333 64.333 -65 135 -65c130 0 211.333 77 244 231l133 625h340l-21 -98c58.667 33.333 94 78 106 134h-80l48 228h229l-50 -235
c-30 -96.667 -77 -168.667 -141 -216c-47.333 -34.667 -96 -58.667 -146 -72z" />
    <glyph glyph-name="Ygrave" unicode="&#x1ef2;" horiz-adv-x="1325" 
d="M975 551l-117 -551h-387l117 551l-248 965h420l96 -609l356 609h416zM1147 1589l-460 221l156 240l440 -262z" />
    <glyph glyph-name="ygrave" unicode="&#x1ef3;" horiz-adv-x="1175" 
d="M523 -379h-360l273 436l-193 1080h362l88 -660h4l357 660h360zM570 1495l161 242l435 -264l-139 -201z" />
    <glyph glyph-name="uni1EF4" unicode="&#x1ef4;" horiz-adv-x="1325" 
d="M975 551l-117 -551h-387l117 551l-248 965h420l96 -609l356 609h416zM399 -491l66 309h326l-66 -309h-326z" />
    <glyph glyph-name="uni1EF5" unicode="&#x1ef5;" horiz-adv-x="1175" 
d="M523 -379h-360l273 436l-193 1080h362l88 -660h4l357 660h360zM608 -491l66 309h326l-66 -309h-326z" />
    <glyph glyph-name="uni1EF6" unicode="&#x1ef6;" horiz-adv-x="1325" 
d="M975 551l-117 -551h-387l117 551l-248 965h420l96 -609l356 609h416zM1296 1821c-10.667 -12.667 -23 -25.666 -37 -38.999c-12 -10.667 -26 -22.334 -42 -35.001l-41 -32c-16 -12 -28.333 -22.333 -37 -31c-26 -23.333 -42.333 -46 -49 -68h-174
c7.33301 30.667 23 60.667 47 90c10 11.333 22 23.333 36 36c10 9.33301 22.667 20.333 38 33l39 31c13.333 12 24.333 22.333 33 31c22 22.667 35.333 44.334 40 65.001c8.66699 41.333 -6.33301 62 -45 62c-27.333 0 -48.333 -10 -63 -30
c-10 -13.333 -18.667 -35.333 -26 -66h-183c0.666992 2.66699 1.33398 5.66699 2.00098 9l1 9c15.333 73.333 53.666 133.666 114.999 180.999c60 45.333 127 68 201 68c102 0 165.333 -40 190 -120c10 -30 11.667 -60.667 5 -92c-8 -36.667 -24.667 -70.667 -50 -102z" />
    <glyph glyph-name="uni1EF7" unicode="&#x1ef7;" horiz-adv-x="1175" 
d="M523 -379h-360l273 436l-193 1080h362l88 -660h4l357 660h360zM1184 1487c-10.667 -12.667 -23.332 -25.666 -37.999 -38.999c-11.333 -10.667 -25 -22.334 -41 -35.001l-41 -32c-16 -12 -28.333 -22.333 -37 -31c-26 -23.333 -42.333 -46 -49 -68h-174
c7.33301 30.667 23 60.667 47 90c10 11.333 22 23.333 36 36c10 9.33301 22.667 20.333 38 33l38 31c14 12 25.333 22.333 34 31c22 22.667 35.333 44.334 40 65.001c8.66699 41.333 -6.33301 62 -45 62c-27.333 0 -48.333 -10 -63 -30
c-10.667 -13.333 -19.334 -35.333 -26.001 -66h-183c0 2.66699 0.666992 5.66699 2 9v9c16 73.333 54.667 133.666 116 180.999c59.333 45.333 126 68 200 68c102 0 165.667 -40 191 -120c9.33301 -30 10.666 -60.667 3.99902 -92
c-7.33301 -36.667 -23.666 -70.667 -48.999 -102z" />
    <glyph glyph-name="uni1EF8" unicode="&#x1ef8;" horiz-adv-x="1325" 
d="M975 551l-117 -551h-387l117 551l-248 965h420l96 -609l356 609h416zM1479 1739c-91.333 -50.667 -174 -76 -248 -76c-22.667 0 -48.667 2.66699 -78 8l-161 37c-29.333 5.33301 -54.666 8 -75.999 8c-24.667 0 -51 -4 -79 -12l-78 -27l-84 181
c42 21.333 81.333 38 118 50c44.667 14 85.667 21 123 21c24.667 0 51.667 -2.66699 81 -8c11.333 -2 24.333 -4.66699 39 -8l79 -19c14 -3.33301 27.333 -6 40 -8c29.333 -5.33301 56.333 -8 81 -8c45.333 0 97.666 11.667 156.999 35z" />
    <glyph glyph-name="uni1EF9" unicode="&#x1ef9;" horiz-adv-x="1175" 
d="M523 -379h-360l273 436l-193 1080h362l88 -660h4l357 660h360zM1332 1409c-91.333 -50.667 -174.001 -76 -248.001 -76c-22.667 0 -48.667 3 -78 9l-162 36c-29.333 5.33301 -54.666 8 -75.999 8c-24.667 0 -50.667 -3.66699 -78 -11l-78 -27l-85 180
c42.667 22 82.334 38.667 119.001 50c44 14 84.667 21 122 21c24.667 0 52 -2.66699 82 -8c11.333 -2 24.333 -4.66699 39 -8l79 -19c14 -3.33301 27 -6 39 -8c30 -5.33301 57.333 -8 82 -8c45.333 0 97.666 11.667 156.999 35z" />
    <glyph glyph-name="quoteleft" unicode="&#x2018;" horiz-adv-x="631" 
d="M315 838l90.999 430c14.667 68 44.334 125 89.001 171c49.333 51.333 107 77 173 77h147l-39 -185l-50 1c-21.333 -0.666992 -39.333 -2.66699 -54 -6c-40.667 -9.33301 -65 -33 -73 -71l-15 -69h161l-74 -348h-356z" />
    <glyph glyph-name="quoteright" unicode="&#x2019;" horiz-adv-x="612" 
d="M724 1085c-15.333 -69.333 -44.667 -126.666 -88 -171.999c-48.667 -50 -106.667 -75 -174 -75h-147l39 182l50 -1c22 0.666992 40.333 2.66699 55 6c40.667 9.33301 65 33.666 73 72.999l15 69h-162l74 349h356z" />
    <glyph glyph-name="quotedblleft" unicode="&#x201c;" horiz-adv-x="1136" 
d="M821 838l90.999 430c14.667 68 44.334 125 89.001 171c49.333 51.333 107 77 173 77h147l-39 -185l-50 1c-21.333 -0.666992 -39.333 -2.66699 -54 -6c-41.333 -9.33301 -66 -33 -74 -71l-15 -69h162l-74 -348h-356zM314.999 838l90.999 430
c14.667 68 44.334 125 89.001 171c49.333 51.333 107 77 173 77h147l-39 -185l-50 1c-21.333 -0.666992 -39.333 -2.66699 -54 -6c-40.667 -9.33301 -65 -33 -73 -71l-15 -69h161l-74 -348h-356z" />
    <glyph glyph-name="quotedblright" unicode="&#x201d;" horiz-adv-x="1136" 
d="M1230 1085c-15.333 -69.333 -44.667 -126.666 -88 -171.999c-48.667 -50 -106.667 -75 -174 -75h-147l39 182l50 -1c21.333 0.666992 39.333 2.66699 54 6c40 9.33301 64 33.666 72 72.999l15 69h-160l74 349h356zM723.999 1085
c-15.333 -69.333 -44.667 -126.666 -88 -171.999c-48.667 -50 -106.667 -75 -174 -75h-147l39 182l50 -1c22 0.666992 40.333 2.66699 55 6c40.667 9.33301 65 33.666 73 72.999l15 69h-162l74 349h356z" />
    <glyph glyph-name="ellipsis" unicode="&#x2026;" horiz-adv-x="2048" 
d="M1529 0l74 348h354l-74 -348h-354zM847 0l74 348h354l-74 -348h-354zM165 0l74 348h354l-74 -348h-354z" />
    <glyph glyph-name=".null" horiz-adv-x="0" 
 />
    <glyph glyph-name="nonmarkingreturn" horiz-adv-x="571" 
 />
    <glyph glyph-name="ugrave" horiz-adv-x="582" 
 />
    <glyph glyph-name="uacute" horiz-adv-x="580" 
 />
    <glyph glyph-name="yacute" horiz-adv-x="629" 
 />
    </font>
</defs>
</svg>
